%TF.GenerationSoftware,KiCad,Pcbnew,7.0.1*%
%TF.CreationDate,2023-03-30T13:35:16-06:00*%
%TF.ProjectId,Phase_A_UnoShield,50686173-655f-4415-9f55-6e6f53686965,rev?*%
%TF.SameCoordinates,Original*%
%TF.FileFunction,Copper,L1,Top*%
%TF.FilePolarity,Positive*%
%FSLAX46Y46*%
G04 Gerber Fmt 4.6, Leading zero omitted, Abs format (unit mm)*
G04 Created by KiCad (PCBNEW 7.0.1) date 2023-03-30 13:35:16*
%MOMM*%
%LPD*%
G01*
G04 APERTURE LIST*
%TA.AperFunction,ComponentPad*%
%ADD10R,1.700000X1.700000*%
%TD*%
%TA.AperFunction,ComponentPad*%
%ADD11O,1.700000X1.700000*%
%TD*%
%TA.AperFunction,ComponentPad*%
%ADD12R,1.800000X1.800000*%
%TD*%
%TA.AperFunction,ComponentPad*%
%ADD13C,1.800000*%
%TD*%
%TA.AperFunction,ComponentPad*%
%ADD14R,2.400000X1.600000*%
%TD*%
%TA.AperFunction,ComponentPad*%
%ADD15O,2.400000X1.600000*%
%TD*%
%TA.AperFunction,ComponentPad*%
%ADD16C,1.600000*%
%TD*%
%TA.AperFunction,ComponentPad*%
%ADD17O,1.600000X1.600000*%
%TD*%
%TA.AperFunction,ComponentPad*%
%ADD18R,2.000000X2.000000*%
%TD*%
%TA.AperFunction,ComponentPad*%
%ADD19C,2.000000*%
%TD*%
%TA.AperFunction,ComponentPad*%
%ADD20O,3.048000X1.850000*%
%TD*%
%TA.AperFunction,ComponentPad*%
%ADD21R,1.500000X1.500000*%
%TD*%
%TA.AperFunction,ComponentPad*%
%ADD22C,1.500000*%
%TD*%
%TA.AperFunction,Conductor*%
%ADD23C,0.250000*%
%TD*%
G04 APERTURE END LIST*
D10*
%TO.P,J1,1,Pin_1*%
%TO.N,unconnected-(J1-Pin_1-Pad1)*%
X127940000Y-97460000D03*
D11*
%TO.P,J1,2,Pin_2*%
%TO.N,/IOREF*%
X130480000Y-97460000D03*
%TO.P,J1,3,Pin_3*%
%TO.N,/~{RESET}*%
X133020000Y-97460000D03*
%TO.P,J1,4,Pin_4*%
%TO.N,+3V3*%
X135560000Y-97460000D03*
%TO.P,J1,5,Pin_5*%
%TO.N,+5V*%
X138100000Y-97460000D03*
%TO.P,J1,6,Pin_6*%
%TO.N,GND*%
X140640000Y-97460000D03*
%TO.P,J1,7,Pin_7*%
X143180000Y-97460000D03*
%TO.P,J1,8,Pin_8*%
%TO.N,VCC*%
X145720000Y-97460000D03*
%TD*%
D10*
%TO.P,J3,1,Pin_1*%
%TO.N,/A0*%
X150800000Y-97460000D03*
D11*
%TO.P,J3,2,Pin_2*%
%TO.N,/A1*%
X153340000Y-97460000D03*
%TO.P,J3,3,Pin_3*%
%TO.N,/A2*%
X155880000Y-97460000D03*
%TO.P,J3,4,Pin_4*%
%TO.N,/A3*%
X158420000Y-97460000D03*
%TO.P,J3,5,Pin_5*%
%TO.N,/SDA{slash}A4*%
X160960000Y-97460000D03*
%TO.P,J3,6,Pin_6*%
%TO.N,/SCL{slash}A5*%
X163500000Y-97460000D03*
%TD*%
D10*
%TO.P,J2,1,Pin_1*%
%TO.N,unconnected-(J2-Pin_1-Pad1)*%
X118796000Y-49200000D03*
D11*
%TO.P,J2,2,Pin_2*%
%TO.N,unconnected-(J2-Pin_2-Pad2)*%
X121336000Y-49200000D03*
%TO.P,J2,3,Pin_3*%
%TO.N,unconnected-(J2-Pin_3-Pad3)*%
X123876000Y-49200000D03*
%TO.P,J2,4,Pin_4*%
%TO.N,GND*%
X126416000Y-49200000D03*
%TO.P,J2,5,Pin_5*%
%TO.N,Dig1*%
X128956000Y-49200000D03*
%TO.P,J2,6,Pin_6*%
%TO.N,Dig2*%
X131496000Y-49200000D03*
%TO.P,J2,7,Pin_7*%
%TO.N,Dig3*%
X134036000Y-49200000D03*
%TO.P,J2,8,Pin_8*%
%TO.N,Dig4*%
X136576000Y-49200000D03*
%TO.P,J2,9,Pin_9*%
%TO.N,DS*%
X139116000Y-49200000D03*
%TO.P,J2,10,Pin_10*%
%TO.N,ST_CP*%
X141656000Y-49200000D03*
%TD*%
D10*
%TO.P,J4,1,Pin_1*%
%TO.N,SH_CP*%
X145720000Y-49200000D03*
D11*
%TO.P,J4,2,Pin_2*%
%TO.N,Buzzer*%
X148260000Y-49200000D03*
%TO.P,J4,3,Pin_3*%
%TO.N,RED_LED*%
X150800000Y-49200000D03*
%TO.P,J4,4,Pin_4*%
%TO.N,GREEN_LED*%
X153340000Y-49200000D03*
%TO.P,J4,5,Pin_5*%
%TO.N,Button_2*%
X155880000Y-49200000D03*
%TO.P,J4,6,Pin_6*%
%TO.N,Button_1*%
X158420000Y-49200000D03*
%TO.P,J4,7,Pin_7*%
%TO.N,/TX{slash}1*%
X160960000Y-49200000D03*
%TO.P,J4,8,Pin_8*%
%TO.N,/RX{slash}0*%
X163500000Y-49200000D03*
%TD*%
D12*
%TO.P,D2,1,K*%
%TO.N,GND*%
X193980000Y-56468000D03*
D13*
%TO.P,D2,2,A*%
%TO.N,Net-(D2-A)*%
X191440000Y-56468000D03*
%TD*%
D14*
%TO.P,U2,1,QB*%
%TO.N,b*%
X195240000Y-89840000D03*
D15*
%TO.P,U2,2,QC*%
%TO.N,c*%
X195240000Y-87300000D03*
%TO.P,U2,3,QD*%
%TO.N,d*%
X195240000Y-84760000D03*
%TO.P,U2,4,QE*%
%TO.N,e*%
X195240000Y-82220000D03*
%TO.P,U2,5,QF*%
%TO.N,f*%
X195240000Y-79680000D03*
%TO.P,U2,6,QG*%
%TO.N,g*%
X195240000Y-77140000D03*
%TO.P,U2,7,QH*%
%TO.N,dp*%
X195240000Y-74600000D03*
%TO.P,U2,8,GND*%
%TO.N,GND*%
X195240000Y-72060000D03*
%TO.P,U2,9,QH'*%
%TO.N,unconnected-(U2-QH'-Pad9)*%
X187620000Y-72060000D03*
%TO.P,U2,10,~{SRCLR}*%
%TO.N,+5V*%
X187620000Y-74600000D03*
%TO.P,U2,11,SRCLK*%
%TO.N,SH_CP*%
X187620000Y-77140000D03*
%TO.P,U2,12,RCLK*%
%TO.N,ST_CP*%
X187620000Y-79680000D03*
%TO.P,U2,13,~{OE}*%
%TO.N,GND*%
X187620000Y-82220000D03*
%TO.P,U2,14,SER*%
%TO.N,DS*%
X187620000Y-84760000D03*
%TO.P,U2,15,QA*%
%TO.N,a*%
X187620000Y-87300000D03*
%TO.P,U2,16,VCC*%
%TO.N,+5V*%
X187620000Y-89840000D03*
%TD*%
D16*
%TO.P,R8,1*%
%TO.N,d*%
X178740000Y-83180000D03*
D17*
%TO.P,R8,2*%
%TO.N,Net-(U1-d)*%
X168580000Y-83180000D03*
%TD*%
D16*
%TO.P,R5,1*%
%TO.N,a*%
X196520000Y-66980000D03*
D17*
%TO.P,R5,2*%
%TO.N,Net-(U1-a)*%
X186360000Y-66980000D03*
%TD*%
D12*
%TO.P,D1,1,K*%
%TO.N,GND*%
X176200000Y-56468000D03*
D13*
%TO.P,D1,2,A*%
%TO.N,Net-(D1-A)*%
X173660000Y-56468000D03*
%TD*%
D16*
%TO.P,R1,1*%
%TO.N,Button_1*%
X107620000Y-92380000D03*
D17*
%TO.P,R1,2*%
%TO.N,GND*%
X117780000Y-92380000D03*
%TD*%
D18*
%TO.P,LS1,1,1*%
%TO.N,Buzzer*%
X164760000Y-59360000D03*
D19*
%TO.P,LS1,2,2*%
%TO.N,GND*%
X157160000Y-59360000D03*
%TD*%
D16*
%TO.P,R2,1*%
%TO.N,Button_2*%
X125400000Y-92380000D03*
D17*
%TO.P,R2,2*%
%TO.N,GND*%
X135560000Y-92380000D03*
%TD*%
D20*
%TO.P,SW1,1,1*%
%TO.N,+5V*%
X106460000Y-79720000D03*
X118960000Y-79720000D03*
%TO.P,SW1,2,2*%
%TO.N,Button_1*%
X106460000Y-84720000D03*
X118960000Y-84720000D03*
%TD*%
%TO.P,SW2,1,1*%
%TO.N,+5V*%
X124240000Y-79720000D03*
X136740000Y-79720000D03*
%TO.P,SW2,2,2*%
%TO.N,Button_2*%
X124240000Y-84720000D03*
X136740000Y-84720000D03*
%TD*%
D21*
%TO.P,U1,1,e*%
%TO.N,Net-(U1-e)*%
X120320000Y-69520000D03*
D22*
%TO.P,U1,2,d*%
%TO.N,Net-(U1-d)*%
X122860000Y-69520000D03*
%TO.P,U1,3,DPX*%
%TO.N,Net-(U1-DPX)*%
X125400000Y-69520000D03*
%TO.P,U1,4,c*%
%TO.N,Net-(U1-c)*%
X127940000Y-69520000D03*
%TO.P,U1,5,g*%
%TO.N,Net-(U1-g)*%
X130480000Y-69520000D03*
%TO.P,U1,6,CA4*%
%TO.N,Dig4*%
X133020000Y-69520000D03*
%TO.P,U1,7,b*%
%TO.N,Net-(U1-b)*%
X133020000Y-54280000D03*
%TO.P,U1,8,CA3*%
%TO.N,Dig3*%
X130480000Y-54280000D03*
%TO.P,U1,9,CA2*%
%TO.N,Dig2*%
X127940000Y-54280000D03*
%TO.P,U1,10,f*%
%TO.N,Net-(U1-f)*%
X125400000Y-54280000D03*
%TO.P,U1,11,a*%
%TO.N,Net-(U1-a)*%
X122860000Y-54280000D03*
%TO.P,U1,12,CA1*%
%TO.N,Dig1*%
X120320000Y-54280000D03*
%TD*%
D17*
%TO.P,R12,2*%
%TO.N,Net-(U1-DPX)*%
X168580000Y-66980000D03*
D16*
%TO.P,R12,1*%
%TO.N,dp*%
X178740000Y-66980000D03*
%TD*%
%TO.P,R10,1*%
%TO.N,f*%
X178740000Y-75080000D03*
D17*
%TO.P,R10,2*%
%TO.N,Net-(U1-f)*%
X168580000Y-75080000D03*
%TD*%
D16*
%TO.P,R9,1*%
%TO.N,e*%
X178740000Y-79130000D03*
D17*
%TO.P,R9,2*%
%TO.N,Net-(U1-e)*%
X168580000Y-79130000D03*
%TD*%
D16*
%TO.P,R6,1*%
%TO.N,b*%
X178740000Y-91280000D03*
D17*
%TO.P,R6,2*%
%TO.N,Net-(U1-b)*%
X168580000Y-91280000D03*
%TD*%
D16*
%TO.P,R3,1*%
%TO.N,RED_LED*%
X181280000Y-49200000D03*
D17*
%TO.P,R3,2*%
%TO.N,Net-(D1-A)*%
X181280000Y-59360000D03*
%TD*%
D16*
%TO.P,R7,1*%
%TO.N,c*%
X178740000Y-87230000D03*
D17*
%TO.P,R7,2*%
%TO.N,Net-(U1-c)*%
X168580000Y-87230000D03*
%TD*%
%TO.P,R11,2*%
%TO.N,Net-(U1-g)*%
X168580000Y-71030000D03*
D16*
%TO.P,R11,1*%
%TO.N,g*%
X178740000Y-71030000D03*
%TD*%
%TO.P,R4,1*%
%TO.N,GREEN_LED*%
X186360000Y-49200000D03*
D17*
%TO.P,R4,2*%
%TO.N,Net-(D2-A)*%
X186360000Y-59360000D03*
%TD*%
D23*
%TO.N,Net-(U1-DPX)*%
X169747900Y-69273000D02*
X168580000Y-68105100D01*
X169747900Y-71460200D02*
X169747900Y-69273000D01*
X169051200Y-72156900D02*
X169747900Y-71460200D01*
X131576900Y-72156900D02*
X169051200Y-72156900D01*
X129210000Y-69790000D02*
X131576900Y-72156900D01*
X129210000Y-69264800D02*
X129210000Y-69790000D01*
X128361600Y-68416400D02*
X129210000Y-69264800D01*
X126503600Y-68416400D02*
X128361600Y-68416400D01*
X125400000Y-69520000D02*
X126503600Y-68416400D01*
X168580000Y-66980000D02*
X168580000Y-68105100D01*
%TO.N,dp*%
X195240000Y-74600000D02*
X196765100Y-74600000D01*
X196765100Y-74085700D02*
X196765100Y-74600000D01*
X195864500Y-73185100D02*
X196765100Y-74085700D01*
X194374000Y-73185100D02*
X195864500Y-73185100D01*
X191436900Y-70248000D02*
X194374000Y-73185100D01*
X182008000Y-70248000D02*
X191436900Y-70248000D01*
X178740000Y-66980000D02*
X182008000Y-70248000D01*
%TO.N,Net-(U1-g)*%
X167361700Y-71123200D02*
X167454900Y-71030000D01*
X132083200Y-71123200D02*
X167361700Y-71123200D01*
X130480000Y-69520000D02*
X132083200Y-71123200D01*
X168580000Y-71030000D02*
X167454900Y-71030000D01*
%TO.N,g*%
X189904900Y-73330000D02*
X193714900Y-77140000D01*
X181040000Y-73330000D02*
X189904900Y-73330000D01*
X178740000Y-71030000D02*
X181040000Y-73330000D01*
X195240000Y-77140000D02*
X193714900Y-77140000D01*
%TO.N,Net-(U1-f)*%
X125400000Y-61891900D02*
X125400000Y-54280000D01*
X131699500Y-68191400D02*
X125400000Y-61891900D01*
X131699500Y-69765800D02*
X131699500Y-68191400D01*
X132535000Y-70601300D02*
X131699500Y-69765800D01*
X135664900Y-70601300D02*
X132535000Y-70601300D01*
X140411400Y-65854800D02*
X135664900Y-70601300D01*
X169085900Y-65854800D02*
X140411400Y-65854800D01*
X170198100Y-66967000D02*
X169085900Y-65854800D01*
X170198100Y-72336800D02*
X170198100Y-66967000D01*
X168580000Y-73954900D02*
X170198100Y-72336800D01*
X168580000Y-75080000D02*
X168580000Y-73954900D01*
%TO.N,f*%
X192444900Y-78410000D02*
X193714900Y-79680000D01*
X182070000Y-78410000D02*
X192444900Y-78410000D01*
X178740000Y-75080000D02*
X182070000Y-78410000D01*
X195240000Y-79680000D02*
X193714900Y-79680000D01*
%TO.N,Net-(U1-e)*%
X120320000Y-69520000D02*
X121395100Y-69520000D01*
X168580000Y-79130000D02*
X167454900Y-79130000D01*
X121395100Y-69385600D02*
X121395100Y-69520000D01*
X122338000Y-68442700D02*
X121395100Y-69385600D01*
X123322500Y-68442700D02*
X122338000Y-68442700D01*
X124129900Y-69250100D02*
X123322500Y-68442700D01*
X124129900Y-69814500D02*
X124129900Y-69250100D01*
X132199800Y-77884400D02*
X124129900Y-69814500D01*
X166209300Y-77884400D02*
X132199800Y-77884400D01*
X167454900Y-79130000D02*
X166209300Y-77884400D01*
%TO.N,e*%
X192444900Y-80950000D02*
X193714900Y-82220000D01*
X180560000Y-80950000D02*
X192444900Y-80950000D01*
X178740000Y-79130000D02*
X180560000Y-80950000D01*
X195240000Y-82220000D02*
X193714900Y-82220000D01*
%TO.N,Net-(U1-d)*%
X162688800Y-78413900D02*
X167454900Y-83180000D01*
X131753900Y-78413900D02*
X162688800Y-78413900D01*
X122860000Y-69520000D02*
X131753900Y-78413900D01*
X168580000Y-83180000D02*
X167454900Y-83180000D01*
%TO.N,d*%
X192300100Y-83345200D02*
X193714900Y-84760000D01*
X178905200Y-83345200D02*
X192300100Y-83345200D01*
X178740000Y-83180000D02*
X178905200Y-83345200D01*
X195240000Y-84760000D02*
X193714900Y-84760000D01*
%TO.N,Net-(U1-c)*%
X169728600Y-84956300D02*
X168580000Y-86104900D01*
X169728600Y-78676600D02*
X169728600Y-84956300D01*
X168157000Y-77105000D02*
X169728600Y-78676600D01*
X135525000Y-77105000D02*
X168157000Y-77105000D01*
X127940000Y-69520000D02*
X135525000Y-77105000D01*
X168580000Y-87230000D02*
X168580000Y-86104900D01*
%TO.N,c*%
X192552300Y-86137400D02*
X193714900Y-87300000D01*
X179832600Y-86137400D02*
X192552300Y-86137400D01*
X178740000Y-87230000D02*
X179832600Y-86137400D01*
X195240000Y-87300000D02*
X193714900Y-87300000D01*
%TO.N,Net-(U1-b)*%
X168580000Y-91280000D02*
X168580000Y-90154900D01*
X144031500Y-65291500D02*
X133020000Y-54280000D01*
X169159200Y-65291500D02*
X144031500Y-65291500D01*
X170648200Y-66780500D02*
X169159200Y-65291500D01*
X170648200Y-88086700D02*
X170648200Y-66780500D01*
X168580000Y-90154900D02*
X170648200Y-88086700D01*
%TO.N,b*%
X192274900Y-91280000D02*
X193714900Y-89840000D01*
X178740000Y-91280000D02*
X192274900Y-91280000D01*
X195240000Y-89840000D02*
X193714900Y-89840000D01*
%TO.N,Net-(U1-a)*%
X125150300Y-51989700D02*
X122860000Y-54280000D01*
X127914400Y-51989700D02*
X125150300Y-51989700D01*
X130226000Y-49678100D02*
X127914400Y-51989700D01*
X130226000Y-48781900D02*
X130226000Y-49678100D01*
X130989000Y-48018900D02*
X130226000Y-48781900D01*
X146704900Y-48018900D02*
X130989000Y-48018900D01*
X146895200Y-48209200D02*
X146704900Y-48018900D01*
X146895200Y-49500400D02*
X146895200Y-48209200D01*
X154377400Y-56982600D02*
X146895200Y-49500400D01*
X156852500Y-56982600D02*
X154377400Y-56982600D01*
X160848200Y-60978300D02*
X156852500Y-56982600D01*
X179233200Y-60978300D02*
X160848200Y-60978300D01*
X185234900Y-66980000D02*
X179233200Y-60978300D01*
X186360000Y-66980000D02*
X185234900Y-66980000D01*
%TO.N,a*%
X190312400Y-88467300D02*
X189145100Y-87300000D01*
X196089200Y-88467300D02*
X190312400Y-88467300D01*
X197688700Y-86867800D02*
X196089200Y-88467300D01*
X197688700Y-68148700D02*
X197688700Y-86867800D01*
X196520000Y-66980000D02*
X197688700Y-68148700D01*
X187620000Y-87300000D02*
X189145100Y-87300000D01*
%TO.N,Button_1*%
X107620000Y-84720000D02*
X107620000Y-92380000D01*
X118960000Y-84720000D02*
X107620000Y-84720000D01*
X158420000Y-49200000D02*
X157244900Y-49200000D01*
X107620000Y-84720000D02*
X106460000Y-84720000D01*
X157244900Y-48834800D02*
X157244900Y-49200000D01*
X155469600Y-47059500D02*
X157244900Y-48834800D01*
X124291000Y-47059500D02*
X155469600Y-47059500D01*
X122606000Y-48744500D02*
X124291000Y-47059500D01*
X122606000Y-49795700D02*
X122606000Y-48744500D01*
X104610900Y-67790800D02*
X122606000Y-49795700D01*
X104610900Y-84720000D02*
X104610900Y-67790800D01*
X106460000Y-84720000D02*
X104610900Y-84720000D01*
%TO.N,Button_2*%
X124240000Y-84720000D02*
X125164600Y-84720000D01*
X125164600Y-84720000D02*
X125400000Y-84955400D01*
X125400000Y-84955400D02*
X125400000Y-92380000D01*
X154226000Y-47546000D02*
X155880000Y-49200000D01*
X126390200Y-47546000D02*
X154226000Y-47546000D01*
X125146000Y-48790200D02*
X126390200Y-47546000D01*
X125146000Y-49592700D02*
X125146000Y-48790200D01*
X123969300Y-50769400D02*
X125146000Y-49592700D01*
X122299700Y-50769400D02*
X123969300Y-50769400D01*
X119216500Y-53852600D02*
X122299700Y-50769400D01*
X119216500Y-70421800D02*
X119216500Y-53852600D01*
X126124600Y-77329900D02*
X119216500Y-70421800D01*
X126124600Y-84720000D02*
X126124600Y-77329900D01*
X136740000Y-84720000D02*
X126124600Y-84720000D01*
X125635400Y-84720000D02*
X125400000Y-84955400D01*
X126124600Y-84720000D02*
X125635400Y-84720000D01*
%TO.N,GREEN_LED*%
X153340000Y-49200000D02*
X154515100Y-49200000D01*
X154515100Y-49565300D02*
X154515100Y-49200000D01*
X155331800Y-50382000D02*
X154515100Y-49565300D01*
X185178000Y-50382000D02*
X155331800Y-50382000D01*
X186360000Y-49200000D02*
X185178000Y-50382000D01*
%TO.N,RED_LED*%
X151975100Y-49567200D02*
X151975100Y-49200000D01*
X153240300Y-50832400D02*
X151975100Y-49567200D01*
X186386800Y-50832400D02*
X153240300Y-50832400D01*
X187509600Y-49709600D02*
X186386800Y-50832400D01*
X187509600Y-48740500D02*
X187509600Y-49709600D01*
X186842200Y-48073100D02*
X187509600Y-48740500D01*
X182406900Y-48073100D02*
X186842200Y-48073100D01*
X181280000Y-49200000D02*
X182406900Y-48073100D01*
X150800000Y-49200000D02*
X151975100Y-49200000D01*
%TO.N,Buzzer*%
X164760000Y-59360000D02*
X163434900Y-59360000D01*
X148260000Y-49200000D02*
X149435100Y-49200000D01*
X149435100Y-49565200D02*
X149435100Y-49200000D01*
X156243200Y-56373300D02*
X149435100Y-49565200D01*
X160448200Y-56373300D02*
X156243200Y-56373300D01*
X163434900Y-59360000D02*
X160448200Y-56373300D01*
%TO.N,SH_CP*%
X187620000Y-77140000D02*
X186094900Y-77140000D01*
X145720000Y-49200000D02*
X145720000Y-50375100D01*
X156801400Y-61456500D02*
X145720000Y-50375100D01*
X167261200Y-61456500D02*
X156801400Y-61456500D01*
X182944700Y-77140000D02*
X167261200Y-61456500D01*
X186094900Y-77140000D02*
X182944700Y-77140000D01*
%TO.N,ST_CP*%
X141656000Y-49200000D02*
X142831100Y-49200000D01*
X155987800Y-62356700D02*
X142831100Y-49200000D01*
X167497600Y-62356700D02*
X155987800Y-62356700D01*
X171998500Y-66857600D02*
X167497600Y-62356700D01*
X171998500Y-69945300D02*
X171998500Y-66857600D01*
X181733200Y-79680000D02*
X171998500Y-69945300D01*
X187620000Y-79680000D02*
X181733200Y-79680000D01*
%TO.N,DS*%
X140291100Y-49565300D02*
X140291100Y-49200000D01*
X155567100Y-64841300D02*
X140291100Y-49565300D01*
X169345500Y-64841300D02*
X155567100Y-64841300D01*
X171323400Y-66819200D02*
X169345500Y-64841300D01*
X171323400Y-77372300D02*
X171323400Y-66819200D01*
X178711100Y-84760000D02*
X171323400Y-77372300D01*
X187620000Y-84760000D02*
X178711100Y-84760000D01*
X139116000Y-49200000D02*
X140291100Y-49200000D01*
%TO.N,Dig4*%
X136576000Y-49200000D02*
X136576000Y-50375100D01*
X135400900Y-50375100D02*
X136576000Y-50375100D01*
X131924500Y-53851500D02*
X135400900Y-50375100D01*
X131924500Y-67554500D02*
X131924500Y-53851500D01*
X133020000Y-68650000D02*
X131924500Y-67554500D01*
X133020000Y-69520000D02*
X133020000Y-68650000D01*
%TO.N,Dig3*%
X130480000Y-53931100D02*
X134036000Y-50375100D01*
X130480000Y-54280000D02*
X130480000Y-53931100D01*
X134036000Y-49200000D02*
X134036000Y-50375100D01*
%TO.N,Dig2*%
X127940000Y-53931100D02*
X131496000Y-50375100D01*
X127940000Y-54280000D02*
X127940000Y-53931100D01*
X131496000Y-49200000D02*
X131496000Y-50375100D01*
%TO.N,Dig1*%
X127780900Y-49565200D02*
X127780900Y-49200000D01*
X125905500Y-51440600D02*
X127780900Y-49565200D01*
X123159400Y-51440600D02*
X125905500Y-51440600D01*
X120320000Y-54280000D02*
X123159400Y-51440600D01*
X128956000Y-49200000D02*
X127780900Y-49200000D01*
%TO.N,Net-(D2-A)*%
X188548000Y-59360000D02*
X191440000Y-56468000D01*
X186360000Y-59360000D02*
X188548000Y-59360000D01*
%TO.N,Net-(D1-A)*%
X176552000Y-59360000D02*
X173660000Y-56468000D01*
X181280000Y-59360000D02*
X176552000Y-59360000D01*
%TO.N,+5V*%
X118960000Y-79720000D02*
X106460000Y-79720000D01*
X124240000Y-79720000D02*
X118960000Y-79720000D01*
X136740000Y-79720000D02*
X138589100Y-79720000D01*
X138100000Y-97460000D02*
X138100000Y-96284900D01*
X177568100Y-90860100D02*
X177568100Y-91738400D01*
X178588200Y-89840000D02*
X177568100Y-90860100D01*
X187620000Y-89840000D02*
X178588200Y-89840000D01*
X189866500Y-74600000D02*
X187620000Y-74600000D01*
X193598200Y-78331700D02*
X189866500Y-74600000D01*
X196070400Y-78331700D02*
X193598200Y-78331700D01*
X197224000Y-77178100D02*
X196070400Y-78331700D01*
X197224000Y-70554800D02*
X197224000Y-77178100D01*
X195344800Y-68675600D02*
X197224000Y-70554800D01*
X195344800Y-66477000D02*
X195344800Y-68675600D01*
X195994600Y-65827200D02*
X195344800Y-66477000D01*
X196962900Y-65827200D02*
X195994600Y-65827200D01*
X198138800Y-67003100D02*
X196962900Y-65827200D01*
X198138800Y-89401900D02*
X198138800Y-67003100D01*
X195114400Y-92426300D02*
X198138800Y-89401900D01*
X178256000Y-92426300D02*
X195114400Y-92426300D01*
X177568100Y-91738400D02*
X178256000Y-92426300D01*
X176898700Y-92407800D02*
X138589100Y-92407800D01*
X177568100Y-91738400D02*
X176898700Y-92407800D01*
X138589100Y-79720000D02*
X138589100Y-92407800D01*
X138589100Y-95795800D02*
X138100000Y-96284900D01*
X138589100Y-92407800D02*
X138589100Y-95795800D01*
%TD*%
M02*
