%TF.GenerationSoftware,KiCad,Pcbnew,7.0.1*%
%TF.CreationDate,2023-03-30T13:35:16-06:00*%
%TF.ProjectId,Phase_A_UnoShield,50686173-655f-4415-9f55-6e6f53686965,rev?*%
%TF.SameCoordinates,Original*%
%TF.FileFunction,Soldermask,Bot*%
%TF.FilePolarity,Negative*%
%FSLAX46Y46*%
G04 Gerber Fmt 4.6, Leading zero omitted, Abs format (unit mm)*
G04 Created by KiCad (PCBNEW 7.0.1) date 2023-03-30 13:35:16*
%MOMM*%
%LPD*%
G01*
G04 APERTURE LIST*
%ADD10R,1.700000X1.700000*%
%ADD11O,1.700000X1.700000*%
%ADD12R,1.800000X1.800000*%
%ADD13C,1.800000*%
%ADD14R,2.400000X1.600000*%
%ADD15O,2.400000X1.600000*%
%ADD16C,1.600000*%
%ADD17O,1.600000X1.600000*%
%ADD18R,2.000000X2.000000*%
%ADD19C,2.000000*%
%ADD20O,3.048000X1.850000*%
%ADD21R,1.500000X1.500000*%
%ADD22C,1.500000*%
G04 APERTURE END LIST*
D10*
%TO.C,J1*%
X127940000Y-97460000D03*
D11*
X130480000Y-97460000D03*
X133020000Y-97460000D03*
X135560000Y-97460000D03*
X138100000Y-97460000D03*
X140640000Y-97460000D03*
X143180000Y-97460000D03*
X145720000Y-97460000D03*
%TD*%
D10*
%TO.C,J3*%
X150800000Y-97460000D03*
D11*
X153340000Y-97460000D03*
X155880000Y-97460000D03*
X158420000Y-97460000D03*
X160960000Y-97460000D03*
X163500000Y-97460000D03*
%TD*%
D10*
%TO.C,J2*%
X118796000Y-49200000D03*
D11*
X121336000Y-49200000D03*
X123876000Y-49200000D03*
X126416000Y-49200000D03*
X128956000Y-49200000D03*
X131496000Y-49200000D03*
X134036000Y-49200000D03*
X136576000Y-49200000D03*
X139116000Y-49200000D03*
X141656000Y-49200000D03*
%TD*%
D10*
%TO.C,J4*%
X145720000Y-49200000D03*
D11*
X148260000Y-49200000D03*
X150800000Y-49200000D03*
X153340000Y-49200000D03*
X155880000Y-49200000D03*
X158420000Y-49200000D03*
X160960000Y-49200000D03*
X163500000Y-49200000D03*
%TD*%
D12*
%TO.C,D2*%
X193980000Y-56468000D03*
D13*
X191440000Y-56468000D03*
%TD*%
D14*
%TO.C,U2*%
X195240000Y-89840000D03*
D15*
X195240000Y-87300000D03*
X195240000Y-84760000D03*
X195240000Y-82220000D03*
X195240000Y-79680000D03*
X195240000Y-77140000D03*
X195240000Y-74600000D03*
X195240000Y-72060000D03*
X187620000Y-72060000D03*
X187620000Y-74600000D03*
X187620000Y-77140000D03*
X187620000Y-79680000D03*
X187620000Y-82220000D03*
X187620000Y-84760000D03*
X187620000Y-87300000D03*
X187620000Y-89840000D03*
%TD*%
D16*
%TO.C,R8*%
X178740000Y-83180000D03*
D17*
X168580000Y-83180000D03*
%TD*%
D16*
%TO.C,R5*%
X196520000Y-66980000D03*
D17*
X186360000Y-66980000D03*
%TD*%
D12*
%TO.C,D1*%
X176200000Y-56468000D03*
D13*
X173660000Y-56468000D03*
%TD*%
D16*
%TO.C,R1*%
X107620000Y-92380000D03*
D17*
X117780000Y-92380000D03*
%TD*%
D18*
%TO.C,LS1*%
X164760000Y-59360000D03*
D19*
X157160000Y-59360000D03*
%TD*%
D16*
%TO.C,R2*%
X125400000Y-92380000D03*
D17*
X135560000Y-92380000D03*
%TD*%
D20*
%TO.C,SW1*%
X106460000Y-79720000D03*
X118960000Y-79720000D03*
X106460000Y-84720000D03*
X118960000Y-84720000D03*
%TD*%
%TO.C,SW2*%
X124240000Y-79720000D03*
X136740000Y-79720000D03*
X124240000Y-84720000D03*
X136740000Y-84720000D03*
%TD*%
D21*
%TO.C,U1*%
X120320000Y-69520000D03*
D22*
X122860000Y-69520000D03*
X125400000Y-69520000D03*
X127940000Y-69520000D03*
X130480000Y-69520000D03*
X133020000Y-69520000D03*
X133020000Y-54280000D03*
X130480000Y-54280000D03*
X127940000Y-54280000D03*
X125400000Y-54280000D03*
X122860000Y-54280000D03*
X120320000Y-54280000D03*
%TD*%
D17*
%TO.C,R12*%
X168580000Y-66980000D03*
D16*
X178740000Y-66980000D03*
%TD*%
%TO.C,R10*%
X178740000Y-75080000D03*
D17*
X168580000Y-75080000D03*
%TD*%
D16*
%TO.C,R9*%
X178740000Y-79130000D03*
D17*
X168580000Y-79130000D03*
%TD*%
D16*
%TO.C,R6*%
X178740000Y-91280000D03*
D17*
X168580000Y-91280000D03*
%TD*%
D16*
%TO.C,R3*%
X181280000Y-49200000D03*
D17*
X181280000Y-59360000D03*
%TD*%
D16*
%TO.C,R7*%
X178740000Y-87230000D03*
D17*
X168580000Y-87230000D03*
%TD*%
%TO.C,R11*%
X168580000Y-71030000D03*
D16*
X178740000Y-71030000D03*
%TD*%
%TO.C,R4*%
X186360000Y-49200000D03*
D17*
X186360000Y-59360000D03*
%TD*%
M02*
