M48
; DRILL file {KiCad 7.0.1} date Thu Mar 30 13:35:12 2023
; FORMAT={-:-/ absolute / inch / decimal}
; #@! TF.CreationDate,2023-03-30T13:35:12-06:00
; #@! TF.GenerationSoftware,Kicad,Pcbnew,7.0.1
; #@! TF.FileFunction,Plated,1,2,PTH
FMAT,2
INCH
; #@! TA.AperFunction,Plated,PTH,ComponentDrill
T1C0.0315
; #@! TA.AperFunction,Plated,PTH,ComponentDrill
T2C0.0354
; #@! TA.AperFunction,Plated,PTH,ComponentDrill
T3C0.0394
; #@! TA.AperFunction,Plated,PTH,ComponentDrill
T4C0.0512
%
G90
G05
T1
X4.237Y-3.637
X4.637Y-3.637
X4.937Y-3.637
X5.337Y-3.637
X6.637Y-2.637
X6.637Y-2.7965
X6.637Y-2.9559
X6.637Y-3.1154
X6.637Y-3.2748
X6.637Y-3.4343
X6.637Y-3.5937
X7.037Y-2.637
X7.037Y-2.7965
X7.037Y-2.9559
X7.037Y-3.1154
X7.037Y-3.2748
X7.037Y-3.4343
X7.037Y-3.5937
X7.137Y-1.937
X7.137Y-2.337
X7.337Y-1.937
X7.337Y-2.337
X7.337Y-2.637
X7.3866Y-2.837
X7.3866Y-2.937
X7.3866Y-3.037
X7.3866Y-3.137
X7.3866Y-3.237
X7.3866Y-3.337
X7.3866Y-3.437
X7.3866Y-3.537
X7.6866Y-2.837
X7.6866Y-2.937
X7.6866Y-3.037
X7.6866Y-3.137
X7.6866Y-3.237
X7.6866Y-3.337
X7.6866Y-3.437
X7.6866Y-3.537
X7.737Y-2.637
T2
X6.837Y-2.2231
X6.937Y-2.2231
X7.537Y-2.2231
X7.637Y-2.2231
T3
X4.677Y-1.937
X4.737Y-2.137
X4.737Y-2.737
X4.777Y-1.937
X4.837Y-2.137
X4.837Y-2.737
X4.877Y-1.937
X4.937Y-2.137
X4.937Y-2.737
X4.977Y-1.937
X5.037Y-2.137
X5.037Y-2.737
X5.037Y-3.837
X5.077Y-1.937
X5.137Y-2.137
X5.137Y-2.737
X5.137Y-3.837
X5.177Y-1.937
X5.237Y-2.137
X5.237Y-2.737
X5.237Y-3.837
X5.277Y-1.937
X5.337Y-3.837
X5.377Y-1.937
X5.437Y-3.837
X5.477Y-1.937
X5.537Y-3.837
X5.577Y-1.937
X5.637Y-3.837
X5.737Y-1.937
X5.737Y-3.837
X5.837Y-1.937
X5.937Y-1.937
X5.937Y-3.837
X6.037Y-1.937
X6.037Y-3.837
X6.137Y-1.937
X6.137Y-3.837
X6.1874Y-2.337
X6.237Y-1.937
X6.237Y-3.837
X6.337Y-1.937
X6.337Y-3.837
X6.437Y-1.937
X6.437Y-3.837
X6.4866Y-2.337
T4
X4.1913Y-3.1386
X4.1913Y-3.3354
X4.6835Y-3.1386
X4.6835Y-3.3354
X4.8913Y-3.1386
X4.8913Y-3.3354
X5.3835Y-3.1386
X5.3835Y-3.3354
T0
M30
