%TF.GenerationSoftware,KiCad,Pcbnew,7.0.1*%
%TF.CreationDate,2023-03-30T13:35:16-06:00*%
%TF.ProjectId,Phase_A_UnoShield,50686173-655f-4415-9f55-6e6f53686965,rev?*%
%TF.SameCoordinates,Original*%
%TF.FileFunction,Copper,L2,Bot*%
%TF.FilePolarity,Positive*%
%FSLAX46Y46*%
G04 Gerber Fmt 4.6, Leading zero omitted, Abs format (unit mm)*
G04 Created by KiCad (PCBNEW 7.0.1) date 2023-03-30 13:35:16*
%MOMM*%
%LPD*%
G01*
G04 APERTURE LIST*
%TA.AperFunction,ComponentPad*%
%ADD10R,1.700000X1.700000*%
%TD*%
%TA.AperFunction,ComponentPad*%
%ADD11O,1.700000X1.700000*%
%TD*%
%TA.AperFunction,ComponentPad*%
%ADD12R,1.800000X1.800000*%
%TD*%
%TA.AperFunction,ComponentPad*%
%ADD13C,1.800000*%
%TD*%
%TA.AperFunction,ComponentPad*%
%ADD14R,2.400000X1.600000*%
%TD*%
%TA.AperFunction,ComponentPad*%
%ADD15O,2.400000X1.600000*%
%TD*%
%TA.AperFunction,ComponentPad*%
%ADD16C,1.600000*%
%TD*%
%TA.AperFunction,ComponentPad*%
%ADD17O,1.600000X1.600000*%
%TD*%
%TA.AperFunction,ComponentPad*%
%ADD18R,2.000000X2.000000*%
%TD*%
%TA.AperFunction,ComponentPad*%
%ADD19C,2.000000*%
%TD*%
%TA.AperFunction,ComponentPad*%
%ADD20O,3.048000X1.850000*%
%TD*%
%TA.AperFunction,ComponentPad*%
%ADD21R,1.500000X1.500000*%
%TD*%
%TA.AperFunction,ComponentPad*%
%ADD22C,1.500000*%
%TD*%
%TA.AperFunction,Conductor*%
%ADD23C,0.250000*%
%TD*%
G04 APERTURE END LIST*
D10*
%TO.P,J1,1,Pin_1*%
%TO.N,unconnected-(J1-Pin_1-Pad1)*%
X127940000Y-97460000D03*
D11*
%TO.P,J1,2,Pin_2*%
%TO.N,/IOREF*%
X130480000Y-97460000D03*
%TO.P,J1,3,Pin_3*%
%TO.N,/~{RESET}*%
X133020000Y-97460000D03*
%TO.P,J1,4,Pin_4*%
%TO.N,+3V3*%
X135560000Y-97460000D03*
%TO.P,J1,5,Pin_5*%
%TO.N,+5V*%
X138100000Y-97460000D03*
%TO.P,J1,6,Pin_6*%
%TO.N,GND*%
X140640000Y-97460000D03*
%TO.P,J1,7,Pin_7*%
X143180000Y-97460000D03*
%TO.P,J1,8,Pin_8*%
%TO.N,VCC*%
X145720000Y-97460000D03*
%TD*%
D10*
%TO.P,J3,1,Pin_1*%
%TO.N,/A0*%
X150800000Y-97460000D03*
D11*
%TO.P,J3,2,Pin_2*%
%TO.N,/A1*%
X153340000Y-97460000D03*
%TO.P,J3,3,Pin_3*%
%TO.N,/A2*%
X155880000Y-97460000D03*
%TO.P,J3,4,Pin_4*%
%TO.N,/A3*%
X158420000Y-97460000D03*
%TO.P,J3,5,Pin_5*%
%TO.N,/SDA{slash}A4*%
X160960000Y-97460000D03*
%TO.P,J3,6,Pin_6*%
%TO.N,/SCL{slash}A5*%
X163500000Y-97460000D03*
%TD*%
D10*
%TO.P,J2,1,Pin_1*%
%TO.N,unconnected-(J2-Pin_1-Pad1)*%
X118796000Y-49200000D03*
D11*
%TO.P,J2,2,Pin_2*%
%TO.N,unconnected-(J2-Pin_2-Pad2)*%
X121336000Y-49200000D03*
%TO.P,J2,3,Pin_3*%
%TO.N,unconnected-(J2-Pin_3-Pad3)*%
X123876000Y-49200000D03*
%TO.P,J2,4,Pin_4*%
%TO.N,GND*%
X126416000Y-49200000D03*
%TO.P,J2,5,Pin_5*%
%TO.N,Dig1*%
X128956000Y-49200000D03*
%TO.P,J2,6,Pin_6*%
%TO.N,Dig2*%
X131496000Y-49200000D03*
%TO.P,J2,7,Pin_7*%
%TO.N,Dig3*%
X134036000Y-49200000D03*
%TO.P,J2,8,Pin_8*%
%TO.N,Dig4*%
X136576000Y-49200000D03*
%TO.P,J2,9,Pin_9*%
%TO.N,DS*%
X139116000Y-49200000D03*
%TO.P,J2,10,Pin_10*%
%TO.N,ST_CP*%
X141656000Y-49200000D03*
%TD*%
D10*
%TO.P,J4,1,Pin_1*%
%TO.N,SH_CP*%
X145720000Y-49200000D03*
D11*
%TO.P,J4,2,Pin_2*%
%TO.N,Buzzer*%
X148260000Y-49200000D03*
%TO.P,J4,3,Pin_3*%
%TO.N,RED_LED*%
X150800000Y-49200000D03*
%TO.P,J4,4,Pin_4*%
%TO.N,GREEN_LED*%
X153340000Y-49200000D03*
%TO.P,J4,5,Pin_5*%
%TO.N,Button_2*%
X155880000Y-49200000D03*
%TO.P,J4,6,Pin_6*%
%TO.N,Button_1*%
X158420000Y-49200000D03*
%TO.P,J4,7,Pin_7*%
%TO.N,/TX{slash}1*%
X160960000Y-49200000D03*
%TO.P,J4,8,Pin_8*%
%TO.N,/RX{slash}0*%
X163500000Y-49200000D03*
%TD*%
D12*
%TO.P,D2,1,K*%
%TO.N,GND*%
X193980000Y-56468000D03*
D13*
%TO.P,D2,2,A*%
%TO.N,Net-(D2-A)*%
X191440000Y-56468000D03*
%TD*%
D14*
%TO.P,U2,1,QB*%
%TO.N,b*%
X195240000Y-89840000D03*
D15*
%TO.P,U2,2,QC*%
%TO.N,c*%
X195240000Y-87300000D03*
%TO.P,U2,3,QD*%
%TO.N,d*%
X195240000Y-84760000D03*
%TO.P,U2,4,QE*%
%TO.N,e*%
X195240000Y-82220000D03*
%TO.P,U2,5,QF*%
%TO.N,f*%
X195240000Y-79680000D03*
%TO.P,U2,6,QG*%
%TO.N,g*%
X195240000Y-77140000D03*
%TO.P,U2,7,QH*%
%TO.N,dp*%
X195240000Y-74600000D03*
%TO.P,U2,8,GND*%
%TO.N,GND*%
X195240000Y-72060000D03*
%TO.P,U2,9,QH'*%
%TO.N,unconnected-(U2-QH'-Pad9)*%
X187620000Y-72060000D03*
%TO.P,U2,10,~{SRCLR}*%
%TO.N,+5V*%
X187620000Y-74600000D03*
%TO.P,U2,11,SRCLK*%
%TO.N,SH_CP*%
X187620000Y-77140000D03*
%TO.P,U2,12,RCLK*%
%TO.N,ST_CP*%
X187620000Y-79680000D03*
%TO.P,U2,13,~{OE}*%
%TO.N,GND*%
X187620000Y-82220000D03*
%TO.P,U2,14,SER*%
%TO.N,DS*%
X187620000Y-84760000D03*
%TO.P,U2,15,QA*%
%TO.N,a*%
X187620000Y-87300000D03*
%TO.P,U2,16,VCC*%
%TO.N,+5V*%
X187620000Y-89840000D03*
%TD*%
D16*
%TO.P,R8,1*%
%TO.N,d*%
X178740000Y-83180000D03*
D17*
%TO.P,R8,2*%
%TO.N,Net-(U1-d)*%
X168580000Y-83180000D03*
%TD*%
D16*
%TO.P,R5,1*%
%TO.N,a*%
X196520000Y-66980000D03*
D17*
%TO.P,R5,2*%
%TO.N,Net-(U1-a)*%
X186360000Y-66980000D03*
%TD*%
D12*
%TO.P,D1,1,K*%
%TO.N,GND*%
X176200000Y-56468000D03*
D13*
%TO.P,D1,2,A*%
%TO.N,Net-(D1-A)*%
X173660000Y-56468000D03*
%TD*%
D16*
%TO.P,R1,1*%
%TO.N,Button_1*%
X107620000Y-92380000D03*
D17*
%TO.P,R1,2*%
%TO.N,GND*%
X117780000Y-92380000D03*
%TD*%
D18*
%TO.P,LS1,1,1*%
%TO.N,Buzzer*%
X164760000Y-59360000D03*
D19*
%TO.P,LS1,2,2*%
%TO.N,GND*%
X157160000Y-59360000D03*
%TD*%
D16*
%TO.P,R2,1*%
%TO.N,Button_2*%
X125400000Y-92380000D03*
D17*
%TO.P,R2,2*%
%TO.N,GND*%
X135560000Y-92380000D03*
%TD*%
D20*
%TO.P,SW1,1,1*%
%TO.N,+5V*%
X106460000Y-79720000D03*
X118960000Y-79720000D03*
%TO.P,SW1,2,2*%
%TO.N,Button_1*%
X106460000Y-84720000D03*
X118960000Y-84720000D03*
%TD*%
%TO.P,SW2,1,1*%
%TO.N,+5V*%
X124240000Y-79720000D03*
X136740000Y-79720000D03*
%TO.P,SW2,2,2*%
%TO.N,Button_2*%
X124240000Y-84720000D03*
X136740000Y-84720000D03*
%TD*%
D21*
%TO.P,U1,1,e*%
%TO.N,Net-(U1-e)*%
X120320000Y-69520000D03*
D22*
%TO.P,U1,2,d*%
%TO.N,Net-(U1-d)*%
X122860000Y-69520000D03*
%TO.P,U1,3,DPX*%
%TO.N,Net-(U1-DPX)*%
X125400000Y-69520000D03*
%TO.P,U1,4,c*%
%TO.N,Net-(U1-c)*%
X127940000Y-69520000D03*
%TO.P,U1,5,g*%
%TO.N,Net-(U1-g)*%
X130480000Y-69520000D03*
%TO.P,U1,6,CA4*%
%TO.N,Dig4*%
X133020000Y-69520000D03*
%TO.P,U1,7,b*%
%TO.N,Net-(U1-b)*%
X133020000Y-54280000D03*
%TO.P,U1,8,CA3*%
%TO.N,Dig3*%
X130480000Y-54280000D03*
%TO.P,U1,9,CA2*%
%TO.N,Dig2*%
X127940000Y-54280000D03*
%TO.P,U1,10,f*%
%TO.N,Net-(U1-f)*%
X125400000Y-54280000D03*
%TO.P,U1,11,a*%
%TO.N,Net-(U1-a)*%
X122860000Y-54280000D03*
%TO.P,U1,12,CA1*%
%TO.N,Dig1*%
X120320000Y-54280000D03*
%TD*%
D17*
%TO.P,R12,2*%
%TO.N,Net-(U1-DPX)*%
X168580000Y-66980000D03*
D16*
%TO.P,R12,1*%
%TO.N,dp*%
X178740000Y-66980000D03*
%TD*%
%TO.P,R10,1*%
%TO.N,f*%
X178740000Y-75080000D03*
D17*
%TO.P,R10,2*%
%TO.N,Net-(U1-f)*%
X168580000Y-75080000D03*
%TD*%
D16*
%TO.P,R9,1*%
%TO.N,e*%
X178740000Y-79130000D03*
D17*
%TO.P,R9,2*%
%TO.N,Net-(U1-e)*%
X168580000Y-79130000D03*
%TD*%
D16*
%TO.P,R6,1*%
%TO.N,b*%
X178740000Y-91280000D03*
D17*
%TO.P,R6,2*%
%TO.N,Net-(U1-b)*%
X168580000Y-91280000D03*
%TD*%
D16*
%TO.P,R3,1*%
%TO.N,RED_LED*%
X181280000Y-49200000D03*
D17*
%TO.P,R3,2*%
%TO.N,Net-(D1-A)*%
X181280000Y-59360000D03*
%TD*%
D16*
%TO.P,R7,1*%
%TO.N,c*%
X178740000Y-87230000D03*
D17*
%TO.P,R7,2*%
%TO.N,Net-(U1-c)*%
X168580000Y-87230000D03*
%TD*%
%TO.P,R11,2*%
%TO.N,Net-(U1-g)*%
X168580000Y-71030000D03*
D16*
%TO.P,R11,1*%
%TO.N,g*%
X178740000Y-71030000D03*
%TD*%
%TO.P,R4,1*%
%TO.N,GREEN_LED*%
X186360000Y-49200000D03*
D17*
%TO.P,R4,2*%
%TO.N,Net-(D2-A)*%
X186360000Y-59360000D03*
%TD*%
D23*
%TO.N,+5V*%
X136740000Y-79720000D02*
X124240000Y-79720000D01*
%TD*%
%TA.AperFunction,Conductor*%
%TO.N,GND*%
G36*
X196523736Y-46735726D02*
G01*
X196809577Y-46753016D01*
X196824441Y-46754821D01*
X197102421Y-46805763D01*
X197116943Y-46809342D01*
X197386784Y-46893427D01*
X197400754Y-46898725D01*
X197658476Y-47014718D01*
X197671718Y-47021668D01*
X197913584Y-47167879D01*
X197925894Y-47176377D01*
X198015655Y-47246700D01*
X198148364Y-47350671D01*
X198159572Y-47360601D01*
X198359398Y-47560427D01*
X198369328Y-47571635D01*
X198543618Y-47794099D01*
X198552122Y-47806419D01*
X198685104Y-48026399D01*
X198698327Y-48048273D01*
X198705284Y-48061529D01*
X198785965Y-48240794D01*
X198821270Y-48319237D01*
X198826575Y-48333225D01*
X198910653Y-48603040D01*
X198914236Y-48617578D01*
X198965178Y-48895558D01*
X198966983Y-48910423D01*
X198984274Y-49196264D01*
X198984500Y-49203751D01*
X198984500Y-97456249D01*
X198984274Y-97463736D01*
X198966983Y-97749576D01*
X198965178Y-97764441D01*
X198914236Y-98042421D01*
X198910652Y-98056959D01*
X198826577Y-98326769D01*
X198821270Y-98340762D01*
X198705285Y-98598468D01*
X198698327Y-98611726D01*
X198552124Y-98853577D01*
X198543618Y-98865900D01*
X198369328Y-99088364D01*
X198359398Y-99099572D01*
X198159572Y-99299398D01*
X198148364Y-99309328D01*
X197925900Y-99483618D01*
X197913577Y-99492124D01*
X197671726Y-99638327D01*
X197658468Y-99645285D01*
X197400762Y-99761270D01*
X197386769Y-99766577D01*
X197118785Y-99850083D01*
X197116959Y-99850653D01*
X197102421Y-99854236D01*
X196824441Y-99905178D01*
X196809576Y-99906983D01*
X196523736Y-99924274D01*
X196516249Y-99924500D01*
X102543751Y-99924500D01*
X102536264Y-99924274D01*
X102250423Y-99906983D01*
X102235558Y-99905178D01*
X101957578Y-99854236D01*
X101943044Y-99850654D01*
X101673225Y-99766575D01*
X101659237Y-99761270D01*
X101401531Y-99645285D01*
X101388273Y-99638327D01*
X101146422Y-99492124D01*
X101134099Y-99483618D01*
X100911635Y-99309328D01*
X100900427Y-99299398D01*
X100700601Y-99099572D01*
X100690671Y-99088364D01*
X100516381Y-98865900D01*
X100507879Y-98853584D01*
X100361668Y-98611718D01*
X100354718Y-98598476D01*
X100246772Y-98358634D01*
X126581500Y-98358634D01*
X126588011Y-98419205D01*
X126639110Y-98556203D01*
X126726738Y-98673261D01*
X126843796Y-98760889D01*
X126980794Y-98811988D01*
X126980797Y-98811988D01*
X126980799Y-98811989D01*
X127041362Y-98818500D01*
X128838634Y-98818500D01*
X128838638Y-98818500D01*
X128899201Y-98811989D01*
X128899203Y-98811988D01*
X128899205Y-98811988D01*
X128981097Y-98781443D01*
X129036204Y-98760889D01*
X129153261Y-98673261D01*
X129240889Y-98556204D01*
X129286137Y-98434889D01*
X129322089Y-98383677D01*
X129378471Y-98356539D01*
X129440925Y-98360387D01*
X129493548Y-98394241D01*
X129530969Y-98434890D01*
X129556760Y-98462906D01*
X129734424Y-98601189D01*
X129932426Y-98708342D01*
X130145365Y-98781444D01*
X130367431Y-98818500D01*
X130592569Y-98818500D01*
X130814635Y-98781444D01*
X131027574Y-98708342D01*
X131225576Y-98601189D01*
X131403240Y-98462906D01*
X131555722Y-98297268D01*
X131646190Y-98158795D01*
X131690982Y-98117561D01*
X131750000Y-98102616D01*
X131809018Y-98117561D01*
X131853809Y-98158795D01*
X131944278Y-98297268D01*
X132096760Y-98462906D01*
X132274424Y-98601189D01*
X132472426Y-98708342D01*
X132685365Y-98781444D01*
X132907431Y-98818500D01*
X133132569Y-98818500D01*
X133354635Y-98781444D01*
X133567574Y-98708342D01*
X133765576Y-98601189D01*
X133943240Y-98462906D01*
X134095722Y-98297268D01*
X134186190Y-98158795D01*
X134230982Y-98117561D01*
X134290000Y-98102616D01*
X134349018Y-98117561D01*
X134393809Y-98158795D01*
X134484278Y-98297268D01*
X134636760Y-98462906D01*
X134814424Y-98601189D01*
X135012426Y-98708342D01*
X135225365Y-98781444D01*
X135447431Y-98818500D01*
X135672569Y-98818500D01*
X135894635Y-98781444D01*
X136107574Y-98708342D01*
X136305576Y-98601189D01*
X136483240Y-98462906D01*
X136635722Y-98297268D01*
X136726190Y-98158795D01*
X136770982Y-98117561D01*
X136830000Y-98102616D01*
X136889018Y-98117561D01*
X136933809Y-98158795D01*
X137024278Y-98297268D01*
X137176760Y-98462906D01*
X137354424Y-98601189D01*
X137552426Y-98708342D01*
X137765365Y-98781444D01*
X137987431Y-98818500D01*
X138212569Y-98818500D01*
X138434635Y-98781444D01*
X138647574Y-98708342D01*
X138845576Y-98601189D01*
X139023240Y-98462906D01*
X139175722Y-98297268D01*
X139269748Y-98153349D01*
X139313663Y-98112595D01*
X139371562Y-98097188D01*
X139429926Y-98110726D01*
X139475131Y-98150048D01*
X139601892Y-98331080D01*
X139768918Y-98498106D01*
X139962423Y-98633600D01*
X140176507Y-98733430D01*
X140389999Y-98790635D01*
X140390000Y-98790636D01*
X140390000Y-97710000D01*
X140890000Y-97710000D01*
X140890000Y-98790635D01*
X141103492Y-98733430D01*
X141317576Y-98633600D01*
X141511081Y-98498106D01*
X141678106Y-98331081D01*
X141808425Y-98144968D01*
X141852743Y-98106103D01*
X141910000Y-98092092D01*
X141967257Y-98106103D01*
X142011575Y-98144968D01*
X142141893Y-98331081D01*
X142308918Y-98498106D01*
X142502423Y-98633600D01*
X142716507Y-98733430D01*
X142929999Y-98790635D01*
X142930000Y-98790636D01*
X142930000Y-98790635D01*
X143430000Y-98790635D01*
X143643492Y-98733430D01*
X143857576Y-98633600D01*
X144051081Y-98498106D01*
X144218106Y-98331081D01*
X144344868Y-98150048D01*
X144390072Y-98110726D01*
X144448436Y-98097188D01*
X144506335Y-98112595D01*
X144550252Y-98153351D01*
X144644276Y-98297267D01*
X144723824Y-98383677D01*
X144796760Y-98462906D01*
X144974424Y-98601189D01*
X145172426Y-98708342D01*
X145385365Y-98781444D01*
X145607431Y-98818500D01*
X145832569Y-98818500D01*
X146054635Y-98781444D01*
X146267574Y-98708342D01*
X146465576Y-98601189D01*
X146643240Y-98462906D01*
X146739230Y-98358634D01*
X149441500Y-98358634D01*
X149448011Y-98419205D01*
X149499110Y-98556203D01*
X149586738Y-98673261D01*
X149703796Y-98760889D01*
X149840794Y-98811988D01*
X149840797Y-98811988D01*
X149840799Y-98811989D01*
X149901362Y-98818500D01*
X151698634Y-98818500D01*
X151698638Y-98818500D01*
X151759201Y-98811989D01*
X151759203Y-98811988D01*
X151759205Y-98811988D01*
X151841097Y-98781443D01*
X151896204Y-98760889D01*
X152013261Y-98673261D01*
X152100889Y-98556204D01*
X152146137Y-98434889D01*
X152182089Y-98383677D01*
X152238471Y-98356539D01*
X152300925Y-98360387D01*
X152353548Y-98394241D01*
X152390969Y-98434890D01*
X152416760Y-98462906D01*
X152594424Y-98601189D01*
X152792426Y-98708342D01*
X153005365Y-98781444D01*
X153227431Y-98818500D01*
X153452569Y-98818500D01*
X153674635Y-98781444D01*
X153887574Y-98708342D01*
X154085576Y-98601189D01*
X154263240Y-98462906D01*
X154415722Y-98297268D01*
X154506190Y-98158795D01*
X154550982Y-98117561D01*
X154610000Y-98102616D01*
X154669018Y-98117561D01*
X154713809Y-98158795D01*
X154804278Y-98297268D01*
X154956760Y-98462906D01*
X155134424Y-98601189D01*
X155332426Y-98708342D01*
X155545365Y-98781444D01*
X155767431Y-98818500D01*
X155992569Y-98818500D01*
X156214635Y-98781444D01*
X156427574Y-98708342D01*
X156625576Y-98601189D01*
X156803240Y-98462906D01*
X156955722Y-98297268D01*
X157046190Y-98158795D01*
X157090982Y-98117561D01*
X157150000Y-98102616D01*
X157209018Y-98117561D01*
X157253809Y-98158795D01*
X157344278Y-98297268D01*
X157496760Y-98462906D01*
X157674424Y-98601189D01*
X157872426Y-98708342D01*
X158085365Y-98781444D01*
X158307431Y-98818500D01*
X158532569Y-98818500D01*
X158754635Y-98781444D01*
X158967574Y-98708342D01*
X159165576Y-98601189D01*
X159343240Y-98462906D01*
X159495722Y-98297268D01*
X159586190Y-98158795D01*
X159630982Y-98117561D01*
X159690000Y-98102616D01*
X159749018Y-98117561D01*
X159793809Y-98158795D01*
X159884278Y-98297268D01*
X160036760Y-98462906D01*
X160214424Y-98601189D01*
X160412426Y-98708342D01*
X160625365Y-98781444D01*
X160847431Y-98818500D01*
X161072569Y-98818500D01*
X161294635Y-98781444D01*
X161507574Y-98708342D01*
X161705576Y-98601189D01*
X161883240Y-98462906D01*
X162035722Y-98297268D01*
X162126190Y-98158795D01*
X162170982Y-98117561D01*
X162230000Y-98102616D01*
X162289018Y-98117561D01*
X162333809Y-98158795D01*
X162424278Y-98297268D01*
X162576760Y-98462906D01*
X162754424Y-98601189D01*
X162952426Y-98708342D01*
X163165365Y-98781444D01*
X163387431Y-98818500D01*
X163612569Y-98818500D01*
X163834635Y-98781444D01*
X164047574Y-98708342D01*
X164245576Y-98601189D01*
X164423240Y-98462906D01*
X164575722Y-98297268D01*
X164698860Y-98108791D01*
X164789296Y-97902616D01*
X164844564Y-97684368D01*
X164863156Y-97460000D01*
X164844564Y-97235632D01*
X164789296Y-97017384D01*
X164698860Y-96811209D01*
X164575722Y-96622732D01*
X164423240Y-96457094D01*
X164245576Y-96318811D01*
X164047574Y-96211658D01*
X164047573Y-96211657D01*
X164047572Y-96211657D01*
X163834636Y-96138556D01*
X163612569Y-96101500D01*
X163387431Y-96101500D01*
X163165363Y-96138556D01*
X162952427Y-96211657D01*
X162754424Y-96318811D01*
X162576760Y-96457094D01*
X162424279Y-96622730D01*
X162333809Y-96761205D01*
X162289017Y-96802438D01*
X162230000Y-96817383D01*
X162170983Y-96802438D01*
X162126191Y-96761205D01*
X162035723Y-96622734D01*
X162035722Y-96622732D01*
X161883240Y-96457094D01*
X161705576Y-96318811D01*
X161507574Y-96211658D01*
X161507573Y-96211657D01*
X161507572Y-96211657D01*
X161294636Y-96138556D01*
X161072569Y-96101500D01*
X160847431Y-96101500D01*
X160625363Y-96138556D01*
X160412427Y-96211657D01*
X160214424Y-96318811D01*
X160036760Y-96457094D01*
X159884279Y-96622730D01*
X159793809Y-96761205D01*
X159749017Y-96802438D01*
X159690000Y-96817383D01*
X159630983Y-96802438D01*
X159586191Y-96761205D01*
X159495723Y-96622734D01*
X159495722Y-96622732D01*
X159343240Y-96457094D01*
X159165576Y-96318811D01*
X158967574Y-96211658D01*
X158967573Y-96211657D01*
X158967572Y-96211657D01*
X158754636Y-96138556D01*
X158532569Y-96101500D01*
X158307431Y-96101500D01*
X158085363Y-96138556D01*
X157872427Y-96211657D01*
X157674424Y-96318811D01*
X157496760Y-96457094D01*
X157344279Y-96622730D01*
X157253809Y-96761205D01*
X157209017Y-96802438D01*
X157150000Y-96817383D01*
X157090983Y-96802438D01*
X157046191Y-96761205D01*
X156955723Y-96622734D01*
X156955722Y-96622732D01*
X156803240Y-96457094D01*
X156625576Y-96318811D01*
X156427574Y-96211658D01*
X156427573Y-96211657D01*
X156427572Y-96211657D01*
X156214636Y-96138556D01*
X155992569Y-96101500D01*
X155767431Y-96101500D01*
X155545363Y-96138556D01*
X155332427Y-96211657D01*
X155134424Y-96318811D01*
X154956760Y-96457094D01*
X154804279Y-96622730D01*
X154713809Y-96761205D01*
X154669017Y-96802438D01*
X154610000Y-96817383D01*
X154550983Y-96802438D01*
X154506191Y-96761205D01*
X154415723Y-96622734D01*
X154415722Y-96622732D01*
X154263240Y-96457094D01*
X154085576Y-96318811D01*
X153887574Y-96211658D01*
X153887573Y-96211657D01*
X153887572Y-96211657D01*
X153674636Y-96138556D01*
X153452569Y-96101500D01*
X153227431Y-96101500D01*
X153005363Y-96138556D01*
X152792427Y-96211657D01*
X152594424Y-96318811D01*
X152416759Y-96457094D01*
X152353548Y-96525759D01*
X152300924Y-96559612D01*
X152238470Y-96563460D01*
X152182089Y-96536322D01*
X152146138Y-96485110D01*
X152121427Y-96418861D01*
X152100889Y-96363796D01*
X152042951Y-96286400D01*
X152013261Y-96246738D01*
X151896203Y-96159110D01*
X151759205Y-96108011D01*
X151728919Y-96104755D01*
X151698638Y-96101500D01*
X149901362Y-96101500D01*
X149874445Y-96104393D01*
X149840794Y-96108011D01*
X149703796Y-96159110D01*
X149586738Y-96246738D01*
X149499110Y-96363796D01*
X149448011Y-96500794D01*
X149444393Y-96534445D01*
X149441689Y-96559612D01*
X149441500Y-96561366D01*
X149441500Y-98358634D01*
X146739230Y-98358634D01*
X146795722Y-98297268D01*
X146918860Y-98108791D01*
X147009296Y-97902616D01*
X147064564Y-97684368D01*
X147083156Y-97460000D01*
X147064564Y-97235632D01*
X147009296Y-97017384D01*
X146918860Y-96811209D01*
X146795722Y-96622732D01*
X146643240Y-96457094D01*
X146465576Y-96318811D01*
X146267574Y-96211658D01*
X146267573Y-96211657D01*
X146267572Y-96211657D01*
X146054636Y-96138556D01*
X145832569Y-96101500D01*
X145607431Y-96101500D01*
X145385363Y-96138556D01*
X145172427Y-96211657D01*
X144974424Y-96318811D01*
X144796760Y-96457094D01*
X144644275Y-96622734D01*
X144550250Y-96766650D01*
X144506334Y-96807405D01*
X144448435Y-96822812D01*
X144390071Y-96809274D01*
X144344867Y-96769951D01*
X144218109Y-96588921D01*
X144051081Y-96421893D01*
X143857576Y-96286399D01*
X143643492Y-96186569D01*
X143430000Y-96129364D01*
X143430000Y-98790635D01*
X142930000Y-98790635D01*
X142930000Y-97710000D01*
X140890000Y-97710000D01*
X140390000Y-97710000D01*
X140390000Y-97210000D01*
X140890000Y-97210000D01*
X142930000Y-97210000D01*
X142930000Y-96129364D01*
X142929999Y-96129364D01*
X142716507Y-96186569D01*
X142502421Y-96286400D01*
X142308921Y-96421890D01*
X142141893Y-96588918D01*
X142011575Y-96775032D01*
X141967257Y-96813897D01*
X141910000Y-96827908D01*
X141852743Y-96813897D01*
X141808425Y-96775032D01*
X141678106Y-96588918D01*
X141511081Y-96421893D01*
X141317576Y-96286399D01*
X141103492Y-96186569D01*
X140890000Y-96129364D01*
X140890000Y-97210000D01*
X140390000Y-97210000D01*
X140390000Y-96129364D01*
X140389999Y-96129364D01*
X140176507Y-96186569D01*
X139962421Y-96286400D01*
X139768921Y-96421890D01*
X139601893Y-96588918D01*
X139475132Y-96769952D01*
X139429928Y-96809274D01*
X139371564Y-96822812D01*
X139313665Y-96807405D01*
X139269748Y-96766649D01*
X139175723Y-96622732D01*
X139086451Y-96525759D01*
X139023240Y-96457094D01*
X138845576Y-96318811D01*
X138647574Y-96211658D01*
X138647573Y-96211657D01*
X138647572Y-96211657D01*
X138434636Y-96138556D01*
X138212569Y-96101500D01*
X137987431Y-96101500D01*
X137765363Y-96138556D01*
X137552427Y-96211657D01*
X137354424Y-96318811D01*
X137176760Y-96457094D01*
X137024279Y-96622730D01*
X136933809Y-96761205D01*
X136889017Y-96802438D01*
X136830000Y-96817383D01*
X136770983Y-96802438D01*
X136726191Y-96761205D01*
X136635723Y-96622734D01*
X136635722Y-96622732D01*
X136483240Y-96457094D01*
X136305576Y-96318811D01*
X136107574Y-96211658D01*
X136107573Y-96211657D01*
X136107572Y-96211657D01*
X135894636Y-96138556D01*
X135672569Y-96101500D01*
X135447431Y-96101500D01*
X135225363Y-96138556D01*
X135012427Y-96211657D01*
X134814424Y-96318811D01*
X134636760Y-96457094D01*
X134484279Y-96622730D01*
X134393809Y-96761205D01*
X134349017Y-96802438D01*
X134290000Y-96817383D01*
X134230983Y-96802438D01*
X134186191Y-96761205D01*
X134095723Y-96622734D01*
X134095722Y-96622732D01*
X133943240Y-96457094D01*
X133765576Y-96318811D01*
X133567574Y-96211658D01*
X133567573Y-96211657D01*
X133567572Y-96211657D01*
X133354636Y-96138556D01*
X133132569Y-96101500D01*
X132907431Y-96101500D01*
X132685363Y-96138556D01*
X132472427Y-96211657D01*
X132274424Y-96318811D01*
X132096760Y-96457094D01*
X131944279Y-96622730D01*
X131853809Y-96761205D01*
X131809017Y-96802438D01*
X131750000Y-96817383D01*
X131690983Y-96802438D01*
X131646191Y-96761205D01*
X131555723Y-96622734D01*
X131555722Y-96622732D01*
X131403240Y-96457094D01*
X131225576Y-96318811D01*
X131027574Y-96211658D01*
X131027573Y-96211657D01*
X131027572Y-96211657D01*
X130814636Y-96138556D01*
X130592569Y-96101500D01*
X130367431Y-96101500D01*
X130145363Y-96138556D01*
X129932427Y-96211657D01*
X129734424Y-96318811D01*
X129556759Y-96457094D01*
X129493548Y-96525759D01*
X129440924Y-96559612D01*
X129378470Y-96563460D01*
X129322089Y-96536322D01*
X129286138Y-96485110D01*
X129261427Y-96418861D01*
X129240889Y-96363796D01*
X129182951Y-96286400D01*
X129153261Y-96246738D01*
X129036203Y-96159110D01*
X128899205Y-96108011D01*
X128868919Y-96104755D01*
X128838638Y-96101500D01*
X127041362Y-96101500D01*
X127014445Y-96104393D01*
X126980794Y-96108011D01*
X126843796Y-96159110D01*
X126726738Y-96246738D01*
X126639110Y-96363796D01*
X126588011Y-96500794D01*
X126584393Y-96534445D01*
X126581689Y-96559612D01*
X126581500Y-96561366D01*
X126581500Y-98358634D01*
X100246772Y-98358634D01*
X100238725Y-98340754D01*
X100233427Y-98326784D01*
X100149342Y-98056943D01*
X100145763Y-98042421D01*
X100094821Y-97764441D01*
X100093016Y-97749576D01*
X100075726Y-97463736D01*
X100075500Y-97456249D01*
X100075500Y-92379999D01*
X106306501Y-92379999D01*
X106326456Y-92608084D01*
X106356086Y-92718664D01*
X106384934Y-92826326D01*
X106385717Y-92829246D01*
X106482474Y-93036744D01*
X106482476Y-93036746D01*
X106482477Y-93036749D01*
X106613802Y-93224300D01*
X106775700Y-93386198D01*
X106963251Y-93517523D01*
X107170757Y-93614284D01*
X107391913Y-93673543D01*
X107620000Y-93693498D01*
X107848087Y-93673543D01*
X108069243Y-93614284D01*
X108276749Y-93517523D01*
X108464300Y-93386198D01*
X108626198Y-93224300D01*
X108757523Y-93036749D01*
X108854284Y-92829243D01*
X108907671Y-92630000D01*
X116501128Y-92630000D01*
X116553733Y-92826326D01*
X116649865Y-93032480D01*
X116780341Y-93218819D01*
X116941180Y-93379658D01*
X117127519Y-93510134D01*
X117333673Y-93606266D01*
X117529999Y-93658871D01*
X117530000Y-93658872D01*
X117530000Y-92630000D01*
X118030000Y-92630000D01*
X118030000Y-93658871D01*
X118226326Y-93606266D01*
X118432480Y-93510134D01*
X118618819Y-93379658D01*
X118779658Y-93218819D01*
X118910134Y-93032480D01*
X119006266Y-92826326D01*
X119058872Y-92630000D01*
X118030000Y-92630000D01*
X117530000Y-92630000D01*
X116501128Y-92630000D01*
X108907671Y-92630000D01*
X108913543Y-92608087D01*
X108933498Y-92380000D01*
X108933498Y-92379999D01*
X124086501Y-92379999D01*
X124106456Y-92608084D01*
X124136086Y-92718664D01*
X124164934Y-92826326D01*
X124165717Y-92829246D01*
X124262474Y-93036744D01*
X124262476Y-93036746D01*
X124262477Y-93036749D01*
X124393802Y-93224300D01*
X124555700Y-93386198D01*
X124743251Y-93517523D01*
X124950757Y-93614284D01*
X125171913Y-93673543D01*
X125400000Y-93693498D01*
X125628087Y-93673543D01*
X125849243Y-93614284D01*
X126056749Y-93517523D01*
X126244300Y-93386198D01*
X126406198Y-93224300D01*
X126537523Y-93036749D01*
X126634284Y-92829243D01*
X126687671Y-92630000D01*
X134281128Y-92630000D01*
X134333733Y-92826326D01*
X134429865Y-93032480D01*
X134560341Y-93218819D01*
X134721180Y-93379658D01*
X134907519Y-93510134D01*
X135113673Y-93606266D01*
X135309999Y-93658871D01*
X135310000Y-93658872D01*
X135310000Y-92630000D01*
X135810000Y-92630000D01*
X135810000Y-93658871D01*
X136006326Y-93606266D01*
X136212480Y-93510134D01*
X136398819Y-93379658D01*
X136559658Y-93218819D01*
X136690134Y-93032480D01*
X136786266Y-92826326D01*
X136838872Y-92630000D01*
X135810000Y-92630000D01*
X135310000Y-92630000D01*
X134281128Y-92630000D01*
X126687671Y-92630000D01*
X126693543Y-92608087D01*
X126713498Y-92380000D01*
X126693543Y-92151913D01*
X126687671Y-92130000D01*
X134281128Y-92130000D01*
X135310000Y-92130000D01*
X135310000Y-91101128D01*
X135810000Y-91101128D01*
X135810000Y-92130000D01*
X136838872Y-92130000D01*
X136838871Y-92129999D01*
X136786266Y-91933673D01*
X136690134Y-91727519D01*
X136559658Y-91541180D01*
X136398819Y-91380341D01*
X136255517Y-91280000D01*
X167266501Y-91280000D01*
X167286456Y-91508084D01*
X167286457Y-91508087D01*
X167344110Y-91723251D01*
X167345717Y-91729246D01*
X167442474Y-91936744D01*
X167442476Y-91936746D01*
X167442477Y-91936749D01*
X167573802Y-92124300D01*
X167735700Y-92286198D01*
X167923251Y-92417523D01*
X168130757Y-92514284D01*
X168351913Y-92573543D01*
X168580000Y-92593498D01*
X168808087Y-92573543D01*
X169029243Y-92514284D01*
X169236749Y-92417523D01*
X169424300Y-92286198D01*
X169586198Y-92124300D01*
X169717523Y-91936749D01*
X169814284Y-91729243D01*
X169873543Y-91508087D01*
X169893498Y-91280000D01*
X177426501Y-91280000D01*
X177446456Y-91508084D01*
X177446457Y-91508087D01*
X177504110Y-91723251D01*
X177505717Y-91729246D01*
X177602474Y-91936744D01*
X177602476Y-91936746D01*
X177602477Y-91936749D01*
X177733802Y-92124300D01*
X177895700Y-92286198D01*
X178083251Y-92417523D01*
X178290757Y-92514284D01*
X178511913Y-92573543D01*
X178740000Y-92593498D01*
X178968087Y-92573543D01*
X179189243Y-92514284D01*
X179396749Y-92417523D01*
X179584300Y-92286198D01*
X179746198Y-92124300D01*
X179877523Y-91936749D01*
X179974284Y-91729243D01*
X180033543Y-91508087D01*
X180053498Y-91280000D01*
X180033543Y-91051913D01*
X179974284Y-90830757D01*
X179877523Y-90623251D01*
X179746198Y-90435700D01*
X179584300Y-90273802D01*
X179396749Y-90142477D01*
X179396746Y-90142476D01*
X179396744Y-90142474D01*
X179189246Y-90045717D01*
X179189243Y-90045716D01*
X179078664Y-90016086D01*
X178968084Y-89986456D01*
X178739999Y-89966501D01*
X178511915Y-89986456D01*
X178290753Y-90045717D01*
X178083255Y-90142474D01*
X177895696Y-90273805D01*
X177733805Y-90435696D01*
X177602474Y-90623255D01*
X177505717Y-90830753D01*
X177446456Y-91051915D01*
X177426501Y-91280000D01*
X169893498Y-91280000D01*
X169873543Y-91051913D01*
X169814284Y-90830757D01*
X169717523Y-90623251D01*
X169586198Y-90435700D01*
X169424300Y-90273802D01*
X169236749Y-90142477D01*
X169236746Y-90142476D01*
X169236744Y-90142474D01*
X169029246Y-90045717D01*
X169029243Y-90045716D01*
X168918664Y-90016086D01*
X168808084Y-89986456D01*
X168579999Y-89966501D01*
X168351915Y-89986456D01*
X168130753Y-90045717D01*
X167923255Y-90142474D01*
X167735696Y-90273805D01*
X167573805Y-90435696D01*
X167442474Y-90623255D01*
X167345717Y-90830753D01*
X167286456Y-91051915D01*
X167266501Y-91280000D01*
X136255517Y-91280000D01*
X136212480Y-91249865D01*
X136006326Y-91153733D01*
X135810000Y-91101128D01*
X135310000Y-91101128D01*
X135309999Y-91101128D01*
X135113673Y-91153733D01*
X134907519Y-91249865D01*
X134721180Y-91380341D01*
X134560341Y-91541180D01*
X134429865Y-91727519D01*
X134333733Y-91933673D01*
X134281128Y-92129999D01*
X134281128Y-92130000D01*
X126687671Y-92130000D01*
X126634284Y-91930757D01*
X126585903Y-91827004D01*
X126537525Y-91723255D01*
X126537524Y-91723254D01*
X126537523Y-91723251D01*
X126406198Y-91535700D01*
X126244300Y-91373802D01*
X126056749Y-91242477D01*
X126056746Y-91242476D01*
X126056744Y-91242474D01*
X125849246Y-91145717D01*
X125849243Y-91145716D01*
X125682840Y-91101128D01*
X125628084Y-91086456D01*
X125400000Y-91066501D01*
X125171915Y-91086456D01*
X124950753Y-91145717D01*
X124743255Y-91242474D01*
X124555696Y-91373805D01*
X124393805Y-91535696D01*
X124262474Y-91723255D01*
X124165717Y-91930753D01*
X124106456Y-92151915D01*
X124086501Y-92379999D01*
X108933498Y-92379999D01*
X108913543Y-92151913D01*
X108907671Y-92130000D01*
X116501128Y-92130000D01*
X117530000Y-92130000D01*
X117530000Y-91101128D01*
X118030000Y-91101128D01*
X118030000Y-92130000D01*
X119058872Y-92130000D01*
X119058871Y-92129999D01*
X119006266Y-91933673D01*
X118910134Y-91727519D01*
X118779658Y-91541180D01*
X118618819Y-91380341D01*
X118432480Y-91249865D01*
X118226326Y-91153733D01*
X118030000Y-91101128D01*
X117530000Y-91101128D01*
X117529999Y-91101128D01*
X117333673Y-91153733D01*
X117127519Y-91249865D01*
X116941180Y-91380341D01*
X116780341Y-91541180D01*
X116649865Y-91727519D01*
X116553733Y-91933673D01*
X116501128Y-92129999D01*
X116501128Y-92130000D01*
X108907671Y-92130000D01*
X108854284Y-91930757D01*
X108805903Y-91827003D01*
X108757525Y-91723255D01*
X108757524Y-91723254D01*
X108757523Y-91723251D01*
X108626198Y-91535700D01*
X108464300Y-91373802D01*
X108276749Y-91242477D01*
X108276746Y-91242476D01*
X108276744Y-91242474D01*
X108069246Y-91145717D01*
X108069243Y-91145716D01*
X107902840Y-91101128D01*
X107848084Y-91086456D01*
X107620000Y-91066501D01*
X107391915Y-91086456D01*
X107170753Y-91145717D01*
X106963255Y-91242474D01*
X106775696Y-91373805D01*
X106613805Y-91535696D01*
X106482474Y-91723255D01*
X106385717Y-91930753D01*
X106326456Y-92151915D01*
X106306501Y-92379999D01*
X100075500Y-92379999D01*
X100075500Y-89840000D01*
X185906501Y-89840000D01*
X185926456Y-90068084D01*
X185926457Y-90068087D01*
X185981579Y-90273805D01*
X185985717Y-90289246D01*
X186082474Y-90496744D01*
X186082476Y-90496746D01*
X186082477Y-90496749D01*
X186213802Y-90684300D01*
X186375700Y-90846198D01*
X186563251Y-90977523D01*
X186770757Y-91074284D01*
X186991913Y-91133543D01*
X187077393Y-91141021D01*
X187162871Y-91148500D01*
X187162873Y-91148500D01*
X188077127Y-91148500D01*
X188077129Y-91148500D01*
X188151560Y-91141988D01*
X188248087Y-91133543D01*
X188469243Y-91074284D01*
X188676749Y-90977523D01*
X188864300Y-90846198D01*
X189026198Y-90684300D01*
X189157523Y-90496749D01*
X189254284Y-90289243D01*
X189313543Y-90068087D01*
X189333498Y-89840000D01*
X189313543Y-89611913D01*
X189254284Y-89390757D01*
X189157523Y-89183251D01*
X189026198Y-88995700D01*
X188864300Y-88833802D01*
X188676749Y-88702477D01*
X188633655Y-88682382D01*
X188581479Y-88636625D01*
X188562059Y-88570000D01*
X188581479Y-88503375D01*
X188633655Y-88457618D01*
X188636882Y-88456112D01*
X188676749Y-88437523D01*
X188864300Y-88306198D01*
X189026198Y-88144300D01*
X189157523Y-87956749D01*
X189254284Y-87749243D01*
X189313543Y-87528087D01*
X189333498Y-87300000D01*
X193526501Y-87300000D01*
X193546456Y-87528084D01*
X193605717Y-87749246D01*
X193702474Y-87956744D01*
X193702476Y-87956746D01*
X193702477Y-87956749D01*
X193833802Y-88144300D01*
X193995700Y-88306198D01*
X194003364Y-88311565D01*
X194042502Y-88356405D01*
X194056237Y-88414318D01*
X194041405Y-88471959D01*
X194001422Y-88516049D01*
X193945501Y-88536429D01*
X193930799Y-88538009D01*
X193793796Y-88589110D01*
X193676738Y-88676738D01*
X193589110Y-88793796D01*
X193538011Y-88930794D01*
X193531500Y-88991366D01*
X193531500Y-90688634D01*
X193538011Y-90749205D01*
X193589110Y-90886203D01*
X193676738Y-91003261D01*
X193793796Y-91090889D01*
X193930794Y-91141988D01*
X193930797Y-91141988D01*
X193930799Y-91141989D01*
X193991362Y-91148500D01*
X196488634Y-91148500D01*
X196488638Y-91148500D01*
X196549201Y-91141989D01*
X196549203Y-91141988D01*
X196549205Y-91141988D01*
X196658752Y-91101128D01*
X196686204Y-91090889D01*
X196803261Y-91003261D01*
X196890889Y-90886204D01*
X196941989Y-90749201D01*
X196948500Y-90688638D01*
X196948500Y-88991362D01*
X196941989Y-88930799D01*
X196941988Y-88930797D01*
X196941988Y-88930794D01*
X196890889Y-88793796D01*
X196803261Y-88676738D01*
X196686203Y-88589110D01*
X196549201Y-88538010D01*
X196534498Y-88536429D01*
X196478576Y-88516049D01*
X196438594Y-88471958D01*
X196423762Y-88414316D01*
X196437498Y-88356402D01*
X196476635Y-88311564D01*
X196484300Y-88306198D01*
X196646198Y-88144300D01*
X196777523Y-87956749D01*
X196874284Y-87749243D01*
X196933543Y-87528087D01*
X196953498Y-87300000D01*
X196933543Y-87071913D01*
X196874284Y-86850757D01*
X196777523Y-86643251D01*
X196646198Y-86455700D01*
X196484300Y-86293802D01*
X196296749Y-86162477D01*
X196253655Y-86142382D01*
X196201479Y-86096625D01*
X196182059Y-86030000D01*
X196201479Y-85963375D01*
X196253655Y-85917618D01*
X196256882Y-85916112D01*
X196296749Y-85897523D01*
X196484300Y-85766198D01*
X196646198Y-85604300D01*
X196777523Y-85416749D01*
X196874284Y-85209243D01*
X196933543Y-84988087D01*
X196953498Y-84760000D01*
X196933543Y-84531913D01*
X196874284Y-84310757D01*
X196777523Y-84103251D01*
X196646198Y-83915700D01*
X196484300Y-83753802D01*
X196296749Y-83622477D01*
X196253655Y-83602382D01*
X196201479Y-83556625D01*
X196182059Y-83490000D01*
X196201479Y-83423375D01*
X196253655Y-83377618D01*
X196256882Y-83376112D01*
X196296749Y-83357523D01*
X196484300Y-83226198D01*
X196646198Y-83064300D01*
X196777523Y-82876749D01*
X196874284Y-82669243D01*
X196933543Y-82448087D01*
X196953498Y-82220000D01*
X196933543Y-81991913D01*
X196874284Y-81770757D01*
X196777523Y-81563251D01*
X196646198Y-81375700D01*
X196484300Y-81213802D01*
X196296749Y-81082477D01*
X196263708Y-81067070D01*
X196253655Y-81062382D01*
X196201479Y-81016625D01*
X196182059Y-80950000D01*
X196201479Y-80883375D01*
X196253655Y-80837618D01*
X196256882Y-80836112D01*
X196296749Y-80817523D01*
X196484300Y-80686198D01*
X196646198Y-80524300D01*
X196777523Y-80336749D01*
X196874284Y-80129243D01*
X196933543Y-79908087D01*
X196953498Y-79680000D01*
X196933543Y-79451913D01*
X196874284Y-79230757D01*
X196777523Y-79023251D01*
X196646198Y-78835700D01*
X196484300Y-78673802D01*
X196296749Y-78542477D01*
X196253655Y-78522382D01*
X196201479Y-78476625D01*
X196182059Y-78410000D01*
X196201479Y-78343375D01*
X196253655Y-78297618D01*
X196256882Y-78296112D01*
X196296749Y-78277523D01*
X196484300Y-78146198D01*
X196646198Y-77984300D01*
X196777523Y-77796749D01*
X196874284Y-77589243D01*
X196933543Y-77368087D01*
X196953498Y-77140000D01*
X196933543Y-76911913D01*
X196874284Y-76690757D01*
X196777523Y-76483251D01*
X196646198Y-76295700D01*
X196484300Y-76133802D01*
X196296749Y-76002477D01*
X196253653Y-75982381D01*
X196201478Y-75936623D01*
X196182059Y-75869997D01*
X196201480Y-75803372D01*
X196253654Y-75757618D01*
X196296749Y-75737523D01*
X196484300Y-75606198D01*
X196646198Y-75444300D01*
X196777523Y-75256749D01*
X196874284Y-75049243D01*
X196933543Y-74828087D01*
X196953498Y-74600000D01*
X196933543Y-74371913D01*
X196874284Y-74150757D01*
X196777523Y-73943251D01*
X196646198Y-73755700D01*
X196484300Y-73593802D01*
X196296749Y-73462477D01*
X196296748Y-73462476D01*
X196296746Y-73462475D01*
X196243598Y-73437692D01*
X196191422Y-73391934D01*
X196172003Y-73325309D01*
X196191423Y-73258683D01*
X196243600Y-73212927D01*
X196292481Y-73190133D01*
X196478819Y-73059658D01*
X196639658Y-72898819D01*
X196770134Y-72712480D01*
X196866266Y-72506326D01*
X196918872Y-72310000D01*
X193561128Y-72310000D01*
X193613733Y-72506326D01*
X193709865Y-72712480D01*
X193840341Y-72898819D01*
X194001180Y-73059658D01*
X194187516Y-73190132D01*
X194236400Y-73212927D01*
X194288576Y-73258684D01*
X194307996Y-73325309D01*
X194288577Y-73391934D01*
X194236402Y-73437691D01*
X194183256Y-73462474D01*
X194183255Y-73462475D01*
X194183251Y-73462477D01*
X193995700Y-73593802D01*
X193995696Y-73593805D01*
X193833805Y-73755696D01*
X193833802Y-73755699D01*
X193833802Y-73755700D01*
X193812266Y-73786456D01*
X193702474Y-73943255D01*
X193605717Y-74150753D01*
X193546456Y-74371915D01*
X193526501Y-74600000D01*
X193546456Y-74828084D01*
X193605717Y-75049246D01*
X193702474Y-75256744D01*
X193702476Y-75256746D01*
X193702477Y-75256749D01*
X193833802Y-75444300D01*
X193995700Y-75606198D01*
X194183251Y-75737523D01*
X194226345Y-75757618D01*
X194278520Y-75803372D01*
X194297940Y-75869997D01*
X194278522Y-75936622D01*
X194226347Y-75982380D01*
X194183254Y-76002475D01*
X194183251Y-76002476D01*
X194183251Y-76002477D01*
X194063686Y-76086198D01*
X193995696Y-76133805D01*
X193833805Y-76295696D01*
X193702474Y-76483255D01*
X193605717Y-76690753D01*
X193546456Y-76911915D01*
X193526501Y-77140000D01*
X193546456Y-77368084D01*
X193605717Y-77589246D01*
X193702474Y-77796744D01*
X193702476Y-77796746D01*
X193702477Y-77796749D01*
X193833802Y-77984300D01*
X193995700Y-78146198D01*
X194183251Y-78277523D01*
X194223334Y-78296214D01*
X194226345Y-78297618D01*
X194278521Y-78343375D01*
X194297940Y-78410000D01*
X194278521Y-78476625D01*
X194226344Y-78522382D01*
X194183251Y-78542477D01*
X193995700Y-78673802D01*
X193995696Y-78673805D01*
X193833805Y-78835696D01*
X193702474Y-79023255D01*
X193605717Y-79230753D01*
X193546456Y-79451915D01*
X193526501Y-79680000D01*
X193546456Y-79908084D01*
X193605717Y-80129246D01*
X193702474Y-80336744D01*
X193702476Y-80336746D01*
X193702477Y-80336749D01*
X193833802Y-80524300D01*
X193995700Y-80686198D01*
X194183251Y-80817523D01*
X194223334Y-80836214D01*
X194226345Y-80837618D01*
X194278521Y-80883375D01*
X194297940Y-80950000D01*
X194278521Y-81016625D01*
X194226345Y-81062382D01*
X194187544Y-81080475D01*
X194183251Y-81082477D01*
X194102821Y-81138795D01*
X193995696Y-81213805D01*
X193833805Y-81375696D01*
X193702474Y-81563255D01*
X193605717Y-81770753D01*
X193546456Y-81991915D01*
X193526501Y-82220000D01*
X193546456Y-82448084D01*
X193566597Y-82523251D01*
X193604934Y-82666326D01*
X193605717Y-82669246D01*
X193702474Y-82876744D01*
X193702476Y-82876746D01*
X193702477Y-82876749D01*
X193833802Y-83064300D01*
X193995700Y-83226198D01*
X194183251Y-83357523D01*
X194223334Y-83376214D01*
X194226345Y-83377618D01*
X194278521Y-83423375D01*
X194297940Y-83490000D01*
X194278521Y-83556625D01*
X194226344Y-83602382D01*
X194183251Y-83622477D01*
X194173584Y-83629246D01*
X193995696Y-83753805D01*
X193833805Y-83915696D01*
X193702474Y-84103255D01*
X193605717Y-84310753D01*
X193546456Y-84531915D01*
X193526501Y-84759999D01*
X193546456Y-84988084D01*
X193605717Y-85209246D01*
X193702474Y-85416744D01*
X193702476Y-85416746D01*
X193702477Y-85416749D01*
X193833802Y-85604300D01*
X193995700Y-85766198D01*
X194183251Y-85897523D01*
X194223334Y-85916214D01*
X194226345Y-85917618D01*
X194278521Y-85963375D01*
X194297940Y-86030000D01*
X194278521Y-86096625D01*
X194226344Y-86142382D01*
X194183251Y-86162477D01*
X194095666Y-86223805D01*
X193995696Y-86293805D01*
X193833805Y-86455696D01*
X193702474Y-86643255D01*
X193605717Y-86850753D01*
X193546456Y-87071915D01*
X193526501Y-87300000D01*
X189333498Y-87300000D01*
X189313543Y-87071913D01*
X189254284Y-86850757D01*
X189157523Y-86643251D01*
X189026198Y-86455700D01*
X188864300Y-86293802D01*
X188676749Y-86162477D01*
X188633655Y-86142382D01*
X188581479Y-86096625D01*
X188562059Y-86030000D01*
X188581479Y-85963375D01*
X188633655Y-85917618D01*
X188636882Y-85916112D01*
X188676749Y-85897523D01*
X188864300Y-85766198D01*
X189026198Y-85604300D01*
X189157523Y-85416749D01*
X189254284Y-85209243D01*
X189313543Y-84988087D01*
X189333498Y-84760000D01*
X189313543Y-84531913D01*
X189254284Y-84310757D01*
X189157523Y-84103251D01*
X189026198Y-83915700D01*
X188864300Y-83753802D01*
X188676749Y-83622477D01*
X188676748Y-83622476D01*
X188676746Y-83622475D01*
X188623598Y-83597692D01*
X188571422Y-83551934D01*
X188552003Y-83485309D01*
X188571423Y-83418683D01*
X188623600Y-83372927D01*
X188672481Y-83350133D01*
X188858819Y-83219658D01*
X189019658Y-83058819D01*
X189150134Y-82872480D01*
X189246266Y-82666326D01*
X189298872Y-82470000D01*
X185941128Y-82470000D01*
X185993733Y-82666326D01*
X186089865Y-82872480D01*
X186220341Y-83058819D01*
X186381180Y-83219658D01*
X186567516Y-83350132D01*
X186616400Y-83372927D01*
X186668576Y-83418684D01*
X186687996Y-83485309D01*
X186668577Y-83551934D01*
X186616402Y-83597691D01*
X186563256Y-83622474D01*
X186563255Y-83622475D01*
X186563251Y-83622477D01*
X186387145Y-83745788D01*
X186375696Y-83753805D01*
X186213805Y-83915696D01*
X186082474Y-84103255D01*
X185985717Y-84310753D01*
X185926456Y-84531915D01*
X185906501Y-84759999D01*
X185926456Y-84988084D01*
X185985717Y-85209246D01*
X186082474Y-85416744D01*
X186082476Y-85416746D01*
X186082477Y-85416749D01*
X186213802Y-85604300D01*
X186375700Y-85766198D01*
X186563251Y-85897523D01*
X186603334Y-85916214D01*
X186606345Y-85917618D01*
X186658521Y-85963375D01*
X186677940Y-86030000D01*
X186658521Y-86096625D01*
X186606344Y-86142382D01*
X186563251Y-86162477D01*
X186475666Y-86223805D01*
X186375696Y-86293805D01*
X186213805Y-86455696D01*
X186082474Y-86643255D01*
X185985717Y-86850753D01*
X185926456Y-87071915D01*
X185906501Y-87300000D01*
X185926456Y-87528084D01*
X185985717Y-87749246D01*
X186082474Y-87956744D01*
X186082476Y-87956746D01*
X186082477Y-87956749D01*
X186213802Y-88144300D01*
X186375700Y-88306198D01*
X186563251Y-88437523D01*
X186606345Y-88457618D01*
X186658520Y-88503372D01*
X186677940Y-88569997D01*
X186658522Y-88636622D01*
X186606347Y-88682380D01*
X186563254Y-88702475D01*
X186563251Y-88702476D01*
X186563251Y-88702477D01*
X186432835Y-88793796D01*
X186375696Y-88833805D01*
X186213805Y-88995696D01*
X186082474Y-89183255D01*
X185985717Y-89390753D01*
X185926456Y-89611915D01*
X185906501Y-89840000D01*
X100075500Y-89840000D01*
X100075500Y-87230000D01*
X167266501Y-87230000D01*
X167286456Y-87458084D01*
X167345717Y-87679246D01*
X167442474Y-87886744D01*
X167442476Y-87886746D01*
X167442477Y-87886749D01*
X167573802Y-88074300D01*
X167735700Y-88236198D01*
X167923251Y-88367523D01*
X168130757Y-88464284D01*
X168351913Y-88523543D01*
X168580000Y-88543498D01*
X168808087Y-88523543D01*
X169029243Y-88464284D01*
X169236749Y-88367523D01*
X169424300Y-88236198D01*
X169586198Y-88074300D01*
X169717523Y-87886749D01*
X169814284Y-87679243D01*
X169873543Y-87458087D01*
X169893498Y-87230000D01*
X177426501Y-87230000D01*
X177446456Y-87458084D01*
X177505717Y-87679246D01*
X177602474Y-87886744D01*
X177602476Y-87886746D01*
X177602477Y-87886749D01*
X177733802Y-88074300D01*
X177895700Y-88236198D01*
X178083251Y-88367523D01*
X178290757Y-88464284D01*
X178511913Y-88523543D01*
X178740000Y-88543498D01*
X178968087Y-88523543D01*
X179189243Y-88464284D01*
X179396749Y-88367523D01*
X179584300Y-88236198D01*
X179746198Y-88074300D01*
X179877523Y-87886749D01*
X179974284Y-87679243D01*
X180033543Y-87458087D01*
X180053498Y-87230000D01*
X180033543Y-87001913D01*
X179974284Y-86780757D01*
X179877523Y-86573251D01*
X179746198Y-86385700D01*
X179584300Y-86223802D01*
X179396749Y-86092477D01*
X179396746Y-86092476D01*
X179396744Y-86092474D01*
X179189246Y-85995717D01*
X179189243Y-85995716D01*
X179068546Y-85963375D01*
X178968084Y-85936456D01*
X178739999Y-85916501D01*
X178511915Y-85936456D01*
X178290753Y-85995717D01*
X178083255Y-86092474D01*
X177895696Y-86223805D01*
X177733805Y-86385696D01*
X177602474Y-86573255D01*
X177505717Y-86780753D01*
X177446456Y-87001915D01*
X177426501Y-87230000D01*
X169893498Y-87230000D01*
X169873543Y-87001913D01*
X169814284Y-86780757D01*
X169717523Y-86573251D01*
X169586198Y-86385700D01*
X169424300Y-86223802D01*
X169236749Y-86092477D01*
X169236746Y-86092476D01*
X169236744Y-86092474D01*
X169029246Y-85995717D01*
X169029243Y-85995716D01*
X168908546Y-85963375D01*
X168808084Y-85936456D01*
X168579999Y-85916501D01*
X168351915Y-85936456D01*
X168130753Y-85995717D01*
X167923255Y-86092474D01*
X167735696Y-86223805D01*
X167573805Y-86385696D01*
X167442474Y-86573255D01*
X167345717Y-86780753D01*
X167286456Y-87001915D01*
X167266501Y-87230000D01*
X100075500Y-87230000D01*
X100075500Y-84838783D01*
X104427500Y-84838783D01*
X104466602Y-85073112D01*
X104543738Y-85297799D01*
X104543740Y-85297804D01*
X104608110Y-85416749D01*
X104656810Y-85506738D01*
X104802724Y-85694211D01*
X104880919Y-85766194D01*
X104977508Y-85855110D01*
X105176391Y-85985046D01*
X105393948Y-86080476D01*
X105624245Y-86138795D01*
X105695230Y-86144677D01*
X105801703Y-86153500D01*
X105801709Y-86153500D01*
X107118291Y-86153500D01*
X107118297Y-86153500D01*
X107215089Y-86145479D01*
X107295755Y-86138795D01*
X107526052Y-86080476D01*
X107743609Y-85985046D01*
X107942492Y-85855110D01*
X108117275Y-85694211D01*
X108263191Y-85506737D01*
X108376260Y-85297804D01*
X108453398Y-85073110D01*
X108492500Y-84838783D01*
X116927500Y-84838783D01*
X116966602Y-85073112D01*
X117043738Y-85297799D01*
X117043740Y-85297804D01*
X117108110Y-85416749D01*
X117156810Y-85506738D01*
X117302724Y-85694211D01*
X117380919Y-85766194D01*
X117477508Y-85855110D01*
X117676391Y-85985046D01*
X117893948Y-86080476D01*
X118124245Y-86138795D01*
X118195230Y-86144677D01*
X118301703Y-86153500D01*
X118301709Y-86153500D01*
X119618291Y-86153500D01*
X119618297Y-86153500D01*
X119715089Y-86145479D01*
X119795755Y-86138795D01*
X120026052Y-86080476D01*
X120243609Y-85985046D01*
X120442492Y-85855110D01*
X120617275Y-85694211D01*
X120763191Y-85506737D01*
X120876260Y-85297804D01*
X120953398Y-85073110D01*
X120992500Y-84838783D01*
X122207500Y-84838783D01*
X122246602Y-85073112D01*
X122323738Y-85297799D01*
X122323740Y-85297804D01*
X122388110Y-85416749D01*
X122436810Y-85506738D01*
X122582724Y-85694211D01*
X122660919Y-85766194D01*
X122757508Y-85855110D01*
X122956391Y-85985046D01*
X123173948Y-86080476D01*
X123404245Y-86138795D01*
X123475230Y-86144677D01*
X123581703Y-86153500D01*
X123581709Y-86153500D01*
X124898291Y-86153500D01*
X124898297Y-86153500D01*
X124995089Y-86145479D01*
X125075755Y-86138795D01*
X125306052Y-86080476D01*
X125523609Y-85985046D01*
X125722492Y-85855110D01*
X125897275Y-85694211D01*
X126043191Y-85506737D01*
X126156260Y-85297804D01*
X126233398Y-85073110D01*
X126272500Y-84838783D01*
X134707500Y-84838783D01*
X134746602Y-85073112D01*
X134823738Y-85297799D01*
X134823740Y-85297804D01*
X134888110Y-85416749D01*
X134936810Y-85506738D01*
X135082724Y-85694211D01*
X135160919Y-85766194D01*
X135257508Y-85855110D01*
X135456391Y-85985046D01*
X135673948Y-86080476D01*
X135904245Y-86138795D01*
X135975230Y-86144677D01*
X136081703Y-86153500D01*
X136081709Y-86153500D01*
X137398291Y-86153500D01*
X137398297Y-86153500D01*
X137495089Y-86145479D01*
X137575755Y-86138795D01*
X137806052Y-86080476D01*
X138023609Y-85985046D01*
X138222492Y-85855110D01*
X138397275Y-85694211D01*
X138543191Y-85506737D01*
X138656260Y-85297804D01*
X138733398Y-85073110D01*
X138772500Y-84838783D01*
X138772500Y-84601217D01*
X138733398Y-84366890D01*
X138656260Y-84142196D01*
X138543191Y-83933263D01*
X138468068Y-83836744D01*
X138397275Y-83745788D01*
X138241493Y-83602382D01*
X138222492Y-83584890D01*
X138023609Y-83454954D01*
X137806052Y-83359524D01*
X137575755Y-83301205D01*
X137575753Y-83301204D01*
X137575750Y-83301204D01*
X137398297Y-83286500D01*
X137398291Y-83286500D01*
X136081709Y-83286500D01*
X136081703Y-83286500D01*
X135904249Y-83301204D01*
X135673948Y-83359524D01*
X135456388Y-83454955D01*
X135257509Y-83584889D01*
X135082724Y-83745788D01*
X134936810Y-83933261D01*
X134823738Y-84142200D01*
X134746602Y-84366887D01*
X134707500Y-84601217D01*
X134707500Y-84838783D01*
X126272500Y-84838783D01*
X126272500Y-84601217D01*
X126233398Y-84366890D01*
X126156260Y-84142196D01*
X126043191Y-83933263D01*
X125968068Y-83836744D01*
X125897275Y-83745788D01*
X125741493Y-83602382D01*
X125722492Y-83584890D01*
X125523609Y-83454954D01*
X125306052Y-83359524D01*
X125075755Y-83301205D01*
X125075753Y-83301204D01*
X125075750Y-83301204D01*
X124898297Y-83286500D01*
X124898291Y-83286500D01*
X123581709Y-83286500D01*
X123581703Y-83286500D01*
X123404249Y-83301204D01*
X123173948Y-83359524D01*
X122956388Y-83454955D01*
X122757509Y-83584889D01*
X122582724Y-83745788D01*
X122436810Y-83933261D01*
X122323738Y-84142200D01*
X122246602Y-84366887D01*
X122207500Y-84601217D01*
X122207500Y-84838783D01*
X120992500Y-84838783D01*
X120992500Y-84601217D01*
X120953398Y-84366890D01*
X120876260Y-84142196D01*
X120763191Y-83933263D01*
X120688068Y-83836744D01*
X120617275Y-83745788D01*
X120461493Y-83602382D01*
X120442492Y-83584890D01*
X120243609Y-83454954D01*
X120026052Y-83359524D01*
X119795755Y-83301205D01*
X119795753Y-83301204D01*
X119795750Y-83301204D01*
X119618297Y-83286500D01*
X119618291Y-83286500D01*
X118301709Y-83286500D01*
X118301703Y-83286500D01*
X118124249Y-83301204D01*
X117893948Y-83359524D01*
X117676388Y-83454955D01*
X117477509Y-83584889D01*
X117302724Y-83745788D01*
X117156810Y-83933261D01*
X117043738Y-84142200D01*
X116966602Y-84366887D01*
X116927500Y-84601217D01*
X116927500Y-84838783D01*
X108492500Y-84838783D01*
X108492500Y-84601217D01*
X108453398Y-84366890D01*
X108376260Y-84142196D01*
X108263191Y-83933263D01*
X108188068Y-83836744D01*
X108117275Y-83745788D01*
X107961493Y-83602382D01*
X107942492Y-83584890D01*
X107743609Y-83454954D01*
X107526052Y-83359524D01*
X107295755Y-83301205D01*
X107295753Y-83301204D01*
X107295750Y-83301204D01*
X107118297Y-83286500D01*
X107118291Y-83286500D01*
X105801709Y-83286500D01*
X105801703Y-83286500D01*
X105624249Y-83301204D01*
X105393948Y-83359524D01*
X105176388Y-83454955D01*
X104977509Y-83584889D01*
X104802724Y-83745788D01*
X104656810Y-83933261D01*
X104543738Y-84142200D01*
X104466602Y-84366887D01*
X104427500Y-84601217D01*
X104427500Y-84838783D01*
X100075500Y-84838783D01*
X100075500Y-83179999D01*
X167266501Y-83179999D01*
X167286456Y-83408084D01*
X167345717Y-83629246D01*
X167442474Y-83836744D01*
X167442476Y-83836746D01*
X167442477Y-83836749D01*
X167573802Y-84024300D01*
X167735700Y-84186198D01*
X167923251Y-84317523D01*
X168130757Y-84414284D01*
X168351913Y-84473543D01*
X168580000Y-84493498D01*
X168808087Y-84473543D01*
X169029243Y-84414284D01*
X169236749Y-84317523D01*
X169424300Y-84186198D01*
X169586198Y-84024300D01*
X169717523Y-83836749D01*
X169814284Y-83629243D01*
X169873543Y-83408087D01*
X169893498Y-83180000D01*
X169893498Y-83179999D01*
X177426501Y-83179999D01*
X177446456Y-83408084D01*
X177505717Y-83629246D01*
X177602474Y-83836744D01*
X177602476Y-83836746D01*
X177602477Y-83836749D01*
X177733802Y-84024300D01*
X177895700Y-84186198D01*
X178083251Y-84317523D01*
X178290757Y-84414284D01*
X178511913Y-84473543D01*
X178740000Y-84493498D01*
X178968087Y-84473543D01*
X179189243Y-84414284D01*
X179396749Y-84317523D01*
X179584300Y-84186198D01*
X179746198Y-84024300D01*
X179877523Y-83836749D01*
X179974284Y-83629243D01*
X180033543Y-83408087D01*
X180053498Y-83180000D01*
X180033543Y-82951913D01*
X179974284Y-82730757D01*
X179877523Y-82523251D01*
X179746198Y-82335700D01*
X179584300Y-82173802D01*
X179396749Y-82042477D01*
X179396746Y-82042476D01*
X179396744Y-82042474D01*
X179189246Y-81945717D01*
X179189243Y-81945716D01*
X179078665Y-81916086D01*
X178968084Y-81886456D01*
X178739999Y-81866501D01*
X178511915Y-81886456D01*
X178290753Y-81945717D01*
X178083255Y-82042474D01*
X177895696Y-82173805D01*
X177733805Y-82335696D01*
X177602474Y-82523255D01*
X177505717Y-82730753D01*
X177446456Y-82951915D01*
X177426501Y-83179999D01*
X169893498Y-83179999D01*
X169873543Y-82951913D01*
X169814284Y-82730757D01*
X169717523Y-82523251D01*
X169586198Y-82335700D01*
X169424300Y-82173802D01*
X169236749Y-82042477D01*
X169236746Y-82042476D01*
X169236744Y-82042474D01*
X169029246Y-81945717D01*
X169029243Y-81945716D01*
X168918665Y-81916086D01*
X168808084Y-81886456D01*
X168579999Y-81866501D01*
X168351915Y-81886456D01*
X168130753Y-81945717D01*
X167923255Y-82042474D01*
X167735696Y-82173805D01*
X167573805Y-82335696D01*
X167442474Y-82523255D01*
X167345717Y-82730753D01*
X167286456Y-82951915D01*
X167266501Y-83179999D01*
X100075500Y-83179999D01*
X100075500Y-79838783D01*
X104427500Y-79838783D01*
X104466602Y-80073112D01*
X104488260Y-80136198D01*
X104543740Y-80297804D01*
X104609048Y-80418482D01*
X104656810Y-80506738D01*
X104802724Y-80694211D01*
X104890116Y-80774660D01*
X104977508Y-80855110D01*
X105176391Y-80985046D01*
X105393948Y-81080476D01*
X105624245Y-81138795D01*
X105695230Y-81144677D01*
X105801703Y-81153500D01*
X105801709Y-81153500D01*
X107118291Y-81153500D01*
X107118297Y-81153500D01*
X107215089Y-81145479D01*
X107295755Y-81138795D01*
X107526052Y-81080476D01*
X107743609Y-80985046D01*
X107942492Y-80855110D01*
X108117275Y-80694211D01*
X108263191Y-80506737D01*
X108376260Y-80297804D01*
X108453398Y-80073110D01*
X108492500Y-79838783D01*
X116927500Y-79838783D01*
X116966602Y-80073112D01*
X116988260Y-80136198D01*
X117043740Y-80297804D01*
X117109048Y-80418482D01*
X117156810Y-80506738D01*
X117302724Y-80694211D01*
X117390116Y-80774660D01*
X117477508Y-80855110D01*
X117676391Y-80985046D01*
X117893948Y-81080476D01*
X118124245Y-81138795D01*
X118195230Y-81144677D01*
X118301703Y-81153500D01*
X118301709Y-81153500D01*
X119618291Y-81153500D01*
X119618297Y-81153500D01*
X119715089Y-81145479D01*
X119795755Y-81138795D01*
X120026052Y-81080476D01*
X120243609Y-80985046D01*
X120442492Y-80855110D01*
X120617275Y-80694211D01*
X120763191Y-80506737D01*
X120876260Y-80297804D01*
X120953398Y-80073110D01*
X120992500Y-79838783D01*
X122207500Y-79838783D01*
X122246602Y-80073112D01*
X122268260Y-80136198D01*
X122323740Y-80297804D01*
X122389048Y-80418482D01*
X122436810Y-80506738D01*
X122582724Y-80694211D01*
X122670116Y-80774660D01*
X122757508Y-80855110D01*
X122956391Y-80985046D01*
X123173948Y-81080476D01*
X123404245Y-81138795D01*
X123475230Y-81144677D01*
X123581703Y-81153500D01*
X123581709Y-81153500D01*
X124898291Y-81153500D01*
X124898297Y-81153500D01*
X124995089Y-81145479D01*
X125075755Y-81138795D01*
X125306052Y-81080476D01*
X125523609Y-80985046D01*
X125722492Y-80855110D01*
X125897275Y-80694211D01*
X126043191Y-80506737D01*
X126077414Y-80443498D01*
X126090953Y-80418482D01*
X126136534Y-80370977D01*
X126200007Y-80353500D01*
X134779993Y-80353500D01*
X134843466Y-80370977D01*
X134889047Y-80418482D01*
X134926778Y-80488201D01*
X134936809Y-80506737D01*
X135013677Y-80605497D01*
X135082724Y-80694211D01*
X135170116Y-80774660D01*
X135257508Y-80855110D01*
X135456391Y-80985046D01*
X135673948Y-81080476D01*
X135904245Y-81138795D01*
X135975230Y-81144677D01*
X136081703Y-81153500D01*
X136081709Y-81153500D01*
X137398291Y-81153500D01*
X137398297Y-81153500D01*
X137495089Y-81145479D01*
X137575755Y-81138795D01*
X137806052Y-81080476D01*
X138023609Y-80985046D01*
X138222492Y-80855110D01*
X138397275Y-80694211D01*
X138543191Y-80506737D01*
X138656260Y-80297804D01*
X138733398Y-80073110D01*
X138772500Y-79838783D01*
X138772500Y-79601217D01*
X138733398Y-79366890D01*
X138656260Y-79142196D01*
X138649660Y-79130000D01*
X167266501Y-79130000D01*
X167286456Y-79358084D01*
X167345717Y-79579246D01*
X167442474Y-79786744D01*
X167442476Y-79786746D01*
X167442477Y-79786749D01*
X167573802Y-79974300D01*
X167735700Y-80136198D01*
X167923251Y-80267523D01*
X167923254Y-80267524D01*
X167923255Y-80267525D01*
X167988189Y-80297804D01*
X168130757Y-80364284D01*
X168351913Y-80423543D01*
X168580000Y-80443498D01*
X168808087Y-80423543D01*
X169029243Y-80364284D01*
X169236749Y-80267523D01*
X169424300Y-80136198D01*
X169586198Y-79974300D01*
X169717523Y-79786749D01*
X169814284Y-79579243D01*
X169873543Y-79358087D01*
X169893498Y-79130000D01*
X177426501Y-79130000D01*
X177446456Y-79358084D01*
X177505717Y-79579246D01*
X177602474Y-79786744D01*
X177602476Y-79786746D01*
X177602477Y-79786749D01*
X177733802Y-79974300D01*
X177895700Y-80136198D01*
X178083251Y-80267523D01*
X178083254Y-80267524D01*
X178083255Y-80267525D01*
X178148189Y-80297804D01*
X178290757Y-80364284D01*
X178511913Y-80423543D01*
X178740000Y-80443498D01*
X178968087Y-80423543D01*
X179189243Y-80364284D01*
X179396749Y-80267523D01*
X179584300Y-80136198D01*
X179746198Y-79974300D01*
X179877523Y-79786749D01*
X179927301Y-79680000D01*
X185906501Y-79680000D01*
X185926456Y-79908084D01*
X185985717Y-80129246D01*
X186082474Y-80336744D01*
X186082476Y-80336746D01*
X186082477Y-80336749D01*
X186213802Y-80524300D01*
X186375700Y-80686198D01*
X186563251Y-80817523D01*
X186616401Y-80842307D01*
X186668576Y-80888061D01*
X186687996Y-80954686D01*
X186668578Y-81021311D01*
X186616403Y-81067069D01*
X186567520Y-81089864D01*
X186381180Y-81220341D01*
X186220341Y-81381180D01*
X186089865Y-81567519D01*
X185993733Y-81773673D01*
X185941128Y-81969999D01*
X185941128Y-81970000D01*
X189298872Y-81970000D01*
X189298871Y-81969999D01*
X189246266Y-81773673D01*
X189150134Y-81567519D01*
X189019658Y-81381180D01*
X188858819Y-81220341D01*
X188672482Y-81089866D01*
X188623597Y-81067070D01*
X188571422Y-81021312D01*
X188552003Y-80954686D01*
X188571424Y-80888061D01*
X188623596Y-80842308D01*
X188676749Y-80817523D01*
X188864300Y-80686198D01*
X189026198Y-80524300D01*
X189157523Y-80336749D01*
X189254284Y-80129243D01*
X189313543Y-79908087D01*
X189333498Y-79680000D01*
X189313543Y-79451913D01*
X189254284Y-79230757D01*
X189157523Y-79023251D01*
X189026198Y-78835700D01*
X188864300Y-78673802D01*
X188676749Y-78542477D01*
X188633655Y-78522382D01*
X188581479Y-78476625D01*
X188562059Y-78410000D01*
X188581479Y-78343375D01*
X188633655Y-78297618D01*
X188636882Y-78296112D01*
X188676749Y-78277523D01*
X188864300Y-78146198D01*
X189026198Y-77984300D01*
X189157523Y-77796749D01*
X189254284Y-77589243D01*
X189313543Y-77368087D01*
X189333498Y-77140000D01*
X189313543Y-76911913D01*
X189254284Y-76690757D01*
X189157523Y-76483251D01*
X189026198Y-76295700D01*
X188864300Y-76133802D01*
X188676749Y-76002477D01*
X188633653Y-75982381D01*
X188581478Y-75936623D01*
X188562059Y-75869997D01*
X188581480Y-75803372D01*
X188633654Y-75757618D01*
X188676749Y-75737523D01*
X188864300Y-75606198D01*
X189026198Y-75444300D01*
X189157523Y-75256749D01*
X189254284Y-75049243D01*
X189313543Y-74828087D01*
X189333498Y-74600000D01*
X189313543Y-74371913D01*
X189254284Y-74150757D01*
X189157523Y-73943251D01*
X189026198Y-73755700D01*
X188864300Y-73593802D01*
X188676749Y-73462477D01*
X188633655Y-73442382D01*
X188581479Y-73396625D01*
X188562059Y-73330000D01*
X188581479Y-73263375D01*
X188633655Y-73217618D01*
X188636882Y-73216112D01*
X188676749Y-73197523D01*
X188864300Y-73066198D01*
X189026198Y-72904300D01*
X189157523Y-72716749D01*
X189254284Y-72509243D01*
X189313543Y-72288087D01*
X189333498Y-72060000D01*
X189313543Y-71831913D01*
X189307671Y-71810000D01*
X193561128Y-71810000D01*
X194990000Y-71810000D01*
X194990000Y-70760000D01*
X195490000Y-70760000D01*
X195490000Y-71810000D01*
X196918872Y-71810000D01*
X196918871Y-71809999D01*
X196866266Y-71613673D01*
X196770134Y-71407519D01*
X196639658Y-71221180D01*
X196478819Y-71060341D01*
X196292480Y-70929865D01*
X196086326Y-70833733D01*
X195866602Y-70774858D01*
X195696765Y-70760000D01*
X195490000Y-70760000D01*
X194990000Y-70760000D01*
X194783235Y-70760000D01*
X194613397Y-70774858D01*
X194393673Y-70833733D01*
X194187519Y-70929865D01*
X194001180Y-71060341D01*
X193840341Y-71221180D01*
X193709865Y-71407519D01*
X193613733Y-71613673D01*
X193561128Y-71809999D01*
X193561128Y-71810000D01*
X189307671Y-71810000D01*
X189254284Y-71610757D01*
X189157523Y-71403251D01*
X189026198Y-71215700D01*
X188864300Y-71053802D01*
X188676749Y-70922477D01*
X188676746Y-70922476D01*
X188676744Y-70922474D01*
X188469246Y-70825717D01*
X188469243Y-70825716D01*
X188268729Y-70771988D01*
X188248084Y-70766456D01*
X188077129Y-70751500D01*
X188077127Y-70751500D01*
X187162873Y-70751500D01*
X187162871Y-70751500D01*
X186991915Y-70766456D01*
X186770753Y-70825717D01*
X186563255Y-70922474D01*
X186375696Y-71053805D01*
X186213805Y-71215696D01*
X186082474Y-71403255D01*
X185985717Y-71610753D01*
X185926456Y-71831915D01*
X185906501Y-72060000D01*
X185926456Y-72288084D01*
X185935957Y-72323543D01*
X185984934Y-72506326D01*
X185985717Y-72509246D01*
X186082474Y-72716744D01*
X186082476Y-72716746D01*
X186082477Y-72716749D01*
X186213802Y-72904300D01*
X186375700Y-73066198D01*
X186563251Y-73197523D01*
X186606345Y-73217618D01*
X186658520Y-73263372D01*
X186677940Y-73329997D01*
X186658522Y-73396622D01*
X186606347Y-73442380D01*
X186563254Y-73462475D01*
X186375696Y-73593805D01*
X186213805Y-73755696D01*
X186213802Y-73755699D01*
X186213802Y-73755700D01*
X186192266Y-73786456D01*
X186082474Y-73943255D01*
X185985717Y-74150753D01*
X185926456Y-74371915D01*
X185906501Y-74600000D01*
X185926456Y-74828084D01*
X185985717Y-75049246D01*
X186082474Y-75256744D01*
X186082476Y-75256746D01*
X186082477Y-75256749D01*
X186213802Y-75444300D01*
X186375700Y-75606198D01*
X186563251Y-75737523D01*
X186606345Y-75757618D01*
X186658520Y-75803372D01*
X186677940Y-75869997D01*
X186658522Y-75936622D01*
X186606347Y-75982380D01*
X186563254Y-76002475D01*
X186563251Y-76002476D01*
X186563251Y-76002477D01*
X186443686Y-76086198D01*
X186375696Y-76133805D01*
X186213805Y-76295696D01*
X186082474Y-76483255D01*
X185985717Y-76690753D01*
X185926456Y-76911915D01*
X185906501Y-77140000D01*
X185926456Y-77368084D01*
X185985717Y-77589246D01*
X186082474Y-77796744D01*
X186082476Y-77796746D01*
X186082477Y-77796749D01*
X186213802Y-77984300D01*
X186375700Y-78146198D01*
X186563251Y-78277523D01*
X186603334Y-78296214D01*
X186606345Y-78297618D01*
X186658521Y-78343375D01*
X186677940Y-78410000D01*
X186658521Y-78476625D01*
X186606344Y-78522382D01*
X186563251Y-78542477D01*
X186375700Y-78673802D01*
X186375696Y-78673805D01*
X186213805Y-78835696D01*
X186082474Y-79023255D01*
X185985717Y-79230753D01*
X185926456Y-79451915D01*
X185906501Y-79680000D01*
X179927301Y-79680000D01*
X179974284Y-79579243D01*
X180033543Y-79358087D01*
X180053498Y-79130000D01*
X180033543Y-78901913D01*
X179974284Y-78680757D01*
X179909803Y-78542476D01*
X179877525Y-78473255D01*
X179877524Y-78473254D01*
X179877523Y-78473251D01*
X179746198Y-78285700D01*
X179584300Y-78123802D01*
X179396749Y-77992477D01*
X179396746Y-77992476D01*
X179396744Y-77992474D01*
X179189246Y-77895717D01*
X179189243Y-77895716D01*
X179078665Y-77866086D01*
X178968084Y-77836456D01*
X178739999Y-77816501D01*
X178511915Y-77836456D01*
X178290753Y-77895717D01*
X178083255Y-77992474D01*
X177895696Y-78123805D01*
X177733805Y-78285696D01*
X177602474Y-78473255D01*
X177505717Y-78680753D01*
X177446456Y-78901915D01*
X177426501Y-79130000D01*
X169893498Y-79130000D01*
X169873543Y-78901913D01*
X169814284Y-78680757D01*
X169749803Y-78542476D01*
X169717525Y-78473255D01*
X169717524Y-78473254D01*
X169717523Y-78473251D01*
X169586198Y-78285700D01*
X169424300Y-78123802D01*
X169236749Y-77992477D01*
X169236746Y-77992476D01*
X169236744Y-77992474D01*
X169029246Y-77895717D01*
X169029243Y-77895716D01*
X168918665Y-77866086D01*
X168808084Y-77836456D01*
X168579999Y-77816501D01*
X168351915Y-77836456D01*
X168130753Y-77895717D01*
X167923255Y-77992474D01*
X167735696Y-78123805D01*
X167573805Y-78285696D01*
X167442474Y-78473255D01*
X167345717Y-78680753D01*
X167286456Y-78901915D01*
X167266501Y-79130000D01*
X138649660Y-79130000D01*
X138543191Y-78933263D01*
X138467252Y-78835696D01*
X138397275Y-78745788D01*
X138302341Y-78658396D01*
X138222492Y-78584890D01*
X138023609Y-78454954D01*
X137806052Y-78359524D01*
X137575755Y-78301205D01*
X137575753Y-78301204D01*
X137575750Y-78301204D01*
X137398297Y-78286500D01*
X137398291Y-78286500D01*
X136081709Y-78286500D01*
X136081703Y-78286500D01*
X135904249Y-78301204D01*
X135673948Y-78359524D01*
X135456388Y-78454955D01*
X135257509Y-78584889D01*
X135082724Y-78745788D01*
X134936807Y-78933266D01*
X134889047Y-79021518D01*
X134843466Y-79069023D01*
X134779993Y-79086500D01*
X126200007Y-79086500D01*
X126136534Y-79069023D01*
X126090953Y-79021518D01*
X126067146Y-78977529D01*
X126043191Y-78933263D01*
X125951015Y-78814835D01*
X125897275Y-78745788D01*
X125802341Y-78658396D01*
X125722492Y-78584890D01*
X125523609Y-78454954D01*
X125306052Y-78359524D01*
X125075755Y-78301205D01*
X125075753Y-78301204D01*
X125075750Y-78301204D01*
X124898297Y-78286500D01*
X124898291Y-78286500D01*
X123581709Y-78286500D01*
X123581703Y-78286500D01*
X123404249Y-78301204D01*
X123173948Y-78359524D01*
X122956388Y-78454955D01*
X122757509Y-78584889D01*
X122582724Y-78745788D01*
X122436810Y-78933261D01*
X122323738Y-79142200D01*
X122246602Y-79366887D01*
X122207500Y-79601217D01*
X122207500Y-79838783D01*
X120992500Y-79838783D01*
X120992500Y-79601217D01*
X120953398Y-79366890D01*
X120876260Y-79142196D01*
X120763191Y-78933263D01*
X120687252Y-78835696D01*
X120617275Y-78745788D01*
X120522341Y-78658396D01*
X120442492Y-78584890D01*
X120243609Y-78454954D01*
X120026052Y-78359524D01*
X119795755Y-78301205D01*
X119795753Y-78301204D01*
X119795750Y-78301204D01*
X119618297Y-78286500D01*
X119618291Y-78286500D01*
X118301709Y-78286500D01*
X118301703Y-78286500D01*
X118124249Y-78301204D01*
X117893948Y-78359524D01*
X117676388Y-78454955D01*
X117477509Y-78584889D01*
X117302724Y-78745788D01*
X117156810Y-78933261D01*
X117043738Y-79142200D01*
X116966602Y-79366887D01*
X116927500Y-79601217D01*
X116927500Y-79838783D01*
X108492500Y-79838783D01*
X108492500Y-79601217D01*
X108453398Y-79366890D01*
X108376260Y-79142196D01*
X108263191Y-78933263D01*
X108187252Y-78835696D01*
X108117275Y-78745788D01*
X108022341Y-78658396D01*
X107942492Y-78584890D01*
X107743609Y-78454954D01*
X107526052Y-78359524D01*
X107295755Y-78301205D01*
X107295753Y-78301204D01*
X107295750Y-78301204D01*
X107118297Y-78286500D01*
X107118291Y-78286500D01*
X105801709Y-78286500D01*
X105801703Y-78286500D01*
X105624249Y-78301204D01*
X105393948Y-78359524D01*
X105176388Y-78454955D01*
X104977509Y-78584889D01*
X104802724Y-78745788D01*
X104656810Y-78933261D01*
X104543738Y-79142200D01*
X104466602Y-79366887D01*
X104427500Y-79601217D01*
X104427500Y-79838783D01*
X100075500Y-79838783D01*
X100075500Y-75079999D01*
X167266501Y-75079999D01*
X167286456Y-75308084D01*
X167345717Y-75529246D01*
X167442474Y-75736744D01*
X167442476Y-75736746D01*
X167442477Y-75736749D01*
X167573802Y-75924300D01*
X167735700Y-76086198D01*
X167923251Y-76217523D01*
X168130757Y-76314284D01*
X168351913Y-76373543D01*
X168580000Y-76393498D01*
X168808087Y-76373543D01*
X169029243Y-76314284D01*
X169236749Y-76217523D01*
X169424300Y-76086198D01*
X169586198Y-75924300D01*
X169717523Y-75736749D01*
X169814284Y-75529243D01*
X169873543Y-75308087D01*
X169893498Y-75080000D01*
X169893498Y-75079999D01*
X177426501Y-75079999D01*
X177446456Y-75308084D01*
X177505717Y-75529246D01*
X177602474Y-75736744D01*
X177602476Y-75736746D01*
X177602477Y-75736749D01*
X177733802Y-75924300D01*
X177895700Y-76086198D01*
X178083251Y-76217523D01*
X178290757Y-76314284D01*
X178511913Y-76373543D01*
X178740000Y-76393498D01*
X178968087Y-76373543D01*
X179189243Y-76314284D01*
X179396749Y-76217523D01*
X179584300Y-76086198D01*
X179746198Y-75924300D01*
X179877523Y-75736749D01*
X179974284Y-75529243D01*
X180033543Y-75308087D01*
X180053498Y-75080000D01*
X180033543Y-74851913D01*
X179974284Y-74630757D01*
X179877523Y-74423251D01*
X179746198Y-74235700D01*
X179584300Y-74073802D01*
X179396749Y-73942477D01*
X179396746Y-73942476D01*
X179396744Y-73942474D01*
X179189246Y-73845717D01*
X179189243Y-73845716D01*
X179078665Y-73816086D01*
X178968084Y-73786456D01*
X178739999Y-73766501D01*
X178511915Y-73786456D01*
X178290753Y-73845717D01*
X178083255Y-73942474D01*
X177895696Y-74073805D01*
X177733805Y-74235696D01*
X177602474Y-74423255D01*
X177505717Y-74630753D01*
X177446456Y-74851915D01*
X177426501Y-75079999D01*
X169893498Y-75079999D01*
X169873543Y-74851913D01*
X169814284Y-74630757D01*
X169717523Y-74423251D01*
X169586198Y-74235700D01*
X169424300Y-74073802D01*
X169236749Y-73942477D01*
X169236746Y-73942476D01*
X169236744Y-73942474D01*
X169029246Y-73845717D01*
X169029243Y-73845716D01*
X168918665Y-73816086D01*
X168808084Y-73786456D01*
X168579999Y-73766501D01*
X168351915Y-73786456D01*
X168130753Y-73845717D01*
X167923255Y-73942474D01*
X167735696Y-74073805D01*
X167573805Y-74235696D01*
X167442474Y-74423255D01*
X167345717Y-74630753D01*
X167286456Y-74851915D01*
X167266501Y-75079999D01*
X100075500Y-75079999D01*
X100075500Y-71030000D01*
X167266501Y-71030000D01*
X167286456Y-71258084D01*
X167286457Y-71258087D01*
X167326497Y-71407519D01*
X167345717Y-71479246D01*
X167442474Y-71686744D01*
X167442476Y-71686746D01*
X167442477Y-71686749D01*
X167573802Y-71874300D01*
X167735700Y-72036198D01*
X167923251Y-72167523D01*
X168130757Y-72264284D01*
X168351913Y-72323543D01*
X168580000Y-72343498D01*
X168808087Y-72323543D01*
X169029243Y-72264284D01*
X169236749Y-72167523D01*
X169424300Y-72036198D01*
X169586198Y-71874300D01*
X169717523Y-71686749D01*
X169814284Y-71479243D01*
X169873543Y-71258087D01*
X169893498Y-71030000D01*
X177426501Y-71030000D01*
X177446456Y-71258084D01*
X177446457Y-71258087D01*
X177486497Y-71407519D01*
X177505717Y-71479246D01*
X177602474Y-71686744D01*
X177602476Y-71686746D01*
X177602477Y-71686749D01*
X177733802Y-71874300D01*
X177895700Y-72036198D01*
X178083251Y-72167523D01*
X178290757Y-72264284D01*
X178511913Y-72323543D01*
X178740000Y-72343498D01*
X178968087Y-72323543D01*
X179189243Y-72264284D01*
X179396749Y-72167523D01*
X179584300Y-72036198D01*
X179746198Y-71874300D01*
X179877523Y-71686749D01*
X179974284Y-71479243D01*
X180033543Y-71258087D01*
X180053498Y-71030000D01*
X180033543Y-70801913D01*
X179974284Y-70580757D01*
X179925903Y-70477003D01*
X179877525Y-70373255D01*
X179877524Y-70373254D01*
X179877523Y-70373251D01*
X179746198Y-70185700D01*
X179584300Y-70023802D01*
X179396749Y-69892477D01*
X179396746Y-69892476D01*
X179396744Y-69892474D01*
X179189246Y-69795717D01*
X179189243Y-69795716D01*
X179078664Y-69766086D01*
X178968084Y-69736456D01*
X178740000Y-69716501D01*
X178511915Y-69736456D01*
X178290753Y-69795717D01*
X178083255Y-69892474D01*
X177895696Y-70023805D01*
X177733805Y-70185696D01*
X177733802Y-70185699D01*
X177733802Y-70185700D01*
X177711804Y-70217117D01*
X177602474Y-70373255D01*
X177505717Y-70580753D01*
X177446456Y-70801915D01*
X177426501Y-71030000D01*
X169893498Y-71030000D01*
X169873543Y-70801913D01*
X169814284Y-70580757D01*
X169765903Y-70477003D01*
X169717525Y-70373255D01*
X169717524Y-70373254D01*
X169717523Y-70373251D01*
X169586198Y-70185700D01*
X169424300Y-70023802D01*
X169236749Y-69892477D01*
X169236746Y-69892476D01*
X169236744Y-69892474D01*
X169029246Y-69795717D01*
X169029243Y-69795716D01*
X168918664Y-69766086D01*
X168808084Y-69736456D01*
X168580000Y-69716501D01*
X168351915Y-69736456D01*
X168130753Y-69795717D01*
X167923255Y-69892474D01*
X167735696Y-70023805D01*
X167573805Y-70185696D01*
X167573802Y-70185699D01*
X167573802Y-70185700D01*
X167551804Y-70217117D01*
X167442474Y-70373255D01*
X167345717Y-70580753D01*
X167286456Y-70801915D01*
X167266501Y-71030000D01*
X100075500Y-71030000D01*
X100075500Y-70318634D01*
X119061500Y-70318634D01*
X119068011Y-70379205D01*
X119119110Y-70516203D01*
X119206738Y-70633261D01*
X119323796Y-70720889D01*
X119460794Y-70771988D01*
X119460797Y-70771988D01*
X119460799Y-70771989D01*
X119521362Y-70778500D01*
X121118634Y-70778500D01*
X121118638Y-70778500D01*
X121179201Y-70771989D01*
X121179203Y-70771988D01*
X121179205Y-70771988D01*
X121257124Y-70742924D01*
X121316204Y-70720889D01*
X121433261Y-70633261D01*
X121520889Y-70516204D01*
X121571989Y-70379201D01*
X121578500Y-70318638D01*
X121578500Y-70277233D01*
X121594047Y-70217117D01*
X121636790Y-70172075D01*
X121696010Y-70153403D01*
X121756858Y-70165782D01*
X121804072Y-70206106D01*
X121892251Y-70332038D01*
X122047962Y-70487749D01*
X122228346Y-70614056D01*
X122427924Y-70707120D01*
X122640629Y-70764115D01*
X122860000Y-70783307D01*
X123079371Y-70764115D01*
X123292076Y-70707120D01*
X123491654Y-70614056D01*
X123672038Y-70487749D01*
X123827749Y-70332038D01*
X123954056Y-70151654D01*
X124001224Y-70050499D01*
X124017618Y-70015344D01*
X124063375Y-69963168D01*
X124130000Y-69943748D01*
X124196625Y-69963168D01*
X124242382Y-70015344D01*
X124305941Y-70151649D01*
X124305943Y-70151651D01*
X124305944Y-70151654D01*
X124432251Y-70332038D01*
X124587962Y-70487749D01*
X124768346Y-70614056D01*
X124967924Y-70707120D01*
X125180629Y-70764115D01*
X125400000Y-70783307D01*
X125619371Y-70764115D01*
X125832076Y-70707120D01*
X126031654Y-70614056D01*
X126212038Y-70487749D01*
X126367749Y-70332038D01*
X126494056Y-70151654D01*
X126541224Y-70050499D01*
X126557618Y-70015344D01*
X126603375Y-69963168D01*
X126670000Y-69943748D01*
X126736625Y-69963168D01*
X126782382Y-70015344D01*
X126845941Y-70151649D01*
X126845943Y-70151651D01*
X126845944Y-70151654D01*
X126972251Y-70332038D01*
X127127962Y-70487749D01*
X127308346Y-70614056D01*
X127507924Y-70707120D01*
X127720629Y-70764115D01*
X127940000Y-70783307D01*
X128159371Y-70764115D01*
X128372076Y-70707120D01*
X128571654Y-70614056D01*
X128752038Y-70487749D01*
X128907749Y-70332038D01*
X129034056Y-70151654D01*
X129081224Y-70050499D01*
X129097618Y-70015344D01*
X129143375Y-69963168D01*
X129210000Y-69943748D01*
X129276625Y-69963168D01*
X129322382Y-70015344D01*
X129385941Y-70151649D01*
X129385943Y-70151651D01*
X129385944Y-70151654D01*
X129512251Y-70332038D01*
X129667962Y-70487749D01*
X129848346Y-70614056D01*
X130047924Y-70707120D01*
X130260629Y-70764115D01*
X130480000Y-70783307D01*
X130699371Y-70764115D01*
X130912076Y-70707120D01*
X131111654Y-70614056D01*
X131292038Y-70487749D01*
X131447749Y-70332038D01*
X131574056Y-70151654D01*
X131621224Y-70050499D01*
X131637618Y-70015344D01*
X131683375Y-69963168D01*
X131750000Y-69943748D01*
X131816625Y-69963168D01*
X131862382Y-70015344D01*
X131925941Y-70151649D01*
X131925943Y-70151651D01*
X131925944Y-70151654D01*
X132052251Y-70332038D01*
X132207962Y-70487749D01*
X132388346Y-70614056D01*
X132587924Y-70707120D01*
X132800629Y-70764115D01*
X133020000Y-70783307D01*
X133239371Y-70764115D01*
X133452076Y-70707120D01*
X133651654Y-70614056D01*
X133832038Y-70487749D01*
X133987749Y-70332038D01*
X134114056Y-70151654D01*
X134207120Y-69952076D01*
X134264115Y-69739371D01*
X134283307Y-69520000D01*
X134264115Y-69300629D01*
X134207120Y-69087924D01*
X134114056Y-68888347D01*
X133987749Y-68707962D01*
X133832038Y-68552251D01*
X133651654Y-68425944D01*
X133559636Y-68383035D01*
X133452077Y-68332880D01*
X133239368Y-68275884D01*
X133020000Y-68256692D01*
X132800631Y-68275884D01*
X132587922Y-68332880D01*
X132429532Y-68406739D01*
X132388347Y-68425944D01*
X132248600Y-68523796D01*
X132207958Y-68552254D01*
X132052254Y-68707958D01*
X132052251Y-68707961D01*
X132052251Y-68707962D01*
X131927170Y-68886597D01*
X131925943Y-68888349D01*
X131862382Y-69024656D01*
X131816625Y-69076832D01*
X131750000Y-69096251D01*
X131683375Y-69076832D01*
X131637618Y-69024656D01*
X131623634Y-68994668D01*
X131574056Y-68888347D01*
X131447749Y-68707962D01*
X131292038Y-68552251D01*
X131111654Y-68425944D01*
X131019636Y-68383035D01*
X130912077Y-68332880D01*
X130699368Y-68275884D01*
X130480000Y-68256692D01*
X130260631Y-68275884D01*
X130047922Y-68332880D01*
X129889532Y-68406739D01*
X129848347Y-68425944D01*
X129708600Y-68523796D01*
X129667958Y-68552254D01*
X129512254Y-68707958D01*
X129512251Y-68707961D01*
X129512251Y-68707962D01*
X129387170Y-68886597D01*
X129385943Y-68888349D01*
X129322382Y-69024656D01*
X129276625Y-69076832D01*
X129210000Y-69096251D01*
X129143375Y-69076832D01*
X129097618Y-69024656D01*
X129083634Y-68994668D01*
X129034056Y-68888347D01*
X128907749Y-68707962D01*
X128752038Y-68552251D01*
X128571654Y-68425944D01*
X128479636Y-68383035D01*
X128372077Y-68332880D01*
X128159368Y-68275884D01*
X127940000Y-68256692D01*
X127720631Y-68275884D01*
X127507922Y-68332880D01*
X127349532Y-68406739D01*
X127308347Y-68425944D01*
X127168600Y-68523796D01*
X127127958Y-68552254D01*
X126972254Y-68707958D01*
X126972251Y-68707961D01*
X126972251Y-68707962D01*
X126847170Y-68886597D01*
X126845943Y-68888349D01*
X126782382Y-69024656D01*
X126736625Y-69076832D01*
X126670000Y-69096251D01*
X126603375Y-69076832D01*
X126557618Y-69024656D01*
X126543634Y-68994668D01*
X126494056Y-68888347D01*
X126367749Y-68707962D01*
X126212038Y-68552251D01*
X126031654Y-68425944D01*
X125939636Y-68383035D01*
X125832077Y-68332880D01*
X125619368Y-68275884D01*
X125400000Y-68256692D01*
X125180631Y-68275884D01*
X124967922Y-68332880D01*
X124809532Y-68406739D01*
X124768347Y-68425944D01*
X124628600Y-68523796D01*
X124587958Y-68552254D01*
X124432254Y-68707958D01*
X124432251Y-68707961D01*
X124432251Y-68707962D01*
X124307170Y-68886597D01*
X124305943Y-68888349D01*
X124242382Y-69024656D01*
X124196625Y-69076832D01*
X124130000Y-69096251D01*
X124063375Y-69076832D01*
X124017618Y-69024656D01*
X124003634Y-68994668D01*
X123954056Y-68888347D01*
X123827749Y-68707962D01*
X123672038Y-68552251D01*
X123491654Y-68425944D01*
X123399636Y-68383035D01*
X123292077Y-68332880D01*
X123079368Y-68275884D01*
X122860000Y-68256692D01*
X122640631Y-68275884D01*
X122427922Y-68332880D01*
X122269532Y-68406739D01*
X122228347Y-68425944D01*
X122088600Y-68523796D01*
X122047958Y-68552254D01*
X121892254Y-68707958D01*
X121892251Y-68707961D01*
X121892251Y-68707962D01*
X121811783Y-68822883D01*
X121804075Y-68833891D01*
X121756858Y-68874218D01*
X121696010Y-68886597D01*
X121636790Y-68867925D01*
X121594047Y-68822883D01*
X121578500Y-68762767D01*
X121578500Y-68721366D01*
X121571988Y-68660794D01*
X121520889Y-68523796D01*
X121433261Y-68406738D01*
X121316203Y-68319110D01*
X121179205Y-68268011D01*
X121148919Y-68264755D01*
X121118638Y-68261500D01*
X119521362Y-68261500D01*
X119494445Y-68264393D01*
X119460794Y-68268011D01*
X119323796Y-68319110D01*
X119206738Y-68406738D01*
X119119110Y-68523796D01*
X119068011Y-68660794D01*
X119061500Y-68721366D01*
X119061500Y-70318634D01*
X100075500Y-70318634D01*
X100075500Y-66979999D01*
X167266501Y-66979999D01*
X167286456Y-67208084D01*
X167345717Y-67429246D01*
X167442474Y-67636744D01*
X167442476Y-67636746D01*
X167442477Y-67636749D01*
X167573802Y-67824300D01*
X167735700Y-67986198D01*
X167923251Y-68117523D01*
X168130757Y-68214284D01*
X168351913Y-68273543D01*
X168580000Y-68293498D01*
X168808087Y-68273543D01*
X169029243Y-68214284D01*
X169236749Y-68117523D01*
X169424300Y-67986198D01*
X169586198Y-67824300D01*
X169717523Y-67636749D01*
X169814284Y-67429243D01*
X169873543Y-67208087D01*
X169893498Y-66980000D01*
X169893498Y-66979999D01*
X177426501Y-66979999D01*
X177446456Y-67208084D01*
X177505717Y-67429246D01*
X177602474Y-67636744D01*
X177602476Y-67636746D01*
X177602477Y-67636749D01*
X177733802Y-67824300D01*
X177895700Y-67986198D01*
X178083251Y-68117523D01*
X178290757Y-68214284D01*
X178511913Y-68273543D01*
X178740000Y-68293498D01*
X178968087Y-68273543D01*
X179189243Y-68214284D01*
X179396749Y-68117523D01*
X179584300Y-67986198D01*
X179746198Y-67824300D01*
X179877523Y-67636749D01*
X179974284Y-67429243D01*
X180033543Y-67208087D01*
X180053498Y-66980000D01*
X180053498Y-66979999D01*
X185046501Y-66979999D01*
X185066456Y-67208084D01*
X185125717Y-67429246D01*
X185222474Y-67636744D01*
X185222476Y-67636746D01*
X185222477Y-67636749D01*
X185353802Y-67824300D01*
X185515700Y-67986198D01*
X185703251Y-68117523D01*
X185910757Y-68214284D01*
X186131913Y-68273543D01*
X186360000Y-68293498D01*
X186588087Y-68273543D01*
X186809243Y-68214284D01*
X187016749Y-68117523D01*
X187204300Y-67986198D01*
X187366198Y-67824300D01*
X187497523Y-67636749D01*
X187594284Y-67429243D01*
X187653543Y-67208087D01*
X187673498Y-66980000D01*
X187673498Y-66979999D01*
X195206501Y-66979999D01*
X195226456Y-67208084D01*
X195285717Y-67429246D01*
X195382474Y-67636744D01*
X195382476Y-67636746D01*
X195382477Y-67636749D01*
X195513802Y-67824300D01*
X195675700Y-67986198D01*
X195863251Y-68117523D01*
X196070757Y-68214284D01*
X196291913Y-68273543D01*
X196520000Y-68293498D01*
X196748087Y-68273543D01*
X196969243Y-68214284D01*
X197176749Y-68117523D01*
X197364300Y-67986198D01*
X197526198Y-67824300D01*
X197657523Y-67636749D01*
X197754284Y-67429243D01*
X197813543Y-67208087D01*
X197833498Y-66980000D01*
X197813543Y-66751913D01*
X197754284Y-66530757D01*
X197657523Y-66323251D01*
X197526198Y-66135700D01*
X197364300Y-65973802D01*
X197176749Y-65842477D01*
X197176746Y-65842476D01*
X197176744Y-65842474D01*
X196969246Y-65745717D01*
X196969243Y-65745716D01*
X196858664Y-65716086D01*
X196748084Y-65686456D01*
X196520000Y-65666501D01*
X196291915Y-65686456D01*
X196070753Y-65745717D01*
X195863255Y-65842474D01*
X195675696Y-65973805D01*
X195513805Y-66135696D01*
X195382474Y-66323255D01*
X195285717Y-66530753D01*
X195226456Y-66751915D01*
X195206501Y-66979999D01*
X187673498Y-66979999D01*
X187653543Y-66751913D01*
X187594284Y-66530757D01*
X187497523Y-66323251D01*
X187366198Y-66135700D01*
X187204300Y-65973802D01*
X187016749Y-65842477D01*
X187016746Y-65842476D01*
X187016744Y-65842474D01*
X186809246Y-65745717D01*
X186809243Y-65745716D01*
X186698664Y-65716086D01*
X186588084Y-65686456D01*
X186360000Y-65666501D01*
X186131915Y-65686456D01*
X185910753Y-65745717D01*
X185703255Y-65842474D01*
X185515696Y-65973805D01*
X185353805Y-66135696D01*
X185222474Y-66323255D01*
X185125717Y-66530753D01*
X185066456Y-66751915D01*
X185046501Y-66979999D01*
X180053498Y-66979999D01*
X180033543Y-66751913D01*
X179974284Y-66530757D01*
X179877523Y-66323251D01*
X179746198Y-66135700D01*
X179584300Y-65973802D01*
X179396749Y-65842477D01*
X179396746Y-65842476D01*
X179396744Y-65842474D01*
X179189246Y-65745717D01*
X179189243Y-65745716D01*
X179078664Y-65716086D01*
X178968084Y-65686456D01*
X178740000Y-65666501D01*
X178511915Y-65686456D01*
X178290753Y-65745717D01*
X178083255Y-65842474D01*
X177895696Y-65973805D01*
X177733805Y-66135696D01*
X177602474Y-66323255D01*
X177505717Y-66530753D01*
X177446456Y-66751915D01*
X177426501Y-66979999D01*
X169893498Y-66979999D01*
X169873543Y-66751913D01*
X169814284Y-66530757D01*
X169717523Y-66323251D01*
X169586198Y-66135700D01*
X169424300Y-65973802D01*
X169236749Y-65842477D01*
X169236746Y-65842476D01*
X169236744Y-65842474D01*
X169029246Y-65745717D01*
X169029243Y-65745716D01*
X168918664Y-65716086D01*
X168808084Y-65686456D01*
X168580000Y-65666501D01*
X168351915Y-65686456D01*
X168130753Y-65745717D01*
X167923255Y-65842474D01*
X167735696Y-65973805D01*
X167573805Y-66135696D01*
X167442474Y-66323255D01*
X167345717Y-66530753D01*
X167286456Y-66751915D01*
X167266501Y-66979999D01*
X100075500Y-66979999D01*
X100075500Y-60583610D01*
X156289942Y-60583610D01*
X156336766Y-60620055D01*
X156555393Y-60738368D01*
X156790506Y-60819083D01*
X157035707Y-60860000D01*
X157284293Y-60860000D01*
X157529493Y-60819083D01*
X157764606Y-60738368D01*
X157983233Y-60620053D01*
X158030056Y-60583609D01*
X157855081Y-60408634D01*
X163251500Y-60408634D01*
X163258011Y-60469205D01*
X163309110Y-60606203D01*
X163396738Y-60723261D01*
X163513796Y-60810889D01*
X163650794Y-60861988D01*
X163650797Y-60861988D01*
X163650799Y-60861989D01*
X163711362Y-60868500D01*
X165808634Y-60868500D01*
X165808638Y-60868500D01*
X165869201Y-60861989D01*
X165869203Y-60861988D01*
X165869205Y-60861988D01*
X165984235Y-60819083D01*
X166006204Y-60810889D01*
X166123261Y-60723261D01*
X166210889Y-60606204D01*
X166251425Y-60497525D01*
X166261988Y-60469205D01*
X166261988Y-60469203D01*
X166261989Y-60469201D01*
X166268500Y-60408638D01*
X166268500Y-59360000D01*
X179966501Y-59360000D01*
X179986456Y-59588084D01*
X180045717Y-59809246D01*
X180142474Y-60016744D01*
X180142476Y-60016746D01*
X180142477Y-60016749D01*
X180273802Y-60204300D01*
X180435700Y-60366198D01*
X180623251Y-60497523D01*
X180830757Y-60594284D01*
X181051913Y-60653543D01*
X181280000Y-60673498D01*
X181508087Y-60653543D01*
X181729243Y-60594284D01*
X181936749Y-60497523D01*
X182124300Y-60366198D01*
X182286198Y-60204300D01*
X182417523Y-60016749D01*
X182514284Y-59809243D01*
X182573543Y-59588087D01*
X182593498Y-59360000D01*
X185046501Y-59360000D01*
X185066456Y-59588084D01*
X185125717Y-59809246D01*
X185222474Y-60016744D01*
X185222476Y-60016746D01*
X185222477Y-60016749D01*
X185353802Y-60204300D01*
X185515700Y-60366198D01*
X185703251Y-60497523D01*
X185910757Y-60594284D01*
X186131913Y-60653543D01*
X186360000Y-60673498D01*
X186588087Y-60653543D01*
X186809243Y-60594284D01*
X187016749Y-60497523D01*
X187204300Y-60366198D01*
X187366198Y-60204300D01*
X187497523Y-60016749D01*
X187594284Y-59809243D01*
X187653543Y-59588087D01*
X187673498Y-59360000D01*
X187653543Y-59131913D01*
X187594284Y-58910757D01*
X187497523Y-58703251D01*
X187366198Y-58515700D01*
X187204300Y-58353802D01*
X187016749Y-58222477D01*
X187016746Y-58222476D01*
X187016744Y-58222474D01*
X186809246Y-58125717D01*
X186809243Y-58125716D01*
X186698664Y-58096086D01*
X186588084Y-58066456D01*
X186360000Y-58046501D01*
X186131915Y-58066456D01*
X185910753Y-58125717D01*
X185703255Y-58222474D01*
X185703250Y-58222477D01*
X185703251Y-58222477D01*
X185576311Y-58311362D01*
X185515696Y-58353805D01*
X185353805Y-58515696D01*
X185222474Y-58703255D01*
X185125717Y-58910753D01*
X185066456Y-59131915D01*
X185046501Y-59360000D01*
X182593498Y-59360000D01*
X182573543Y-59131913D01*
X182514284Y-58910757D01*
X182417523Y-58703251D01*
X182286198Y-58515700D01*
X182124300Y-58353802D01*
X181936749Y-58222477D01*
X181936746Y-58222476D01*
X181936744Y-58222474D01*
X181729246Y-58125717D01*
X181729243Y-58125716D01*
X181618664Y-58096086D01*
X181508084Y-58066456D01*
X181280000Y-58046501D01*
X181051915Y-58066456D01*
X180830753Y-58125717D01*
X180623255Y-58222474D01*
X180623250Y-58222477D01*
X180623251Y-58222477D01*
X180496311Y-58311362D01*
X180435696Y-58353805D01*
X180273805Y-58515696D01*
X180142474Y-58703255D01*
X180045717Y-58910753D01*
X179986456Y-59131915D01*
X179966501Y-59360000D01*
X166268500Y-59360000D01*
X166268500Y-58311362D01*
X166261989Y-58250799D01*
X166261988Y-58250797D01*
X166261988Y-58250794D01*
X166210889Y-58113796D01*
X166123261Y-57996738D01*
X166006203Y-57909110D01*
X165869205Y-57858011D01*
X165838919Y-57854755D01*
X165808638Y-57851500D01*
X163711362Y-57851500D01*
X163684445Y-57854393D01*
X163650794Y-57858011D01*
X163513796Y-57909110D01*
X163396738Y-57996738D01*
X163309110Y-58113796D01*
X163258011Y-58250794D01*
X163251500Y-58311366D01*
X163251500Y-60408634D01*
X157855081Y-60408634D01*
X157160000Y-59713553D01*
X156289942Y-60583609D01*
X156289942Y-60583610D01*
X100075500Y-60583610D01*
X100075500Y-59359999D01*
X155654858Y-59359999D01*
X155675386Y-59607732D01*
X155736413Y-59848721D01*
X155836268Y-60076370D01*
X155936563Y-60229882D01*
X155936564Y-60229882D01*
X156806447Y-59360001D01*
X156806447Y-59360000D01*
X157513553Y-59360000D01*
X158383434Y-60229882D01*
X158483730Y-60076369D01*
X158583586Y-59848721D01*
X158644613Y-59607732D01*
X158665141Y-59359999D01*
X158644613Y-59112267D01*
X158583586Y-58871278D01*
X158483730Y-58643630D01*
X158383434Y-58490116D01*
X157513553Y-59360000D01*
X156806447Y-59360000D01*
X155936564Y-58490116D01*
X155836266Y-58643634D01*
X155736413Y-58871278D01*
X155675386Y-59112267D01*
X155654858Y-59359999D01*
X100075500Y-59359999D01*
X100075500Y-58136390D01*
X156289942Y-58136390D01*
X157160000Y-59006447D01*
X157160001Y-59006447D01*
X158030057Y-58136390D01*
X158030056Y-58136388D01*
X157983235Y-58099947D01*
X157764606Y-57981631D01*
X157529493Y-57900916D01*
X157284293Y-57860000D01*
X157035707Y-57860000D01*
X156790506Y-57900916D01*
X156555393Y-57981631D01*
X156336764Y-58099946D01*
X156289942Y-58136388D01*
X156289942Y-58136390D01*
X100075500Y-58136390D01*
X100075500Y-56467999D01*
X172246672Y-56467999D01*
X172265948Y-56700621D01*
X172323251Y-56926908D01*
X172417016Y-57140669D01*
X172544684Y-57336081D01*
X172544686Y-57336083D01*
X172702780Y-57507818D01*
X172886983Y-57651190D01*
X173092273Y-57762287D01*
X173147467Y-57781235D01*
X173313046Y-57838080D01*
X173543288Y-57876500D01*
X173776712Y-57876500D01*
X174006953Y-57838080D01*
X174117339Y-57800183D01*
X174227727Y-57762287D01*
X174433017Y-57651190D01*
X174617220Y-57507818D01*
X174623646Y-57500837D01*
X174676268Y-57466982D01*
X174738723Y-57463133D01*
X174795106Y-57490270D01*
X174831059Y-57541484D01*
X174856647Y-57610088D01*
X174942811Y-57725188D01*
X175057910Y-57811352D01*
X175192624Y-57861597D01*
X175252176Y-57868000D01*
X175950000Y-57868000D01*
X175950000Y-56718000D01*
X176450000Y-56718000D01*
X176450000Y-57868000D01*
X177147824Y-57868000D01*
X177207375Y-57861597D01*
X177342089Y-57811352D01*
X177457188Y-57725188D01*
X177543352Y-57610089D01*
X177593597Y-57475375D01*
X177600000Y-57415824D01*
X177600000Y-56718000D01*
X176450000Y-56718000D01*
X175950000Y-56718000D01*
X175950000Y-56467999D01*
X190026672Y-56467999D01*
X190045948Y-56700621D01*
X190103251Y-56926908D01*
X190197016Y-57140669D01*
X190324684Y-57336081D01*
X190324686Y-57336083D01*
X190482780Y-57507818D01*
X190666983Y-57651190D01*
X190872273Y-57762287D01*
X190927467Y-57781235D01*
X191093046Y-57838080D01*
X191323288Y-57876500D01*
X191556712Y-57876500D01*
X191786953Y-57838080D01*
X191897339Y-57800183D01*
X192007727Y-57762287D01*
X192213017Y-57651190D01*
X192397220Y-57507818D01*
X192403646Y-57500837D01*
X192456268Y-57466982D01*
X192518723Y-57463133D01*
X192575106Y-57490270D01*
X192611059Y-57541484D01*
X192636647Y-57610088D01*
X192722811Y-57725188D01*
X192837910Y-57811352D01*
X192972624Y-57861597D01*
X193032176Y-57868000D01*
X193730000Y-57868000D01*
X193730000Y-56718000D01*
X194230000Y-56718000D01*
X194230000Y-57868000D01*
X194927824Y-57868000D01*
X194987375Y-57861597D01*
X195122089Y-57811352D01*
X195237188Y-57725188D01*
X195323352Y-57610089D01*
X195373597Y-57475375D01*
X195380000Y-57415824D01*
X195380000Y-56718000D01*
X194230000Y-56718000D01*
X193730000Y-56718000D01*
X193730000Y-55068000D01*
X194230000Y-55068000D01*
X194230000Y-56218000D01*
X195380000Y-56218000D01*
X195380000Y-55520176D01*
X195373597Y-55460624D01*
X195323352Y-55325910D01*
X195237188Y-55210811D01*
X195122089Y-55124647D01*
X194987375Y-55074402D01*
X194927824Y-55068000D01*
X194230000Y-55068000D01*
X193730000Y-55068000D01*
X193032176Y-55068000D01*
X192972624Y-55074402D01*
X192837910Y-55124647D01*
X192722811Y-55210811D01*
X192636645Y-55325913D01*
X192611058Y-55394515D01*
X192575106Y-55445729D01*
X192518725Y-55472866D01*
X192456271Y-55469018D01*
X192403647Y-55435164D01*
X192397219Y-55428181D01*
X192327679Y-55374056D01*
X192213017Y-55284810D01*
X192007727Y-55173713D01*
X192007726Y-55173712D01*
X192007725Y-55173712D01*
X191786953Y-55097919D01*
X191556712Y-55059500D01*
X191323288Y-55059500D01*
X191093046Y-55097919D01*
X190872274Y-55173712D01*
X190666983Y-55284810D01*
X190482780Y-55428181D01*
X190324684Y-55599918D01*
X190197016Y-55795330D01*
X190103251Y-56009091D01*
X190045948Y-56235378D01*
X190026672Y-56467999D01*
X175950000Y-56467999D01*
X175950000Y-55068000D01*
X176450000Y-55068000D01*
X176450000Y-56218000D01*
X177600000Y-56218000D01*
X177600000Y-55520176D01*
X177593597Y-55460624D01*
X177543352Y-55325910D01*
X177457188Y-55210811D01*
X177342089Y-55124647D01*
X177207375Y-55074402D01*
X177147824Y-55068000D01*
X176450000Y-55068000D01*
X175950000Y-55068000D01*
X175252176Y-55068000D01*
X175192624Y-55074402D01*
X175057910Y-55124647D01*
X174942811Y-55210811D01*
X174856645Y-55325913D01*
X174831058Y-55394515D01*
X174795106Y-55445729D01*
X174738725Y-55472866D01*
X174676271Y-55469018D01*
X174623647Y-55435164D01*
X174617219Y-55428181D01*
X174547679Y-55374056D01*
X174433017Y-55284810D01*
X174227727Y-55173713D01*
X174227726Y-55173712D01*
X174227725Y-55173712D01*
X174006953Y-55097919D01*
X173776712Y-55059500D01*
X173543288Y-55059500D01*
X173313046Y-55097919D01*
X173092274Y-55173712D01*
X172886983Y-55284810D01*
X172702780Y-55428181D01*
X172544684Y-55599918D01*
X172417016Y-55795330D01*
X172323251Y-56009091D01*
X172265948Y-56235378D01*
X172246672Y-56467999D01*
X100075500Y-56467999D01*
X100075500Y-54279999D01*
X119056692Y-54279999D01*
X119075884Y-54499368D01*
X119075885Y-54499371D01*
X119132880Y-54712076D01*
X119225944Y-54911654D01*
X119352251Y-55092038D01*
X119507962Y-55247749D01*
X119688346Y-55374056D01*
X119887924Y-55467120D01*
X120100629Y-55524115D01*
X120320000Y-55543307D01*
X120539371Y-55524115D01*
X120752076Y-55467120D01*
X120951654Y-55374056D01*
X121132038Y-55247749D01*
X121287749Y-55092038D01*
X121414056Y-54911654D01*
X121477617Y-54775344D01*
X121523375Y-54723168D01*
X121590000Y-54703748D01*
X121656625Y-54723168D01*
X121702382Y-54775344D01*
X121765941Y-54911649D01*
X121765943Y-54911651D01*
X121765944Y-54911654D01*
X121892251Y-55092038D01*
X122047962Y-55247749D01*
X122228346Y-55374056D01*
X122427924Y-55467120D01*
X122640629Y-55524115D01*
X122860000Y-55543307D01*
X123079371Y-55524115D01*
X123292076Y-55467120D01*
X123491654Y-55374056D01*
X123672038Y-55247749D01*
X123827749Y-55092038D01*
X123954056Y-54911654D01*
X124017617Y-54775344D01*
X124063375Y-54723168D01*
X124130000Y-54703748D01*
X124196625Y-54723168D01*
X124242382Y-54775344D01*
X124305941Y-54911649D01*
X124305943Y-54911651D01*
X124305944Y-54911654D01*
X124432251Y-55092038D01*
X124587962Y-55247749D01*
X124768346Y-55374056D01*
X124967924Y-55467120D01*
X125180629Y-55524115D01*
X125400000Y-55543307D01*
X125619371Y-55524115D01*
X125832076Y-55467120D01*
X126031654Y-55374056D01*
X126212038Y-55247749D01*
X126367749Y-55092038D01*
X126494056Y-54911654D01*
X126557617Y-54775344D01*
X126603375Y-54723168D01*
X126670000Y-54703748D01*
X126736625Y-54723168D01*
X126782382Y-54775344D01*
X126845941Y-54911649D01*
X126845943Y-54911651D01*
X126845944Y-54911654D01*
X126972251Y-55092038D01*
X127127962Y-55247749D01*
X127308346Y-55374056D01*
X127507924Y-55467120D01*
X127720629Y-55524115D01*
X127940000Y-55543307D01*
X128159371Y-55524115D01*
X128372076Y-55467120D01*
X128571654Y-55374056D01*
X128752038Y-55247749D01*
X128907749Y-55092038D01*
X129034056Y-54911654D01*
X129097617Y-54775344D01*
X129143375Y-54723168D01*
X129210000Y-54703748D01*
X129276625Y-54723168D01*
X129322382Y-54775344D01*
X129385941Y-54911649D01*
X129385943Y-54911651D01*
X129385944Y-54911654D01*
X129512251Y-55092038D01*
X129667962Y-55247749D01*
X129848346Y-55374056D01*
X130047924Y-55467120D01*
X130260629Y-55524115D01*
X130480000Y-55543307D01*
X130699371Y-55524115D01*
X130912076Y-55467120D01*
X131111654Y-55374056D01*
X131292038Y-55247749D01*
X131447749Y-55092038D01*
X131574056Y-54911654D01*
X131637617Y-54775344D01*
X131683375Y-54723168D01*
X131750000Y-54703748D01*
X131816625Y-54723168D01*
X131862382Y-54775344D01*
X131925941Y-54911649D01*
X131925943Y-54911651D01*
X131925944Y-54911654D01*
X132052251Y-55092038D01*
X132207962Y-55247749D01*
X132388346Y-55374056D01*
X132587924Y-55467120D01*
X132800629Y-55524115D01*
X133020000Y-55543307D01*
X133239371Y-55524115D01*
X133452076Y-55467120D01*
X133651654Y-55374056D01*
X133832038Y-55247749D01*
X133987749Y-55092038D01*
X134114056Y-54911654D01*
X134207120Y-54712076D01*
X134264115Y-54499371D01*
X134283307Y-54280000D01*
X134264115Y-54060629D01*
X134207120Y-53847924D01*
X134114056Y-53648347D01*
X133987749Y-53467962D01*
X133832038Y-53312251D01*
X133651654Y-53185944D01*
X133559636Y-53143035D01*
X133452077Y-53092880D01*
X133239368Y-53035884D01*
X133020000Y-53016692D01*
X132800631Y-53035884D01*
X132587922Y-53092880D01*
X132388349Y-53185943D01*
X132388347Y-53185944D01*
X132207962Y-53312251D01*
X132207958Y-53312254D01*
X132052254Y-53467958D01*
X131925943Y-53648349D01*
X131862382Y-53784656D01*
X131816625Y-53836832D01*
X131750000Y-53856251D01*
X131683375Y-53836832D01*
X131637618Y-53784656D01*
X131623634Y-53754668D01*
X131574056Y-53648347D01*
X131447749Y-53467962D01*
X131292038Y-53312251D01*
X131111654Y-53185944D01*
X131019636Y-53143035D01*
X130912077Y-53092880D01*
X130699368Y-53035884D01*
X130480000Y-53016692D01*
X130260631Y-53035884D01*
X130047922Y-53092880D01*
X129848349Y-53185943D01*
X129848347Y-53185944D01*
X129667962Y-53312251D01*
X129667958Y-53312254D01*
X129512254Y-53467958D01*
X129385943Y-53648349D01*
X129322382Y-53784656D01*
X129276625Y-53836832D01*
X129210000Y-53856251D01*
X129143375Y-53836832D01*
X129097618Y-53784656D01*
X129083634Y-53754668D01*
X129034056Y-53648347D01*
X128907749Y-53467962D01*
X128752038Y-53312251D01*
X128571654Y-53185944D01*
X128479636Y-53143035D01*
X128372077Y-53092880D01*
X128159368Y-53035884D01*
X127940000Y-53016692D01*
X127720631Y-53035884D01*
X127507922Y-53092880D01*
X127308349Y-53185943D01*
X127308347Y-53185944D01*
X127127962Y-53312251D01*
X127127958Y-53312254D01*
X126972254Y-53467958D01*
X126845943Y-53648349D01*
X126782382Y-53784656D01*
X126736625Y-53836832D01*
X126670000Y-53856251D01*
X126603375Y-53836832D01*
X126557618Y-53784656D01*
X126543634Y-53754668D01*
X126494056Y-53648347D01*
X126367749Y-53467962D01*
X126212038Y-53312251D01*
X126031654Y-53185944D01*
X125939636Y-53143035D01*
X125832077Y-53092880D01*
X125619368Y-53035884D01*
X125400000Y-53016692D01*
X125180631Y-53035884D01*
X124967922Y-53092880D01*
X124768349Y-53185943D01*
X124768347Y-53185944D01*
X124587962Y-53312251D01*
X124587958Y-53312254D01*
X124432254Y-53467958D01*
X124305943Y-53648349D01*
X124242382Y-53784656D01*
X124196625Y-53836832D01*
X124130000Y-53856251D01*
X124063375Y-53836832D01*
X124017618Y-53784656D01*
X124003634Y-53754668D01*
X123954056Y-53648347D01*
X123827749Y-53467962D01*
X123672038Y-53312251D01*
X123491654Y-53185944D01*
X123399636Y-53143035D01*
X123292077Y-53092880D01*
X123079368Y-53035884D01*
X122860000Y-53016692D01*
X122640631Y-53035884D01*
X122427922Y-53092880D01*
X122228349Y-53185943D01*
X122228347Y-53185944D01*
X122047962Y-53312251D01*
X122047958Y-53312254D01*
X121892254Y-53467958D01*
X121765943Y-53648349D01*
X121702382Y-53784656D01*
X121656625Y-53836832D01*
X121590000Y-53856251D01*
X121523375Y-53836832D01*
X121477618Y-53784656D01*
X121463634Y-53754668D01*
X121414056Y-53648347D01*
X121287749Y-53467962D01*
X121132038Y-53312251D01*
X120951654Y-53185944D01*
X120859636Y-53143035D01*
X120752077Y-53092880D01*
X120539368Y-53035884D01*
X120320000Y-53016692D01*
X120100631Y-53035884D01*
X119887922Y-53092880D01*
X119688349Y-53185943D01*
X119688347Y-53185944D01*
X119507962Y-53312251D01*
X119507958Y-53312254D01*
X119352254Y-53467958D01*
X119225943Y-53648349D01*
X119132880Y-53847922D01*
X119075884Y-54060631D01*
X119056692Y-54279999D01*
X100075500Y-54279999D01*
X100075500Y-50098634D01*
X117437500Y-50098634D01*
X117444011Y-50159205D01*
X117495110Y-50296203D01*
X117582738Y-50413261D01*
X117699796Y-50500889D01*
X117836794Y-50551988D01*
X117836797Y-50551988D01*
X117836799Y-50551989D01*
X117897362Y-50558500D01*
X119694634Y-50558500D01*
X119694638Y-50558500D01*
X119755201Y-50551989D01*
X119755203Y-50551988D01*
X119755205Y-50551988D01*
X119858398Y-50513498D01*
X119892204Y-50500889D01*
X120009261Y-50413261D01*
X120096889Y-50296204D01*
X120142137Y-50174889D01*
X120178089Y-50123677D01*
X120234471Y-50096539D01*
X120296925Y-50100387D01*
X120349548Y-50134241D01*
X120386969Y-50174890D01*
X120412760Y-50202906D01*
X120590424Y-50341189D01*
X120788426Y-50448342D01*
X121001365Y-50521444D01*
X121223431Y-50558500D01*
X121448569Y-50558500D01*
X121670635Y-50521444D01*
X121883574Y-50448342D01*
X122081576Y-50341189D01*
X122259240Y-50202906D01*
X122411722Y-50037268D01*
X122502190Y-49898795D01*
X122546982Y-49857561D01*
X122606000Y-49842616D01*
X122665018Y-49857561D01*
X122709809Y-49898795D01*
X122800278Y-50037268D01*
X122952760Y-50202906D01*
X123130424Y-50341189D01*
X123328426Y-50448342D01*
X123541365Y-50521444D01*
X123763431Y-50558500D01*
X123988569Y-50558500D01*
X124210635Y-50521444D01*
X124423574Y-50448342D01*
X124621576Y-50341189D01*
X124799240Y-50202906D01*
X124951722Y-50037268D01*
X125045748Y-49893349D01*
X125089663Y-49852595D01*
X125147562Y-49837188D01*
X125205926Y-49850726D01*
X125251131Y-49890048D01*
X125377892Y-50071080D01*
X125544918Y-50238106D01*
X125738423Y-50373600D01*
X125952507Y-50473430D01*
X126165999Y-50530635D01*
X126166000Y-50530636D01*
X126166000Y-50530635D01*
X126666000Y-50530635D01*
X126879492Y-50473430D01*
X127093576Y-50373600D01*
X127287081Y-50238106D01*
X127454106Y-50071081D01*
X127580868Y-49890048D01*
X127626072Y-49850726D01*
X127684436Y-49837188D01*
X127742335Y-49852595D01*
X127786252Y-49893351D01*
X127880276Y-50037267D01*
X127959824Y-50123677D01*
X128032760Y-50202906D01*
X128210424Y-50341189D01*
X128408426Y-50448342D01*
X128621365Y-50521444D01*
X128843431Y-50558500D01*
X129068569Y-50558500D01*
X129290635Y-50521444D01*
X129503574Y-50448342D01*
X129701576Y-50341189D01*
X129879240Y-50202906D01*
X130031722Y-50037268D01*
X130122190Y-49898795D01*
X130166982Y-49857561D01*
X130226000Y-49842616D01*
X130285018Y-49857561D01*
X130329809Y-49898795D01*
X130420278Y-50037268D01*
X130572760Y-50202906D01*
X130750424Y-50341189D01*
X130948426Y-50448342D01*
X131161365Y-50521444D01*
X131383431Y-50558500D01*
X131608569Y-50558500D01*
X131830635Y-50521444D01*
X132043574Y-50448342D01*
X132241576Y-50341189D01*
X132419240Y-50202906D01*
X132571722Y-50037268D01*
X132662190Y-49898795D01*
X132706982Y-49857561D01*
X132766000Y-49842616D01*
X132825018Y-49857561D01*
X132869809Y-49898795D01*
X132960278Y-50037268D01*
X133112760Y-50202906D01*
X133290424Y-50341189D01*
X133488426Y-50448342D01*
X133701365Y-50521444D01*
X133923431Y-50558500D01*
X134148569Y-50558500D01*
X134370635Y-50521444D01*
X134583574Y-50448342D01*
X134781576Y-50341189D01*
X134959240Y-50202906D01*
X135111722Y-50037268D01*
X135202190Y-49898795D01*
X135246982Y-49857561D01*
X135306000Y-49842616D01*
X135365018Y-49857561D01*
X135409809Y-49898795D01*
X135500278Y-50037268D01*
X135652760Y-50202906D01*
X135830424Y-50341189D01*
X136028426Y-50448342D01*
X136241365Y-50521444D01*
X136463431Y-50558500D01*
X136688569Y-50558500D01*
X136910635Y-50521444D01*
X137123574Y-50448342D01*
X137321576Y-50341189D01*
X137499240Y-50202906D01*
X137651722Y-50037268D01*
X137742190Y-49898795D01*
X137786982Y-49857561D01*
X137846000Y-49842616D01*
X137905018Y-49857561D01*
X137949809Y-49898795D01*
X138040278Y-50037268D01*
X138192760Y-50202906D01*
X138370424Y-50341189D01*
X138568426Y-50448342D01*
X138781365Y-50521444D01*
X139003431Y-50558500D01*
X139228569Y-50558500D01*
X139450635Y-50521444D01*
X139663574Y-50448342D01*
X139861576Y-50341189D01*
X140039240Y-50202906D01*
X140191722Y-50037268D01*
X140282190Y-49898795D01*
X140326982Y-49857561D01*
X140386000Y-49842616D01*
X140445018Y-49857561D01*
X140489809Y-49898795D01*
X140580278Y-50037268D01*
X140732760Y-50202906D01*
X140910424Y-50341189D01*
X141108426Y-50448342D01*
X141321365Y-50521444D01*
X141543431Y-50558500D01*
X141768569Y-50558500D01*
X141990635Y-50521444D01*
X142203574Y-50448342D01*
X142401576Y-50341189D01*
X142579240Y-50202906D01*
X142675230Y-50098634D01*
X144361500Y-50098634D01*
X144368011Y-50159205D01*
X144419110Y-50296203D01*
X144506738Y-50413261D01*
X144623796Y-50500889D01*
X144760794Y-50551988D01*
X144760797Y-50551988D01*
X144760799Y-50551989D01*
X144821362Y-50558500D01*
X146618634Y-50558500D01*
X146618638Y-50558500D01*
X146679201Y-50551989D01*
X146679203Y-50551988D01*
X146679205Y-50551988D01*
X146782398Y-50513498D01*
X146816204Y-50500889D01*
X146933261Y-50413261D01*
X147020889Y-50296204D01*
X147066137Y-50174889D01*
X147102089Y-50123677D01*
X147158471Y-50096539D01*
X147220925Y-50100387D01*
X147273548Y-50134241D01*
X147310969Y-50174890D01*
X147336760Y-50202906D01*
X147514424Y-50341189D01*
X147712426Y-50448342D01*
X147925365Y-50521444D01*
X148147431Y-50558500D01*
X148372569Y-50558500D01*
X148594635Y-50521444D01*
X148807574Y-50448342D01*
X149005576Y-50341189D01*
X149183240Y-50202906D01*
X149335722Y-50037268D01*
X149426190Y-49898795D01*
X149470982Y-49857561D01*
X149530000Y-49842616D01*
X149589018Y-49857561D01*
X149633809Y-49898795D01*
X149724278Y-50037268D01*
X149876760Y-50202906D01*
X150054424Y-50341189D01*
X150252426Y-50448342D01*
X150465365Y-50521444D01*
X150687431Y-50558500D01*
X150912569Y-50558500D01*
X151134635Y-50521444D01*
X151347574Y-50448342D01*
X151545576Y-50341189D01*
X151723240Y-50202906D01*
X151875722Y-50037268D01*
X151966190Y-49898795D01*
X152010982Y-49857561D01*
X152070000Y-49842616D01*
X152129018Y-49857561D01*
X152173809Y-49898795D01*
X152264278Y-50037268D01*
X152416760Y-50202906D01*
X152594424Y-50341189D01*
X152792426Y-50448342D01*
X153005365Y-50521444D01*
X153227431Y-50558500D01*
X153452569Y-50558500D01*
X153674635Y-50521444D01*
X153887574Y-50448342D01*
X154085576Y-50341189D01*
X154263240Y-50202906D01*
X154415722Y-50037268D01*
X154506190Y-49898795D01*
X154550982Y-49857561D01*
X154610000Y-49842616D01*
X154669018Y-49857561D01*
X154713809Y-49898795D01*
X154804278Y-50037268D01*
X154956760Y-50202906D01*
X155134424Y-50341189D01*
X155332426Y-50448342D01*
X155545365Y-50521444D01*
X155767431Y-50558500D01*
X155992569Y-50558500D01*
X156214635Y-50521444D01*
X156427574Y-50448342D01*
X156625576Y-50341189D01*
X156803240Y-50202906D01*
X156955722Y-50037268D01*
X157046190Y-49898795D01*
X157090982Y-49857561D01*
X157150000Y-49842616D01*
X157209018Y-49857561D01*
X157253809Y-49898795D01*
X157344278Y-50037268D01*
X157496760Y-50202906D01*
X157674424Y-50341189D01*
X157872426Y-50448342D01*
X158085365Y-50521444D01*
X158307431Y-50558500D01*
X158532569Y-50558500D01*
X158754635Y-50521444D01*
X158967574Y-50448342D01*
X159165576Y-50341189D01*
X159343240Y-50202906D01*
X159495722Y-50037268D01*
X159586190Y-49898795D01*
X159630982Y-49857561D01*
X159690000Y-49842616D01*
X159749018Y-49857561D01*
X159793809Y-49898795D01*
X159884278Y-50037268D01*
X160036760Y-50202906D01*
X160214424Y-50341189D01*
X160412426Y-50448342D01*
X160625365Y-50521444D01*
X160847431Y-50558500D01*
X161072569Y-50558500D01*
X161294635Y-50521444D01*
X161507574Y-50448342D01*
X161705576Y-50341189D01*
X161883240Y-50202906D01*
X162035722Y-50037268D01*
X162126190Y-49898795D01*
X162170982Y-49857561D01*
X162230000Y-49842616D01*
X162289018Y-49857561D01*
X162333809Y-49898795D01*
X162424278Y-50037268D01*
X162576760Y-50202906D01*
X162754424Y-50341189D01*
X162952426Y-50448342D01*
X163165365Y-50521444D01*
X163387431Y-50558500D01*
X163612569Y-50558500D01*
X163834635Y-50521444D01*
X164047574Y-50448342D01*
X164245576Y-50341189D01*
X164423240Y-50202906D01*
X164575722Y-50037268D01*
X164698860Y-49848791D01*
X164789296Y-49642616D01*
X164844564Y-49424368D01*
X164863156Y-49200000D01*
X179966501Y-49200000D01*
X179986456Y-49428084D01*
X180045717Y-49649246D01*
X180142474Y-49856744D01*
X180142476Y-49856746D01*
X180142477Y-49856749D01*
X180273802Y-50044300D01*
X180435700Y-50206198D01*
X180623251Y-50337523D01*
X180623254Y-50337524D01*
X180623255Y-50337525D01*
X180631113Y-50341189D01*
X180830757Y-50434284D01*
X181051913Y-50493543D01*
X181280000Y-50513498D01*
X181508087Y-50493543D01*
X181729243Y-50434284D01*
X181936749Y-50337523D01*
X182124300Y-50206198D01*
X182286198Y-50044300D01*
X182417523Y-49856749D01*
X182514284Y-49649243D01*
X182573543Y-49428087D01*
X182593498Y-49200000D01*
X185046501Y-49200000D01*
X185066456Y-49428084D01*
X185125717Y-49649246D01*
X185222474Y-49856744D01*
X185222476Y-49856746D01*
X185222477Y-49856749D01*
X185353802Y-50044300D01*
X185515700Y-50206198D01*
X185703251Y-50337523D01*
X185703254Y-50337524D01*
X185703255Y-50337525D01*
X185711113Y-50341189D01*
X185910757Y-50434284D01*
X186131913Y-50493543D01*
X186360000Y-50513498D01*
X186588087Y-50493543D01*
X186809243Y-50434284D01*
X187016749Y-50337523D01*
X187204300Y-50206198D01*
X187366198Y-50044300D01*
X187497523Y-49856749D01*
X187594284Y-49649243D01*
X187653543Y-49428087D01*
X187673498Y-49200000D01*
X187653543Y-48971913D01*
X187594284Y-48750757D01*
X187497523Y-48543251D01*
X187366198Y-48355700D01*
X187204300Y-48193802D01*
X187016749Y-48062477D01*
X187016746Y-48062476D01*
X187016744Y-48062474D01*
X186809246Y-47965717D01*
X186809243Y-47965716D01*
X186686549Y-47932840D01*
X186588084Y-47906456D01*
X186360000Y-47886501D01*
X186131915Y-47906456D01*
X185910753Y-47965717D01*
X185703255Y-48062474D01*
X185515696Y-48193805D01*
X185353805Y-48355696D01*
X185222474Y-48543255D01*
X185125717Y-48750753D01*
X185066456Y-48971915D01*
X185046501Y-49200000D01*
X182593498Y-49200000D01*
X182573543Y-48971913D01*
X182514284Y-48750757D01*
X182417523Y-48543251D01*
X182286198Y-48355700D01*
X182124300Y-48193802D01*
X181936749Y-48062477D01*
X181936746Y-48062476D01*
X181936744Y-48062474D01*
X181729246Y-47965717D01*
X181729243Y-47965716D01*
X181606549Y-47932840D01*
X181508084Y-47906456D01*
X181280000Y-47886501D01*
X181051915Y-47906456D01*
X180830753Y-47965717D01*
X180623255Y-48062474D01*
X180435696Y-48193805D01*
X180273805Y-48355696D01*
X180142474Y-48543255D01*
X180045717Y-48750753D01*
X179986456Y-48971915D01*
X179966501Y-49200000D01*
X164863156Y-49200000D01*
X164844564Y-48975632D01*
X164789296Y-48757384D01*
X164698860Y-48551209D01*
X164575722Y-48362732D01*
X164423240Y-48197094D01*
X164245576Y-48058811D01*
X164047574Y-47951658D01*
X164047573Y-47951657D01*
X164047572Y-47951657D01*
X163834636Y-47878556D01*
X163612569Y-47841500D01*
X163387431Y-47841500D01*
X163165363Y-47878556D01*
X162952427Y-47951657D01*
X162754424Y-48058811D01*
X162576760Y-48197094D01*
X162424279Y-48362730D01*
X162333809Y-48501205D01*
X162289017Y-48542438D01*
X162230000Y-48557383D01*
X162170983Y-48542438D01*
X162126191Y-48501205D01*
X162035723Y-48362734D01*
X162035722Y-48362732D01*
X161883240Y-48197094D01*
X161705576Y-48058811D01*
X161507574Y-47951658D01*
X161507573Y-47951657D01*
X161507572Y-47951657D01*
X161294636Y-47878556D01*
X161072569Y-47841500D01*
X160847431Y-47841500D01*
X160625363Y-47878556D01*
X160412427Y-47951657D01*
X160214424Y-48058811D01*
X160036760Y-48197094D01*
X159884279Y-48362730D01*
X159793809Y-48501205D01*
X159749017Y-48542438D01*
X159690000Y-48557383D01*
X159630983Y-48542438D01*
X159586191Y-48501205D01*
X159495723Y-48362734D01*
X159495722Y-48362732D01*
X159343240Y-48197094D01*
X159165576Y-48058811D01*
X158967574Y-47951658D01*
X158967573Y-47951657D01*
X158967572Y-47951657D01*
X158754636Y-47878556D01*
X158532569Y-47841500D01*
X158307431Y-47841500D01*
X158085363Y-47878556D01*
X157872427Y-47951657D01*
X157674424Y-48058811D01*
X157496760Y-48197094D01*
X157344279Y-48362730D01*
X157253809Y-48501205D01*
X157209017Y-48542438D01*
X157150000Y-48557383D01*
X157090983Y-48542438D01*
X157046191Y-48501205D01*
X156955723Y-48362734D01*
X156955722Y-48362732D01*
X156803240Y-48197094D01*
X156625576Y-48058811D01*
X156427574Y-47951658D01*
X156427573Y-47951657D01*
X156427572Y-47951657D01*
X156214636Y-47878556D01*
X155992569Y-47841500D01*
X155767431Y-47841500D01*
X155545363Y-47878556D01*
X155332427Y-47951657D01*
X155134424Y-48058811D01*
X154956760Y-48197094D01*
X154804279Y-48362730D01*
X154713809Y-48501205D01*
X154669017Y-48542438D01*
X154610000Y-48557383D01*
X154550983Y-48542438D01*
X154506191Y-48501205D01*
X154415723Y-48362734D01*
X154415722Y-48362732D01*
X154263240Y-48197094D01*
X154085576Y-48058811D01*
X153887574Y-47951658D01*
X153887573Y-47951657D01*
X153887572Y-47951657D01*
X153674636Y-47878556D01*
X153452569Y-47841500D01*
X153227431Y-47841500D01*
X153005363Y-47878556D01*
X152792427Y-47951657D01*
X152594424Y-48058811D01*
X152416760Y-48197094D01*
X152264279Y-48362730D01*
X152173809Y-48501205D01*
X152129017Y-48542438D01*
X152070000Y-48557383D01*
X152010983Y-48542438D01*
X151966191Y-48501205D01*
X151875723Y-48362734D01*
X151875722Y-48362732D01*
X151723240Y-48197094D01*
X151545576Y-48058811D01*
X151347574Y-47951658D01*
X151347573Y-47951657D01*
X151347572Y-47951657D01*
X151134636Y-47878556D01*
X150912569Y-47841500D01*
X150687431Y-47841500D01*
X150465363Y-47878556D01*
X150252427Y-47951657D01*
X150054424Y-48058811D01*
X149876760Y-48197094D01*
X149724279Y-48362730D01*
X149633809Y-48501205D01*
X149589017Y-48542438D01*
X149530000Y-48557383D01*
X149470983Y-48542438D01*
X149426191Y-48501205D01*
X149335723Y-48362734D01*
X149335722Y-48362732D01*
X149183240Y-48197094D01*
X149005576Y-48058811D01*
X148807574Y-47951658D01*
X148807573Y-47951657D01*
X148807572Y-47951657D01*
X148594636Y-47878556D01*
X148372569Y-47841500D01*
X148147431Y-47841500D01*
X147925363Y-47878556D01*
X147712427Y-47951657D01*
X147514424Y-48058811D01*
X147336759Y-48197094D01*
X147273548Y-48265759D01*
X147220924Y-48299612D01*
X147158470Y-48303460D01*
X147102089Y-48276322D01*
X147066138Y-48225110D01*
X147041427Y-48158861D01*
X147020889Y-48103796D01*
X146962951Y-48026400D01*
X146933261Y-47986738D01*
X146816203Y-47899110D01*
X146679205Y-47848011D01*
X146648919Y-47844755D01*
X146618638Y-47841500D01*
X144821362Y-47841500D01*
X144794445Y-47844393D01*
X144760794Y-47848011D01*
X144623796Y-47899110D01*
X144506738Y-47986738D01*
X144419110Y-48103796D01*
X144368011Y-48240794D01*
X144364393Y-48274445D01*
X144361689Y-48299612D01*
X144361500Y-48301366D01*
X144361500Y-50098634D01*
X142675230Y-50098634D01*
X142731722Y-50037268D01*
X142854860Y-49848791D01*
X142945296Y-49642616D01*
X143000564Y-49424368D01*
X143019156Y-49200000D01*
X143000564Y-48975632D01*
X142945296Y-48757384D01*
X142854860Y-48551209D01*
X142731722Y-48362732D01*
X142579240Y-48197094D01*
X142401576Y-48058811D01*
X142203574Y-47951658D01*
X142203573Y-47951657D01*
X142203572Y-47951657D01*
X141990636Y-47878556D01*
X141768569Y-47841500D01*
X141543431Y-47841500D01*
X141321363Y-47878556D01*
X141108427Y-47951657D01*
X140910424Y-48058811D01*
X140732760Y-48197094D01*
X140580279Y-48362730D01*
X140489809Y-48501205D01*
X140445017Y-48542438D01*
X140386000Y-48557383D01*
X140326983Y-48542438D01*
X140282191Y-48501205D01*
X140191723Y-48362734D01*
X140191722Y-48362732D01*
X140039240Y-48197094D01*
X139861576Y-48058811D01*
X139663574Y-47951658D01*
X139663573Y-47951657D01*
X139663572Y-47951657D01*
X139450636Y-47878556D01*
X139228569Y-47841500D01*
X139003431Y-47841500D01*
X138781363Y-47878556D01*
X138568427Y-47951657D01*
X138370424Y-48058811D01*
X138192760Y-48197094D01*
X138040279Y-48362730D01*
X137949809Y-48501205D01*
X137905017Y-48542438D01*
X137846000Y-48557383D01*
X137786983Y-48542438D01*
X137742191Y-48501205D01*
X137651723Y-48362734D01*
X137651722Y-48362732D01*
X137499240Y-48197094D01*
X137321576Y-48058811D01*
X137123574Y-47951658D01*
X137123573Y-47951657D01*
X137123572Y-47951657D01*
X136910636Y-47878556D01*
X136688569Y-47841500D01*
X136463431Y-47841500D01*
X136241363Y-47878556D01*
X136028427Y-47951657D01*
X135830424Y-48058811D01*
X135652760Y-48197094D01*
X135500279Y-48362730D01*
X135409809Y-48501205D01*
X135365017Y-48542438D01*
X135306000Y-48557383D01*
X135246983Y-48542438D01*
X135202191Y-48501205D01*
X135111723Y-48362734D01*
X135111722Y-48362732D01*
X134959240Y-48197094D01*
X134781576Y-48058811D01*
X134583574Y-47951658D01*
X134583573Y-47951657D01*
X134583572Y-47951657D01*
X134370636Y-47878556D01*
X134148569Y-47841500D01*
X133923431Y-47841500D01*
X133701363Y-47878556D01*
X133488427Y-47951657D01*
X133290424Y-48058811D01*
X133112760Y-48197094D01*
X132960279Y-48362730D01*
X132869809Y-48501205D01*
X132825017Y-48542438D01*
X132766000Y-48557383D01*
X132706983Y-48542438D01*
X132662191Y-48501205D01*
X132571723Y-48362734D01*
X132571722Y-48362732D01*
X132419240Y-48197094D01*
X132241576Y-48058811D01*
X132043574Y-47951658D01*
X132043573Y-47951657D01*
X132043572Y-47951657D01*
X131830636Y-47878556D01*
X131608569Y-47841500D01*
X131383431Y-47841500D01*
X131161363Y-47878556D01*
X130948427Y-47951657D01*
X130750424Y-48058811D01*
X130572760Y-48197094D01*
X130420279Y-48362730D01*
X130329809Y-48501205D01*
X130285017Y-48542438D01*
X130226000Y-48557383D01*
X130166983Y-48542438D01*
X130122191Y-48501205D01*
X130031723Y-48362734D01*
X130031722Y-48362732D01*
X129879240Y-48197094D01*
X129701576Y-48058811D01*
X129503574Y-47951658D01*
X129503573Y-47951657D01*
X129503572Y-47951657D01*
X129290636Y-47878556D01*
X129068569Y-47841500D01*
X128843431Y-47841500D01*
X128621363Y-47878556D01*
X128408427Y-47951657D01*
X128210424Y-48058811D01*
X128032760Y-48197094D01*
X127880275Y-48362734D01*
X127786250Y-48506650D01*
X127742334Y-48547405D01*
X127684435Y-48562812D01*
X127626071Y-48549274D01*
X127580867Y-48509951D01*
X127454109Y-48328921D01*
X127287081Y-48161893D01*
X127093576Y-48026399D01*
X126879492Y-47926569D01*
X126666000Y-47869364D01*
X126666000Y-50530635D01*
X126166000Y-50530635D01*
X126166000Y-47869364D01*
X126165999Y-47869364D01*
X125952507Y-47926569D01*
X125738421Y-48026400D01*
X125544921Y-48161890D01*
X125377893Y-48328918D01*
X125251132Y-48509952D01*
X125205928Y-48549274D01*
X125147564Y-48562812D01*
X125089665Y-48547405D01*
X125045748Y-48506649D01*
X124951723Y-48362732D01*
X124862451Y-48265759D01*
X124799240Y-48197094D01*
X124621576Y-48058811D01*
X124423574Y-47951658D01*
X124423573Y-47951657D01*
X124423572Y-47951657D01*
X124210636Y-47878556D01*
X123988569Y-47841500D01*
X123763431Y-47841500D01*
X123541363Y-47878556D01*
X123328427Y-47951657D01*
X123130424Y-48058811D01*
X122952760Y-48197094D01*
X122800279Y-48362730D01*
X122709809Y-48501205D01*
X122665017Y-48542438D01*
X122606000Y-48557383D01*
X122546983Y-48542438D01*
X122502191Y-48501205D01*
X122411723Y-48362734D01*
X122411722Y-48362732D01*
X122259240Y-48197094D01*
X122081576Y-48058811D01*
X121883574Y-47951658D01*
X121883573Y-47951657D01*
X121883572Y-47951657D01*
X121670636Y-47878556D01*
X121448569Y-47841500D01*
X121223431Y-47841500D01*
X121001363Y-47878556D01*
X120788427Y-47951657D01*
X120590424Y-48058811D01*
X120412759Y-48197094D01*
X120349548Y-48265759D01*
X120296924Y-48299612D01*
X120234470Y-48303460D01*
X120178089Y-48276322D01*
X120142138Y-48225110D01*
X120117427Y-48158861D01*
X120096889Y-48103796D01*
X120038951Y-48026400D01*
X120009261Y-47986738D01*
X119892203Y-47899110D01*
X119755205Y-47848011D01*
X119724919Y-47844755D01*
X119694638Y-47841500D01*
X117897362Y-47841500D01*
X117870445Y-47844393D01*
X117836794Y-47848011D01*
X117699796Y-47899110D01*
X117582738Y-47986738D01*
X117495110Y-48103796D01*
X117444011Y-48240794D01*
X117440393Y-48274445D01*
X117437689Y-48299612D01*
X117437500Y-48301366D01*
X117437500Y-50098634D01*
X100075500Y-50098634D01*
X100075500Y-49203751D01*
X100075726Y-49196264D01*
X100084385Y-49053117D01*
X100093016Y-48910420D01*
X100094821Y-48895558D01*
X100120143Y-48757384D01*
X100145763Y-48617574D01*
X100149341Y-48603060D01*
X100233428Y-48333210D01*
X100238723Y-48319251D01*
X100354721Y-48061516D01*
X100361664Y-48048287D01*
X100507884Y-47806407D01*
X100516371Y-47794112D01*
X100690678Y-47571626D01*
X100700593Y-47560435D01*
X100900435Y-47360593D01*
X100911626Y-47350678D01*
X101134112Y-47176371D01*
X101146407Y-47167884D01*
X101388287Y-47021664D01*
X101401516Y-47014721D01*
X101659251Y-46898723D01*
X101673210Y-46893428D01*
X101943060Y-46809341D01*
X101957574Y-46805763D01*
X102235562Y-46754820D01*
X102250420Y-46753016D01*
X102536263Y-46735726D01*
X102543751Y-46735500D01*
X102564531Y-46735500D01*
X196495469Y-46735500D01*
X196516249Y-46735500D01*
X196523736Y-46735726D01*
G37*
%TD.AperFunction*%
%TD*%
M02*
