%TF.GenerationSoftware,KiCad,Pcbnew,7.0.1*%
%TF.CreationDate,2023-03-30T13:35:16-06:00*%
%TF.ProjectId,Phase_A_UnoShield,50686173-655f-4415-9f55-6e6f53686965,rev?*%
%TF.SameCoordinates,Original*%
%TF.FileFunction,Legend,Bot*%
%TF.FilePolarity,Positive*%
%FSLAX46Y46*%
G04 Gerber Fmt 4.6, Leading zero omitted, Abs format (unit mm)*
G04 Created by KiCad (PCBNEW 7.0.1) date 2023-03-30 13:35:16*
%MOMM*%
%LPD*%
G01*
G04 APERTURE LIST*
%ADD10C,0.400000*%
G04 APERTURE END LIST*
D10*
X196620216Y-95588997D02*
X196620216Y-93588997D01*
X195477359Y-95588997D02*
X196334502Y-94446139D01*
X195477359Y-93588997D02*
X196620216Y-94731854D01*
X194620216Y-95588997D02*
X194620216Y-94255663D01*
X194620216Y-93588997D02*
X194715454Y-93684235D01*
X194715454Y-93684235D02*
X194620216Y-93779473D01*
X194620216Y-93779473D02*
X194524978Y-93684235D01*
X194524978Y-93684235D02*
X194620216Y-93588997D01*
X194620216Y-93588997D02*
X194620216Y-93779473D01*
X193953549Y-94255663D02*
X193191645Y-94255663D01*
X193667835Y-93588997D02*
X193667835Y-95303282D01*
X193667835Y-95303282D02*
X193572597Y-95493759D01*
X193572597Y-95493759D02*
X193382121Y-95588997D01*
X193382121Y-95588997D02*
X193191645Y-95588997D01*
X191667835Y-95493759D02*
X191858311Y-95588997D01*
X191858311Y-95588997D02*
X192239264Y-95588997D01*
X192239264Y-95588997D02*
X192429740Y-95493759D01*
X192429740Y-95493759D02*
X192524978Y-95398520D01*
X192524978Y-95398520D02*
X192620216Y-95208044D01*
X192620216Y-95208044D02*
X192620216Y-94636616D01*
X192620216Y-94636616D02*
X192524978Y-94446139D01*
X192524978Y-94446139D02*
X192429740Y-94350901D01*
X192429740Y-94350901D02*
X192239264Y-94255663D01*
X192239264Y-94255663D02*
X191858311Y-94255663D01*
X191858311Y-94255663D02*
X191667835Y-94350901D01*
X190810692Y-95588997D02*
X190810692Y-93588997D01*
X189953549Y-95588997D02*
X189953549Y-94541378D01*
X189953549Y-94541378D02*
X190048787Y-94350901D01*
X190048787Y-94350901D02*
X190239263Y-94255663D01*
X190239263Y-94255663D02*
X190524978Y-94255663D01*
X190524978Y-94255663D02*
X190715454Y-94350901D01*
X190715454Y-94350901D02*
X190810692Y-94446139D01*
X188239263Y-95493759D02*
X188429739Y-95588997D01*
X188429739Y-95588997D02*
X188810692Y-95588997D01*
X188810692Y-95588997D02*
X189001168Y-95493759D01*
X189001168Y-95493759D02*
X189096406Y-95303282D01*
X189096406Y-95303282D02*
X189096406Y-94541378D01*
X189096406Y-94541378D02*
X189001168Y-94350901D01*
X189001168Y-94350901D02*
X188810692Y-94255663D01*
X188810692Y-94255663D02*
X188429739Y-94255663D01*
X188429739Y-94255663D02*
X188239263Y-94350901D01*
X188239263Y-94350901D02*
X188144025Y-94541378D01*
X188144025Y-94541378D02*
X188144025Y-94731854D01*
X188144025Y-94731854D02*
X189096406Y-94922330D01*
X187286882Y-94255663D02*
X187286882Y-95588997D01*
X187286882Y-94446139D02*
X187191644Y-94350901D01*
X187191644Y-94350901D02*
X187001168Y-94255663D01*
X187001168Y-94255663D02*
X186715453Y-94255663D01*
X186715453Y-94255663D02*
X186524977Y-94350901D01*
X186524977Y-94350901D02*
X186429739Y-94541378D01*
X186429739Y-94541378D02*
X186429739Y-95588997D01*
X184239262Y-93588997D02*
X183096405Y-93588997D01*
X183667834Y-95588997D02*
X183667834Y-93588997D01*
X182429738Y-95588997D02*
X182429738Y-94255663D01*
X182429738Y-93588997D02*
X182524976Y-93684235D01*
X182524976Y-93684235D02*
X182429738Y-93779473D01*
X182429738Y-93779473D02*
X182334500Y-93684235D01*
X182334500Y-93684235D02*
X182429738Y-93588997D01*
X182429738Y-93588997D02*
X182429738Y-93779473D01*
X181477357Y-95588997D02*
X181477357Y-94255663D01*
X181477357Y-94446139D02*
X181382119Y-94350901D01*
X181382119Y-94350901D02*
X181191643Y-94255663D01*
X181191643Y-94255663D02*
X180905928Y-94255663D01*
X180905928Y-94255663D02*
X180715452Y-94350901D01*
X180715452Y-94350901D02*
X180620214Y-94541378D01*
X180620214Y-94541378D02*
X180620214Y-95588997D01*
X180620214Y-94541378D02*
X180524976Y-94350901D01*
X180524976Y-94350901D02*
X180334500Y-94255663D01*
X180334500Y-94255663D02*
X180048786Y-94255663D01*
X180048786Y-94255663D02*
X179858309Y-94350901D01*
X179858309Y-94350901D02*
X179763071Y-94541378D01*
X179763071Y-94541378D02*
X179763071Y-95588997D01*
X178048785Y-95493759D02*
X178239261Y-95588997D01*
X178239261Y-95588997D02*
X178620214Y-95588997D01*
X178620214Y-95588997D02*
X178810690Y-95493759D01*
X178810690Y-95493759D02*
X178905928Y-95303282D01*
X178905928Y-95303282D02*
X178905928Y-94541378D01*
X178905928Y-94541378D02*
X178810690Y-94350901D01*
X178810690Y-94350901D02*
X178620214Y-94255663D01*
X178620214Y-94255663D02*
X178239261Y-94255663D01*
X178239261Y-94255663D02*
X178048785Y-94350901D01*
X178048785Y-94350901D02*
X177953547Y-94541378D01*
X177953547Y-94541378D02*
X177953547Y-94731854D01*
X177953547Y-94731854D02*
X178905928Y-94922330D01*
X177096404Y-95588997D02*
X177096404Y-94255663D01*
X177096404Y-94636616D02*
X177001166Y-94446139D01*
X177001166Y-94446139D02*
X176905928Y-94350901D01*
X176905928Y-94350901D02*
X176715452Y-94255663D01*
X176715452Y-94255663D02*
X176524975Y-94255663D01*
X195096406Y-96828997D02*
X194429740Y-98828997D01*
X194429740Y-98828997D02*
X193763073Y-96828997D01*
X192334501Y-98733759D02*
X192524977Y-98828997D01*
X192524977Y-98828997D02*
X192905930Y-98828997D01*
X192905930Y-98828997D02*
X193096406Y-98733759D01*
X193096406Y-98733759D02*
X193191644Y-98543282D01*
X193191644Y-98543282D02*
X193191644Y-97781378D01*
X193191644Y-97781378D02*
X193096406Y-97590901D01*
X193096406Y-97590901D02*
X192905930Y-97495663D01*
X192905930Y-97495663D02*
X192524977Y-97495663D01*
X192524977Y-97495663D02*
X192334501Y-97590901D01*
X192334501Y-97590901D02*
X192239263Y-97781378D01*
X192239263Y-97781378D02*
X192239263Y-97971854D01*
X192239263Y-97971854D02*
X193191644Y-98162330D01*
X191382120Y-98828997D02*
X191382120Y-97495663D01*
X191382120Y-97876616D02*
X191286882Y-97686139D01*
X191286882Y-97686139D02*
X191191644Y-97590901D01*
X191191644Y-97590901D02*
X191001168Y-97495663D01*
X191001168Y-97495663D02*
X190810691Y-97495663D01*
X190239263Y-98733759D02*
X190048787Y-98828997D01*
X190048787Y-98828997D02*
X189667835Y-98828997D01*
X189667835Y-98828997D02*
X189477358Y-98733759D01*
X189477358Y-98733759D02*
X189382120Y-98543282D01*
X189382120Y-98543282D02*
X189382120Y-98448044D01*
X189382120Y-98448044D02*
X189477358Y-98257568D01*
X189477358Y-98257568D02*
X189667835Y-98162330D01*
X189667835Y-98162330D02*
X189953549Y-98162330D01*
X189953549Y-98162330D02*
X190144025Y-98067092D01*
X190144025Y-98067092D02*
X190239263Y-97876616D01*
X190239263Y-97876616D02*
X190239263Y-97781378D01*
X190239263Y-97781378D02*
X190144025Y-97590901D01*
X190144025Y-97590901D02*
X189953549Y-97495663D01*
X189953549Y-97495663D02*
X189667835Y-97495663D01*
X189667835Y-97495663D02*
X189477358Y-97590901D01*
X188524977Y-98828997D02*
X188524977Y-97495663D01*
X188524977Y-96828997D02*
X188620215Y-96924235D01*
X188620215Y-96924235D02*
X188524977Y-97019473D01*
X188524977Y-97019473D02*
X188429739Y-96924235D01*
X188429739Y-96924235D02*
X188524977Y-96828997D01*
X188524977Y-96828997D02*
X188524977Y-97019473D01*
X187286882Y-98828997D02*
X187477358Y-98733759D01*
X187477358Y-98733759D02*
X187572596Y-98638520D01*
X187572596Y-98638520D02*
X187667834Y-98448044D01*
X187667834Y-98448044D02*
X187667834Y-97876616D01*
X187667834Y-97876616D02*
X187572596Y-97686139D01*
X187572596Y-97686139D02*
X187477358Y-97590901D01*
X187477358Y-97590901D02*
X187286882Y-97495663D01*
X187286882Y-97495663D02*
X187001167Y-97495663D01*
X187001167Y-97495663D02*
X186810691Y-97590901D01*
X186810691Y-97590901D02*
X186715453Y-97686139D01*
X186715453Y-97686139D02*
X186620215Y-97876616D01*
X186620215Y-97876616D02*
X186620215Y-98448044D01*
X186620215Y-98448044D02*
X186715453Y-98638520D01*
X186715453Y-98638520D02*
X186810691Y-98733759D01*
X186810691Y-98733759D02*
X187001167Y-98828997D01*
X187001167Y-98828997D02*
X187286882Y-98828997D01*
X185763072Y-97495663D02*
X185763072Y-98828997D01*
X185763072Y-97686139D02*
X185667834Y-97590901D01*
X185667834Y-97590901D02*
X185477358Y-97495663D01*
X185477358Y-97495663D02*
X185191643Y-97495663D01*
X185191643Y-97495663D02*
X185001167Y-97590901D01*
X185001167Y-97590901D02*
X184905929Y-97781378D01*
X184905929Y-97781378D02*
X184905929Y-98828997D01*
X181382119Y-98828997D02*
X182524976Y-98828997D01*
X181953548Y-98828997D02*
X181953548Y-96828997D01*
X181953548Y-96828997D02*
X182144024Y-97114711D01*
X182144024Y-97114711D02*
X182334500Y-97305187D01*
X182334500Y-97305187D02*
X182524976Y-97400425D01*
X180524976Y-98638520D02*
X180429738Y-98733759D01*
X180429738Y-98733759D02*
X180524976Y-98828997D01*
X180524976Y-98828997D02*
X180620214Y-98733759D01*
X180620214Y-98733759D02*
X180524976Y-98638520D01*
X180524976Y-98638520D02*
X180524976Y-98828997D01*
X179191643Y-96828997D02*
X179001166Y-96828997D01*
X179001166Y-96828997D02*
X178810690Y-96924235D01*
X178810690Y-96924235D02*
X178715452Y-97019473D01*
X178715452Y-97019473D02*
X178620214Y-97209949D01*
X178620214Y-97209949D02*
X178524976Y-97590901D01*
X178524976Y-97590901D02*
X178524976Y-98067092D01*
X178524976Y-98067092D02*
X178620214Y-98448044D01*
X178620214Y-98448044D02*
X178715452Y-98638520D01*
X178715452Y-98638520D02*
X178810690Y-98733759D01*
X178810690Y-98733759D02*
X179001166Y-98828997D01*
X179001166Y-98828997D02*
X179191643Y-98828997D01*
X179191643Y-98828997D02*
X179382119Y-98733759D01*
X179382119Y-98733759D02*
X179477357Y-98638520D01*
X179477357Y-98638520D02*
X179572595Y-98448044D01*
X179572595Y-98448044D02*
X179667833Y-98067092D01*
X179667833Y-98067092D02*
X179667833Y-97590901D01*
X179667833Y-97590901D02*
X179572595Y-97209949D01*
X179572595Y-97209949D02*
X179477357Y-97019473D01*
X179477357Y-97019473D02*
X179382119Y-96924235D01*
X179382119Y-96924235D02*
X179191643Y-96828997D01*
M02*
