%TF.GenerationSoftware,KiCad,Pcbnew,7.0.1*%
%TF.CreationDate,2023-03-30T13:35:16-06:00*%
%TF.ProjectId,Phase_A_UnoShield,50686173-655f-4415-9f55-6e6f53686965,rev?*%
%TF.SameCoordinates,Original*%
%TF.FileFunction,Legend,Top*%
%TF.FilePolarity,Positive*%
%FSLAX46Y46*%
G04 Gerber Fmt 4.6, Leading zero omitted, Abs format (unit mm)*
G04 Created by KiCad (PCBNEW 7.0.1) date 2023-03-30 13:35:16*
%MOMM*%
%LPD*%
G01*
G04 APERTURE LIST*
%ADD10C,0.150000*%
%ADD11C,0.400000*%
%ADD12C,0.120000*%
G04 APERTURE END LIST*
D10*
X191029805Y-50548447D02*
X190934567Y-50500828D01*
X190934567Y-50500828D02*
X190791710Y-50500828D01*
X190791710Y-50500828D02*
X190648853Y-50548447D01*
X190648853Y-50548447D02*
X190553615Y-50643685D01*
X190553615Y-50643685D02*
X190505996Y-50738923D01*
X190505996Y-50738923D02*
X190458377Y-50929399D01*
X190458377Y-50929399D02*
X190458377Y-51072256D01*
X190458377Y-51072256D02*
X190505996Y-51262732D01*
X190505996Y-51262732D02*
X190553615Y-51357970D01*
X190553615Y-51357970D02*
X190648853Y-51453209D01*
X190648853Y-51453209D02*
X190791710Y-51500828D01*
X190791710Y-51500828D02*
X190886948Y-51500828D01*
X190886948Y-51500828D02*
X191029805Y-51453209D01*
X191029805Y-51453209D02*
X191077424Y-51405589D01*
X191077424Y-51405589D02*
X191077424Y-51072256D01*
X191077424Y-51072256D02*
X190886948Y-51072256D01*
X191505996Y-51500828D02*
X191505996Y-50834161D01*
X191505996Y-51024637D02*
X191553615Y-50929399D01*
X191553615Y-50929399D02*
X191601234Y-50881780D01*
X191601234Y-50881780D02*
X191696472Y-50834161D01*
X191696472Y-50834161D02*
X191791710Y-50834161D01*
X192505996Y-51453209D02*
X192410758Y-51500828D01*
X192410758Y-51500828D02*
X192220282Y-51500828D01*
X192220282Y-51500828D02*
X192125044Y-51453209D01*
X192125044Y-51453209D02*
X192077425Y-51357970D01*
X192077425Y-51357970D02*
X192077425Y-50977018D01*
X192077425Y-50977018D02*
X192125044Y-50881780D01*
X192125044Y-50881780D02*
X192220282Y-50834161D01*
X192220282Y-50834161D02*
X192410758Y-50834161D01*
X192410758Y-50834161D02*
X192505996Y-50881780D01*
X192505996Y-50881780D02*
X192553615Y-50977018D01*
X192553615Y-50977018D02*
X192553615Y-51072256D01*
X192553615Y-51072256D02*
X192077425Y-51167494D01*
X193363139Y-51453209D02*
X193267901Y-51500828D01*
X193267901Y-51500828D02*
X193077425Y-51500828D01*
X193077425Y-51500828D02*
X192982187Y-51453209D01*
X192982187Y-51453209D02*
X192934568Y-51357970D01*
X192934568Y-51357970D02*
X192934568Y-50977018D01*
X192934568Y-50977018D02*
X192982187Y-50881780D01*
X192982187Y-50881780D02*
X193077425Y-50834161D01*
X193077425Y-50834161D02*
X193267901Y-50834161D01*
X193267901Y-50834161D02*
X193363139Y-50881780D01*
X193363139Y-50881780D02*
X193410758Y-50977018D01*
X193410758Y-50977018D02*
X193410758Y-51072256D01*
X193410758Y-51072256D02*
X192934568Y-51167494D01*
X193839330Y-50834161D02*
X193839330Y-51500828D01*
X193839330Y-50929399D02*
X193886949Y-50881780D01*
X193886949Y-50881780D02*
X193982187Y-50834161D01*
X193982187Y-50834161D02*
X194125044Y-50834161D01*
X194125044Y-50834161D02*
X194220282Y-50881780D01*
X194220282Y-50881780D02*
X194267901Y-50977018D01*
X194267901Y-50977018D02*
X194267901Y-51500828D01*
X173949552Y-51373955D02*
X173616219Y-50897764D01*
X173378124Y-51373955D02*
X173378124Y-50373955D01*
X173378124Y-50373955D02*
X173759076Y-50373955D01*
X173759076Y-50373955D02*
X173854314Y-50421574D01*
X173854314Y-50421574D02*
X173901933Y-50469193D01*
X173901933Y-50469193D02*
X173949552Y-50564431D01*
X173949552Y-50564431D02*
X173949552Y-50707288D01*
X173949552Y-50707288D02*
X173901933Y-50802526D01*
X173901933Y-50802526D02*
X173854314Y-50850145D01*
X173854314Y-50850145D02*
X173759076Y-50897764D01*
X173759076Y-50897764D02*
X173378124Y-50897764D01*
X174759076Y-51326336D02*
X174663838Y-51373955D01*
X174663838Y-51373955D02*
X174473362Y-51373955D01*
X174473362Y-51373955D02*
X174378124Y-51326336D01*
X174378124Y-51326336D02*
X174330505Y-51231097D01*
X174330505Y-51231097D02*
X174330505Y-50850145D01*
X174330505Y-50850145D02*
X174378124Y-50754907D01*
X174378124Y-50754907D02*
X174473362Y-50707288D01*
X174473362Y-50707288D02*
X174663838Y-50707288D01*
X174663838Y-50707288D02*
X174759076Y-50754907D01*
X174759076Y-50754907D02*
X174806695Y-50850145D01*
X174806695Y-50850145D02*
X174806695Y-50945383D01*
X174806695Y-50945383D02*
X174330505Y-51040621D01*
X175663838Y-51373955D02*
X175663838Y-50373955D01*
X175663838Y-51326336D02*
X175568600Y-51373955D01*
X175568600Y-51373955D02*
X175378124Y-51373955D01*
X175378124Y-51373955D02*
X175282886Y-51326336D01*
X175282886Y-51326336D02*
X175235267Y-51278716D01*
X175235267Y-51278716D02*
X175187648Y-51183478D01*
X175187648Y-51183478D02*
X175187648Y-50897764D01*
X175187648Y-50897764D02*
X175235267Y-50802526D01*
X175235267Y-50802526D02*
X175282886Y-50754907D01*
X175282886Y-50754907D02*
X175378124Y-50707288D01*
X175378124Y-50707288D02*
X175568600Y-50707288D01*
X175568600Y-50707288D02*
X175663838Y-50754907D01*
X127323179Y-74084245D02*
X127323179Y-73084245D01*
X127799369Y-73417578D02*
X127799369Y-74084245D01*
X127799369Y-73512816D02*
X127846988Y-73465197D01*
X127846988Y-73465197D02*
X127942226Y-73417578D01*
X127942226Y-73417578D02*
X128085083Y-73417578D01*
X128085083Y-73417578D02*
X128180321Y-73465197D01*
X128180321Y-73465197D02*
X128227940Y-73560435D01*
X128227940Y-73560435D02*
X128227940Y-74084245D01*
X129132702Y-74036626D02*
X129037464Y-74084245D01*
X129037464Y-74084245D02*
X128846988Y-74084245D01*
X128846988Y-74084245D02*
X128751750Y-74036626D01*
X128751750Y-74036626D02*
X128704131Y-73989006D01*
X128704131Y-73989006D02*
X128656512Y-73893768D01*
X128656512Y-73893768D02*
X128656512Y-73608054D01*
X128656512Y-73608054D02*
X128704131Y-73512816D01*
X128704131Y-73512816D02*
X128751750Y-73465197D01*
X128751750Y-73465197D02*
X128846988Y-73417578D01*
X128846988Y-73417578D02*
X129037464Y-73417578D01*
X129037464Y-73417578D02*
X129132702Y-73465197D01*
X129561274Y-74084245D02*
X129561274Y-73417578D01*
X129561274Y-73608054D02*
X129608893Y-73512816D01*
X129608893Y-73512816D02*
X129656512Y-73465197D01*
X129656512Y-73465197D02*
X129751750Y-73417578D01*
X129751750Y-73417578D02*
X129846988Y-73417578D01*
X130561274Y-74036626D02*
X130466036Y-74084245D01*
X130466036Y-74084245D02*
X130275560Y-74084245D01*
X130275560Y-74084245D02*
X130180322Y-74036626D01*
X130180322Y-74036626D02*
X130132703Y-73941387D01*
X130132703Y-73941387D02*
X130132703Y-73560435D01*
X130132703Y-73560435D02*
X130180322Y-73465197D01*
X130180322Y-73465197D02*
X130275560Y-73417578D01*
X130275560Y-73417578D02*
X130466036Y-73417578D01*
X130466036Y-73417578D02*
X130561274Y-73465197D01*
X130561274Y-73465197D02*
X130608893Y-73560435D01*
X130608893Y-73560435D02*
X130608893Y-73655673D01*
X130608893Y-73655673D02*
X130132703Y-73750911D01*
X131037465Y-74084245D02*
X131037465Y-73417578D01*
X131037465Y-73512816D02*
X131085084Y-73465197D01*
X131085084Y-73465197D02*
X131180322Y-73417578D01*
X131180322Y-73417578D02*
X131323179Y-73417578D01*
X131323179Y-73417578D02*
X131418417Y-73465197D01*
X131418417Y-73465197D02*
X131466036Y-73560435D01*
X131466036Y-73560435D02*
X131466036Y-74084245D01*
X131466036Y-73560435D02*
X131513655Y-73465197D01*
X131513655Y-73465197D02*
X131608893Y-73417578D01*
X131608893Y-73417578D02*
X131751750Y-73417578D01*
X131751750Y-73417578D02*
X131846989Y-73465197D01*
X131846989Y-73465197D02*
X131894608Y-73560435D01*
X131894608Y-73560435D02*
X131894608Y-74084245D01*
X132751750Y-74036626D02*
X132656512Y-74084245D01*
X132656512Y-74084245D02*
X132466036Y-74084245D01*
X132466036Y-74084245D02*
X132370798Y-74036626D01*
X132370798Y-74036626D02*
X132323179Y-73941387D01*
X132323179Y-73941387D02*
X132323179Y-73560435D01*
X132323179Y-73560435D02*
X132370798Y-73465197D01*
X132370798Y-73465197D02*
X132466036Y-73417578D01*
X132466036Y-73417578D02*
X132656512Y-73417578D01*
X132656512Y-73417578D02*
X132751750Y-73465197D01*
X132751750Y-73465197D02*
X132799369Y-73560435D01*
X132799369Y-73560435D02*
X132799369Y-73655673D01*
X132799369Y-73655673D02*
X132323179Y-73750911D01*
X133227941Y-73417578D02*
X133227941Y-74084245D01*
X133227941Y-73512816D02*
X133275560Y-73465197D01*
X133275560Y-73465197D02*
X133370798Y-73417578D01*
X133370798Y-73417578D02*
X133513655Y-73417578D01*
X133513655Y-73417578D02*
X133608893Y-73465197D01*
X133608893Y-73465197D02*
X133656512Y-73560435D01*
X133656512Y-73560435D02*
X133656512Y-74084245D01*
X133989846Y-73417578D02*
X134370798Y-73417578D01*
X134132703Y-73084245D02*
X134132703Y-73941387D01*
X134132703Y-73941387D02*
X134180322Y-74036626D01*
X134180322Y-74036626D02*
X134275560Y-74084245D01*
X134275560Y-74084245D02*
X134370798Y-74084245D01*
X109259576Y-74036626D02*
X109402433Y-74084245D01*
X109402433Y-74084245D02*
X109640528Y-74084245D01*
X109640528Y-74084245D02*
X109735766Y-74036626D01*
X109735766Y-74036626D02*
X109783385Y-73989006D01*
X109783385Y-73989006D02*
X109831004Y-73893768D01*
X109831004Y-73893768D02*
X109831004Y-73798530D01*
X109831004Y-73798530D02*
X109783385Y-73703292D01*
X109783385Y-73703292D02*
X109735766Y-73655673D01*
X109735766Y-73655673D02*
X109640528Y-73608054D01*
X109640528Y-73608054D02*
X109450052Y-73560435D01*
X109450052Y-73560435D02*
X109354814Y-73512816D01*
X109354814Y-73512816D02*
X109307195Y-73465197D01*
X109307195Y-73465197D02*
X109259576Y-73369959D01*
X109259576Y-73369959D02*
X109259576Y-73274721D01*
X109259576Y-73274721D02*
X109307195Y-73179483D01*
X109307195Y-73179483D02*
X109354814Y-73131864D01*
X109354814Y-73131864D02*
X109450052Y-73084245D01*
X109450052Y-73084245D02*
X109688147Y-73084245D01*
X109688147Y-73084245D02*
X109831004Y-73131864D01*
X110116719Y-73417578D02*
X110497671Y-73417578D01*
X110259576Y-73084245D02*
X110259576Y-73941387D01*
X110259576Y-73941387D02*
X110307195Y-74036626D01*
X110307195Y-74036626D02*
X110402433Y-74084245D01*
X110402433Y-74084245D02*
X110497671Y-74084245D01*
X111259576Y-74084245D02*
X111259576Y-73560435D01*
X111259576Y-73560435D02*
X111211957Y-73465197D01*
X111211957Y-73465197D02*
X111116719Y-73417578D01*
X111116719Y-73417578D02*
X110926243Y-73417578D01*
X110926243Y-73417578D02*
X110831005Y-73465197D01*
X111259576Y-74036626D02*
X111164338Y-74084245D01*
X111164338Y-74084245D02*
X110926243Y-74084245D01*
X110926243Y-74084245D02*
X110831005Y-74036626D01*
X110831005Y-74036626D02*
X110783386Y-73941387D01*
X110783386Y-73941387D02*
X110783386Y-73846149D01*
X110783386Y-73846149D02*
X110831005Y-73750911D01*
X110831005Y-73750911D02*
X110926243Y-73703292D01*
X110926243Y-73703292D02*
X111164338Y-73703292D01*
X111164338Y-73703292D02*
X111259576Y-73655673D01*
X111735767Y-74084245D02*
X111735767Y-73417578D01*
X111735767Y-73608054D02*
X111783386Y-73512816D01*
X111783386Y-73512816D02*
X111831005Y-73465197D01*
X111831005Y-73465197D02*
X111926243Y-73417578D01*
X111926243Y-73417578D02*
X112021481Y-73417578D01*
X112211958Y-73417578D02*
X112592910Y-73417578D01*
X112354815Y-73084245D02*
X112354815Y-73941387D01*
X112354815Y-73941387D02*
X112402434Y-74036626D01*
X112402434Y-74036626D02*
X112497672Y-74084245D01*
X112497672Y-74084245D02*
X112592910Y-74084245D01*
X113640529Y-73036626D02*
X112783387Y-74322340D01*
X113926244Y-74036626D02*
X114069101Y-74084245D01*
X114069101Y-74084245D02*
X114307196Y-74084245D01*
X114307196Y-74084245D02*
X114402434Y-74036626D01*
X114402434Y-74036626D02*
X114450053Y-73989006D01*
X114450053Y-73989006D02*
X114497672Y-73893768D01*
X114497672Y-73893768D02*
X114497672Y-73798530D01*
X114497672Y-73798530D02*
X114450053Y-73703292D01*
X114450053Y-73703292D02*
X114402434Y-73655673D01*
X114402434Y-73655673D02*
X114307196Y-73608054D01*
X114307196Y-73608054D02*
X114116720Y-73560435D01*
X114116720Y-73560435D02*
X114021482Y-73512816D01*
X114021482Y-73512816D02*
X113973863Y-73465197D01*
X113973863Y-73465197D02*
X113926244Y-73369959D01*
X113926244Y-73369959D02*
X113926244Y-73274721D01*
X113926244Y-73274721D02*
X113973863Y-73179483D01*
X113973863Y-73179483D02*
X114021482Y-73131864D01*
X114021482Y-73131864D02*
X114116720Y-73084245D01*
X114116720Y-73084245D02*
X114354815Y-73084245D01*
X114354815Y-73084245D02*
X114497672Y-73131864D01*
X114783387Y-73417578D02*
X115164339Y-73417578D01*
X114926244Y-73084245D02*
X114926244Y-73941387D01*
X114926244Y-73941387D02*
X114973863Y-74036626D01*
X114973863Y-74036626D02*
X115069101Y-74084245D01*
X115069101Y-74084245D02*
X115164339Y-74084245D01*
X115640530Y-74084245D02*
X115545292Y-74036626D01*
X115545292Y-74036626D02*
X115497673Y-73989006D01*
X115497673Y-73989006D02*
X115450054Y-73893768D01*
X115450054Y-73893768D02*
X115450054Y-73608054D01*
X115450054Y-73608054D02*
X115497673Y-73512816D01*
X115497673Y-73512816D02*
X115545292Y-73465197D01*
X115545292Y-73465197D02*
X115640530Y-73417578D01*
X115640530Y-73417578D02*
X115783387Y-73417578D01*
X115783387Y-73417578D02*
X115878625Y-73465197D01*
X115878625Y-73465197D02*
X115926244Y-73512816D01*
X115926244Y-73512816D02*
X115973863Y-73608054D01*
X115973863Y-73608054D02*
X115973863Y-73893768D01*
X115973863Y-73893768D02*
X115926244Y-73989006D01*
X115926244Y-73989006D02*
X115878625Y-74036626D01*
X115878625Y-74036626D02*
X115783387Y-74084245D01*
X115783387Y-74084245D02*
X115640530Y-74084245D01*
X116402435Y-73417578D02*
X116402435Y-74417578D01*
X116402435Y-73465197D02*
X116497673Y-73417578D01*
X116497673Y-73417578D02*
X116688149Y-73417578D01*
X116688149Y-73417578D02*
X116783387Y-73465197D01*
X116783387Y-73465197D02*
X116831006Y-73512816D01*
X116831006Y-73512816D02*
X116878625Y-73608054D01*
X116878625Y-73608054D02*
X116878625Y-73893768D01*
X116878625Y-73893768D02*
X116831006Y-73989006D01*
X116831006Y-73989006D02*
X116783387Y-74036626D01*
X116783387Y-74036626D02*
X116688149Y-74084245D01*
X116688149Y-74084245D02*
X116497673Y-74084245D01*
X116497673Y-74084245D02*
X116402435Y-74036626D01*
D11*
X102567268Y-98321504D02*
X102567268Y-96321504D01*
X102567268Y-96321504D02*
X103233935Y-97750075D01*
X103233935Y-97750075D02*
X103900601Y-96321504D01*
X103900601Y-96321504D02*
X103900601Y-98321504D01*
X105710125Y-98321504D02*
X105710125Y-97273885D01*
X105710125Y-97273885D02*
X105614887Y-97083408D01*
X105614887Y-97083408D02*
X105424411Y-96988170D01*
X105424411Y-96988170D02*
X105043458Y-96988170D01*
X105043458Y-96988170D02*
X104852982Y-97083408D01*
X105710125Y-98226266D02*
X105519649Y-98321504D01*
X105519649Y-98321504D02*
X105043458Y-98321504D01*
X105043458Y-98321504D02*
X104852982Y-98226266D01*
X104852982Y-98226266D02*
X104757744Y-98035789D01*
X104757744Y-98035789D02*
X104757744Y-97845313D01*
X104757744Y-97845313D02*
X104852982Y-97654837D01*
X104852982Y-97654837D02*
X105043458Y-97559599D01*
X105043458Y-97559599D02*
X105519649Y-97559599D01*
X105519649Y-97559599D02*
X105710125Y-97464361D01*
X106662506Y-98321504D02*
X106662506Y-96988170D01*
X106662506Y-97369123D02*
X106757744Y-97178646D01*
X106757744Y-97178646D02*
X106852982Y-97083408D01*
X106852982Y-97083408D02*
X107043458Y-96988170D01*
X107043458Y-96988170D02*
X107233935Y-96988170D01*
X108757744Y-98226266D02*
X108567268Y-98321504D01*
X108567268Y-98321504D02*
X108186315Y-98321504D01*
X108186315Y-98321504D02*
X107995839Y-98226266D01*
X107995839Y-98226266D02*
X107900601Y-98131027D01*
X107900601Y-98131027D02*
X107805363Y-97940551D01*
X107805363Y-97940551D02*
X107805363Y-97369123D01*
X107805363Y-97369123D02*
X107900601Y-97178646D01*
X107900601Y-97178646D02*
X107995839Y-97083408D01*
X107995839Y-97083408D02*
X108186315Y-96988170D01*
X108186315Y-96988170D02*
X108567268Y-96988170D01*
X108567268Y-96988170D02*
X108757744Y-97083408D01*
X109614887Y-98321504D02*
X109614887Y-96321504D01*
X110472030Y-98321504D02*
X110472030Y-97273885D01*
X110472030Y-97273885D02*
X110376792Y-97083408D01*
X110376792Y-97083408D02*
X110186316Y-96988170D01*
X110186316Y-96988170D02*
X109900601Y-96988170D01*
X109900601Y-96988170D02*
X109710125Y-97083408D01*
X109710125Y-97083408D02*
X109614887Y-97178646D01*
X112852983Y-96511980D02*
X112948221Y-96416742D01*
X112948221Y-96416742D02*
X113138697Y-96321504D01*
X113138697Y-96321504D02*
X113614888Y-96321504D01*
X113614888Y-96321504D02*
X113805364Y-96416742D01*
X113805364Y-96416742D02*
X113900602Y-96511980D01*
X113900602Y-96511980D02*
X113995840Y-96702456D01*
X113995840Y-96702456D02*
X113995840Y-96892932D01*
X113995840Y-96892932D02*
X113900602Y-97178646D01*
X113900602Y-97178646D02*
X112757745Y-98321504D01*
X112757745Y-98321504D02*
X113995840Y-98321504D01*
X115233935Y-96321504D02*
X115424412Y-96321504D01*
X115424412Y-96321504D02*
X115614888Y-96416742D01*
X115614888Y-96416742D02*
X115710126Y-96511980D01*
X115710126Y-96511980D02*
X115805364Y-96702456D01*
X115805364Y-96702456D02*
X115900602Y-97083408D01*
X115900602Y-97083408D02*
X115900602Y-97559599D01*
X115900602Y-97559599D02*
X115805364Y-97940551D01*
X115805364Y-97940551D02*
X115710126Y-98131027D01*
X115710126Y-98131027D02*
X115614888Y-98226266D01*
X115614888Y-98226266D02*
X115424412Y-98321504D01*
X115424412Y-98321504D02*
X115233935Y-98321504D01*
X115233935Y-98321504D02*
X115043459Y-98226266D01*
X115043459Y-98226266D02*
X114948221Y-98131027D01*
X114948221Y-98131027D02*
X114852983Y-97940551D01*
X114852983Y-97940551D02*
X114757745Y-97559599D01*
X114757745Y-97559599D02*
X114757745Y-97083408D01*
X114757745Y-97083408D02*
X114852983Y-96702456D01*
X114852983Y-96702456D02*
X114948221Y-96511980D01*
X114948221Y-96511980D02*
X115043459Y-96416742D01*
X115043459Y-96416742D02*
X115233935Y-96321504D01*
X116662507Y-96511980D02*
X116757745Y-96416742D01*
X116757745Y-96416742D02*
X116948221Y-96321504D01*
X116948221Y-96321504D02*
X117424412Y-96321504D01*
X117424412Y-96321504D02*
X117614888Y-96416742D01*
X117614888Y-96416742D02*
X117710126Y-96511980D01*
X117710126Y-96511980D02*
X117805364Y-96702456D01*
X117805364Y-96702456D02*
X117805364Y-96892932D01*
X117805364Y-96892932D02*
X117710126Y-97178646D01*
X117710126Y-97178646D02*
X116567269Y-98321504D01*
X116567269Y-98321504D02*
X117805364Y-98321504D01*
X118472031Y-96321504D02*
X119710126Y-96321504D01*
X119710126Y-96321504D02*
X119043459Y-97083408D01*
X119043459Y-97083408D02*
X119329174Y-97083408D01*
X119329174Y-97083408D02*
X119519650Y-97178646D01*
X119519650Y-97178646D02*
X119614888Y-97273885D01*
X119614888Y-97273885D02*
X119710126Y-97464361D01*
X119710126Y-97464361D02*
X119710126Y-97940551D01*
X119710126Y-97940551D02*
X119614888Y-98131027D01*
X119614888Y-98131027D02*
X119519650Y-98226266D01*
X119519650Y-98226266D02*
X119329174Y-98321504D01*
X119329174Y-98321504D02*
X118757745Y-98321504D01*
X118757745Y-98321504D02*
X118567269Y-98226266D01*
X118567269Y-98226266D02*
X118472031Y-98131027D01*
D10*
%TO.C,D2*%
X191971905Y-56930619D02*
X191971905Y-55930619D01*
X191971905Y-55930619D02*
X192210000Y-55930619D01*
X192210000Y-55930619D02*
X192352857Y-55978238D01*
X192352857Y-55978238D02*
X192448095Y-56073476D01*
X192448095Y-56073476D02*
X192495714Y-56168714D01*
X192495714Y-56168714D02*
X192543333Y-56359190D01*
X192543333Y-56359190D02*
X192543333Y-56502047D01*
X192543333Y-56502047D02*
X192495714Y-56692523D01*
X192495714Y-56692523D02*
X192448095Y-56787761D01*
X192448095Y-56787761D02*
X192352857Y-56883000D01*
X192352857Y-56883000D02*
X192210000Y-56930619D01*
X192210000Y-56930619D02*
X191971905Y-56930619D01*
X192924286Y-56025857D02*
X192971905Y-55978238D01*
X192971905Y-55978238D02*
X193067143Y-55930619D01*
X193067143Y-55930619D02*
X193305238Y-55930619D01*
X193305238Y-55930619D02*
X193400476Y-55978238D01*
X193400476Y-55978238D02*
X193448095Y-56025857D01*
X193448095Y-56025857D02*
X193495714Y-56121095D01*
X193495714Y-56121095D02*
X193495714Y-56216333D01*
X193495714Y-56216333D02*
X193448095Y-56359190D01*
X193448095Y-56359190D02*
X192876667Y-56930619D01*
X192876667Y-56930619D02*
X193495714Y-56930619D01*
%TO.C,U2*%
X190668095Y-79142619D02*
X190668095Y-79952142D01*
X190668095Y-79952142D02*
X190715714Y-80047380D01*
X190715714Y-80047380D02*
X190763333Y-80095000D01*
X190763333Y-80095000D02*
X190858571Y-80142619D01*
X190858571Y-80142619D02*
X191049047Y-80142619D01*
X191049047Y-80142619D02*
X191144285Y-80095000D01*
X191144285Y-80095000D02*
X191191904Y-80047380D01*
X191191904Y-80047380D02*
X191239523Y-79952142D01*
X191239523Y-79952142D02*
X191239523Y-79142619D01*
X191668095Y-79237857D02*
X191715714Y-79190238D01*
X191715714Y-79190238D02*
X191810952Y-79142619D01*
X191810952Y-79142619D02*
X192049047Y-79142619D01*
X192049047Y-79142619D02*
X192144285Y-79190238D01*
X192144285Y-79190238D02*
X192191904Y-79237857D01*
X192191904Y-79237857D02*
X192239523Y-79333095D01*
X192239523Y-79333095D02*
X192239523Y-79428333D01*
X192239523Y-79428333D02*
X192191904Y-79571190D01*
X192191904Y-79571190D02*
X191620476Y-80142619D01*
X191620476Y-80142619D02*
X192239523Y-80142619D01*
%TO.C,R8*%
X173493333Y-85012619D02*
X173160000Y-84536428D01*
X172921905Y-85012619D02*
X172921905Y-84012619D01*
X172921905Y-84012619D02*
X173302857Y-84012619D01*
X173302857Y-84012619D02*
X173398095Y-84060238D01*
X173398095Y-84060238D02*
X173445714Y-84107857D01*
X173445714Y-84107857D02*
X173493333Y-84203095D01*
X173493333Y-84203095D02*
X173493333Y-84345952D01*
X173493333Y-84345952D02*
X173445714Y-84441190D01*
X173445714Y-84441190D02*
X173398095Y-84488809D01*
X173398095Y-84488809D02*
X173302857Y-84536428D01*
X173302857Y-84536428D02*
X172921905Y-84536428D01*
X174064762Y-84441190D02*
X173969524Y-84393571D01*
X173969524Y-84393571D02*
X173921905Y-84345952D01*
X173921905Y-84345952D02*
X173874286Y-84250714D01*
X173874286Y-84250714D02*
X173874286Y-84203095D01*
X173874286Y-84203095D02*
X173921905Y-84107857D01*
X173921905Y-84107857D02*
X173969524Y-84060238D01*
X173969524Y-84060238D02*
X174064762Y-84012619D01*
X174064762Y-84012619D02*
X174255238Y-84012619D01*
X174255238Y-84012619D02*
X174350476Y-84060238D01*
X174350476Y-84060238D02*
X174398095Y-84107857D01*
X174398095Y-84107857D02*
X174445714Y-84203095D01*
X174445714Y-84203095D02*
X174445714Y-84250714D01*
X174445714Y-84250714D02*
X174398095Y-84345952D01*
X174398095Y-84345952D02*
X174350476Y-84393571D01*
X174350476Y-84393571D02*
X174255238Y-84441190D01*
X174255238Y-84441190D02*
X174064762Y-84441190D01*
X174064762Y-84441190D02*
X173969524Y-84488809D01*
X173969524Y-84488809D02*
X173921905Y-84536428D01*
X173921905Y-84536428D02*
X173874286Y-84631666D01*
X173874286Y-84631666D02*
X173874286Y-84822142D01*
X173874286Y-84822142D02*
X173921905Y-84917380D01*
X173921905Y-84917380D02*
X173969524Y-84965000D01*
X173969524Y-84965000D02*
X174064762Y-85012619D01*
X174064762Y-85012619D02*
X174255238Y-85012619D01*
X174255238Y-85012619D02*
X174350476Y-84965000D01*
X174350476Y-84965000D02*
X174398095Y-84917380D01*
X174398095Y-84917380D02*
X174445714Y-84822142D01*
X174445714Y-84822142D02*
X174445714Y-84631666D01*
X174445714Y-84631666D02*
X174398095Y-84536428D01*
X174398095Y-84536428D02*
X174350476Y-84488809D01*
X174350476Y-84488809D02*
X174255238Y-84441190D01*
%TO.C,R5*%
X191273333Y-68812619D02*
X190940000Y-68336428D01*
X190701905Y-68812619D02*
X190701905Y-67812619D01*
X190701905Y-67812619D02*
X191082857Y-67812619D01*
X191082857Y-67812619D02*
X191178095Y-67860238D01*
X191178095Y-67860238D02*
X191225714Y-67907857D01*
X191225714Y-67907857D02*
X191273333Y-68003095D01*
X191273333Y-68003095D02*
X191273333Y-68145952D01*
X191273333Y-68145952D02*
X191225714Y-68241190D01*
X191225714Y-68241190D02*
X191178095Y-68288809D01*
X191178095Y-68288809D02*
X191082857Y-68336428D01*
X191082857Y-68336428D02*
X190701905Y-68336428D01*
X192178095Y-67812619D02*
X191701905Y-67812619D01*
X191701905Y-67812619D02*
X191654286Y-68288809D01*
X191654286Y-68288809D02*
X191701905Y-68241190D01*
X191701905Y-68241190D02*
X191797143Y-68193571D01*
X191797143Y-68193571D02*
X192035238Y-68193571D01*
X192035238Y-68193571D02*
X192130476Y-68241190D01*
X192130476Y-68241190D02*
X192178095Y-68288809D01*
X192178095Y-68288809D02*
X192225714Y-68384047D01*
X192225714Y-68384047D02*
X192225714Y-68622142D01*
X192225714Y-68622142D02*
X192178095Y-68717380D01*
X192178095Y-68717380D02*
X192130476Y-68765000D01*
X192130476Y-68765000D02*
X192035238Y-68812619D01*
X192035238Y-68812619D02*
X191797143Y-68812619D01*
X191797143Y-68812619D02*
X191701905Y-68765000D01*
X191701905Y-68765000D02*
X191654286Y-68717380D01*
%TO.C,D1*%
X174191905Y-56930619D02*
X174191905Y-55930619D01*
X174191905Y-55930619D02*
X174430000Y-55930619D01*
X174430000Y-55930619D02*
X174572857Y-55978238D01*
X174572857Y-55978238D02*
X174668095Y-56073476D01*
X174668095Y-56073476D02*
X174715714Y-56168714D01*
X174715714Y-56168714D02*
X174763333Y-56359190D01*
X174763333Y-56359190D02*
X174763333Y-56502047D01*
X174763333Y-56502047D02*
X174715714Y-56692523D01*
X174715714Y-56692523D02*
X174668095Y-56787761D01*
X174668095Y-56787761D02*
X174572857Y-56883000D01*
X174572857Y-56883000D02*
X174430000Y-56930619D01*
X174430000Y-56930619D02*
X174191905Y-56930619D01*
X175715714Y-56930619D02*
X175144286Y-56930619D01*
X175430000Y-56930619D02*
X175430000Y-55930619D01*
X175430000Y-55930619D02*
X175334762Y-56073476D01*
X175334762Y-56073476D02*
X175239524Y-56168714D01*
X175239524Y-56168714D02*
X175144286Y-56216333D01*
%TO.C,R1*%
X112533333Y-94212619D02*
X112200000Y-93736428D01*
X111961905Y-94212619D02*
X111961905Y-93212619D01*
X111961905Y-93212619D02*
X112342857Y-93212619D01*
X112342857Y-93212619D02*
X112438095Y-93260238D01*
X112438095Y-93260238D02*
X112485714Y-93307857D01*
X112485714Y-93307857D02*
X112533333Y-93403095D01*
X112533333Y-93403095D02*
X112533333Y-93545952D01*
X112533333Y-93545952D02*
X112485714Y-93641190D01*
X112485714Y-93641190D02*
X112438095Y-93688809D01*
X112438095Y-93688809D02*
X112342857Y-93736428D01*
X112342857Y-93736428D02*
X111961905Y-93736428D01*
X113485714Y-94212619D02*
X112914286Y-94212619D01*
X113200000Y-94212619D02*
X113200000Y-93212619D01*
X113200000Y-93212619D02*
X113104762Y-93355476D01*
X113104762Y-93355476D02*
X113009524Y-93450714D01*
X113009524Y-93450714D02*
X112914286Y-93498333D01*
%TO.C,LS1*%
X160317142Y-59822619D02*
X159840952Y-59822619D01*
X159840952Y-59822619D02*
X159840952Y-58822619D01*
X160602857Y-59775000D02*
X160745714Y-59822619D01*
X160745714Y-59822619D02*
X160983809Y-59822619D01*
X160983809Y-59822619D02*
X161079047Y-59775000D01*
X161079047Y-59775000D02*
X161126666Y-59727380D01*
X161126666Y-59727380D02*
X161174285Y-59632142D01*
X161174285Y-59632142D02*
X161174285Y-59536904D01*
X161174285Y-59536904D02*
X161126666Y-59441666D01*
X161126666Y-59441666D02*
X161079047Y-59394047D01*
X161079047Y-59394047D02*
X160983809Y-59346428D01*
X160983809Y-59346428D02*
X160793333Y-59298809D01*
X160793333Y-59298809D02*
X160698095Y-59251190D01*
X160698095Y-59251190D02*
X160650476Y-59203571D01*
X160650476Y-59203571D02*
X160602857Y-59108333D01*
X160602857Y-59108333D02*
X160602857Y-59013095D01*
X160602857Y-59013095D02*
X160650476Y-58917857D01*
X160650476Y-58917857D02*
X160698095Y-58870238D01*
X160698095Y-58870238D02*
X160793333Y-58822619D01*
X160793333Y-58822619D02*
X161031428Y-58822619D01*
X161031428Y-58822619D02*
X161174285Y-58870238D01*
X162126666Y-59822619D02*
X161555238Y-59822619D01*
X161840952Y-59822619D02*
X161840952Y-58822619D01*
X161840952Y-58822619D02*
X161745714Y-58965476D01*
X161745714Y-58965476D02*
X161650476Y-59060714D01*
X161650476Y-59060714D02*
X161555238Y-59108333D01*
X164389048Y-61981666D02*
X165150953Y-61981666D01*
X164770000Y-62362619D02*
X164770000Y-61600714D01*
%TO.C,R2*%
X130313333Y-94212619D02*
X129980000Y-93736428D01*
X129741905Y-94212619D02*
X129741905Y-93212619D01*
X129741905Y-93212619D02*
X130122857Y-93212619D01*
X130122857Y-93212619D02*
X130218095Y-93260238D01*
X130218095Y-93260238D02*
X130265714Y-93307857D01*
X130265714Y-93307857D02*
X130313333Y-93403095D01*
X130313333Y-93403095D02*
X130313333Y-93545952D01*
X130313333Y-93545952D02*
X130265714Y-93641190D01*
X130265714Y-93641190D02*
X130218095Y-93688809D01*
X130218095Y-93688809D02*
X130122857Y-93736428D01*
X130122857Y-93736428D02*
X129741905Y-93736428D01*
X130694286Y-93307857D02*
X130741905Y-93260238D01*
X130741905Y-93260238D02*
X130837143Y-93212619D01*
X130837143Y-93212619D02*
X131075238Y-93212619D01*
X131075238Y-93212619D02*
X131170476Y-93260238D01*
X131170476Y-93260238D02*
X131218095Y-93307857D01*
X131218095Y-93307857D02*
X131265714Y-93403095D01*
X131265714Y-93403095D02*
X131265714Y-93498333D01*
X131265714Y-93498333D02*
X131218095Y-93641190D01*
X131218095Y-93641190D02*
X130646667Y-94212619D01*
X130646667Y-94212619D02*
X131265714Y-94212619D01*
%TO.C,SW1*%
X108826667Y-87715000D02*
X108969524Y-87762619D01*
X108969524Y-87762619D02*
X109207619Y-87762619D01*
X109207619Y-87762619D02*
X109302857Y-87715000D01*
X109302857Y-87715000D02*
X109350476Y-87667380D01*
X109350476Y-87667380D02*
X109398095Y-87572142D01*
X109398095Y-87572142D02*
X109398095Y-87476904D01*
X109398095Y-87476904D02*
X109350476Y-87381666D01*
X109350476Y-87381666D02*
X109302857Y-87334047D01*
X109302857Y-87334047D02*
X109207619Y-87286428D01*
X109207619Y-87286428D02*
X109017143Y-87238809D01*
X109017143Y-87238809D02*
X108921905Y-87191190D01*
X108921905Y-87191190D02*
X108874286Y-87143571D01*
X108874286Y-87143571D02*
X108826667Y-87048333D01*
X108826667Y-87048333D02*
X108826667Y-86953095D01*
X108826667Y-86953095D02*
X108874286Y-86857857D01*
X108874286Y-86857857D02*
X108921905Y-86810238D01*
X108921905Y-86810238D02*
X109017143Y-86762619D01*
X109017143Y-86762619D02*
X109255238Y-86762619D01*
X109255238Y-86762619D02*
X109398095Y-86810238D01*
X109731429Y-86762619D02*
X109969524Y-87762619D01*
X109969524Y-87762619D02*
X110160000Y-87048333D01*
X110160000Y-87048333D02*
X110350476Y-87762619D01*
X110350476Y-87762619D02*
X110588572Y-86762619D01*
X111493333Y-87762619D02*
X110921905Y-87762619D01*
X111207619Y-87762619D02*
X111207619Y-86762619D01*
X111207619Y-86762619D02*
X111112381Y-86905476D01*
X111112381Y-86905476D02*
X111017143Y-87000714D01*
X111017143Y-87000714D02*
X110921905Y-87048333D01*
%TO.C,SW2*%
X126606667Y-87715000D02*
X126749524Y-87762619D01*
X126749524Y-87762619D02*
X126987619Y-87762619D01*
X126987619Y-87762619D02*
X127082857Y-87715000D01*
X127082857Y-87715000D02*
X127130476Y-87667380D01*
X127130476Y-87667380D02*
X127178095Y-87572142D01*
X127178095Y-87572142D02*
X127178095Y-87476904D01*
X127178095Y-87476904D02*
X127130476Y-87381666D01*
X127130476Y-87381666D02*
X127082857Y-87334047D01*
X127082857Y-87334047D02*
X126987619Y-87286428D01*
X126987619Y-87286428D02*
X126797143Y-87238809D01*
X126797143Y-87238809D02*
X126701905Y-87191190D01*
X126701905Y-87191190D02*
X126654286Y-87143571D01*
X126654286Y-87143571D02*
X126606667Y-87048333D01*
X126606667Y-87048333D02*
X126606667Y-86953095D01*
X126606667Y-86953095D02*
X126654286Y-86857857D01*
X126654286Y-86857857D02*
X126701905Y-86810238D01*
X126701905Y-86810238D02*
X126797143Y-86762619D01*
X126797143Y-86762619D02*
X127035238Y-86762619D01*
X127035238Y-86762619D02*
X127178095Y-86810238D01*
X127511429Y-86762619D02*
X127749524Y-87762619D01*
X127749524Y-87762619D02*
X127940000Y-87048333D01*
X127940000Y-87048333D02*
X128130476Y-87762619D01*
X128130476Y-87762619D02*
X128368572Y-86762619D01*
X128701905Y-86857857D02*
X128749524Y-86810238D01*
X128749524Y-86810238D02*
X128844762Y-86762619D01*
X128844762Y-86762619D02*
X129082857Y-86762619D01*
X129082857Y-86762619D02*
X129178095Y-86810238D01*
X129178095Y-86810238D02*
X129225714Y-86857857D01*
X129225714Y-86857857D02*
X129273333Y-86953095D01*
X129273333Y-86953095D02*
X129273333Y-87048333D01*
X129273333Y-87048333D02*
X129225714Y-87191190D01*
X129225714Y-87191190D02*
X128654286Y-87762619D01*
X128654286Y-87762619D02*
X129273333Y-87762619D01*
%TO.C,U1*%
X127402619Y-62661904D02*
X128212142Y-62661904D01*
X128212142Y-62661904D02*
X128307380Y-62614285D01*
X128307380Y-62614285D02*
X128355000Y-62566666D01*
X128355000Y-62566666D02*
X128402619Y-62471428D01*
X128402619Y-62471428D02*
X128402619Y-62280952D01*
X128402619Y-62280952D02*
X128355000Y-62185714D01*
X128355000Y-62185714D02*
X128307380Y-62138095D01*
X128307380Y-62138095D02*
X128212142Y-62090476D01*
X128212142Y-62090476D02*
X127402619Y-62090476D01*
X128402619Y-61090476D02*
X128402619Y-61661904D01*
X128402619Y-61376190D02*
X127402619Y-61376190D01*
X127402619Y-61376190D02*
X127545476Y-61471428D01*
X127545476Y-61471428D02*
X127640714Y-61566666D01*
X127640714Y-61566666D02*
X127688333Y-61661904D01*
%TO.C,R12*%
X173017142Y-68812619D02*
X172683809Y-68336428D01*
X172445714Y-68812619D02*
X172445714Y-67812619D01*
X172445714Y-67812619D02*
X172826666Y-67812619D01*
X172826666Y-67812619D02*
X172921904Y-67860238D01*
X172921904Y-67860238D02*
X172969523Y-67907857D01*
X172969523Y-67907857D02*
X173017142Y-68003095D01*
X173017142Y-68003095D02*
X173017142Y-68145952D01*
X173017142Y-68145952D02*
X172969523Y-68241190D01*
X172969523Y-68241190D02*
X172921904Y-68288809D01*
X172921904Y-68288809D02*
X172826666Y-68336428D01*
X172826666Y-68336428D02*
X172445714Y-68336428D01*
X173969523Y-68812619D02*
X173398095Y-68812619D01*
X173683809Y-68812619D02*
X173683809Y-67812619D01*
X173683809Y-67812619D02*
X173588571Y-67955476D01*
X173588571Y-67955476D02*
X173493333Y-68050714D01*
X173493333Y-68050714D02*
X173398095Y-68098333D01*
X174350476Y-67907857D02*
X174398095Y-67860238D01*
X174398095Y-67860238D02*
X174493333Y-67812619D01*
X174493333Y-67812619D02*
X174731428Y-67812619D01*
X174731428Y-67812619D02*
X174826666Y-67860238D01*
X174826666Y-67860238D02*
X174874285Y-67907857D01*
X174874285Y-67907857D02*
X174921904Y-68003095D01*
X174921904Y-68003095D02*
X174921904Y-68098333D01*
X174921904Y-68098333D02*
X174874285Y-68241190D01*
X174874285Y-68241190D02*
X174302857Y-68812619D01*
X174302857Y-68812619D02*
X174921904Y-68812619D01*
%TO.C,R10*%
X173017142Y-76912619D02*
X172683809Y-76436428D01*
X172445714Y-76912619D02*
X172445714Y-75912619D01*
X172445714Y-75912619D02*
X172826666Y-75912619D01*
X172826666Y-75912619D02*
X172921904Y-75960238D01*
X172921904Y-75960238D02*
X172969523Y-76007857D01*
X172969523Y-76007857D02*
X173017142Y-76103095D01*
X173017142Y-76103095D02*
X173017142Y-76245952D01*
X173017142Y-76245952D02*
X172969523Y-76341190D01*
X172969523Y-76341190D02*
X172921904Y-76388809D01*
X172921904Y-76388809D02*
X172826666Y-76436428D01*
X172826666Y-76436428D02*
X172445714Y-76436428D01*
X173969523Y-76912619D02*
X173398095Y-76912619D01*
X173683809Y-76912619D02*
X173683809Y-75912619D01*
X173683809Y-75912619D02*
X173588571Y-76055476D01*
X173588571Y-76055476D02*
X173493333Y-76150714D01*
X173493333Y-76150714D02*
X173398095Y-76198333D01*
X174588571Y-75912619D02*
X174683809Y-75912619D01*
X174683809Y-75912619D02*
X174779047Y-75960238D01*
X174779047Y-75960238D02*
X174826666Y-76007857D01*
X174826666Y-76007857D02*
X174874285Y-76103095D01*
X174874285Y-76103095D02*
X174921904Y-76293571D01*
X174921904Y-76293571D02*
X174921904Y-76531666D01*
X174921904Y-76531666D02*
X174874285Y-76722142D01*
X174874285Y-76722142D02*
X174826666Y-76817380D01*
X174826666Y-76817380D02*
X174779047Y-76865000D01*
X174779047Y-76865000D02*
X174683809Y-76912619D01*
X174683809Y-76912619D02*
X174588571Y-76912619D01*
X174588571Y-76912619D02*
X174493333Y-76865000D01*
X174493333Y-76865000D02*
X174445714Y-76817380D01*
X174445714Y-76817380D02*
X174398095Y-76722142D01*
X174398095Y-76722142D02*
X174350476Y-76531666D01*
X174350476Y-76531666D02*
X174350476Y-76293571D01*
X174350476Y-76293571D02*
X174398095Y-76103095D01*
X174398095Y-76103095D02*
X174445714Y-76007857D01*
X174445714Y-76007857D02*
X174493333Y-75960238D01*
X174493333Y-75960238D02*
X174588571Y-75912619D01*
%TO.C,R9*%
X173493333Y-80962619D02*
X173160000Y-80486428D01*
X172921905Y-80962619D02*
X172921905Y-79962619D01*
X172921905Y-79962619D02*
X173302857Y-79962619D01*
X173302857Y-79962619D02*
X173398095Y-80010238D01*
X173398095Y-80010238D02*
X173445714Y-80057857D01*
X173445714Y-80057857D02*
X173493333Y-80153095D01*
X173493333Y-80153095D02*
X173493333Y-80295952D01*
X173493333Y-80295952D02*
X173445714Y-80391190D01*
X173445714Y-80391190D02*
X173398095Y-80438809D01*
X173398095Y-80438809D02*
X173302857Y-80486428D01*
X173302857Y-80486428D02*
X172921905Y-80486428D01*
X173969524Y-80962619D02*
X174160000Y-80962619D01*
X174160000Y-80962619D02*
X174255238Y-80915000D01*
X174255238Y-80915000D02*
X174302857Y-80867380D01*
X174302857Y-80867380D02*
X174398095Y-80724523D01*
X174398095Y-80724523D02*
X174445714Y-80534047D01*
X174445714Y-80534047D02*
X174445714Y-80153095D01*
X174445714Y-80153095D02*
X174398095Y-80057857D01*
X174398095Y-80057857D02*
X174350476Y-80010238D01*
X174350476Y-80010238D02*
X174255238Y-79962619D01*
X174255238Y-79962619D02*
X174064762Y-79962619D01*
X174064762Y-79962619D02*
X173969524Y-80010238D01*
X173969524Y-80010238D02*
X173921905Y-80057857D01*
X173921905Y-80057857D02*
X173874286Y-80153095D01*
X173874286Y-80153095D02*
X173874286Y-80391190D01*
X173874286Y-80391190D02*
X173921905Y-80486428D01*
X173921905Y-80486428D02*
X173969524Y-80534047D01*
X173969524Y-80534047D02*
X174064762Y-80581666D01*
X174064762Y-80581666D02*
X174255238Y-80581666D01*
X174255238Y-80581666D02*
X174350476Y-80534047D01*
X174350476Y-80534047D02*
X174398095Y-80486428D01*
X174398095Y-80486428D02*
X174445714Y-80391190D01*
%TO.C,R6*%
X173493333Y-93112619D02*
X173160000Y-92636428D01*
X172921905Y-93112619D02*
X172921905Y-92112619D01*
X172921905Y-92112619D02*
X173302857Y-92112619D01*
X173302857Y-92112619D02*
X173398095Y-92160238D01*
X173398095Y-92160238D02*
X173445714Y-92207857D01*
X173445714Y-92207857D02*
X173493333Y-92303095D01*
X173493333Y-92303095D02*
X173493333Y-92445952D01*
X173493333Y-92445952D02*
X173445714Y-92541190D01*
X173445714Y-92541190D02*
X173398095Y-92588809D01*
X173398095Y-92588809D02*
X173302857Y-92636428D01*
X173302857Y-92636428D02*
X172921905Y-92636428D01*
X174350476Y-92112619D02*
X174160000Y-92112619D01*
X174160000Y-92112619D02*
X174064762Y-92160238D01*
X174064762Y-92160238D02*
X174017143Y-92207857D01*
X174017143Y-92207857D02*
X173921905Y-92350714D01*
X173921905Y-92350714D02*
X173874286Y-92541190D01*
X173874286Y-92541190D02*
X173874286Y-92922142D01*
X173874286Y-92922142D02*
X173921905Y-93017380D01*
X173921905Y-93017380D02*
X173969524Y-93065000D01*
X173969524Y-93065000D02*
X174064762Y-93112619D01*
X174064762Y-93112619D02*
X174255238Y-93112619D01*
X174255238Y-93112619D02*
X174350476Y-93065000D01*
X174350476Y-93065000D02*
X174398095Y-93017380D01*
X174398095Y-93017380D02*
X174445714Y-92922142D01*
X174445714Y-92922142D02*
X174445714Y-92684047D01*
X174445714Y-92684047D02*
X174398095Y-92588809D01*
X174398095Y-92588809D02*
X174350476Y-92541190D01*
X174350476Y-92541190D02*
X174255238Y-92493571D01*
X174255238Y-92493571D02*
X174064762Y-92493571D01*
X174064762Y-92493571D02*
X173969524Y-92541190D01*
X173969524Y-92541190D02*
X173921905Y-92588809D01*
X173921905Y-92588809D02*
X173874286Y-92684047D01*
%TO.C,R3*%
X183112619Y-54446666D02*
X182636428Y-54779999D01*
X183112619Y-55018094D02*
X182112619Y-55018094D01*
X182112619Y-55018094D02*
X182112619Y-54637142D01*
X182112619Y-54637142D02*
X182160238Y-54541904D01*
X182160238Y-54541904D02*
X182207857Y-54494285D01*
X182207857Y-54494285D02*
X182303095Y-54446666D01*
X182303095Y-54446666D02*
X182445952Y-54446666D01*
X182445952Y-54446666D02*
X182541190Y-54494285D01*
X182541190Y-54494285D02*
X182588809Y-54541904D01*
X182588809Y-54541904D02*
X182636428Y-54637142D01*
X182636428Y-54637142D02*
X182636428Y-55018094D01*
X182112619Y-54113332D02*
X182112619Y-53494285D01*
X182112619Y-53494285D02*
X182493571Y-53827618D01*
X182493571Y-53827618D02*
X182493571Y-53684761D01*
X182493571Y-53684761D02*
X182541190Y-53589523D01*
X182541190Y-53589523D02*
X182588809Y-53541904D01*
X182588809Y-53541904D02*
X182684047Y-53494285D01*
X182684047Y-53494285D02*
X182922142Y-53494285D01*
X182922142Y-53494285D02*
X183017380Y-53541904D01*
X183017380Y-53541904D02*
X183065000Y-53589523D01*
X183065000Y-53589523D02*
X183112619Y-53684761D01*
X183112619Y-53684761D02*
X183112619Y-53970475D01*
X183112619Y-53970475D02*
X183065000Y-54065713D01*
X183065000Y-54065713D02*
X183017380Y-54113332D01*
%TO.C,R7*%
X173493333Y-89062619D02*
X173160000Y-88586428D01*
X172921905Y-89062619D02*
X172921905Y-88062619D01*
X172921905Y-88062619D02*
X173302857Y-88062619D01*
X173302857Y-88062619D02*
X173398095Y-88110238D01*
X173398095Y-88110238D02*
X173445714Y-88157857D01*
X173445714Y-88157857D02*
X173493333Y-88253095D01*
X173493333Y-88253095D02*
X173493333Y-88395952D01*
X173493333Y-88395952D02*
X173445714Y-88491190D01*
X173445714Y-88491190D02*
X173398095Y-88538809D01*
X173398095Y-88538809D02*
X173302857Y-88586428D01*
X173302857Y-88586428D02*
X172921905Y-88586428D01*
X173826667Y-88062619D02*
X174493333Y-88062619D01*
X174493333Y-88062619D02*
X174064762Y-89062619D01*
%TO.C,R11*%
X173017142Y-72862619D02*
X172683809Y-72386428D01*
X172445714Y-72862619D02*
X172445714Y-71862619D01*
X172445714Y-71862619D02*
X172826666Y-71862619D01*
X172826666Y-71862619D02*
X172921904Y-71910238D01*
X172921904Y-71910238D02*
X172969523Y-71957857D01*
X172969523Y-71957857D02*
X173017142Y-72053095D01*
X173017142Y-72053095D02*
X173017142Y-72195952D01*
X173017142Y-72195952D02*
X172969523Y-72291190D01*
X172969523Y-72291190D02*
X172921904Y-72338809D01*
X172921904Y-72338809D02*
X172826666Y-72386428D01*
X172826666Y-72386428D02*
X172445714Y-72386428D01*
X173969523Y-72862619D02*
X173398095Y-72862619D01*
X173683809Y-72862619D02*
X173683809Y-71862619D01*
X173683809Y-71862619D02*
X173588571Y-72005476D01*
X173588571Y-72005476D02*
X173493333Y-72100714D01*
X173493333Y-72100714D02*
X173398095Y-72148333D01*
X174921904Y-72862619D02*
X174350476Y-72862619D01*
X174636190Y-72862619D02*
X174636190Y-71862619D01*
X174636190Y-71862619D02*
X174540952Y-72005476D01*
X174540952Y-72005476D02*
X174445714Y-72100714D01*
X174445714Y-72100714D02*
X174350476Y-72148333D01*
%TO.C,R4*%
X188192619Y-54446666D02*
X187716428Y-54779999D01*
X188192619Y-55018094D02*
X187192619Y-55018094D01*
X187192619Y-55018094D02*
X187192619Y-54637142D01*
X187192619Y-54637142D02*
X187240238Y-54541904D01*
X187240238Y-54541904D02*
X187287857Y-54494285D01*
X187287857Y-54494285D02*
X187383095Y-54446666D01*
X187383095Y-54446666D02*
X187525952Y-54446666D01*
X187525952Y-54446666D02*
X187621190Y-54494285D01*
X187621190Y-54494285D02*
X187668809Y-54541904D01*
X187668809Y-54541904D02*
X187716428Y-54637142D01*
X187716428Y-54637142D02*
X187716428Y-55018094D01*
X187525952Y-53589523D02*
X188192619Y-53589523D01*
X187145000Y-53827618D02*
X187859285Y-54065713D01*
X187859285Y-54065713D02*
X187859285Y-53446666D01*
D12*
%TO.C,J1*%
X129210000Y-98790000D02*
X147050000Y-98790000D01*
X129210000Y-98790000D02*
X129210000Y-96130000D01*
X147050000Y-98790000D02*
X147050000Y-96130000D01*
X126610000Y-97460000D02*
X126610000Y-96130000D01*
X126610000Y-96130000D02*
X127940000Y-96130000D01*
X129210000Y-96130000D02*
X147050000Y-96130000D01*
%TO.C,J3*%
X152070000Y-98790000D02*
X164830000Y-98790000D01*
X152070000Y-98790000D02*
X152070000Y-96130000D01*
X164830000Y-98790000D02*
X164830000Y-96130000D01*
X149470000Y-97460000D02*
X149470000Y-96130000D01*
X149470000Y-96130000D02*
X150800000Y-96130000D01*
X152070000Y-96130000D02*
X164830000Y-96130000D01*
%TO.C,J2*%
X120066000Y-50530000D02*
X142986000Y-50530000D01*
X120066000Y-50530000D02*
X120066000Y-47870000D01*
X142986000Y-50530000D02*
X142986000Y-47870000D01*
X117466000Y-49200000D02*
X117466000Y-47870000D01*
X117466000Y-47870000D02*
X118796000Y-47870000D01*
X120066000Y-47870000D02*
X142986000Y-47870000D01*
%TO.C,J4*%
X146990000Y-50530000D02*
X164830000Y-50530000D01*
X146990000Y-50530000D02*
X146990000Y-47870000D01*
X164830000Y-50530000D02*
X164830000Y-47870000D01*
X144390000Y-49200000D02*
X144390000Y-47870000D01*
X144390000Y-47870000D02*
X145720000Y-47870000D01*
X146990000Y-47870000D02*
X164830000Y-47870000D01*
%TO.C,D2*%
X195270000Y-58013000D02*
X195270000Y-54923000D01*
X189720001Y-56467538D02*
G75*
G03*
X195269999Y-58012830I2989999J-462D01*
G01*
X195270000Y-54923170D02*
G75*
G03*
X189720000Y-56468462I-2560000J-1544830D01*
G01*
X195210000Y-56468000D02*
G75*
G03*
X195210000Y-56468000I-2500000J0D01*
G01*
%TO.C,U2*%
X196680000Y-91230000D02*
X196680000Y-70670000D01*
X196680000Y-70670000D02*
X186180000Y-70670000D01*
X193680000Y-91170000D02*
X193680000Y-70730000D01*
X193680000Y-70730000D02*
X189180000Y-70730000D01*
X192430000Y-91170000D02*
X193680000Y-91170000D01*
X189180000Y-91170000D02*
X190430000Y-91170000D01*
X189180000Y-70730000D02*
X189180000Y-91170000D01*
X186180000Y-91230000D02*
X196680000Y-91230000D01*
X186180000Y-70670000D02*
X186180000Y-91230000D01*
X192430000Y-91170000D02*
G75*
G03*
X190430000Y-91170000I-1000000J0D01*
G01*
%TO.C,R8*%
X177700000Y-83180000D02*
X176930000Y-83180000D01*
X176930000Y-84550000D02*
X176930000Y-81810000D01*
X176930000Y-81810000D02*
X170390000Y-81810000D01*
X170390000Y-84550000D02*
X176930000Y-84550000D01*
X170390000Y-81810000D02*
X170390000Y-84550000D01*
X169620000Y-83180000D02*
X170390000Y-83180000D01*
%TO.C,R5*%
X195480000Y-66980000D02*
X194710000Y-66980000D01*
X194710000Y-68350000D02*
X194710000Y-65610000D01*
X194710000Y-65610000D02*
X188170000Y-65610000D01*
X188170000Y-68350000D02*
X194710000Y-68350000D01*
X188170000Y-65610000D02*
X188170000Y-68350000D01*
X187400000Y-66980000D02*
X188170000Y-66980000D01*
%TO.C,D1*%
X177490000Y-58013000D02*
X177490000Y-54923000D01*
X171940001Y-56467538D02*
G75*
G03*
X177489999Y-58012830I2989999J-462D01*
G01*
X177490000Y-54923170D02*
G75*
G03*
X171940000Y-56468462I-2560000J-1544830D01*
G01*
X177430000Y-56468000D02*
G75*
G03*
X177430000Y-56468000I-2500000J0D01*
G01*
%TO.C,R1*%
X108660000Y-92380000D02*
X109430000Y-92380000D01*
X109430000Y-91010000D02*
X109430000Y-93750000D01*
X109430000Y-93750000D02*
X115970000Y-93750000D01*
X115970000Y-91010000D02*
X109430000Y-91010000D01*
X115970000Y-93750000D02*
X115970000Y-91010000D01*
X116740000Y-92380000D02*
X115970000Y-92380000D01*
%TO.C,LS1*%
X167060000Y-59360000D02*
G75*
G03*
X167060000Y-59360000I-6100000J0D01*
G01*
%TO.C,R2*%
X126440000Y-92380000D02*
X127210000Y-92380000D01*
X127210000Y-91010000D02*
X127210000Y-93750000D01*
X127210000Y-93750000D02*
X133750000Y-93750000D01*
X133750000Y-91010000D02*
X127210000Y-91010000D01*
X133750000Y-93750000D02*
X133750000Y-91010000D01*
X134520000Y-92380000D02*
X133750000Y-92380000D01*
%TO.C,SW1*%
X106560000Y-76070000D02*
X118860000Y-76070000D01*
X106560000Y-78790000D02*
X106560000Y-76070000D01*
X106560000Y-83790000D02*
X106560000Y-80650000D01*
X106560000Y-88370000D02*
X106560000Y-85650000D01*
X118860000Y-76070000D02*
X118860000Y-78790000D01*
X118860000Y-80650000D02*
X118860000Y-83790000D01*
X118860000Y-85650000D02*
X118860000Y-88370000D01*
X118860000Y-88370000D02*
X106560000Y-88370000D01*
X117389050Y-82260000D02*
G75*
G03*
X117389050Y-82260000I-4579050J0D01*
G01*
%TO.C,SW2*%
X124340000Y-76070000D02*
X136640000Y-76070000D01*
X124340000Y-78790000D02*
X124340000Y-76070000D01*
X124340000Y-83790000D02*
X124340000Y-80650000D01*
X124340000Y-88370000D02*
X124340000Y-85650000D01*
X136640000Y-76070000D02*
X136640000Y-78790000D01*
X136640000Y-80650000D02*
X136640000Y-83790000D01*
X136640000Y-85650000D02*
X136640000Y-88370000D01*
X136640000Y-88370000D02*
X124340000Y-88370000D01*
X135169050Y-82260000D02*
G75*
G03*
X135169050Y-82260000I-4579050J0D01*
G01*
%TO.C,U1*%
X119320000Y-71900000D02*
X121320000Y-71900000D01*
X101400000Y-71520000D02*
X151940000Y-71520000D01*
X101400000Y-71520000D02*
X101400000Y-52280000D01*
X151940000Y-71520000D02*
X151940000Y-52280000D01*
X151940000Y-52280000D02*
X101400000Y-52280000D01*
%TO.C,R12*%
X169620000Y-66980000D02*
X170390000Y-66980000D01*
X170390000Y-65610000D02*
X170390000Y-68350000D01*
X170390000Y-68350000D02*
X176930000Y-68350000D01*
X176930000Y-65610000D02*
X170390000Y-65610000D01*
X176930000Y-68350000D02*
X176930000Y-65610000D01*
X177700000Y-66980000D02*
X176930000Y-66980000D01*
%TO.C,R10*%
X177700000Y-75080000D02*
X176930000Y-75080000D01*
X176930000Y-76450000D02*
X176930000Y-73710000D01*
X176930000Y-73710000D02*
X170390000Y-73710000D01*
X170390000Y-76450000D02*
X176930000Y-76450000D01*
X170390000Y-73710000D02*
X170390000Y-76450000D01*
X169620000Y-75080000D02*
X170390000Y-75080000D01*
%TO.C,R9*%
X177700000Y-79130000D02*
X176930000Y-79130000D01*
X176930000Y-80500000D02*
X176930000Y-77760000D01*
X176930000Y-77760000D02*
X170390000Y-77760000D01*
X170390000Y-80500000D02*
X176930000Y-80500000D01*
X170390000Y-77760000D02*
X170390000Y-80500000D01*
X169620000Y-79130000D02*
X170390000Y-79130000D01*
%TO.C,R6*%
X177700000Y-91280000D02*
X176930000Y-91280000D01*
X176930000Y-92650000D02*
X176930000Y-89910000D01*
X176930000Y-89910000D02*
X170390000Y-89910000D01*
X170390000Y-92650000D02*
X176930000Y-92650000D01*
X170390000Y-89910000D02*
X170390000Y-92650000D01*
X169620000Y-91280000D02*
X170390000Y-91280000D01*
%TO.C,R3*%
X181280000Y-50240000D02*
X181280000Y-51010000D01*
X182650000Y-51010000D02*
X179910000Y-51010000D01*
X179910000Y-51010000D02*
X179910000Y-57550000D01*
X182650000Y-57550000D02*
X182650000Y-51010000D01*
X179910000Y-57550000D02*
X182650000Y-57550000D01*
X181280000Y-58320000D02*
X181280000Y-57550000D01*
%TO.C,R7*%
X177700000Y-87230000D02*
X176930000Y-87230000D01*
X176930000Y-88600000D02*
X176930000Y-85860000D01*
X176930000Y-85860000D02*
X170390000Y-85860000D01*
X170390000Y-88600000D02*
X176930000Y-88600000D01*
X170390000Y-85860000D02*
X170390000Y-88600000D01*
X169620000Y-87230000D02*
X170390000Y-87230000D01*
%TO.C,R11*%
X169620000Y-71030000D02*
X170390000Y-71030000D01*
X170390000Y-69660000D02*
X170390000Y-72400000D01*
X170390000Y-72400000D02*
X176930000Y-72400000D01*
X176930000Y-69660000D02*
X170390000Y-69660000D01*
X176930000Y-72400000D02*
X176930000Y-69660000D01*
X177700000Y-71030000D02*
X176930000Y-71030000D01*
%TO.C,R4*%
X186360000Y-50240000D02*
X186360000Y-51010000D01*
X187730000Y-51010000D02*
X184990000Y-51010000D01*
X184990000Y-51010000D02*
X184990000Y-57550000D01*
X187730000Y-57550000D02*
X187730000Y-51010000D01*
X184990000Y-57550000D02*
X187730000Y-57550000D01*
X186360000Y-58320000D02*
X186360000Y-57550000D01*
%TD*%
M02*
