%TF.GenerationSoftware,KiCad,Pcbnew,7.0.1*%
%TF.CreationDate,2023-05-30T20:42:55-06:00*%
%TF.ProjectId,Phase_D_STM_Shield,50686173-655f-4445-9f53-544d5f536869,rev?*%
%TF.SameCoordinates,Original*%
%TF.FileFunction,Copper,L2,Bot*%
%TF.FilePolarity,Positive*%
%FSLAX46Y46*%
G04 Gerber Fmt 4.6, Leading zero omitted, Abs format (unit mm)*
G04 Created by KiCad (PCBNEW 7.0.1) date 2023-05-30 20:42:55*
%MOMM*%
%LPD*%
G01*
G04 APERTURE LIST*
%TA.AperFunction,ComponentPad*%
%ADD10R,1.700000X1.700000*%
%TD*%
%TA.AperFunction,ComponentPad*%
%ADD11O,1.700000X1.700000*%
%TD*%
%TA.AperFunction,ViaPad*%
%ADD12C,0.800000*%
%TD*%
G04 APERTURE END LIST*
D10*
%TO.P,J2,1,Pin_1*%
%TO.N,GND*%
X210810000Y-43200000D03*
D11*
%TO.P,J2,2,Pin_2*%
X208270000Y-43200000D03*
%TO.P,J2,3,Pin_3*%
%TO.N,+5V*%
X210810000Y-45740000D03*
%TO.P,J2,4,Pin_4*%
X208270000Y-45740000D03*
%TO.P,J2,5,Pin_5*%
%TO.N,+3V0*%
X210810000Y-48280000D03*
%TO.P,J2,6,Pin_6*%
X208270000Y-48280000D03*
%TO.P,J2,7,Pin_7*%
%TO.N,unconnected-(J2-Pin_7-Pad7)*%
X210810000Y-50820000D03*
%TO.P,J2,8,Pin_8*%
%TO.N,unconnected-(J2-Pin_8-Pad8)*%
X208270000Y-50820000D03*
%TO.P,J2,9,Pin_9*%
%TO.N,unconnected-(J2-Pin_9-Pad9)*%
X210810000Y-53360000D03*
%TO.P,J2,10,Pin_10*%
%TO.N,unconnected-(J2-Pin_10-Pad10)*%
X208270000Y-53360000D03*
%TO.P,J2,11,Pin_11*%
%TO.N,unconnected-(J2-Pin_11-Pad11)*%
X210810000Y-55900000D03*
%TO.P,J2,12,Pin_12*%
%TO.N,unconnected-(J2-Pin_12-Pad12)*%
X208270000Y-55900000D03*
%TO.P,J2,13,Pin_13*%
%TO.N,unconnected-(J2-Pin_13-Pad13)*%
X210810000Y-58440000D03*
%TO.P,J2,14,Pin_14*%
%TO.N,unconnected-(J2-Pin_14-Pad14)*%
X208270000Y-58440000D03*
%TO.P,J2,15,Pin_15*%
%TO.N,unconnected-(J2-Pin_15-Pad15)*%
X210810000Y-60980000D03*
%TO.P,J2,16,Pin_16*%
%TO.N,unconnected-(J2-Pin_16-Pad16)*%
X208270000Y-60980000D03*
%TO.P,J2,17,Pin_17*%
%TO.N,unconnected-(J2-Pin_17-Pad17)*%
X210810000Y-63520000D03*
%TO.P,J2,18,Pin_18*%
%TO.N,unconnected-(J2-Pin_18-Pad18)*%
X208270000Y-63520000D03*
%TO.P,J2,19,Pin_19*%
%TO.N,unconnected-(J2-Pin_19-Pad19)*%
X210810000Y-66060000D03*
%TO.P,J2,20,Pin_20*%
%TO.N,unconnected-(J2-Pin_20-Pad20)*%
X208270000Y-66060000D03*
%TO.P,J2,21,Pin_21*%
%TO.N,unconnected-(J2-Pin_21-Pad21)*%
X210810000Y-68600000D03*
%TO.P,J2,22,Pin_22*%
%TO.N,unconnected-(J2-Pin_22-Pad22)*%
X208270000Y-68600000D03*
%TO.P,J2,23,Pin_23*%
%TO.N,unconnected-(J2-Pin_23-Pad23)*%
X210810000Y-71140000D03*
%TO.P,J2,24,Pin_24*%
%TO.N,unconnected-(J2-Pin_24-Pad24)*%
X208270000Y-71140000D03*
%TO.P,J2,25,Pin_25*%
%TO.N,unconnected-(J2-Pin_25-Pad25)*%
X210810000Y-73680000D03*
%TO.P,J2,26,Pin_26*%
%TO.N,unconnected-(J2-Pin_26-Pad26)*%
X208270000Y-73680000D03*
%TO.P,J2,27,Pin_27*%
%TO.N,unconnected-(J2-Pin_27-Pad27)*%
X210810000Y-76220000D03*
%TO.P,J2,28,Pin_28*%
%TO.N,unconnected-(J2-Pin_28-Pad28)*%
X208270000Y-76220000D03*
%TO.P,J2,29,Pin_29*%
%TO.N,unconnected-(J2-Pin_29-Pad29)*%
X210810000Y-78760000D03*
%TO.P,J2,30,Pin_30*%
%TO.N,unconnected-(J2-Pin_30-Pad30)*%
X208270000Y-78760000D03*
%TO.P,J2,31,Pin_31*%
%TO.N,unconnected-(J2-Pin_31-Pad31)*%
X210810000Y-81300000D03*
%TO.P,J2,32,Pin_32*%
%TO.N,unconnected-(J2-Pin_32-Pad32)*%
X208270000Y-81300000D03*
%TO.P,J2,33,Pin_33*%
%TO.N,unconnected-(J2-Pin_33-Pad33)*%
X210810000Y-83840000D03*
%TO.P,J2,34,Pin_34*%
%TO.N,unconnected-(J2-Pin_34-Pad34)*%
X208270000Y-83840000D03*
%TO.P,J2,35,Pin_35*%
%TO.N,unconnected-(J2-Pin_35-Pad35)*%
X210810000Y-86380000D03*
%TO.P,J2,36,Pin_36*%
%TO.N,unconnected-(J2-Pin_36-Pad36)*%
X208270000Y-86380000D03*
%TO.P,J2,37,Pin_37*%
%TO.N,unconnected-(J2-Pin_37-Pad37)*%
X210810000Y-88920000D03*
%TO.P,J2,38,Pin_38*%
%TO.N,unconnected-(J2-Pin_38-Pad38)*%
X208270000Y-88920000D03*
%TO.P,J2,39,Pin_39*%
%TO.N,unconnected-(J2-Pin_39-Pad39)*%
X210810000Y-91460000D03*
%TO.P,J2,40,Pin_40*%
%TO.N,unconnected-(J2-Pin_40-Pad40)*%
X208270000Y-91460000D03*
%TO.P,J2,41,Pin_41*%
%TO.N,unconnected-(J2-Pin_41-Pad41)*%
X210810000Y-94000000D03*
%TO.P,J2,42,Pin_42*%
%TO.N,unconnected-(J2-Pin_42-Pad42)*%
X208270000Y-94000000D03*
%TO.P,J2,43,Pin_43*%
%TO.N,unconnected-(J2-Pin_43-Pad43)*%
X210810000Y-96540000D03*
%TO.P,J2,44,Pin_44*%
%TO.N,unconnected-(J2-Pin_44-Pad44)*%
X208270000Y-96540000D03*
%TO.P,J2,45,Pin_45*%
%TO.N,unconnected-(J2-Pin_45-Pad45)*%
X210810000Y-99080000D03*
%TO.P,J2,46,Pin_46*%
%TO.N,unconnected-(J2-Pin_46-Pad46)*%
X208270000Y-99080000D03*
%TO.P,J2,47,Pin_47*%
%TO.N,unconnected-(J2-Pin_47-Pad47)*%
X210810000Y-101620000D03*
%TO.P,J2,48,Pin_48*%
%TO.N,unconnected-(J2-Pin_48-Pad48)*%
X208270000Y-101620000D03*
%TO.P,J2,49,Pin_49*%
%TO.N,GND*%
X210810000Y-104160000D03*
%TO.P,J2,50,Pin_50*%
X208270000Y-104160000D03*
%TD*%
D10*
%TO.P,J1,1,Pin_1*%
%TO.N,GND*%
X160020000Y-43180000D03*
D11*
%TO.P,J1,2,Pin_2*%
X157480000Y-43180000D03*
%TO.P,J1,3,Pin_3*%
%TO.N,unconnected-(J1-Pin_3-Pad3)*%
X160020000Y-45720000D03*
%TO.P,J1,4,Pin_4*%
%TO.N,unconnected-(J1-Pin_4-Pad4)*%
X157480000Y-45720000D03*
%TO.P,J1,5,Pin_5*%
%TO.N,unconnected-(J1-Pin_5-Pad5)*%
X160020000Y-48260000D03*
%TO.P,J1,6,Pin_6*%
%TO.N,GND*%
X157480000Y-48260000D03*
%TO.P,J1,7,Pin_7*%
%TO.N,unconnected-(J1-Pin_7-Pad7)*%
X160020000Y-50800000D03*
%TO.P,J1,8,Pin_8*%
%TO.N,unconnected-(J1-Pin_8-Pad8)*%
X157480000Y-50800000D03*
%TO.P,J1,9,Pin_9*%
%TO.N,unconnected-(J1-Pin_9-Pad9)*%
X160020000Y-53340000D03*
%TO.P,J1,10,Pin_10*%
%TO.N,unconnected-(J1-Pin_10-Pad10)*%
X157480000Y-53340000D03*
%TO.P,J1,11,Pin_11*%
%TO.N,unconnected-(J1-Pin_11-Pad11)*%
X160020000Y-55880000D03*
%TO.P,J1,12,Pin_12*%
%TO.N,RS*%
X157480000Y-55880000D03*
%TO.P,J1,13,Pin_13*%
%TO.N,RW*%
X160020000Y-58420000D03*
%TO.P,J1,14,Pin_14*%
%TO.N,E*%
X157480000Y-58420000D03*
%TO.P,J1,15,Pin_15*%
%TO.N,DB4*%
X160020000Y-60960000D03*
%TO.P,J1,16,Pin_16*%
%TO.N,DB5*%
X157480000Y-60960000D03*
%TO.P,J1,17,Pin_17*%
%TO.N,DB6*%
X160020000Y-63500000D03*
%TO.P,J1,18,Pin_18*%
%TO.N,DB7*%
X157480000Y-63500000D03*
%TO.P,J1,19,Pin_19*%
%TO.N,DHT*%
X160020000Y-66040000D03*
%TO.P,J1,20,Pin_20*%
%TO.N,unconnected-(J1-Pin_20-Pad20)*%
X157480000Y-66040000D03*
%TO.P,J1,21,Pin_21*%
%TO.N,unconnected-(J1-Pin_21-Pad21)*%
X160020000Y-68580000D03*
%TO.P,J1,22,Pin_22*%
%TO.N,unconnected-(J1-Pin_22-Pad22)*%
X157480000Y-68580000D03*
%TO.P,J1,23,Pin_23*%
%TO.N,unconnected-(J1-Pin_23-Pad23)*%
X160020000Y-71120000D03*
%TO.P,J1,24,Pin_24*%
%TO.N,GND*%
X157480000Y-71120000D03*
%TO.P,J1,25,Pin_25*%
%TO.N,unconnected-(J1-Pin_25-Pad25)*%
X160020000Y-73660000D03*
%TO.P,J1,26,Pin_26*%
%TO.N,unconnected-(J1-Pin_26-Pad26)*%
X157480000Y-73660000D03*
%TO.P,J1,27,Pin_27*%
%TO.N,unconnected-(J1-Pin_27-Pad27)*%
X160020000Y-76200000D03*
%TO.P,J1,28,Pin_28*%
%TO.N,unconnected-(J1-Pin_28-Pad28)*%
X157480000Y-76200000D03*
%TO.P,J1,29,Pin_29*%
%TO.N,unconnected-(J1-Pin_29-Pad29)*%
X160020000Y-78740000D03*
%TO.P,J1,30,Pin_30*%
%TO.N,unconnected-(J1-Pin_30-Pad30)*%
X157480000Y-78740000D03*
%TO.P,J1,31,Pin_31*%
%TO.N,unconnected-(J1-Pin_31-Pad31)*%
X160020000Y-81280000D03*
%TO.P,J1,32,Pin_32*%
%TO.N,unconnected-(J1-Pin_32-Pad32)*%
X157480000Y-81280000D03*
%TO.P,J1,33,Pin_33*%
%TO.N,unconnected-(J1-Pin_33-Pad33)*%
X160020000Y-83820000D03*
%TO.P,J1,34,Pin_34*%
%TO.N,unconnected-(J1-Pin_34-Pad34)*%
X157480000Y-83820000D03*
%TO.P,J1,35,Pin_35*%
%TO.N,unconnected-(J1-Pin_35-Pad35)*%
X160020000Y-86360000D03*
%TO.P,J1,36,Pin_36*%
%TO.N,unconnected-(J1-Pin_36-Pad36)*%
X157480000Y-86360000D03*
%TO.P,J1,37,Pin_37*%
%TO.N,unconnected-(J1-Pin_37-Pad37)*%
X160020000Y-88900000D03*
%TO.P,J1,38,Pin_38*%
%TO.N,unconnected-(J1-Pin_38-Pad38)*%
X157480000Y-88900000D03*
%TO.P,J1,39,Pin_39*%
%TO.N,unconnected-(J1-Pin_39-Pad39)*%
X160020000Y-91440000D03*
%TO.P,J1,40,Pin_40*%
%TO.N,unconnected-(J1-Pin_40-Pad40)*%
X157480000Y-91440000D03*
%TO.P,J1,41,Pin_41*%
%TO.N,unconnected-(J1-Pin_41-Pad41)*%
X160020000Y-93980000D03*
%TO.P,J1,42,Pin_42*%
%TO.N,unconnected-(J1-Pin_42-Pad42)*%
X157480000Y-93980000D03*
%TO.P,J1,43,Pin_43*%
%TO.N,unconnected-(J1-Pin_43-Pad43)*%
X160020000Y-96520000D03*
%TO.P,J1,44,Pin_44*%
%TO.N,unconnected-(J1-Pin_44-Pad44)*%
X157480000Y-96520000D03*
%TO.P,J1,45,Pin_45*%
%TO.N,unconnected-(J1-Pin_45-Pad45)*%
X160020000Y-99060000D03*
%TO.P,J1,46,Pin_46*%
%TO.N,unconnected-(J1-Pin_46-Pad46)*%
X157480000Y-99060000D03*
%TO.P,J1,47,Pin_47*%
%TO.N,unconnected-(J1-Pin_47-Pad47)*%
X160020000Y-101600000D03*
%TO.P,J1,48,Pin_48*%
%TO.N,unconnected-(J1-Pin_48-Pad48)*%
X157480000Y-101600000D03*
%TO.P,J1,49,Pin_49*%
%TO.N,GND*%
X160020000Y-104140000D03*
%TO.P,J1,50,Pin_50*%
X157480000Y-104140000D03*
%TD*%
D12*
%TO.N,GND*%
X132080000Y-43180000D03*
X154940000Y-73660000D03*
X154940000Y-104140000D03*
X121920000Y-99060000D03*
X111760000Y-43180000D03*
X213360000Y-104140000D03*
X213360000Y-43180000D03*
X104140000Y-81280000D03*
%TD*%
%TA.AperFunction,Conductor*%
%TO.N,GND*%
G36*
X215837500Y-38117113D02*
G01*
X215882887Y-38162500D01*
X215899500Y-38224500D01*
X215899500Y-116715500D01*
X215882887Y-116777500D01*
X215837500Y-116822887D01*
X215775500Y-116839500D01*
X96644500Y-116839500D01*
X96582500Y-116822887D01*
X96537113Y-116777500D01*
X96520500Y-116715500D01*
X96520500Y-104390000D01*
X156149364Y-104390000D01*
X156206569Y-104603492D01*
X156306399Y-104817576D01*
X156441893Y-105011081D01*
X156608918Y-105178106D01*
X156802423Y-105313600D01*
X157016507Y-105413430D01*
X157229999Y-105470635D01*
X157230000Y-105470636D01*
X157230000Y-104390000D01*
X157730000Y-104390000D01*
X157730000Y-105470635D01*
X157943492Y-105413430D01*
X158157576Y-105313600D01*
X158351081Y-105178106D01*
X158518106Y-105011081D01*
X158648425Y-104824968D01*
X158692743Y-104786103D01*
X158750000Y-104772092D01*
X158807257Y-104786103D01*
X158851575Y-104824968D01*
X158981893Y-105011081D01*
X159148918Y-105178106D01*
X159342423Y-105313600D01*
X159556507Y-105413430D01*
X159769999Y-105470635D01*
X159770000Y-105470636D01*
X159770000Y-104390000D01*
X160270000Y-104390000D01*
X160270000Y-105470635D01*
X160483492Y-105413430D01*
X160697576Y-105313600D01*
X160891081Y-105178106D01*
X161058106Y-105011081D01*
X161193600Y-104817576D01*
X161293430Y-104603492D01*
X161345277Y-104410000D01*
X206939364Y-104410000D01*
X206996569Y-104623492D01*
X207096399Y-104837576D01*
X207231893Y-105031081D01*
X207398918Y-105198106D01*
X207592423Y-105333600D01*
X207806507Y-105433430D01*
X208019999Y-105490635D01*
X208020000Y-105490636D01*
X208020000Y-104410000D01*
X208520000Y-104410000D01*
X208520000Y-105490635D01*
X208733492Y-105433430D01*
X208947576Y-105333600D01*
X209141081Y-105198106D01*
X209308106Y-105031081D01*
X209438425Y-104844968D01*
X209482743Y-104806103D01*
X209540000Y-104792092D01*
X209597257Y-104806103D01*
X209641575Y-104844968D01*
X209771893Y-105031081D01*
X209938918Y-105198106D01*
X210132423Y-105333600D01*
X210346507Y-105433430D01*
X210559999Y-105490635D01*
X210560000Y-105490636D01*
X210560000Y-104410000D01*
X211060000Y-104410000D01*
X211060000Y-105490635D01*
X211273492Y-105433430D01*
X211487576Y-105333600D01*
X211681081Y-105198106D01*
X211848106Y-105031081D01*
X211983600Y-104837576D01*
X212083430Y-104623492D01*
X212140636Y-104410000D01*
X211060000Y-104410000D01*
X210560000Y-104410000D01*
X208520000Y-104410000D01*
X208020000Y-104410000D01*
X206939364Y-104410000D01*
X161345277Y-104410000D01*
X161350636Y-104390000D01*
X160270000Y-104390000D01*
X159770000Y-104390000D01*
X157730000Y-104390000D01*
X157230000Y-104390000D01*
X156149364Y-104390000D01*
X96520500Y-104390000D01*
X96520500Y-101600000D01*
X156124340Y-101600000D01*
X156144936Y-101835407D01*
X156189709Y-102002501D01*
X156206097Y-102063663D01*
X156305965Y-102277830D01*
X156441505Y-102471401D01*
X156608599Y-102638495D01*
X156794597Y-102768732D01*
X156833460Y-102813048D01*
X156847471Y-102870305D01*
X156833461Y-102927561D01*
X156794595Y-102971880D01*
X156608919Y-103101892D01*
X156441890Y-103268921D01*
X156306400Y-103462421D01*
X156206569Y-103676507D01*
X156149364Y-103889999D01*
X156149364Y-103890000D01*
X161350636Y-103890000D01*
X161350635Y-103889999D01*
X161293430Y-103676507D01*
X161193599Y-103462421D01*
X161058109Y-103268921D01*
X160891081Y-103101893D01*
X160705404Y-102971880D01*
X160666539Y-102927562D01*
X160652528Y-102870305D01*
X160666539Y-102813048D01*
X160705402Y-102768732D01*
X160891401Y-102638495D01*
X161058495Y-102471401D01*
X161194035Y-102277830D01*
X161293903Y-102063663D01*
X161355063Y-101835408D01*
X161373909Y-101619999D01*
X206914340Y-101619999D01*
X206934936Y-101855407D01*
X206979709Y-102022502D01*
X206996097Y-102083663D01*
X207095965Y-102297830D01*
X207231505Y-102491401D01*
X207398599Y-102658495D01*
X207584597Y-102788732D01*
X207623460Y-102833048D01*
X207637471Y-102890305D01*
X207623461Y-102947561D01*
X207584595Y-102991880D01*
X207398919Y-103121892D01*
X207231890Y-103288921D01*
X207096400Y-103482421D01*
X206996569Y-103696507D01*
X206939364Y-103909999D01*
X206939364Y-103910000D01*
X212140636Y-103910000D01*
X212140635Y-103909999D01*
X212083430Y-103696507D01*
X211983599Y-103482421D01*
X211848109Y-103288921D01*
X211681081Y-103121893D01*
X211495404Y-102991880D01*
X211456539Y-102947562D01*
X211442528Y-102890305D01*
X211456539Y-102833048D01*
X211495402Y-102788732D01*
X211681401Y-102658495D01*
X211848495Y-102491401D01*
X211984035Y-102297830D01*
X212083903Y-102083663D01*
X212145063Y-101855408D01*
X212165659Y-101620000D01*
X212145063Y-101384592D01*
X212083903Y-101156337D01*
X211984035Y-100942171D01*
X211848495Y-100748599D01*
X211681401Y-100581505D01*
X211495839Y-100451573D01*
X211456975Y-100407257D01*
X211442964Y-100350000D01*
X211456975Y-100292743D01*
X211495839Y-100248426D01*
X211681401Y-100118495D01*
X211848495Y-99951401D01*
X211984035Y-99757830D01*
X212083903Y-99543663D01*
X212145063Y-99315408D01*
X212165659Y-99080000D01*
X212145063Y-98844592D01*
X212083903Y-98616337D01*
X211984035Y-98402171D01*
X211848495Y-98208599D01*
X211681401Y-98041505D01*
X211495839Y-97911573D01*
X211456975Y-97867257D01*
X211442964Y-97810000D01*
X211456975Y-97752743D01*
X211495839Y-97708426D01*
X211681401Y-97578495D01*
X211848495Y-97411401D01*
X211984035Y-97217830D01*
X212083903Y-97003663D01*
X212145063Y-96775408D01*
X212165659Y-96540000D01*
X212145063Y-96304592D01*
X212083903Y-96076337D01*
X211984035Y-95862171D01*
X211848495Y-95668599D01*
X211681401Y-95501505D01*
X211495839Y-95371573D01*
X211456974Y-95327255D01*
X211442964Y-95269999D01*
X211456975Y-95212742D01*
X211495837Y-95168428D01*
X211681401Y-95038495D01*
X211848495Y-94871401D01*
X211984035Y-94677830D01*
X212083903Y-94463663D01*
X212145063Y-94235408D01*
X212165659Y-94000000D01*
X212145063Y-93764592D01*
X212083903Y-93536337D01*
X211984035Y-93322171D01*
X211848495Y-93128599D01*
X211681401Y-92961505D01*
X211495839Y-92831573D01*
X211456974Y-92787255D01*
X211442964Y-92729999D01*
X211456975Y-92672742D01*
X211495837Y-92628428D01*
X211681401Y-92498495D01*
X211848495Y-92331401D01*
X211984035Y-92137830D01*
X212083903Y-91923663D01*
X212145063Y-91695408D01*
X212165659Y-91460000D01*
X212145063Y-91224592D01*
X212083903Y-90996337D01*
X211984035Y-90782171D01*
X211848495Y-90588599D01*
X211681401Y-90421505D01*
X211495839Y-90291573D01*
X211456974Y-90247255D01*
X211442964Y-90189999D01*
X211456975Y-90132742D01*
X211495837Y-90088428D01*
X211681401Y-89958495D01*
X211848495Y-89791401D01*
X211984035Y-89597830D01*
X212083903Y-89383663D01*
X212145063Y-89155408D01*
X212165659Y-88920000D01*
X212145063Y-88684592D01*
X212083903Y-88456337D01*
X211984035Y-88242171D01*
X211848495Y-88048599D01*
X211681401Y-87881505D01*
X211495839Y-87751573D01*
X211456975Y-87707257D01*
X211442964Y-87650000D01*
X211456975Y-87592743D01*
X211495839Y-87548426D01*
X211681401Y-87418495D01*
X211848495Y-87251401D01*
X211984035Y-87057830D01*
X212083903Y-86843663D01*
X212145063Y-86615408D01*
X212165659Y-86380000D01*
X212145063Y-86144592D01*
X212083903Y-85916337D01*
X211984035Y-85702171D01*
X211848495Y-85508599D01*
X211681401Y-85341505D01*
X211495839Y-85211573D01*
X211456974Y-85167255D01*
X211442964Y-85109999D01*
X211456975Y-85052742D01*
X211495837Y-85008428D01*
X211681401Y-84878495D01*
X211848495Y-84711401D01*
X211984035Y-84517830D01*
X212083903Y-84303663D01*
X212145063Y-84075408D01*
X212165659Y-83840000D01*
X212145063Y-83604592D01*
X212083903Y-83376337D01*
X211984035Y-83162171D01*
X211848495Y-82968599D01*
X211681401Y-82801505D01*
X211495839Y-82671573D01*
X211456975Y-82627257D01*
X211442964Y-82570000D01*
X211456975Y-82512743D01*
X211495839Y-82468426D01*
X211681401Y-82338495D01*
X211848495Y-82171401D01*
X211984035Y-81977830D01*
X212083903Y-81763663D01*
X212145063Y-81535408D01*
X212165659Y-81300000D01*
X212145063Y-81064592D01*
X212083903Y-80836337D01*
X211984035Y-80622171D01*
X211848495Y-80428599D01*
X211681401Y-80261505D01*
X211495839Y-80131573D01*
X211456975Y-80087257D01*
X211442964Y-80030000D01*
X211456975Y-79972743D01*
X211495839Y-79928426D01*
X211681401Y-79798495D01*
X211848495Y-79631401D01*
X211984035Y-79437830D01*
X212083903Y-79223663D01*
X212145063Y-78995408D01*
X212165659Y-78760000D01*
X212145063Y-78524592D01*
X212083903Y-78296337D01*
X211984035Y-78082171D01*
X211848495Y-77888599D01*
X211681401Y-77721505D01*
X211495839Y-77591573D01*
X211456975Y-77547257D01*
X211442964Y-77490000D01*
X211456975Y-77432743D01*
X211495839Y-77388426D01*
X211681401Y-77258495D01*
X211848495Y-77091401D01*
X211984035Y-76897830D01*
X212083903Y-76683663D01*
X212145063Y-76455408D01*
X212165659Y-76220000D01*
X212145063Y-75984592D01*
X212083903Y-75756337D01*
X211984035Y-75542171D01*
X211848495Y-75348599D01*
X211681401Y-75181505D01*
X211495839Y-75051573D01*
X211456975Y-75007257D01*
X211442964Y-74950000D01*
X211456975Y-74892743D01*
X211495839Y-74848426D01*
X211681401Y-74718495D01*
X211848495Y-74551401D01*
X211984035Y-74357830D01*
X212083903Y-74143663D01*
X212145063Y-73915408D01*
X212165659Y-73680000D01*
X212145063Y-73444592D01*
X212083903Y-73216337D01*
X211984035Y-73002171D01*
X211848495Y-72808599D01*
X211681401Y-72641505D01*
X211495839Y-72511573D01*
X211456976Y-72467257D01*
X211442965Y-72410000D01*
X211456976Y-72352743D01*
X211495839Y-72308426D01*
X211681401Y-72178495D01*
X211848495Y-72011401D01*
X211984035Y-71817830D01*
X212083903Y-71603663D01*
X212145063Y-71375408D01*
X212165659Y-71140000D01*
X212145063Y-70904592D01*
X212083903Y-70676337D01*
X211984035Y-70462171D01*
X211848495Y-70268599D01*
X211681401Y-70101505D01*
X211495839Y-69971573D01*
X211456975Y-69927257D01*
X211442964Y-69870000D01*
X211456975Y-69812743D01*
X211495839Y-69768426D01*
X211681401Y-69638495D01*
X211848495Y-69471401D01*
X211984035Y-69277830D01*
X212083903Y-69063663D01*
X212145063Y-68835408D01*
X212165659Y-68600000D01*
X212145063Y-68364592D01*
X212083903Y-68136337D01*
X211984035Y-67922171D01*
X211848495Y-67728599D01*
X211681401Y-67561505D01*
X211495839Y-67431573D01*
X211456975Y-67387257D01*
X211442964Y-67330000D01*
X211456975Y-67272743D01*
X211495839Y-67228426D01*
X211681401Y-67098495D01*
X211848495Y-66931401D01*
X211984035Y-66737830D01*
X212083903Y-66523663D01*
X212145063Y-66295408D01*
X212165659Y-66060000D01*
X212145063Y-65824592D01*
X212083903Y-65596337D01*
X211984035Y-65382171D01*
X211848495Y-65188599D01*
X211681401Y-65021505D01*
X211495839Y-64891573D01*
X211456974Y-64847255D01*
X211442964Y-64789999D01*
X211456975Y-64732742D01*
X211495837Y-64688428D01*
X211681401Y-64558495D01*
X211848495Y-64391401D01*
X211984035Y-64197830D01*
X212083903Y-63983663D01*
X212145063Y-63755408D01*
X212165659Y-63520000D01*
X212145063Y-63284592D01*
X212083903Y-63056337D01*
X211984035Y-62842171D01*
X211848495Y-62648599D01*
X211681401Y-62481505D01*
X211495839Y-62351573D01*
X211456975Y-62307257D01*
X211442964Y-62250000D01*
X211456975Y-62192743D01*
X211495839Y-62148426D01*
X211681401Y-62018495D01*
X211848495Y-61851401D01*
X211984035Y-61657830D01*
X212083903Y-61443663D01*
X212145063Y-61215408D01*
X212165659Y-60980000D01*
X212145063Y-60744592D01*
X212083903Y-60516337D01*
X211984035Y-60302171D01*
X211848495Y-60108599D01*
X211681401Y-59941505D01*
X211495839Y-59811573D01*
X211456975Y-59767257D01*
X211442964Y-59710000D01*
X211456975Y-59652743D01*
X211495839Y-59608426D01*
X211681401Y-59478495D01*
X211848495Y-59311401D01*
X211984035Y-59117830D01*
X212083903Y-58903663D01*
X212145063Y-58675408D01*
X212165659Y-58440000D01*
X212145063Y-58204592D01*
X212083903Y-57976337D01*
X211984035Y-57762171D01*
X211848495Y-57568599D01*
X211681401Y-57401505D01*
X211495839Y-57271573D01*
X211456976Y-57227257D01*
X211442965Y-57170000D01*
X211456976Y-57112743D01*
X211495839Y-57068426D01*
X211681401Y-56938495D01*
X211848495Y-56771401D01*
X211984035Y-56577830D01*
X212083903Y-56363663D01*
X212145063Y-56135408D01*
X212165659Y-55900000D01*
X212145063Y-55664592D01*
X212083903Y-55436337D01*
X211984035Y-55222171D01*
X211848495Y-55028599D01*
X211681401Y-54861505D01*
X211495839Y-54731573D01*
X211456974Y-54687255D01*
X211442964Y-54629999D01*
X211456975Y-54572742D01*
X211495837Y-54528428D01*
X211681401Y-54398495D01*
X211848495Y-54231401D01*
X211984035Y-54037830D01*
X212083903Y-53823663D01*
X212145063Y-53595408D01*
X212165659Y-53360000D01*
X212145063Y-53124592D01*
X212083903Y-52896337D01*
X211984035Y-52682171D01*
X211848495Y-52488599D01*
X211681401Y-52321505D01*
X211495839Y-52191573D01*
X211456975Y-52147257D01*
X211442964Y-52090000D01*
X211456975Y-52032743D01*
X211495839Y-51988426D01*
X211681401Y-51858495D01*
X211848495Y-51691401D01*
X211984035Y-51497830D01*
X212083903Y-51283663D01*
X212145063Y-51055408D01*
X212165659Y-50820000D01*
X212145063Y-50584592D01*
X212083903Y-50356337D01*
X211984035Y-50142171D01*
X211848495Y-49948599D01*
X211681401Y-49781505D01*
X211495839Y-49651573D01*
X211456975Y-49607257D01*
X211442964Y-49550000D01*
X211456975Y-49492743D01*
X211495839Y-49448426D01*
X211681401Y-49318495D01*
X211848495Y-49151401D01*
X211984035Y-48957830D01*
X212083903Y-48743663D01*
X212145063Y-48515408D01*
X212165659Y-48280000D01*
X212145063Y-48044592D01*
X212083903Y-47816337D01*
X211984035Y-47602171D01*
X211848495Y-47408599D01*
X211681401Y-47241505D01*
X211495839Y-47111573D01*
X211456974Y-47067255D01*
X211442964Y-47009999D01*
X211456975Y-46952742D01*
X211495837Y-46908428D01*
X211681401Y-46778495D01*
X211848495Y-46611401D01*
X211984035Y-46417830D01*
X212083903Y-46203663D01*
X212145063Y-45975408D01*
X212165659Y-45740000D01*
X212145063Y-45504592D01*
X212083903Y-45276337D01*
X211984035Y-45062171D01*
X211848495Y-44868599D01*
X211726181Y-44746285D01*
X211694885Y-44693539D01*
X211692696Y-44632246D01*
X211720149Y-44577401D01*
X211770528Y-44542422D01*
X211902089Y-44493352D01*
X212017188Y-44407188D01*
X212103352Y-44292089D01*
X212153597Y-44157375D01*
X212160000Y-44097824D01*
X212160000Y-43450000D01*
X206939364Y-43450000D01*
X206996569Y-43663492D01*
X207096399Y-43877576D01*
X207231893Y-44071081D01*
X207398918Y-44238106D01*
X207584595Y-44368119D01*
X207623460Y-44412437D01*
X207637471Y-44469694D01*
X207623460Y-44526951D01*
X207584595Y-44571269D01*
X207398595Y-44701508D01*
X207231505Y-44868598D01*
X207095965Y-45062170D01*
X206996097Y-45276336D01*
X206934936Y-45504592D01*
X206914340Y-45739999D01*
X206934936Y-45975407D01*
X206979709Y-46142501D01*
X206996097Y-46203663D01*
X207095965Y-46417830D01*
X207231505Y-46611401D01*
X207398599Y-46778495D01*
X207584160Y-46908426D01*
X207623024Y-46952743D01*
X207637035Y-47010000D01*
X207623024Y-47067257D01*
X207584160Y-47111574D01*
X207426610Y-47221892D01*
X207398595Y-47241508D01*
X207231505Y-47408598D01*
X207095965Y-47602170D01*
X206996097Y-47816336D01*
X206934936Y-48044592D01*
X206914340Y-48280000D01*
X206934936Y-48515407D01*
X206979709Y-48682501D01*
X206996097Y-48743663D01*
X207095965Y-48957830D01*
X207231505Y-49151401D01*
X207398599Y-49318495D01*
X207584160Y-49448426D01*
X207623024Y-49492743D01*
X207637035Y-49550000D01*
X207623024Y-49607257D01*
X207584159Y-49651575D01*
X207398595Y-49781508D01*
X207231505Y-49948598D01*
X207095965Y-50142170D01*
X206996097Y-50356336D01*
X206934936Y-50584592D01*
X206914340Y-50819999D01*
X206934936Y-51055407D01*
X206979709Y-51222501D01*
X206996097Y-51283663D01*
X207095965Y-51497830D01*
X207231505Y-51691401D01*
X207398599Y-51858495D01*
X207584160Y-51988426D01*
X207623024Y-52032743D01*
X207637035Y-52090000D01*
X207623024Y-52147257D01*
X207584159Y-52191575D01*
X207398595Y-52321508D01*
X207231505Y-52488598D01*
X207095965Y-52682170D01*
X206996097Y-52896336D01*
X206934936Y-53124592D01*
X206914340Y-53360000D01*
X206934936Y-53595407D01*
X206979709Y-53762501D01*
X206996097Y-53823663D01*
X207095965Y-54037830D01*
X207231505Y-54231401D01*
X207398599Y-54398495D01*
X207584160Y-54528426D01*
X207623024Y-54572743D01*
X207637035Y-54630000D01*
X207623024Y-54687257D01*
X207584159Y-54731575D01*
X207398595Y-54861508D01*
X207231505Y-55028598D01*
X207095965Y-55222170D01*
X206996097Y-55436336D01*
X206934936Y-55664592D01*
X206914340Y-55899999D01*
X206934936Y-56135407D01*
X206979709Y-56302502D01*
X206996097Y-56363663D01*
X207095965Y-56577830D01*
X207231505Y-56771401D01*
X207398599Y-56938495D01*
X207584160Y-57068426D01*
X207623024Y-57112743D01*
X207637035Y-57170000D01*
X207623024Y-57227257D01*
X207584159Y-57271575D01*
X207398595Y-57401508D01*
X207231505Y-57568598D01*
X207095965Y-57762170D01*
X206996097Y-57976336D01*
X206934936Y-58204592D01*
X206914340Y-58440000D01*
X206934936Y-58675407D01*
X206979709Y-58842501D01*
X206996097Y-58903663D01*
X207095965Y-59117830D01*
X207231505Y-59311401D01*
X207398599Y-59478495D01*
X207584160Y-59608426D01*
X207623024Y-59652743D01*
X207637035Y-59710000D01*
X207623024Y-59767257D01*
X207584159Y-59811575D01*
X207398595Y-59941508D01*
X207231505Y-60108598D01*
X207095965Y-60302170D01*
X206996097Y-60516336D01*
X206934936Y-60744592D01*
X206914340Y-60979999D01*
X206934936Y-61215407D01*
X206979709Y-61382502D01*
X206996097Y-61443663D01*
X207095965Y-61657830D01*
X207231505Y-61851401D01*
X207398599Y-62018495D01*
X207584160Y-62148426D01*
X207623024Y-62192743D01*
X207637035Y-62250000D01*
X207623024Y-62307257D01*
X207584159Y-62351575D01*
X207398595Y-62481508D01*
X207231505Y-62648598D01*
X207095965Y-62842170D01*
X206996097Y-63056336D01*
X206934936Y-63284592D01*
X206914340Y-63520000D01*
X206934936Y-63755407D01*
X206979709Y-63922501D01*
X206996097Y-63983663D01*
X207095965Y-64197830D01*
X207231505Y-64391401D01*
X207398599Y-64558495D01*
X207584160Y-64688426D01*
X207623024Y-64732743D01*
X207637035Y-64790000D01*
X207623024Y-64847257D01*
X207584159Y-64891575D01*
X207398595Y-65021508D01*
X207231505Y-65188598D01*
X207095965Y-65382170D01*
X206996097Y-65596336D01*
X206934936Y-65824592D01*
X206914340Y-66060000D01*
X206934936Y-66295407D01*
X206979709Y-66462501D01*
X206996097Y-66523663D01*
X207095965Y-66737830D01*
X207231505Y-66931401D01*
X207398599Y-67098495D01*
X207584160Y-67228426D01*
X207623024Y-67272743D01*
X207637035Y-67330000D01*
X207623024Y-67387257D01*
X207584159Y-67431575D01*
X207398595Y-67561508D01*
X207231505Y-67728598D01*
X207095965Y-67922170D01*
X206996097Y-68136336D01*
X206934936Y-68364592D01*
X206914340Y-68599999D01*
X206934936Y-68835407D01*
X206979709Y-69002501D01*
X206996097Y-69063663D01*
X207095965Y-69277830D01*
X207231505Y-69471401D01*
X207398599Y-69638495D01*
X207584160Y-69768426D01*
X207623024Y-69812743D01*
X207637035Y-69870000D01*
X207623024Y-69927257D01*
X207584158Y-69971575D01*
X207426610Y-70081892D01*
X207398595Y-70101508D01*
X207231505Y-70268598D01*
X207095965Y-70462170D01*
X206996097Y-70676336D01*
X206934936Y-70904592D01*
X206914340Y-71140000D01*
X206934936Y-71375407D01*
X206979709Y-71542502D01*
X206996097Y-71603663D01*
X207095965Y-71817830D01*
X207231505Y-72011401D01*
X207398599Y-72178495D01*
X207584160Y-72308426D01*
X207623024Y-72352743D01*
X207637035Y-72410000D01*
X207623024Y-72467257D01*
X207584159Y-72511575D01*
X207398595Y-72641508D01*
X207231505Y-72808598D01*
X207095965Y-73002170D01*
X206996097Y-73216336D01*
X206934936Y-73444592D01*
X206914340Y-73679999D01*
X206934936Y-73915407D01*
X206979709Y-74082501D01*
X206996097Y-74143663D01*
X207095965Y-74357830D01*
X207231505Y-74551401D01*
X207398599Y-74718495D01*
X207584160Y-74848426D01*
X207623024Y-74892743D01*
X207637035Y-74950000D01*
X207623024Y-75007257D01*
X207584159Y-75051575D01*
X207398595Y-75181508D01*
X207231505Y-75348598D01*
X207095965Y-75542170D01*
X206996097Y-75756336D01*
X206934936Y-75984592D01*
X206914340Y-76220000D01*
X206934936Y-76455407D01*
X206979709Y-76622502D01*
X206996097Y-76683663D01*
X207095965Y-76897830D01*
X207231505Y-77091401D01*
X207398599Y-77258495D01*
X207584160Y-77388426D01*
X207623024Y-77432743D01*
X207637035Y-77490000D01*
X207623024Y-77547257D01*
X207584159Y-77591575D01*
X207398595Y-77721508D01*
X207231505Y-77888598D01*
X207095965Y-78082170D01*
X206996097Y-78296336D01*
X206934936Y-78524592D01*
X206914340Y-78759999D01*
X206934936Y-78995407D01*
X206979709Y-79162502D01*
X206996097Y-79223663D01*
X207095965Y-79437830D01*
X207231505Y-79631401D01*
X207398599Y-79798495D01*
X207584160Y-79928426D01*
X207623024Y-79972743D01*
X207637035Y-80030000D01*
X207623024Y-80087257D01*
X207584159Y-80131575D01*
X207398595Y-80261508D01*
X207231505Y-80428598D01*
X207095965Y-80622170D01*
X206996097Y-80836336D01*
X206934936Y-81064592D01*
X206914340Y-81300000D01*
X206934936Y-81535407D01*
X206979709Y-81702502D01*
X206996097Y-81763663D01*
X207095965Y-81977830D01*
X207231505Y-82171401D01*
X207398599Y-82338495D01*
X207584160Y-82468426D01*
X207623024Y-82512743D01*
X207637035Y-82570000D01*
X207623024Y-82627257D01*
X207584159Y-82671575D01*
X207398595Y-82801508D01*
X207231505Y-82968598D01*
X207095965Y-83162170D01*
X206996097Y-83376336D01*
X206934936Y-83604592D01*
X206914340Y-83840000D01*
X206934936Y-84075407D01*
X206979709Y-84242501D01*
X206996097Y-84303663D01*
X207095965Y-84517830D01*
X207231505Y-84711401D01*
X207398599Y-84878495D01*
X207584160Y-85008426D01*
X207623024Y-85052743D01*
X207637035Y-85110000D01*
X207623024Y-85167257D01*
X207584159Y-85211575D01*
X207398595Y-85341508D01*
X207231505Y-85508598D01*
X207095965Y-85702170D01*
X206996097Y-85916336D01*
X206934936Y-86144592D01*
X206914340Y-86380000D01*
X206934936Y-86615407D01*
X206979709Y-86782502D01*
X206996097Y-86843663D01*
X207095965Y-87057830D01*
X207231505Y-87251401D01*
X207398599Y-87418495D01*
X207584160Y-87548426D01*
X207623024Y-87592743D01*
X207637035Y-87650000D01*
X207623024Y-87707257D01*
X207584159Y-87751575D01*
X207398595Y-87881508D01*
X207231505Y-88048598D01*
X207095965Y-88242170D01*
X206996097Y-88456336D01*
X206934936Y-88684592D01*
X206914340Y-88920000D01*
X206934936Y-89155407D01*
X206979709Y-89322501D01*
X206996097Y-89383663D01*
X207095965Y-89597830D01*
X207231505Y-89791401D01*
X207398599Y-89958495D01*
X207584160Y-90088426D01*
X207623024Y-90132743D01*
X207637035Y-90190000D01*
X207623024Y-90247257D01*
X207584159Y-90291575D01*
X207398595Y-90421508D01*
X207231505Y-90588598D01*
X207095965Y-90782170D01*
X206996097Y-90996336D01*
X206934936Y-91224592D01*
X206914340Y-91459999D01*
X206934936Y-91695407D01*
X206979709Y-91862502D01*
X206996097Y-91923663D01*
X207095965Y-92137830D01*
X207231505Y-92331401D01*
X207398599Y-92498495D01*
X207584160Y-92628426D01*
X207623024Y-92672743D01*
X207637035Y-92730000D01*
X207623024Y-92787257D01*
X207584159Y-92831575D01*
X207398595Y-92961508D01*
X207231505Y-93128598D01*
X207095965Y-93322170D01*
X206996097Y-93536336D01*
X206934936Y-93764592D01*
X206914340Y-94000000D01*
X206934936Y-94235407D01*
X206979709Y-94402501D01*
X206996097Y-94463663D01*
X207095965Y-94677830D01*
X207231505Y-94871401D01*
X207398599Y-95038495D01*
X207584160Y-95168426D01*
X207623024Y-95212743D01*
X207637035Y-95270000D01*
X207623024Y-95327257D01*
X207584159Y-95371575D01*
X207398595Y-95501508D01*
X207231505Y-95668598D01*
X207095965Y-95862170D01*
X206996097Y-96076336D01*
X206934936Y-96304592D01*
X206914340Y-96539999D01*
X206934936Y-96775407D01*
X206979709Y-96942502D01*
X206996097Y-97003663D01*
X207095965Y-97217830D01*
X207231505Y-97411401D01*
X207398599Y-97578495D01*
X207584160Y-97708426D01*
X207623024Y-97752743D01*
X207637035Y-97810000D01*
X207623024Y-97867257D01*
X207584159Y-97911575D01*
X207398595Y-98041508D01*
X207231505Y-98208598D01*
X207095965Y-98402170D01*
X206996097Y-98616336D01*
X206934936Y-98844592D01*
X206914340Y-99080000D01*
X206934936Y-99315407D01*
X206979709Y-99482502D01*
X206996097Y-99543663D01*
X207095965Y-99757830D01*
X207231505Y-99951401D01*
X207398599Y-100118495D01*
X207584160Y-100248426D01*
X207623024Y-100292743D01*
X207637035Y-100350000D01*
X207623024Y-100407257D01*
X207584159Y-100451575D01*
X207398595Y-100581508D01*
X207231505Y-100748598D01*
X207095965Y-100942170D01*
X206996097Y-101156336D01*
X206934936Y-101384592D01*
X206914340Y-101619999D01*
X161373909Y-101619999D01*
X161375659Y-101600000D01*
X161355063Y-101364592D01*
X161293903Y-101136337D01*
X161194035Y-100922171D01*
X161058495Y-100728599D01*
X160891401Y-100561505D01*
X160705839Y-100431573D01*
X160666974Y-100387255D01*
X160652964Y-100329999D01*
X160666975Y-100272742D01*
X160705837Y-100228428D01*
X160891401Y-100098495D01*
X161058495Y-99931401D01*
X161194035Y-99737830D01*
X161293903Y-99523663D01*
X161355063Y-99295408D01*
X161375659Y-99060000D01*
X161355063Y-98824592D01*
X161293903Y-98596337D01*
X161194035Y-98382171D01*
X161058495Y-98188599D01*
X160891401Y-98021505D01*
X160705839Y-97891573D01*
X160666976Y-97847257D01*
X160652965Y-97790000D01*
X160666976Y-97732743D01*
X160705839Y-97688426D01*
X160891401Y-97558495D01*
X161058495Y-97391401D01*
X161194035Y-97197830D01*
X161293903Y-96983663D01*
X161355063Y-96755408D01*
X161375659Y-96520000D01*
X161355063Y-96284592D01*
X161293903Y-96056337D01*
X161194035Y-95842171D01*
X161058495Y-95648599D01*
X160891401Y-95481505D01*
X160705839Y-95351573D01*
X160666975Y-95307257D01*
X160652964Y-95250000D01*
X160666975Y-95192743D01*
X160705839Y-95148426D01*
X160891401Y-95018495D01*
X161058495Y-94851401D01*
X161194035Y-94657830D01*
X161293903Y-94443663D01*
X161355063Y-94215408D01*
X161375659Y-93980000D01*
X161355063Y-93744592D01*
X161293903Y-93516337D01*
X161194035Y-93302171D01*
X161058495Y-93108599D01*
X160891401Y-92941505D01*
X160705839Y-92811573D01*
X160666974Y-92767255D01*
X160652964Y-92709999D01*
X160666975Y-92652742D01*
X160705837Y-92608428D01*
X160891401Y-92478495D01*
X161058495Y-92311401D01*
X161194035Y-92117830D01*
X161293903Y-91903663D01*
X161355063Y-91675408D01*
X161375659Y-91440000D01*
X161355063Y-91204592D01*
X161293903Y-90976337D01*
X161194035Y-90762171D01*
X161058495Y-90568599D01*
X160891401Y-90401505D01*
X160705839Y-90271573D01*
X160666975Y-90227257D01*
X160652964Y-90170000D01*
X160666975Y-90112743D01*
X160705839Y-90068426D01*
X160891401Y-89938495D01*
X161058495Y-89771401D01*
X161194035Y-89577830D01*
X161293903Y-89363663D01*
X161355063Y-89135408D01*
X161375659Y-88900000D01*
X161355063Y-88664592D01*
X161293903Y-88436337D01*
X161194035Y-88222171D01*
X161058495Y-88028599D01*
X160891401Y-87861505D01*
X160705839Y-87731573D01*
X160666975Y-87687257D01*
X160652964Y-87630000D01*
X160666975Y-87572743D01*
X160705839Y-87528426D01*
X160891401Y-87398495D01*
X161058495Y-87231401D01*
X161194035Y-87037830D01*
X161293903Y-86823663D01*
X161355063Y-86595408D01*
X161375659Y-86360000D01*
X161355063Y-86124592D01*
X161293903Y-85896337D01*
X161194035Y-85682171D01*
X161058495Y-85488599D01*
X160891401Y-85321505D01*
X160705839Y-85191573D01*
X160666975Y-85147257D01*
X160652964Y-85090000D01*
X160666975Y-85032743D01*
X160705839Y-84988426D01*
X160891401Y-84858495D01*
X161058495Y-84691401D01*
X161194035Y-84497830D01*
X161293903Y-84283663D01*
X161355063Y-84055408D01*
X161375659Y-83820000D01*
X161355063Y-83584592D01*
X161293903Y-83356337D01*
X161194035Y-83142171D01*
X161058495Y-82948599D01*
X160891401Y-82781505D01*
X160705839Y-82651573D01*
X160666975Y-82607257D01*
X160652964Y-82550000D01*
X160666975Y-82492743D01*
X160705839Y-82448426D01*
X160891401Y-82318495D01*
X161058495Y-82151401D01*
X161194035Y-81957830D01*
X161293903Y-81743663D01*
X161355063Y-81515408D01*
X161375659Y-81280000D01*
X161355063Y-81044592D01*
X161293903Y-80816337D01*
X161194035Y-80602171D01*
X161058495Y-80408599D01*
X160891401Y-80241505D01*
X160705839Y-80111573D01*
X160666976Y-80067257D01*
X160652965Y-80010000D01*
X160666976Y-79952743D01*
X160705839Y-79908426D01*
X160891401Y-79778495D01*
X161058495Y-79611401D01*
X161194035Y-79417830D01*
X161293903Y-79203663D01*
X161355063Y-78975408D01*
X161375659Y-78740000D01*
X161355063Y-78504592D01*
X161293903Y-78276337D01*
X161194035Y-78062171D01*
X161058495Y-77868599D01*
X160891401Y-77701505D01*
X160705839Y-77571573D01*
X160666975Y-77527257D01*
X160652964Y-77470000D01*
X160666975Y-77412743D01*
X160705839Y-77368426D01*
X160891401Y-77238495D01*
X161058495Y-77071401D01*
X161194035Y-76877830D01*
X161293903Y-76663663D01*
X161355063Y-76435408D01*
X161375659Y-76200000D01*
X161355063Y-75964592D01*
X161293903Y-75736337D01*
X161194035Y-75522171D01*
X161058495Y-75328599D01*
X160891401Y-75161505D01*
X160705839Y-75031573D01*
X160666975Y-74987257D01*
X160652964Y-74930000D01*
X160666975Y-74872743D01*
X160705839Y-74828426D01*
X160891401Y-74698495D01*
X161058495Y-74531401D01*
X161194035Y-74337830D01*
X161293903Y-74123663D01*
X161355063Y-73895408D01*
X161375659Y-73660000D01*
X161355063Y-73424592D01*
X161293903Y-73196337D01*
X161194035Y-72982171D01*
X161058495Y-72788599D01*
X160891401Y-72621505D01*
X160705839Y-72491573D01*
X160666975Y-72447257D01*
X160652964Y-72390000D01*
X160666975Y-72332743D01*
X160705839Y-72288426D01*
X160891401Y-72158495D01*
X161058495Y-71991401D01*
X161194035Y-71797830D01*
X161293903Y-71583663D01*
X161355063Y-71355408D01*
X161375659Y-71120000D01*
X161355063Y-70884592D01*
X161293903Y-70656337D01*
X161194035Y-70442171D01*
X161058495Y-70248599D01*
X160891401Y-70081505D01*
X160705839Y-69951573D01*
X160666975Y-69907257D01*
X160652964Y-69850000D01*
X160666975Y-69792743D01*
X160705839Y-69748426D01*
X160891401Y-69618495D01*
X161058495Y-69451401D01*
X161194035Y-69257830D01*
X161293903Y-69043663D01*
X161355063Y-68815408D01*
X161375659Y-68580000D01*
X161355063Y-68344592D01*
X161293903Y-68116337D01*
X161194035Y-67902171D01*
X161058495Y-67708599D01*
X160891401Y-67541505D01*
X160705839Y-67411573D01*
X160666975Y-67367257D01*
X160652964Y-67310000D01*
X160666975Y-67252743D01*
X160705839Y-67208426D01*
X160891401Y-67078495D01*
X161058495Y-66911401D01*
X161194035Y-66717830D01*
X161293903Y-66503663D01*
X161355063Y-66275408D01*
X161375659Y-66040000D01*
X161355063Y-65804592D01*
X161293903Y-65576337D01*
X161194035Y-65362171D01*
X161058495Y-65168599D01*
X160891401Y-65001505D01*
X160705839Y-64871573D01*
X160666976Y-64827257D01*
X160652965Y-64770000D01*
X160666976Y-64712743D01*
X160705839Y-64668426D01*
X160891401Y-64538495D01*
X161058495Y-64371401D01*
X161194035Y-64177830D01*
X161293903Y-63963663D01*
X161355063Y-63735408D01*
X161375659Y-63500000D01*
X161355063Y-63264592D01*
X161293903Y-63036337D01*
X161194035Y-62822171D01*
X161058495Y-62628599D01*
X160891401Y-62461505D01*
X160705839Y-62331573D01*
X160666974Y-62287255D01*
X160652964Y-62229999D01*
X160666975Y-62172742D01*
X160705837Y-62128428D01*
X160891401Y-61998495D01*
X161058495Y-61831401D01*
X161194035Y-61637830D01*
X161293903Y-61423663D01*
X161355063Y-61195408D01*
X161375659Y-60960000D01*
X161355063Y-60724592D01*
X161293903Y-60496337D01*
X161194035Y-60282171D01*
X161058495Y-60088599D01*
X160891401Y-59921505D01*
X160705839Y-59791573D01*
X160666975Y-59747257D01*
X160652964Y-59690000D01*
X160666975Y-59632743D01*
X160705839Y-59588426D01*
X160891401Y-59458495D01*
X161058495Y-59291401D01*
X161194035Y-59097830D01*
X161293903Y-58883663D01*
X161355063Y-58655408D01*
X161375659Y-58420000D01*
X161355063Y-58184592D01*
X161293903Y-57956337D01*
X161194035Y-57742171D01*
X161058495Y-57548599D01*
X160891401Y-57381505D01*
X160705839Y-57251573D01*
X160666975Y-57207257D01*
X160652964Y-57150000D01*
X160666975Y-57092743D01*
X160705839Y-57048426D01*
X160891401Y-56918495D01*
X161058495Y-56751401D01*
X161194035Y-56557830D01*
X161293903Y-56343663D01*
X161355063Y-56115408D01*
X161375659Y-55880000D01*
X161355063Y-55644592D01*
X161293903Y-55416337D01*
X161194035Y-55202171D01*
X161058495Y-55008599D01*
X160891401Y-54841505D01*
X160705839Y-54711573D01*
X160666974Y-54667255D01*
X160652964Y-54609999D01*
X160666975Y-54552742D01*
X160705837Y-54508428D01*
X160891401Y-54378495D01*
X161058495Y-54211401D01*
X161194035Y-54017830D01*
X161293903Y-53803663D01*
X161355063Y-53575408D01*
X161375659Y-53340000D01*
X161355063Y-53104592D01*
X161293903Y-52876337D01*
X161194035Y-52662171D01*
X161058495Y-52468599D01*
X160891401Y-52301505D01*
X160705839Y-52171573D01*
X160666975Y-52127257D01*
X160652964Y-52070000D01*
X160666975Y-52012743D01*
X160705839Y-51968426D01*
X160891401Y-51838495D01*
X161058495Y-51671401D01*
X161194035Y-51477830D01*
X161293903Y-51263663D01*
X161355063Y-51035408D01*
X161375659Y-50800000D01*
X161355063Y-50564592D01*
X161293903Y-50336337D01*
X161194035Y-50122171D01*
X161058495Y-49928599D01*
X160891401Y-49761505D01*
X160705839Y-49631573D01*
X160666975Y-49587257D01*
X160652964Y-49530000D01*
X160666975Y-49472743D01*
X160705839Y-49428426D01*
X160891401Y-49298495D01*
X161058495Y-49131401D01*
X161194035Y-48937830D01*
X161293903Y-48723663D01*
X161355063Y-48495408D01*
X161375659Y-48260000D01*
X161355063Y-48024592D01*
X161293903Y-47796337D01*
X161194035Y-47582171D01*
X161058495Y-47388599D01*
X160891401Y-47221505D01*
X160705839Y-47091573D01*
X160666975Y-47047257D01*
X160652964Y-46990000D01*
X160666975Y-46932743D01*
X160705839Y-46888426D01*
X160891401Y-46758495D01*
X161058495Y-46591401D01*
X161194035Y-46397830D01*
X161293903Y-46183663D01*
X161355063Y-45955408D01*
X161375659Y-45720000D01*
X161355063Y-45484592D01*
X161293903Y-45256337D01*
X161194035Y-45042171D01*
X161058495Y-44848599D01*
X160936181Y-44726284D01*
X160904885Y-44673539D01*
X160902696Y-44612246D01*
X160930149Y-44557401D01*
X160980528Y-44522422D01*
X161112089Y-44473352D01*
X161227188Y-44387188D01*
X161313352Y-44272089D01*
X161363597Y-44137375D01*
X161370000Y-44077824D01*
X161370000Y-43430000D01*
X156149364Y-43430000D01*
X156206569Y-43643492D01*
X156306399Y-43857576D01*
X156441893Y-44051081D01*
X156608918Y-44218106D01*
X156794595Y-44348119D01*
X156833460Y-44392437D01*
X156847471Y-44449694D01*
X156833460Y-44506951D01*
X156794595Y-44551269D01*
X156608595Y-44681508D01*
X156441505Y-44848598D01*
X156305965Y-45042170D01*
X156206097Y-45256336D01*
X156144936Y-45484592D01*
X156124340Y-45719999D01*
X156144936Y-45955407D01*
X156189709Y-46122501D01*
X156206097Y-46183663D01*
X156305965Y-46397830D01*
X156441505Y-46591401D01*
X156608599Y-46758495D01*
X156794597Y-46888732D01*
X156833460Y-46933048D01*
X156847471Y-46990305D01*
X156833461Y-47047561D01*
X156794595Y-47091880D01*
X156608919Y-47221892D01*
X156441890Y-47388921D01*
X156306400Y-47582421D01*
X156206569Y-47796507D01*
X156149364Y-48009999D01*
X156149364Y-48010000D01*
X157606000Y-48010000D01*
X157668000Y-48026613D01*
X157713387Y-48072000D01*
X157730000Y-48134000D01*
X157730000Y-48386000D01*
X157713387Y-48448000D01*
X157668000Y-48493387D01*
X157606000Y-48510000D01*
X156149364Y-48510000D01*
X156206569Y-48723492D01*
X156306399Y-48937576D01*
X156441893Y-49131081D01*
X156608918Y-49298106D01*
X156794595Y-49428119D01*
X156833460Y-49472437D01*
X156847471Y-49529694D01*
X156833460Y-49586951D01*
X156794595Y-49631269D01*
X156608595Y-49761508D01*
X156441505Y-49928598D01*
X156305965Y-50122170D01*
X156206097Y-50336336D01*
X156144936Y-50564592D01*
X156124340Y-50799999D01*
X156144936Y-51035407D01*
X156189709Y-51202501D01*
X156206097Y-51263663D01*
X156305965Y-51477830D01*
X156441505Y-51671401D01*
X156608599Y-51838495D01*
X156794160Y-51968426D01*
X156833024Y-52012743D01*
X156847035Y-52070000D01*
X156833024Y-52127257D01*
X156794159Y-52171575D01*
X156608595Y-52301508D01*
X156441505Y-52468598D01*
X156305965Y-52662170D01*
X156206097Y-52876336D01*
X156144936Y-53104592D01*
X156124340Y-53340000D01*
X156144936Y-53575407D01*
X156189709Y-53742502D01*
X156206097Y-53803663D01*
X156305965Y-54017830D01*
X156441505Y-54211401D01*
X156608599Y-54378495D01*
X156794160Y-54508426D01*
X156833024Y-54552743D01*
X156847035Y-54610000D01*
X156833024Y-54667257D01*
X156794159Y-54711575D01*
X156608595Y-54841508D01*
X156441505Y-55008598D01*
X156305965Y-55202170D01*
X156206097Y-55416336D01*
X156144936Y-55644592D01*
X156124340Y-55879999D01*
X156144936Y-56115407D01*
X156189709Y-56282502D01*
X156206097Y-56343663D01*
X156305965Y-56557830D01*
X156441505Y-56751401D01*
X156608599Y-56918495D01*
X156794160Y-57048426D01*
X156833024Y-57092743D01*
X156847035Y-57150000D01*
X156833024Y-57207257D01*
X156794159Y-57251575D01*
X156608595Y-57381508D01*
X156441505Y-57548598D01*
X156305965Y-57742170D01*
X156206097Y-57956336D01*
X156144936Y-58184592D01*
X156124340Y-58420000D01*
X156144936Y-58655407D01*
X156189709Y-58822501D01*
X156206097Y-58883663D01*
X156305965Y-59097830D01*
X156441505Y-59291401D01*
X156608599Y-59458495D01*
X156794160Y-59588426D01*
X156833024Y-59632743D01*
X156847035Y-59690000D01*
X156833024Y-59747257D01*
X156794159Y-59791575D01*
X156608595Y-59921508D01*
X156441505Y-60088598D01*
X156305965Y-60282170D01*
X156206097Y-60496336D01*
X156144936Y-60724592D01*
X156124340Y-60959999D01*
X156144936Y-61195407D01*
X156189709Y-61362502D01*
X156206097Y-61423663D01*
X156305965Y-61637830D01*
X156441505Y-61831401D01*
X156608599Y-61998495D01*
X156794160Y-62128426D01*
X156833024Y-62172743D01*
X156847035Y-62230000D01*
X156833024Y-62287257D01*
X156794159Y-62331575D01*
X156608595Y-62461508D01*
X156441505Y-62628598D01*
X156305965Y-62822170D01*
X156206097Y-63036336D01*
X156144936Y-63264592D01*
X156124340Y-63500000D01*
X156144936Y-63735407D01*
X156189709Y-63902501D01*
X156206097Y-63963663D01*
X156305965Y-64177830D01*
X156441505Y-64371401D01*
X156608599Y-64538495D01*
X156794160Y-64668426D01*
X156833024Y-64712743D01*
X156847035Y-64770000D01*
X156833024Y-64827257D01*
X156794159Y-64871575D01*
X156608595Y-65001508D01*
X156441505Y-65168598D01*
X156305965Y-65362170D01*
X156206097Y-65576336D01*
X156144936Y-65804592D01*
X156124340Y-66040000D01*
X156144936Y-66275407D01*
X156189709Y-66442501D01*
X156206097Y-66503663D01*
X156305965Y-66717830D01*
X156441505Y-66911401D01*
X156608599Y-67078495D01*
X156794160Y-67208426D01*
X156833024Y-67252743D01*
X156847035Y-67310000D01*
X156833024Y-67367257D01*
X156794159Y-67411575D01*
X156608595Y-67541508D01*
X156441505Y-67708598D01*
X156305965Y-67902170D01*
X156206097Y-68116336D01*
X156144936Y-68344592D01*
X156124340Y-68579999D01*
X156144936Y-68815407D01*
X156189709Y-68982501D01*
X156206097Y-69043663D01*
X156305965Y-69257830D01*
X156441505Y-69451401D01*
X156608599Y-69618495D01*
X156794597Y-69748732D01*
X156833460Y-69793048D01*
X156847471Y-69850305D01*
X156833461Y-69907561D01*
X156794595Y-69951880D01*
X156608919Y-70081892D01*
X156441890Y-70248921D01*
X156306400Y-70442421D01*
X156206569Y-70656507D01*
X156149364Y-70869999D01*
X156149364Y-70870000D01*
X157606000Y-70870000D01*
X157668000Y-70886613D01*
X157713387Y-70932000D01*
X157730000Y-70994000D01*
X157730000Y-71246000D01*
X157713387Y-71308000D01*
X157668000Y-71353387D01*
X157606000Y-71370000D01*
X156149364Y-71370000D01*
X156206569Y-71583492D01*
X156306399Y-71797576D01*
X156441893Y-71991081D01*
X156608918Y-72158106D01*
X156794595Y-72288119D01*
X156833460Y-72332437D01*
X156847471Y-72389694D01*
X156833460Y-72446951D01*
X156794595Y-72491269D01*
X156608595Y-72621508D01*
X156441505Y-72788598D01*
X156305965Y-72982170D01*
X156206097Y-73196336D01*
X156144936Y-73424592D01*
X156124340Y-73659999D01*
X156144936Y-73895407D01*
X156189709Y-74062501D01*
X156206097Y-74123663D01*
X156305965Y-74337830D01*
X156441505Y-74531401D01*
X156608599Y-74698495D01*
X156794160Y-74828426D01*
X156833024Y-74872743D01*
X156847035Y-74930000D01*
X156833024Y-74987257D01*
X156794159Y-75031575D01*
X156608595Y-75161508D01*
X156441505Y-75328598D01*
X156305965Y-75522170D01*
X156206097Y-75736336D01*
X156144936Y-75964592D01*
X156124340Y-76200000D01*
X156144936Y-76435407D01*
X156189709Y-76602502D01*
X156206097Y-76663663D01*
X156305965Y-76877830D01*
X156441505Y-77071401D01*
X156608599Y-77238495D01*
X156794160Y-77368426D01*
X156833024Y-77412743D01*
X156847035Y-77470000D01*
X156833024Y-77527257D01*
X156794159Y-77571575D01*
X156608595Y-77701508D01*
X156441505Y-77868598D01*
X156305965Y-78062170D01*
X156206097Y-78276336D01*
X156144936Y-78504592D01*
X156124340Y-78739999D01*
X156144936Y-78975407D01*
X156189709Y-79142502D01*
X156206097Y-79203663D01*
X156305965Y-79417830D01*
X156441505Y-79611401D01*
X156608599Y-79778495D01*
X156794160Y-79908426D01*
X156833024Y-79952743D01*
X156847035Y-80010000D01*
X156833024Y-80067257D01*
X156794159Y-80111575D01*
X156608595Y-80241508D01*
X156441505Y-80408598D01*
X156305965Y-80602170D01*
X156206097Y-80816336D01*
X156144936Y-81044592D01*
X156124340Y-81280000D01*
X156144936Y-81515407D01*
X156189709Y-81682502D01*
X156206097Y-81743663D01*
X156305965Y-81957830D01*
X156441505Y-82151401D01*
X156608599Y-82318495D01*
X156794160Y-82448426D01*
X156833024Y-82492743D01*
X156847035Y-82550000D01*
X156833024Y-82607257D01*
X156794159Y-82651575D01*
X156608595Y-82781508D01*
X156441505Y-82948598D01*
X156305965Y-83142170D01*
X156206097Y-83356336D01*
X156144936Y-83584592D01*
X156124340Y-83820000D01*
X156144936Y-84055407D01*
X156189709Y-84222501D01*
X156206097Y-84283663D01*
X156305965Y-84497830D01*
X156441505Y-84691401D01*
X156608599Y-84858495D01*
X156794160Y-84988426D01*
X156833024Y-85032743D01*
X156847035Y-85090000D01*
X156833024Y-85147257D01*
X156794159Y-85191575D01*
X156608595Y-85321508D01*
X156441505Y-85488598D01*
X156305965Y-85682170D01*
X156206097Y-85896336D01*
X156144936Y-86124592D01*
X156124340Y-86360000D01*
X156144936Y-86595407D01*
X156189709Y-86762502D01*
X156206097Y-86823663D01*
X156305965Y-87037830D01*
X156441505Y-87231401D01*
X156608599Y-87398495D01*
X156794160Y-87528426D01*
X156833024Y-87572743D01*
X156847035Y-87630000D01*
X156833024Y-87687257D01*
X156794159Y-87731575D01*
X156608595Y-87861508D01*
X156441505Y-88028598D01*
X156305965Y-88222170D01*
X156206097Y-88436336D01*
X156144936Y-88664592D01*
X156124340Y-88899999D01*
X156144936Y-89135407D01*
X156189709Y-89302501D01*
X156206097Y-89363663D01*
X156305965Y-89577830D01*
X156441505Y-89771401D01*
X156608599Y-89938495D01*
X156794160Y-90068426D01*
X156833024Y-90112743D01*
X156847035Y-90170000D01*
X156833024Y-90227257D01*
X156794159Y-90271575D01*
X156608595Y-90401508D01*
X156441505Y-90568598D01*
X156305965Y-90762170D01*
X156206097Y-90976336D01*
X156144936Y-91204592D01*
X156124340Y-91439999D01*
X156144936Y-91675407D01*
X156189709Y-91842502D01*
X156206097Y-91903663D01*
X156305965Y-92117830D01*
X156441505Y-92311401D01*
X156608599Y-92478495D01*
X156794160Y-92608426D01*
X156833024Y-92652743D01*
X156847035Y-92710000D01*
X156833024Y-92767257D01*
X156794159Y-92811575D01*
X156608595Y-92941508D01*
X156441505Y-93108598D01*
X156305965Y-93302170D01*
X156206097Y-93516336D01*
X156144936Y-93744592D01*
X156124340Y-93980000D01*
X156144936Y-94215407D01*
X156189709Y-94382501D01*
X156206097Y-94443663D01*
X156305965Y-94657830D01*
X156441505Y-94851401D01*
X156608599Y-95018495D01*
X156794160Y-95148426D01*
X156833024Y-95192743D01*
X156847035Y-95250000D01*
X156833024Y-95307257D01*
X156794159Y-95351575D01*
X156608595Y-95481508D01*
X156441505Y-95648598D01*
X156305965Y-95842170D01*
X156206097Y-96056336D01*
X156144936Y-96284592D01*
X156124340Y-96519999D01*
X156144936Y-96755407D01*
X156189709Y-96922501D01*
X156206097Y-96983663D01*
X156305965Y-97197830D01*
X156441505Y-97391401D01*
X156608599Y-97558495D01*
X156794160Y-97688426D01*
X156833024Y-97732743D01*
X156847035Y-97790000D01*
X156833024Y-97847257D01*
X156794159Y-97891575D01*
X156608595Y-98021508D01*
X156441505Y-98188598D01*
X156305965Y-98382170D01*
X156206097Y-98596336D01*
X156144936Y-98824592D01*
X156124340Y-99060000D01*
X156144936Y-99295407D01*
X156189709Y-99462502D01*
X156206097Y-99523663D01*
X156305965Y-99737830D01*
X156441505Y-99931401D01*
X156608599Y-100098495D01*
X156794160Y-100228426D01*
X156833024Y-100272743D01*
X156847035Y-100330000D01*
X156833024Y-100387257D01*
X156794159Y-100431575D01*
X156608595Y-100561508D01*
X156441505Y-100728598D01*
X156305965Y-100922170D01*
X156206097Y-101136336D01*
X156144936Y-101364592D01*
X156124340Y-101600000D01*
X96520500Y-101600000D01*
X96520500Y-42950000D01*
X206939364Y-42950000D01*
X208020000Y-42950000D01*
X208520000Y-42950000D01*
X210560000Y-42950000D01*
X210560000Y-41850000D01*
X211060000Y-41850000D01*
X211060000Y-42950000D01*
X212160000Y-42950000D01*
X212160000Y-42302176D01*
X212153597Y-42242624D01*
X212103352Y-42107910D01*
X212017188Y-41992811D01*
X211902089Y-41906647D01*
X211767375Y-41856402D01*
X211707824Y-41850000D01*
X211060000Y-41850000D01*
X210560000Y-41850000D01*
X209912176Y-41850000D01*
X209852624Y-41856402D01*
X209717910Y-41906647D01*
X209602811Y-41992811D01*
X209516647Y-42107911D01*
X209467385Y-42239987D01*
X209432405Y-42290366D01*
X209377561Y-42317819D01*
X209316268Y-42315630D01*
X209263522Y-42284334D01*
X209141081Y-42161893D01*
X208947576Y-42026399D01*
X208733492Y-41926569D01*
X208520000Y-41869364D01*
X208520000Y-42950000D01*
X208020000Y-42950000D01*
X208020000Y-41869364D01*
X208019999Y-41869364D01*
X207806507Y-41926569D01*
X207592421Y-42026400D01*
X207398921Y-42161890D01*
X207231890Y-42328921D01*
X207096400Y-42522421D01*
X206996569Y-42736507D01*
X206939364Y-42949999D01*
X206939364Y-42950000D01*
X96520500Y-42950000D01*
X96520500Y-42930000D01*
X156149364Y-42930000D01*
X157230000Y-42930000D01*
X157730000Y-42930000D01*
X159770000Y-42930000D01*
X159770000Y-41830000D01*
X160270000Y-41830000D01*
X160270000Y-42930000D01*
X161370000Y-42930000D01*
X161370000Y-42282176D01*
X161363597Y-42222624D01*
X161313352Y-42087910D01*
X161227188Y-41972811D01*
X161112089Y-41886647D01*
X160977375Y-41836402D01*
X160917824Y-41830000D01*
X160270000Y-41830000D01*
X159770000Y-41830000D01*
X159122176Y-41830000D01*
X159062624Y-41836402D01*
X158927910Y-41886647D01*
X158812811Y-41972811D01*
X158726647Y-42087911D01*
X158677385Y-42219987D01*
X158642405Y-42270366D01*
X158587561Y-42297819D01*
X158526268Y-42295630D01*
X158473522Y-42264334D01*
X158351081Y-42141893D01*
X158157576Y-42006399D01*
X157943492Y-41906569D01*
X157730000Y-41849364D01*
X157730000Y-42930000D01*
X157230000Y-42930000D01*
X157230000Y-41849364D01*
X157229999Y-41849364D01*
X157016507Y-41906569D01*
X156802421Y-42006400D01*
X156608921Y-42141890D01*
X156441890Y-42308921D01*
X156306400Y-42502421D01*
X156206569Y-42716507D01*
X156149364Y-42929999D01*
X156149364Y-42930000D01*
X96520500Y-42930000D01*
X96520500Y-38224500D01*
X96537113Y-38162500D01*
X96582500Y-38117113D01*
X96644500Y-38100500D01*
X215775500Y-38100500D01*
X215837500Y-38117113D01*
G37*
%TD.AperFunction*%
%TD*%
M02*
