M48
; DRILL file {KiCad 7.0.1} date Tue May 30 20:43:02 2023
; FORMAT={-:-/ absolute / inch / decimal}
; #@! TF.CreationDate,2023-05-30T20:43:02-06:00
; #@! TF.GenerationSoftware,Kicad,Pcbnew,7.0.1
; #@! TF.FileFunction,Plated,1,2,PTH
FMAT,2
INCH
; #@! TA.AperFunction,Plated,PTH,ViaDrill
T1C0.0157
; #@! TA.AperFunction,Plated,PTH,ComponentDrill
T2C0.0394
%
G90
G05
T1
X4.1Y-3.2
X4.4Y-1.7
X4.8Y-3.9
X5.2Y-1.7
X6.1Y-2.9
X6.1Y-4.1
X8.4Y-1.7
X8.4Y-4.1
T2
X6.2Y-1.7
X6.2Y-1.8
X6.2Y-1.9
X6.2Y-2.0
X6.2Y-2.1
X6.2Y-2.2
X6.2Y-2.3
X6.2Y-2.4
X6.2Y-2.5
X6.2Y-2.6
X6.2Y-2.7
X6.2Y-2.8
X6.2Y-2.9
X6.2Y-3.0
X6.2Y-3.1
X6.2Y-3.2
X6.2Y-3.3
X6.2Y-3.4
X6.2Y-3.5
X6.2Y-3.6
X6.2Y-3.7
X6.2Y-3.8
X6.2Y-3.9
X6.2Y-4.0
X6.2Y-4.1
X6.3Y-1.7
X6.3Y-1.8
X6.3Y-1.9
X6.3Y-2.0
X6.3Y-2.1
X6.3Y-2.2
X6.3Y-2.3
X6.3Y-2.4
X6.3Y-2.5
X6.3Y-2.6
X6.3Y-2.7
X6.3Y-2.8
X6.3Y-2.9
X6.3Y-3.0
X6.3Y-3.1
X6.3Y-3.2
X6.3Y-3.3
X6.3Y-3.4
X6.3Y-3.5
X6.3Y-3.6
X6.3Y-3.7
X6.3Y-3.8
X6.3Y-3.9
X6.3Y-4.0
X6.3Y-4.1
X8.1996Y-1.7008
X8.1996Y-1.8008
X8.1996Y-1.9008
X8.1996Y-2.0008
X8.1996Y-2.1008
X8.1996Y-2.2008
X8.1996Y-2.3008
X8.1996Y-2.4008
X8.1996Y-2.5008
X8.1996Y-2.6008
X8.1996Y-2.7008
X8.1996Y-2.8008
X8.1996Y-2.9008
X8.1996Y-3.0008
X8.1996Y-3.1008
X8.1996Y-3.2008
X8.1996Y-3.3008
X8.1996Y-3.4008
X8.1996Y-3.5008
X8.1996Y-3.6008
X8.1996Y-3.7008
X8.1996Y-3.8008
X8.1996Y-3.9008
X8.1996Y-4.0008
X8.1996Y-4.1008
X8.2996Y-1.7008
X8.2996Y-1.8008
X8.2996Y-1.9008
X8.2996Y-2.0008
X8.2996Y-2.1008
X8.2996Y-2.2008
X8.2996Y-2.3008
X8.2996Y-2.4008
X8.2996Y-2.5008
X8.2996Y-2.6008
X8.2996Y-2.7008
X8.2996Y-2.8008
X8.2996Y-2.9008
X8.2996Y-3.0008
X8.2996Y-3.1008
X8.2996Y-3.2008
X8.2996Y-3.3008
X8.2996Y-3.4008
X8.2996Y-3.5008
X8.2996Y-3.6008
X8.2996Y-3.7008
X8.2996Y-3.8008
X8.2996Y-3.9008
X8.2996Y-4.0008
X8.2996Y-4.1008
T0
M30
