%TF.GenerationSoftware,KiCad,Pcbnew,7.0.1*%
%TF.CreationDate,2023-05-30T20:42:55-06:00*%
%TF.ProjectId,Phase_D_STM_Shield,50686173-655f-4445-9f53-544d5f536869,rev?*%
%TF.SameCoordinates,Original*%
%TF.FileFunction,Legend,Bot*%
%TF.FilePolarity,Positive*%
%FSLAX46Y46*%
G04 Gerber Fmt 4.6, Leading zero omitted, Abs format (unit mm)*
G04 Created by KiCad (PCBNEW 7.0.1) date 2023-05-30 20:42:55*
%MOMM*%
%LPD*%
G01*
G04 APERTURE LIST*
%ADD10C,0.400000*%
G04 APERTURE END LIST*
D10*
X195199047Y-113960000D02*
X194913333Y-114055238D01*
X194913333Y-114055238D02*
X194437142Y-114055238D01*
X194437142Y-114055238D02*
X194246666Y-113960000D01*
X194246666Y-113960000D02*
X194151428Y-113864761D01*
X194151428Y-113864761D02*
X194056190Y-113674285D01*
X194056190Y-113674285D02*
X194056190Y-113483809D01*
X194056190Y-113483809D02*
X194151428Y-113293333D01*
X194151428Y-113293333D02*
X194246666Y-113198095D01*
X194246666Y-113198095D02*
X194437142Y-113102857D01*
X194437142Y-113102857D02*
X194818095Y-113007619D01*
X194818095Y-113007619D02*
X195008571Y-112912380D01*
X195008571Y-112912380D02*
X195103809Y-112817142D01*
X195103809Y-112817142D02*
X195199047Y-112626666D01*
X195199047Y-112626666D02*
X195199047Y-112436190D01*
X195199047Y-112436190D02*
X195103809Y-112245714D01*
X195103809Y-112245714D02*
X195008571Y-112150476D01*
X195008571Y-112150476D02*
X194818095Y-112055238D01*
X194818095Y-112055238D02*
X194341904Y-112055238D01*
X194341904Y-112055238D02*
X194056190Y-112150476D01*
X193484761Y-112055238D02*
X192341904Y-112055238D01*
X192913333Y-114055238D02*
X192913333Y-112055238D01*
X191675237Y-114055238D02*
X191675237Y-112055238D01*
X191675237Y-112055238D02*
X191008570Y-113483809D01*
X191008570Y-113483809D02*
X190341904Y-112055238D01*
X190341904Y-112055238D02*
X190341904Y-114055238D01*
X189579999Y-112055238D02*
X188341904Y-112055238D01*
X188341904Y-112055238D02*
X189008571Y-112817142D01*
X189008571Y-112817142D02*
X188722856Y-112817142D01*
X188722856Y-112817142D02*
X188532380Y-112912380D01*
X188532380Y-112912380D02*
X188437142Y-113007619D01*
X188437142Y-113007619D02*
X188341904Y-113198095D01*
X188341904Y-113198095D02*
X188341904Y-113674285D01*
X188341904Y-113674285D02*
X188437142Y-113864761D01*
X188437142Y-113864761D02*
X188532380Y-113960000D01*
X188532380Y-113960000D02*
X188722856Y-114055238D01*
X188722856Y-114055238D02*
X189294285Y-114055238D01*
X189294285Y-114055238D02*
X189484761Y-113960000D01*
X189484761Y-113960000D02*
X189579999Y-113864761D01*
X187579999Y-112245714D02*
X187484761Y-112150476D01*
X187484761Y-112150476D02*
X187294285Y-112055238D01*
X187294285Y-112055238D02*
X186818094Y-112055238D01*
X186818094Y-112055238D02*
X186627618Y-112150476D01*
X186627618Y-112150476D02*
X186532380Y-112245714D01*
X186532380Y-112245714D02*
X186437142Y-112436190D01*
X186437142Y-112436190D02*
X186437142Y-112626666D01*
X186437142Y-112626666D02*
X186532380Y-112912380D01*
X186532380Y-112912380D02*
X187675237Y-114055238D01*
X187675237Y-114055238D02*
X186437142Y-114055238D01*
X184913332Y-113007619D02*
X185579999Y-113007619D01*
X185579999Y-114055238D02*
X185579999Y-112055238D01*
X185579999Y-112055238D02*
X184627618Y-112055238D01*
X183008570Y-112721904D02*
X183008570Y-114055238D01*
X183484761Y-111960000D02*
X183960951Y-113388571D01*
X183960951Y-113388571D02*
X182722856Y-113388571D01*
X180722855Y-112055238D02*
X179579998Y-112055238D01*
X180151427Y-114055238D02*
X180151427Y-112055238D01*
X178151426Y-113960000D02*
X178341902Y-114055238D01*
X178341902Y-114055238D02*
X178722855Y-114055238D01*
X178722855Y-114055238D02*
X178913331Y-113960000D01*
X178913331Y-113960000D02*
X179008569Y-113769523D01*
X179008569Y-113769523D02*
X179008569Y-113007619D01*
X179008569Y-113007619D02*
X178913331Y-112817142D01*
X178913331Y-112817142D02*
X178722855Y-112721904D01*
X178722855Y-112721904D02*
X178341902Y-112721904D01*
X178341902Y-112721904D02*
X178151426Y-112817142D01*
X178151426Y-112817142D02*
X178056188Y-113007619D01*
X178056188Y-113007619D02*
X178056188Y-113198095D01*
X178056188Y-113198095D02*
X179008569Y-113388571D01*
X177199045Y-114055238D02*
X177199045Y-112721904D01*
X177199045Y-112912380D02*
X177103807Y-112817142D01*
X177103807Y-112817142D02*
X176913331Y-112721904D01*
X176913331Y-112721904D02*
X176627616Y-112721904D01*
X176627616Y-112721904D02*
X176437140Y-112817142D01*
X176437140Y-112817142D02*
X176341902Y-113007619D01*
X176341902Y-113007619D02*
X176341902Y-114055238D01*
X176341902Y-113007619D02*
X176246664Y-112817142D01*
X176246664Y-112817142D02*
X176056188Y-112721904D01*
X176056188Y-112721904D02*
X175770474Y-112721904D01*
X175770474Y-112721904D02*
X175579997Y-112817142D01*
X175579997Y-112817142D02*
X175484759Y-113007619D01*
X175484759Y-113007619D02*
X175484759Y-114055238D01*
X174532378Y-112721904D02*
X174532378Y-114721904D01*
X174532378Y-112817142D02*
X174341902Y-112721904D01*
X174341902Y-112721904D02*
X173960949Y-112721904D01*
X173960949Y-112721904D02*
X173770473Y-112817142D01*
X173770473Y-112817142D02*
X173675235Y-112912380D01*
X173675235Y-112912380D02*
X173579997Y-113102857D01*
X173579997Y-113102857D02*
X173579997Y-113674285D01*
X173579997Y-113674285D02*
X173675235Y-113864761D01*
X173675235Y-113864761D02*
X173770473Y-113960000D01*
X173770473Y-113960000D02*
X173960949Y-114055238D01*
X173960949Y-114055238D02*
X174341902Y-114055238D01*
X174341902Y-114055238D02*
X174532378Y-113960000D01*
X171960949Y-113960000D02*
X172151425Y-114055238D01*
X172151425Y-114055238D02*
X172532378Y-114055238D01*
X172532378Y-114055238D02*
X172722854Y-113960000D01*
X172722854Y-113960000D02*
X172818092Y-113769523D01*
X172818092Y-113769523D02*
X172818092Y-113007619D01*
X172818092Y-113007619D02*
X172722854Y-112817142D01*
X172722854Y-112817142D02*
X172532378Y-112721904D01*
X172532378Y-112721904D02*
X172151425Y-112721904D01*
X172151425Y-112721904D02*
X171960949Y-112817142D01*
X171960949Y-112817142D02*
X171865711Y-113007619D01*
X171865711Y-113007619D02*
X171865711Y-113198095D01*
X171865711Y-113198095D02*
X172818092Y-113388571D01*
X171008568Y-114055238D02*
X171008568Y-112721904D01*
X171008568Y-113102857D02*
X170913330Y-112912380D01*
X170913330Y-112912380D02*
X170818092Y-112817142D01*
X170818092Y-112817142D02*
X170627616Y-112721904D01*
X170627616Y-112721904D02*
X170437139Y-112721904D01*
X168913330Y-114055238D02*
X168913330Y-113007619D01*
X168913330Y-113007619D02*
X169008568Y-112817142D01*
X169008568Y-112817142D02*
X169199044Y-112721904D01*
X169199044Y-112721904D02*
X169579997Y-112721904D01*
X169579997Y-112721904D02*
X169770473Y-112817142D01*
X168913330Y-113960000D02*
X169103806Y-114055238D01*
X169103806Y-114055238D02*
X169579997Y-114055238D01*
X169579997Y-114055238D02*
X169770473Y-113960000D01*
X169770473Y-113960000D02*
X169865711Y-113769523D01*
X169865711Y-113769523D02*
X169865711Y-113579047D01*
X169865711Y-113579047D02*
X169770473Y-113388571D01*
X169770473Y-113388571D02*
X169579997Y-113293333D01*
X169579997Y-113293333D02*
X169103806Y-113293333D01*
X169103806Y-113293333D02*
X168913330Y-113198095D01*
X168246663Y-112721904D02*
X167484759Y-112721904D01*
X167960949Y-112055238D02*
X167960949Y-113769523D01*
X167960949Y-113769523D02*
X167865711Y-113960000D01*
X167865711Y-113960000D02*
X167675235Y-114055238D01*
X167675235Y-114055238D02*
X167484759Y-114055238D01*
X165960949Y-112721904D02*
X165960949Y-114055238D01*
X166818092Y-112721904D02*
X166818092Y-113769523D01*
X166818092Y-113769523D02*
X166722854Y-113960000D01*
X166722854Y-113960000D02*
X166532378Y-114055238D01*
X166532378Y-114055238D02*
X166246663Y-114055238D01*
X166246663Y-114055238D02*
X166056187Y-113960000D01*
X166056187Y-113960000D02*
X165960949Y-113864761D01*
X165008568Y-114055238D02*
X165008568Y-112721904D01*
X165008568Y-113102857D02*
X164913330Y-112912380D01*
X164913330Y-112912380D02*
X164818092Y-112817142D01*
X164818092Y-112817142D02*
X164627616Y-112721904D01*
X164627616Y-112721904D02*
X164437139Y-112721904D01*
X163008568Y-113960000D02*
X163199044Y-114055238D01*
X163199044Y-114055238D02*
X163579997Y-114055238D01*
X163579997Y-114055238D02*
X163770473Y-113960000D01*
X163770473Y-113960000D02*
X163865711Y-113769523D01*
X163865711Y-113769523D02*
X163865711Y-113007619D01*
X163865711Y-113007619D02*
X163770473Y-112817142D01*
X163770473Y-112817142D02*
X163579997Y-112721904D01*
X163579997Y-112721904D02*
X163199044Y-112721904D01*
X163199044Y-112721904D02*
X163008568Y-112817142D01*
X163008568Y-112817142D02*
X162913330Y-113007619D01*
X162913330Y-113007619D02*
X162913330Y-113198095D01*
X162913330Y-113198095D02*
X163865711Y-113388571D01*
X159675234Y-114055238D02*
X159675234Y-113007619D01*
X159675234Y-113007619D02*
X159770472Y-112817142D01*
X159770472Y-112817142D02*
X159960948Y-112721904D01*
X159960948Y-112721904D02*
X160341901Y-112721904D01*
X160341901Y-112721904D02*
X160532377Y-112817142D01*
X159675234Y-113960000D02*
X159865710Y-114055238D01*
X159865710Y-114055238D02*
X160341901Y-114055238D01*
X160341901Y-114055238D02*
X160532377Y-113960000D01*
X160532377Y-113960000D02*
X160627615Y-113769523D01*
X160627615Y-113769523D02*
X160627615Y-113579047D01*
X160627615Y-113579047D02*
X160532377Y-113388571D01*
X160532377Y-113388571D02*
X160341901Y-113293333D01*
X160341901Y-113293333D02*
X159865710Y-113293333D01*
X159865710Y-113293333D02*
X159675234Y-113198095D01*
X158722853Y-112721904D02*
X158722853Y-114055238D01*
X158722853Y-112912380D02*
X158627615Y-112817142D01*
X158627615Y-112817142D02*
X158437139Y-112721904D01*
X158437139Y-112721904D02*
X158151424Y-112721904D01*
X158151424Y-112721904D02*
X157960948Y-112817142D01*
X157960948Y-112817142D02*
X157865710Y-113007619D01*
X157865710Y-113007619D02*
X157865710Y-114055238D01*
X156056186Y-114055238D02*
X156056186Y-112055238D01*
X156056186Y-113960000D02*
X156246662Y-114055238D01*
X156246662Y-114055238D02*
X156627615Y-114055238D01*
X156627615Y-114055238D02*
X156818091Y-113960000D01*
X156818091Y-113960000D02*
X156913329Y-113864761D01*
X156913329Y-113864761D02*
X157008567Y-113674285D01*
X157008567Y-113674285D02*
X157008567Y-113102857D01*
X157008567Y-113102857D02*
X156913329Y-112912380D01*
X156913329Y-112912380D02*
X156818091Y-112817142D01*
X156818091Y-112817142D02*
X156627615Y-112721904D01*
X156627615Y-112721904D02*
X156246662Y-112721904D01*
X156246662Y-112721904D02*
X156056186Y-112817142D01*
X153579995Y-114055238D02*
X153579995Y-112055238D01*
X153579995Y-113007619D02*
X152437138Y-113007619D01*
X152437138Y-114055238D02*
X152437138Y-112055238D01*
X150627614Y-112721904D02*
X150627614Y-114055238D01*
X151484757Y-112721904D02*
X151484757Y-113769523D01*
X151484757Y-113769523D02*
X151389519Y-113960000D01*
X151389519Y-113960000D02*
X151199043Y-114055238D01*
X151199043Y-114055238D02*
X150913328Y-114055238D01*
X150913328Y-114055238D02*
X150722852Y-113960000D01*
X150722852Y-113960000D02*
X150627614Y-113864761D01*
X149675233Y-114055238D02*
X149675233Y-112721904D01*
X149675233Y-112912380D02*
X149579995Y-112817142D01*
X149579995Y-112817142D02*
X149389519Y-112721904D01*
X149389519Y-112721904D02*
X149103804Y-112721904D01*
X149103804Y-112721904D02*
X148913328Y-112817142D01*
X148913328Y-112817142D02*
X148818090Y-113007619D01*
X148818090Y-113007619D02*
X148818090Y-114055238D01*
X148818090Y-113007619D02*
X148722852Y-112817142D01*
X148722852Y-112817142D02*
X148532376Y-112721904D01*
X148532376Y-112721904D02*
X148246662Y-112721904D01*
X148246662Y-112721904D02*
X148056185Y-112817142D01*
X148056185Y-112817142D02*
X147960947Y-113007619D01*
X147960947Y-113007619D02*
X147960947Y-114055238D01*
X147008566Y-114055238D02*
X147008566Y-112721904D01*
X147008566Y-112055238D02*
X147103804Y-112150476D01*
X147103804Y-112150476D02*
X147008566Y-112245714D01*
X147008566Y-112245714D02*
X146913328Y-112150476D01*
X146913328Y-112150476D02*
X147008566Y-112055238D01*
X147008566Y-112055238D02*
X147008566Y-112245714D01*
X145199042Y-114055238D02*
X145199042Y-112055238D01*
X145199042Y-113960000D02*
X145389518Y-114055238D01*
X145389518Y-114055238D02*
X145770471Y-114055238D01*
X145770471Y-114055238D02*
X145960947Y-113960000D01*
X145960947Y-113960000D02*
X146056185Y-113864761D01*
X146056185Y-113864761D02*
X146151423Y-113674285D01*
X146151423Y-113674285D02*
X146151423Y-113102857D01*
X146151423Y-113102857D02*
X146056185Y-112912380D01*
X146056185Y-112912380D02*
X145960947Y-112817142D01*
X145960947Y-112817142D02*
X145770471Y-112721904D01*
X145770471Y-112721904D02*
X145389518Y-112721904D01*
X145389518Y-112721904D02*
X145199042Y-112817142D01*
X144246661Y-114055238D02*
X144246661Y-112721904D01*
X144246661Y-112055238D02*
X144341899Y-112150476D01*
X144341899Y-112150476D02*
X144246661Y-112245714D01*
X144246661Y-112245714D02*
X144151423Y-112150476D01*
X144151423Y-112150476D02*
X144246661Y-112055238D01*
X144246661Y-112055238D02*
X144246661Y-112245714D01*
X143579994Y-112721904D02*
X142818090Y-112721904D01*
X143294280Y-112055238D02*
X143294280Y-113769523D01*
X143294280Y-113769523D02*
X143199042Y-113960000D01*
X143199042Y-113960000D02*
X143008566Y-114055238D01*
X143008566Y-114055238D02*
X142818090Y-114055238D01*
X142341899Y-112721904D02*
X141865709Y-114055238D01*
X141389518Y-112721904D02*
X141865709Y-114055238D01*
X141865709Y-114055238D02*
X142056185Y-114531428D01*
X142056185Y-114531428D02*
X142151423Y-114626666D01*
X142151423Y-114626666D02*
X142341899Y-114721904D01*
X139199041Y-113960000D02*
X138913327Y-114055238D01*
X138913327Y-114055238D02*
X138437136Y-114055238D01*
X138437136Y-114055238D02*
X138246660Y-113960000D01*
X138246660Y-113960000D02*
X138151422Y-113864761D01*
X138151422Y-113864761D02*
X138056184Y-113674285D01*
X138056184Y-113674285D02*
X138056184Y-113483809D01*
X138056184Y-113483809D02*
X138151422Y-113293333D01*
X138151422Y-113293333D02*
X138246660Y-113198095D01*
X138246660Y-113198095D02*
X138437136Y-113102857D01*
X138437136Y-113102857D02*
X138818089Y-113007619D01*
X138818089Y-113007619D02*
X139008565Y-112912380D01*
X139008565Y-112912380D02*
X139103803Y-112817142D01*
X139103803Y-112817142D02*
X139199041Y-112626666D01*
X139199041Y-112626666D02*
X139199041Y-112436190D01*
X139199041Y-112436190D02*
X139103803Y-112245714D01*
X139103803Y-112245714D02*
X139008565Y-112150476D01*
X139008565Y-112150476D02*
X138818089Y-112055238D01*
X138818089Y-112055238D02*
X138341898Y-112055238D01*
X138341898Y-112055238D02*
X138056184Y-112150476D01*
X136437136Y-113960000D02*
X136627612Y-114055238D01*
X136627612Y-114055238D02*
X137008565Y-114055238D01*
X137008565Y-114055238D02*
X137199041Y-113960000D01*
X137199041Y-113960000D02*
X137294279Y-113769523D01*
X137294279Y-113769523D02*
X137294279Y-113007619D01*
X137294279Y-113007619D02*
X137199041Y-112817142D01*
X137199041Y-112817142D02*
X137008565Y-112721904D01*
X137008565Y-112721904D02*
X136627612Y-112721904D01*
X136627612Y-112721904D02*
X136437136Y-112817142D01*
X136437136Y-112817142D02*
X136341898Y-113007619D01*
X136341898Y-113007619D02*
X136341898Y-113198095D01*
X136341898Y-113198095D02*
X137294279Y-113388571D01*
X135484755Y-112721904D02*
X135484755Y-114055238D01*
X135484755Y-112912380D02*
X135389517Y-112817142D01*
X135389517Y-112817142D02*
X135199041Y-112721904D01*
X135199041Y-112721904D02*
X134913326Y-112721904D01*
X134913326Y-112721904D02*
X134722850Y-112817142D01*
X134722850Y-112817142D02*
X134627612Y-113007619D01*
X134627612Y-113007619D02*
X134627612Y-114055238D01*
X133770469Y-113960000D02*
X133579993Y-114055238D01*
X133579993Y-114055238D02*
X133199041Y-114055238D01*
X133199041Y-114055238D02*
X133008564Y-113960000D01*
X133008564Y-113960000D02*
X132913326Y-113769523D01*
X132913326Y-113769523D02*
X132913326Y-113674285D01*
X132913326Y-113674285D02*
X133008564Y-113483809D01*
X133008564Y-113483809D02*
X133199041Y-113388571D01*
X133199041Y-113388571D02*
X133484755Y-113388571D01*
X133484755Y-113388571D02*
X133675231Y-113293333D01*
X133675231Y-113293333D02*
X133770469Y-113102857D01*
X133770469Y-113102857D02*
X133770469Y-113007619D01*
X133770469Y-113007619D02*
X133675231Y-112817142D01*
X133675231Y-112817142D02*
X133484755Y-112721904D01*
X133484755Y-112721904D02*
X133199041Y-112721904D01*
X133199041Y-112721904D02*
X133008564Y-112817142D01*
X131770469Y-114055238D02*
X131960945Y-113960000D01*
X131960945Y-113960000D02*
X132056183Y-113864761D01*
X132056183Y-113864761D02*
X132151421Y-113674285D01*
X132151421Y-113674285D02*
X132151421Y-113102857D01*
X132151421Y-113102857D02*
X132056183Y-112912380D01*
X132056183Y-112912380D02*
X131960945Y-112817142D01*
X131960945Y-112817142D02*
X131770469Y-112721904D01*
X131770469Y-112721904D02*
X131484754Y-112721904D01*
X131484754Y-112721904D02*
X131294278Y-112817142D01*
X131294278Y-112817142D02*
X131199040Y-112912380D01*
X131199040Y-112912380D02*
X131103802Y-113102857D01*
X131103802Y-113102857D02*
X131103802Y-113674285D01*
X131103802Y-113674285D02*
X131199040Y-113864761D01*
X131199040Y-113864761D02*
X131294278Y-113960000D01*
X131294278Y-113960000D02*
X131484754Y-114055238D01*
X131484754Y-114055238D02*
X131770469Y-114055238D01*
X130246659Y-114055238D02*
X130246659Y-112721904D01*
X130246659Y-113102857D02*
X130151421Y-112912380D01*
X130151421Y-112912380D02*
X130056183Y-112817142D01*
X130056183Y-112817142D02*
X129865707Y-112721904D01*
X129865707Y-112721904D02*
X129675230Y-112721904D01*
X127579992Y-113960000D02*
X127294278Y-114055238D01*
X127294278Y-114055238D02*
X126818087Y-114055238D01*
X126818087Y-114055238D02*
X126627611Y-113960000D01*
X126627611Y-113960000D02*
X126532373Y-113864761D01*
X126532373Y-113864761D02*
X126437135Y-113674285D01*
X126437135Y-113674285D02*
X126437135Y-113483809D01*
X126437135Y-113483809D02*
X126532373Y-113293333D01*
X126532373Y-113293333D02*
X126627611Y-113198095D01*
X126627611Y-113198095D02*
X126818087Y-113102857D01*
X126818087Y-113102857D02*
X127199040Y-113007619D01*
X127199040Y-113007619D02*
X127389516Y-112912380D01*
X127389516Y-112912380D02*
X127484754Y-112817142D01*
X127484754Y-112817142D02*
X127579992Y-112626666D01*
X127579992Y-112626666D02*
X127579992Y-112436190D01*
X127579992Y-112436190D02*
X127484754Y-112245714D01*
X127484754Y-112245714D02*
X127389516Y-112150476D01*
X127389516Y-112150476D02*
X127199040Y-112055238D01*
X127199040Y-112055238D02*
X126722849Y-112055238D01*
X126722849Y-112055238D02*
X126437135Y-112150476D01*
X125579992Y-114055238D02*
X125579992Y-112055238D01*
X124722849Y-114055238D02*
X124722849Y-113007619D01*
X124722849Y-113007619D02*
X124818087Y-112817142D01*
X124818087Y-112817142D02*
X125008563Y-112721904D01*
X125008563Y-112721904D02*
X125294278Y-112721904D01*
X125294278Y-112721904D02*
X125484754Y-112817142D01*
X125484754Y-112817142D02*
X125579992Y-112912380D01*
X123770468Y-114055238D02*
X123770468Y-112721904D01*
X123770468Y-112055238D02*
X123865706Y-112150476D01*
X123865706Y-112150476D02*
X123770468Y-112245714D01*
X123770468Y-112245714D02*
X123675230Y-112150476D01*
X123675230Y-112150476D02*
X123770468Y-112055238D01*
X123770468Y-112055238D02*
X123770468Y-112245714D01*
X122056182Y-113960000D02*
X122246658Y-114055238D01*
X122246658Y-114055238D02*
X122627611Y-114055238D01*
X122627611Y-114055238D02*
X122818087Y-113960000D01*
X122818087Y-113960000D02*
X122913325Y-113769523D01*
X122913325Y-113769523D02*
X122913325Y-113007619D01*
X122913325Y-113007619D02*
X122818087Y-112817142D01*
X122818087Y-112817142D02*
X122627611Y-112721904D01*
X122627611Y-112721904D02*
X122246658Y-112721904D01*
X122246658Y-112721904D02*
X122056182Y-112817142D01*
X122056182Y-112817142D02*
X121960944Y-113007619D01*
X121960944Y-113007619D02*
X121960944Y-113198095D01*
X121960944Y-113198095D02*
X122913325Y-113388571D01*
X120818087Y-114055238D02*
X121008563Y-113960000D01*
X121008563Y-113960000D02*
X121103801Y-113769523D01*
X121103801Y-113769523D02*
X121103801Y-112055238D01*
X119199039Y-114055238D02*
X119199039Y-112055238D01*
X119199039Y-113960000D02*
X119389515Y-114055238D01*
X119389515Y-114055238D02*
X119770468Y-114055238D01*
X119770468Y-114055238D02*
X119960944Y-113960000D01*
X119960944Y-113960000D02*
X120056182Y-113864761D01*
X120056182Y-113864761D02*
X120151420Y-113674285D01*
X120151420Y-113674285D02*
X120151420Y-113102857D01*
X120151420Y-113102857D02*
X120056182Y-112912380D01*
X120056182Y-112912380D02*
X119960944Y-112817142D01*
X119960944Y-112817142D02*
X119770468Y-112721904D01*
X119770468Y-112721904D02*
X119389515Y-112721904D01*
X119389515Y-112721904D02*
X119199039Y-112817142D01*
X203040323Y-42821438D02*
X202373657Y-44821438D01*
X202373657Y-44821438D02*
X201706990Y-42821438D01*
X200278418Y-44726200D02*
X200468894Y-44821438D01*
X200468894Y-44821438D02*
X200849847Y-44821438D01*
X200849847Y-44821438D02*
X201040323Y-44726200D01*
X201040323Y-44726200D02*
X201135561Y-44535723D01*
X201135561Y-44535723D02*
X201135561Y-43773819D01*
X201135561Y-43773819D02*
X201040323Y-43583342D01*
X201040323Y-43583342D02*
X200849847Y-43488104D01*
X200849847Y-43488104D02*
X200468894Y-43488104D01*
X200468894Y-43488104D02*
X200278418Y-43583342D01*
X200278418Y-43583342D02*
X200183180Y-43773819D01*
X200183180Y-43773819D02*
X200183180Y-43964295D01*
X200183180Y-43964295D02*
X201135561Y-44154771D01*
X199326037Y-44821438D02*
X199326037Y-43488104D01*
X199326037Y-43869057D02*
X199230799Y-43678580D01*
X199230799Y-43678580D02*
X199135561Y-43583342D01*
X199135561Y-43583342D02*
X198945085Y-43488104D01*
X198945085Y-43488104D02*
X198754608Y-43488104D01*
X198183180Y-44726200D02*
X197992704Y-44821438D01*
X197992704Y-44821438D02*
X197611752Y-44821438D01*
X197611752Y-44821438D02*
X197421275Y-44726200D01*
X197421275Y-44726200D02*
X197326037Y-44535723D01*
X197326037Y-44535723D02*
X197326037Y-44440485D01*
X197326037Y-44440485D02*
X197421275Y-44250009D01*
X197421275Y-44250009D02*
X197611752Y-44154771D01*
X197611752Y-44154771D02*
X197897466Y-44154771D01*
X197897466Y-44154771D02*
X198087942Y-44059533D01*
X198087942Y-44059533D02*
X198183180Y-43869057D01*
X198183180Y-43869057D02*
X198183180Y-43773819D01*
X198183180Y-43773819D02*
X198087942Y-43583342D01*
X198087942Y-43583342D02*
X197897466Y-43488104D01*
X197897466Y-43488104D02*
X197611752Y-43488104D01*
X197611752Y-43488104D02*
X197421275Y-43583342D01*
X196468894Y-44821438D02*
X196468894Y-43488104D01*
X196468894Y-42821438D02*
X196564132Y-42916676D01*
X196564132Y-42916676D02*
X196468894Y-43011914D01*
X196468894Y-43011914D02*
X196373656Y-42916676D01*
X196373656Y-42916676D02*
X196468894Y-42821438D01*
X196468894Y-42821438D02*
X196468894Y-43011914D01*
X195230799Y-44821438D02*
X195421275Y-44726200D01*
X195421275Y-44726200D02*
X195516513Y-44630961D01*
X195516513Y-44630961D02*
X195611751Y-44440485D01*
X195611751Y-44440485D02*
X195611751Y-43869057D01*
X195611751Y-43869057D02*
X195516513Y-43678580D01*
X195516513Y-43678580D02*
X195421275Y-43583342D01*
X195421275Y-43583342D02*
X195230799Y-43488104D01*
X195230799Y-43488104D02*
X194945084Y-43488104D01*
X194945084Y-43488104D02*
X194754608Y-43583342D01*
X194754608Y-43583342D02*
X194659370Y-43678580D01*
X194659370Y-43678580D02*
X194564132Y-43869057D01*
X194564132Y-43869057D02*
X194564132Y-44440485D01*
X194564132Y-44440485D02*
X194659370Y-44630961D01*
X194659370Y-44630961D02*
X194754608Y-44726200D01*
X194754608Y-44726200D02*
X194945084Y-44821438D01*
X194945084Y-44821438D02*
X195230799Y-44821438D01*
X193706989Y-43488104D02*
X193706989Y-44821438D01*
X193706989Y-43678580D02*
X193611751Y-43583342D01*
X193611751Y-43583342D02*
X193421275Y-43488104D01*
X193421275Y-43488104D02*
X193135560Y-43488104D01*
X193135560Y-43488104D02*
X192945084Y-43583342D01*
X192945084Y-43583342D02*
X192849846Y-43773819D01*
X192849846Y-43773819D02*
X192849846Y-44821438D01*
X189326036Y-44821438D02*
X190468893Y-44821438D01*
X189897465Y-44821438D02*
X189897465Y-42821438D01*
X189897465Y-42821438D02*
X190087941Y-43107152D01*
X190087941Y-43107152D02*
X190278417Y-43297628D01*
X190278417Y-43297628D02*
X190468893Y-43392866D01*
X188468893Y-44630961D02*
X188373655Y-44726200D01*
X188373655Y-44726200D02*
X188468893Y-44821438D01*
X188468893Y-44821438D02*
X188564131Y-44726200D01*
X188564131Y-44726200D02*
X188468893Y-44630961D01*
X188468893Y-44630961D02*
X188468893Y-44821438D01*
X187135560Y-42821438D02*
X186945083Y-42821438D01*
X186945083Y-42821438D02*
X186754607Y-42916676D01*
X186754607Y-42916676D02*
X186659369Y-43011914D01*
X186659369Y-43011914D02*
X186564131Y-43202390D01*
X186564131Y-43202390D02*
X186468893Y-43583342D01*
X186468893Y-43583342D02*
X186468893Y-44059533D01*
X186468893Y-44059533D02*
X186564131Y-44440485D01*
X186564131Y-44440485D02*
X186659369Y-44630961D01*
X186659369Y-44630961D02*
X186754607Y-44726200D01*
X186754607Y-44726200D02*
X186945083Y-44821438D01*
X186945083Y-44821438D02*
X187135560Y-44821438D01*
X187135560Y-44821438D02*
X187326036Y-44726200D01*
X187326036Y-44726200D02*
X187421274Y-44630961D01*
X187421274Y-44630961D02*
X187516512Y-44440485D01*
X187516512Y-44440485D02*
X187611750Y-44059533D01*
X187611750Y-44059533D02*
X187611750Y-43583342D01*
X187611750Y-43583342D02*
X187516512Y-43202390D01*
X187516512Y-43202390D02*
X187421274Y-43011914D01*
X187421274Y-43011914D02*
X187326036Y-42916676D01*
X187326036Y-42916676D02*
X187135560Y-42821438D01*
X202754609Y-48061438D02*
X202754609Y-46061438D01*
X202754609Y-46061438D02*
X202087942Y-47490009D01*
X202087942Y-47490009D02*
X201421276Y-46061438D01*
X201421276Y-46061438D02*
X201421276Y-48061438D01*
X199611752Y-48061438D02*
X199611752Y-47013819D01*
X199611752Y-47013819D02*
X199706990Y-46823342D01*
X199706990Y-46823342D02*
X199897466Y-46728104D01*
X199897466Y-46728104D02*
X200278419Y-46728104D01*
X200278419Y-46728104D02*
X200468895Y-46823342D01*
X199611752Y-47966200D02*
X199802228Y-48061438D01*
X199802228Y-48061438D02*
X200278419Y-48061438D01*
X200278419Y-48061438D02*
X200468895Y-47966200D01*
X200468895Y-47966200D02*
X200564133Y-47775723D01*
X200564133Y-47775723D02*
X200564133Y-47585247D01*
X200564133Y-47585247D02*
X200468895Y-47394771D01*
X200468895Y-47394771D02*
X200278419Y-47299533D01*
X200278419Y-47299533D02*
X199802228Y-47299533D01*
X199802228Y-47299533D02*
X199611752Y-47204295D01*
X198849847Y-46728104D02*
X198373657Y-48061438D01*
X197897466Y-46728104D02*
X198373657Y-48061438D01*
X198373657Y-48061438D02*
X198564133Y-48537628D01*
X198564133Y-48537628D02*
X198659371Y-48632866D01*
X198659371Y-48632866D02*
X198849847Y-48728104D01*
X195706989Y-46251914D02*
X195611751Y-46156676D01*
X195611751Y-46156676D02*
X195421275Y-46061438D01*
X195421275Y-46061438D02*
X194945084Y-46061438D01*
X194945084Y-46061438D02*
X194754608Y-46156676D01*
X194754608Y-46156676D02*
X194659370Y-46251914D01*
X194659370Y-46251914D02*
X194564132Y-46442390D01*
X194564132Y-46442390D02*
X194564132Y-46632866D01*
X194564132Y-46632866D02*
X194659370Y-46918580D01*
X194659370Y-46918580D02*
X195802227Y-48061438D01*
X195802227Y-48061438D02*
X194564132Y-48061438D01*
X193326037Y-46061438D02*
X193135560Y-46061438D01*
X193135560Y-46061438D02*
X192945084Y-46156676D01*
X192945084Y-46156676D02*
X192849846Y-46251914D01*
X192849846Y-46251914D02*
X192754608Y-46442390D01*
X192754608Y-46442390D02*
X192659370Y-46823342D01*
X192659370Y-46823342D02*
X192659370Y-47299533D01*
X192659370Y-47299533D02*
X192754608Y-47680485D01*
X192754608Y-47680485D02*
X192849846Y-47870961D01*
X192849846Y-47870961D02*
X192945084Y-47966200D01*
X192945084Y-47966200D02*
X193135560Y-48061438D01*
X193135560Y-48061438D02*
X193326037Y-48061438D01*
X193326037Y-48061438D02*
X193516513Y-47966200D01*
X193516513Y-47966200D02*
X193611751Y-47870961D01*
X193611751Y-47870961D02*
X193706989Y-47680485D01*
X193706989Y-47680485D02*
X193802227Y-47299533D01*
X193802227Y-47299533D02*
X193802227Y-46823342D01*
X193802227Y-46823342D02*
X193706989Y-46442390D01*
X193706989Y-46442390D02*
X193611751Y-46251914D01*
X193611751Y-46251914D02*
X193516513Y-46156676D01*
X193516513Y-46156676D02*
X193326037Y-46061438D01*
X191897465Y-46251914D02*
X191802227Y-46156676D01*
X191802227Y-46156676D02*
X191611751Y-46061438D01*
X191611751Y-46061438D02*
X191135560Y-46061438D01*
X191135560Y-46061438D02*
X190945084Y-46156676D01*
X190945084Y-46156676D02*
X190849846Y-46251914D01*
X190849846Y-46251914D02*
X190754608Y-46442390D01*
X190754608Y-46442390D02*
X190754608Y-46632866D01*
X190754608Y-46632866D02*
X190849846Y-46918580D01*
X190849846Y-46918580D02*
X191992703Y-48061438D01*
X191992703Y-48061438D02*
X190754608Y-48061438D01*
X190087941Y-46061438D02*
X188849846Y-46061438D01*
X188849846Y-46061438D02*
X189516513Y-46823342D01*
X189516513Y-46823342D02*
X189230798Y-46823342D01*
X189230798Y-46823342D02*
X189040322Y-46918580D01*
X189040322Y-46918580D02*
X188945084Y-47013819D01*
X188945084Y-47013819D02*
X188849846Y-47204295D01*
X188849846Y-47204295D02*
X188849846Y-47680485D01*
X188849846Y-47680485D02*
X188945084Y-47870961D01*
X188945084Y-47870961D02*
X189040322Y-47966200D01*
X189040322Y-47966200D02*
X189230798Y-48061438D01*
X189230798Y-48061438D02*
X189802227Y-48061438D01*
X189802227Y-48061438D02*
X189992703Y-47966200D01*
X189992703Y-47966200D02*
X190087941Y-47870961D01*
M02*
