%TF.GenerationSoftware,KiCad,Pcbnew,7.0.1*%
%TF.CreationDate,2023-05-30T20:42:55-06:00*%
%TF.ProjectId,Phase_D_STM_Shield,50686173-655f-4445-9f53-544d5f536869,rev?*%
%TF.SameCoordinates,Original*%
%TF.FileFunction,Copper,L1,Top*%
%TF.FilePolarity,Positive*%
%FSLAX46Y46*%
G04 Gerber Fmt 4.6, Leading zero omitted, Abs format (unit mm)*
G04 Created by KiCad (PCBNEW 7.0.1) date 2023-05-30 20:42:55*
%MOMM*%
%LPD*%
G01*
G04 APERTURE LIST*
G04 Aperture macros list*
%AMRoundRect*
0 Rectangle with rounded corners*
0 $1 Rounding radius*
0 $2 $3 $4 $5 $6 $7 $8 $9 X,Y pos of 4 corners*
0 Add a 4 corners polygon primitive as box body*
4,1,4,$2,$3,$4,$5,$6,$7,$8,$9,$2,$3,0*
0 Add four circle primitives for the rounded corners*
1,1,$1+$1,$2,$3*
1,1,$1+$1,$4,$5*
1,1,$1+$1,$6,$7*
1,1,$1+$1,$8,$9*
0 Add four rect primitives between the rounded corners*
20,1,$1+$1,$2,$3,$4,$5,0*
20,1,$1+$1,$4,$5,$6,$7,0*
20,1,$1+$1,$6,$7,$8,$9,0*
20,1,$1+$1,$8,$9,$2,$3,0*%
G04 Aperture macros list end*
%TA.AperFunction,SMDPad,CuDef*%
%ADD10R,1.000000X1.900000*%
%TD*%
%TA.AperFunction,ComponentPad*%
%ADD11R,1.700000X1.700000*%
%TD*%
%TA.AperFunction,ComponentPad*%
%ADD12O,1.700000X1.700000*%
%TD*%
%TA.AperFunction,SMDPad,CuDef*%
%ADD13R,1.900000X1.000000*%
%TD*%
%TA.AperFunction,SMDPad,CuDef*%
%ADD14RoundRect,0.225000X-0.225000X-0.250000X0.225000X-0.250000X0.225000X0.250000X-0.225000X0.250000X0*%
%TD*%
%TA.AperFunction,SMDPad,CuDef*%
%ADD15RoundRect,0.200000X-0.200000X-0.275000X0.200000X-0.275000X0.200000X0.275000X-0.200000X0.275000X0*%
%TD*%
%TA.AperFunction,ViaPad*%
%ADD16C,0.800000*%
%TD*%
%TA.AperFunction,Conductor*%
%ADD17C,0.250000*%
%TD*%
%TA.AperFunction,Conductor*%
%ADD18C,0.305000*%
%TD*%
%TA.AperFunction,Conductor*%
%ADD19C,0.508000*%
%TD*%
%TA.AperFunction,Conductor*%
%ADD20C,0.381000*%
%TD*%
G04 APERTURE END LIST*
D10*
%TO.P,RV1,3,3*%
%TO.N,+5V*%
X127000000Y-45720000D03*
%TO.P,RV1,4*%
%TO.N,N/C*%
X124460000Y-49020000D03*
%TO.P,RV1,2,2*%
%TO.N,Net-(U1-VO)*%
X121920000Y-45720000D03*
%TO.P,RV1,5*%
%TO.N,N/C*%
X119380000Y-49020000D03*
%TO.P,RV1,1,1*%
%TO.N,GND*%
X116840000Y-45720000D03*
%TD*%
D11*
%TO.P,J2,1,Pin_1*%
%TO.N,GND*%
X210810000Y-43200000D03*
D12*
%TO.P,J2,2,Pin_2*%
X208270000Y-43200000D03*
%TO.P,J2,3,Pin_3*%
%TO.N,+5V*%
X210810000Y-45740000D03*
%TO.P,J2,4,Pin_4*%
X208270000Y-45740000D03*
%TO.P,J2,5,Pin_5*%
%TO.N,+3V0*%
X210810000Y-48280000D03*
%TO.P,J2,6,Pin_6*%
X208270000Y-48280000D03*
%TO.P,J2,7,Pin_7*%
%TO.N,unconnected-(J2-Pin_7-Pad7)*%
X210810000Y-50820000D03*
%TO.P,J2,8,Pin_8*%
%TO.N,unconnected-(J2-Pin_8-Pad8)*%
X208270000Y-50820000D03*
%TO.P,J2,9,Pin_9*%
%TO.N,unconnected-(J2-Pin_9-Pad9)*%
X210810000Y-53360000D03*
%TO.P,J2,10,Pin_10*%
%TO.N,unconnected-(J2-Pin_10-Pad10)*%
X208270000Y-53360000D03*
%TO.P,J2,11,Pin_11*%
%TO.N,unconnected-(J2-Pin_11-Pad11)*%
X210810000Y-55900000D03*
%TO.P,J2,12,Pin_12*%
%TO.N,unconnected-(J2-Pin_12-Pad12)*%
X208270000Y-55900000D03*
%TO.P,J2,13,Pin_13*%
%TO.N,unconnected-(J2-Pin_13-Pad13)*%
X210810000Y-58440000D03*
%TO.P,J2,14,Pin_14*%
%TO.N,unconnected-(J2-Pin_14-Pad14)*%
X208270000Y-58440000D03*
%TO.P,J2,15,Pin_15*%
%TO.N,unconnected-(J2-Pin_15-Pad15)*%
X210810000Y-60980000D03*
%TO.P,J2,16,Pin_16*%
%TO.N,unconnected-(J2-Pin_16-Pad16)*%
X208270000Y-60980000D03*
%TO.P,J2,17,Pin_17*%
%TO.N,unconnected-(J2-Pin_17-Pad17)*%
X210810000Y-63520000D03*
%TO.P,J2,18,Pin_18*%
%TO.N,unconnected-(J2-Pin_18-Pad18)*%
X208270000Y-63520000D03*
%TO.P,J2,19,Pin_19*%
%TO.N,unconnected-(J2-Pin_19-Pad19)*%
X210810000Y-66060000D03*
%TO.P,J2,20,Pin_20*%
%TO.N,unconnected-(J2-Pin_20-Pad20)*%
X208270000Y-66060000D03*
%TO.P,J2,21,Pin_21*%
%TO.N,unconnected-(J2-Pin_21-Pad21)*%
X210810000Y-68600000D03*
%TO.P,J2,22,Pin_22*%
%TO.N,unconnected-(J2-Pin_22-Pad22)*%
X208270000Y-68600000D03*
%TO.P,J2,23,Pin_23*%
%TO.N,unconnected-(J2-Pin_23-Pad23)*%
X210810000Y-71140000D03*
%TO.P,J2,24,Pin_24*%
%TO.N,unconnected-(J2-Pin_24-Pad24)*%
X208270000Y-71140000D03*
%TO.P,J2,25,Pin_25*%
%TO.N,unconnected-(J2-Pin_25-Pad25)*%
X210810000Y-73680000D03*
%TO.P,J2,26,Pin_26*%
%TO.N,unconnected-(J2-Pin_26-Pad26)*%
X208270000Y-73680000D03*
%TO.P,J2,27,Pin_27*%
%TO.N,unconnected-(J2-Pin_27-Pad27)*%
X210810000Y-76220000D03*
%TO.P,J2,28,Pin_28*%
%TO.N,unconnected-(J2-Pin_28-Pad28)*%
X208270000Y-76220000D03*
%TO.P,J2,29,Pin_29*%
%TO.N,unconnected-(J2-Pin_29-Pad29)*%
X210810000Y-78760000D03*
%TO.P,J2,30,Pin_30*%
%TO.N,unconnected-(J2-Pin_30-Pad30)*%
X208270000Y-78760000D03*
%TO.P,J2,31,Pin_31*%
%TO.N,unconnected-(J2-Pin_31-Pad31)*%
X210810000Y-81300000D03*
%TO.P,J2,32,Pin_32*%
%TO.N,unconnected-(J2-Pin_32-Pad32)*%
X208270000Y-81300000D03*
%TO.P,J2,33,Pin_33*%
%TO.N,unconnected-(J2-Pin_33-Pad33)*%
X210810000Y-83840000D03*
%TO.P,J2,34,Pin_34*%
%TO.N,unconnected-(J2-Pin_34-Pad34)*%
X208270000Y-83840000D03*
%TO.P,J2,35,Pin_35*%
%TO.N,unconnected-(J2-Pin_35-Pad35)*%
X210810000Y-86380000D03*
%TO.P,J2,36,Pin_36*%
%TO.N,unconnected-(J2-Pin_36-Pad36)*%
X208270000Y-86380000D03*
%TO.P,J2,37,Pin_37*%
%TO.N,unconnected-(J2-Pin_37-Pad37)*%
X210810000Y-88920000D03*
%TO.P,J2,38,Pin_38*%
%TO.N,unconnected-(J2-Pin_38-Pad38)*%
X208270000Y-88920000D03*
%TO.P,J2,39,Pin_39*%
%TO.N,unconnected-(J2-Pin_39-Pad39)*%
X210810000Y-91460000D03*
%TO.P,J2,40,Pin_40*%
%TO.N,unconnected-(J2-Pin_40-Pad40)*%
X208270000Y-91460000D03*
%TO.P,J2,41,Pin_41*%
%TO.N,unconnected-(J2-Pin_41-Pad41)*%
X210810000Y-94000000D03*
%TO.P,J2,42,Pin_42*%
%TO.N,unconnected-(J2-Pin_42-Pad42)*%
X208270000Y-94000000D03*
%TO.P,J2,43,Pin_43*%
%TO.N,unconnected-(J2-Pin_43-Pad43)*%
X210810000Y-96540000D03*
%TO.P,J2,44,Pin_44*%
%TO.N,unconnected-(J2-Pin_44-Pad44)*%
X208270000Y-96540000D03*
%TO.P,J2,45,Pin_45*%
%TO.N,unconnected-(J2-Pin_45-Pad45)*%
X210810000Y-99080000D03*
%TO.P,J2,46,Pin_46*%
%TO.N,unconnected-(J2-Pin_46-Pad46)*%
X208270000Y-99080000D03*
%TO.P,J2,47,Pin_47*%
%TO.N,unconnected-(J2-Pin_47-Pad47)*%
X210810000Y-101620000D03*
%TO.P,J2,48,Pin_48*%
%TO.N,unconnected-(J2-Pin_48-Pad48)*%
X208270000Y-101620000D03*
%TO.P,J2,49,Pin_49*%
%TO.N,GND*%
X210810000Y-104160000D03*
%TO.P,J2,50,Pin_50*%
X208270000Y-104160000D03*
%TD*%
D11*
%TO.P,J1,1,Pin_1*%
%TO.N,GND*%
X160020000Y-43180000D03*
D12*
%TO.P,J1,2,Pin_2*%
X157480000Y-43180000D03*
%TO.P,J1,3,Pin_3*%
%TO.N,unconnected-(J1-Pin_3-Pad3)*%
X160020000Y-45720000D03*
%TO.P,J1,4,Pin_4*%
%TO.N,unconnected-(J1-Pin_4-Pad4)*%
X157480000Y-45720000D03*
%TO.P,J1,5,Pin_5*%
%TO.N,unconnected-(J1-Pin_5-Pad5)*%
X160020000Y-48260000D03*
%TO.P,J1,6,Pin_6*%
%TO.N,GND*%
X157480000Y-48260000D03*
%TO.P,J1,7,Pin_7*%
%TO.N,unconnected-(J1-Pin_7-Pad7)*%
X160020000Y-50800000D03*
%TO.P,J1,8,Pin_8*%
%TO.N,unconnected-(J1-Pin_8-Pad8)*%
X157480000Y-50800000D03*
%TO.P,J1,9,Pin_9*%
%TO.N,unconnected-(J1-Pin_9-Pad9)*%
X160020000Y-53340000D03*
%TO.P,J1,10,Pin_10*%
%TO.N,unconnected-(J1-Pin_10-Pad10)*%
X157480000Y-53340000D03*
%TO.P,J1,11,Pin_11*%
%TO.N,unconnected-(J1-Pin_11-Pad11)*%
X160020000Y-55880000D03*
%TO.P,J1,12,Pin_12*%
%TO.N,RS*%
X157480000Y-55880000D03*
%TO.P,J1,13,Pin_13*%
%TO.N,RW*%
X160020000Y-58420000D03*
%TO.P,J1,14,Pin_14*%
%TO.N,E*%
X157480000Y-58420000D03*
%TO.P,J1,15,Pin_15*%
%TO.N,DB4*%
X160020000Y-60960000D03*
%TO.P,J1,16,Pin_16*%
%TO.N,DB5*%
X157480000Y-60960000D03*
%TO.P,J1,17,Pin_17*%
%TO.N,DB6*%
X160020000Y-63500000D03*
%TO.P,J1,18,Pin_18*%
%TO.N,DB7*%
X157480000Y-63500000D03*
%TO.P,J1,19,Pin_19*%
%TO.N,DHT*%
X160020000Y-66040000D03*
%TO.P,J1,20,Pin_20*%
%TO.N,unconnected-(J1-Pin_20-Pad20)*%
X157480000Y-66040000D03*
%TO.P,J1,21,Pin_21*%
%TO.N,unconnected-(J1-Pin_21-Pad21)*%
X160020000Y-68580000D03*
%TO.P,J1,22,Pin_22*%
%TO.N,unconnected-(J1-Pin_22-Pad22)*%
X157480000Y-68580000D03*
%TO.P,J1,23,Pin_23*%
%TO.N,unconnected-(J1-Pin_23-Pad23)*%
X160020000Y-71120000D03*
%TO.P,J1,24,Pin_24*%
%TO.N,GND*%
X157480000Y-71120000D03*
%TO.P,J1,25,Pin_25*%
%TO.N,unconnected-(J1-Pin_25-Pad25)*%
X160020000Y-73660000D03*
%TO.P,J1,26,Pin_26*%
%TO.N,unconnected-(J1-Pin_26-Pad26)*%
X157480000Y-73660000D03*
%TO.P,J1,27,Pin_27*%
%TO.N,unconnected-(J1-Pin_27-Pad27)*%
X160020000Y-76200000D03*
%TO.P,J1,28,Pin_28*%
%TO.N,unconnected-(J1-Pin_28-Pad28)*%
X157480000Y-76200000D03*
%TO.P,J1,29,Pin_29*%
%TO.N,unconnected-(J1-Pin_29-Pad29)*%
X160020000Y-78740000D03*
%TO.P,J1,30,Pin_30*%
%TO.N,unconnected-(J1-Pin_30-Pad30)*%
X157480000Y-78740000D03*
%TO.P,J1,31,Pin_31*%
%TO.N,unconnected-(J1-Pin_31-Pad31)*%
X160020000Y-81280000D03*
%TO.P,J1,32,Pin_32*%
%TO.N,unconnected-(J1-Pin_32-Pad32)*%
X157480000Y-81280000D03*
%TO.P,J1,33,Pin_33*%
%TO.N,unconnected-(J1-Pin_33-Pad33)*%
X160020000Y-83820000D03*
%TO.P,J1,34,Pin_34*%
%TO.N,unconnected-(J1-Pin_34-Pad34)*%
X157480000Y-83820000D03*
%TO.P,J1,35,Pin_35*%
%TO.N,unconnected-(J1-Pin_35-Pad35)*%
X160020000Y-86360000D03*
%TO.P,J1,36,Pin_36*%
%TO.N,unconnected-(J1-Pin_36-Pad36)*%
X157480000Y-86360000D03*
%TO.P,J1,37,Pin_37*%
%TO.N,unconnected-(J1-Pin_37-Pad37)*%
X160020000Y-88900000D03*
%TO.P,J1,38,Pin_38*%
%TO.N,unconnected-(J1-Pin_38-Pad38)*%
X157480000Y-88900000D03*
%TO.P,J1,39,Pin_39*%
%TO.N,unconnected-(J1-Pin_39-Pad39)*%
X160020000Y-91440000D03*
%TO.P,J1,40,Pin_40*%
%TO.N,unconnected-(J1-Pin_40-Pad40)*%
X157480000Y-91440000D03*
%TO.P,J1,41,Pin_41*%
%TO.N,unconnected-(J1-Pin_41-Pad41)*%
X160020000Y-93980000D03*
%TO.P,J1,42,Pin_42*%
%TO.N,unconnected-(J1-Pin_42-Pad42)*%
X157480000Y-93980000D03*
%TO.P,J1,43,Pin_43*%
%TO.N,unconnected-(J1-Pin_43-Pad43)*%
X160020000Y-96520000D03*
%TO.P,J1,44,Pin_44*%
%TO.N,unconnected-(J1-Pin_44-Pad44)*%
X157480000Y-96520000D03*
%TO.P,J1,45,Pin_45*%
%TO.N,unconnected-(J1-Pin_45-Pad45)*%
X160020000Y-99060000D03*
%TO.P,J1,46,Pin_46*%
%TO.N,unconnected-(J1-Pin_46-Pad46)*%
X157480000Y-99060000D03*
%TO.P,J1,47,Pin_47*%
%TO.N,unconnected-(J1-Pin_47-Pad47)*%
X160020000Y-101600000D03*
%TO.P,J1,48,Pin_48*%
%TO.N,unconnected-(J1-Pin_48-Pad48)*%
X157480000Y-101600000D03*
%TO.P,J1,49,Pin_49*%
%TO.N,GND*%
X160020000Y-104140000D03*
%TO.P,J1,50,Pin_50*%
X157480000Y-104140000D03*
%TD*%
D13*
%TO.P,U2,1,VCC*%
%TO.N,+5V*%
X126110000Y-93980000D03*
%TO.P,U2,2,IO*%
%TO.N,DHT*%
X122810000Y-91440000D03*
%TO.P,U2,4,GND*%
%TO.N,GND*%
X122810000Y-96520000D03*
%TD*%
D14*
%TO.P,C1,1*%
%TO.N,+5V*%
X130530000Y-40640000D03*
%TO.P,C1,2*%
%TO.N,GND*%
X132080000Y-40640000D03*
%TD*%
D15*
%TO.P,R1,1*%
%TO.N,Net-(U1-A{slash}VEE)*%
X112650000Y-78740000D03*
%TO.P,R1,2*%
%TO.N,+5V*%
X114300000Y-78740000D03*
%TD*%
D13*
%TO.P,U1,1,VSS*%
%TO.N,GND*%
X109220000Y-43180000D03*
%TO.P,U1,2,VDD*%
%TO.N,+5V*%
X105920000Y-45720000D03*
%TO.P,U1,3,VO*%
%TO.N,Net-(U1-VO)*%
X109220000Y-48260000D03*
%TO.P,U1,4,RS*%
%TO.N,RS*%
X105920000Y-50800000D03*
%TO.P,U1,5,R/W*%
%TO.N,RW*%
X109220000Y-53340000D03*
%TO.P,U1,6,E*%
%TO.N,E*%
X105920000Y-55880000D03*
%TO.P,U1,7,DB0*%
%TO.N,unconnected-(U1-DB0-Pad7)*%
X109220000Y-58420000D03*
%TO.P,U1,8,DB1*%
%TO.N,unconnected-(U1-DB1-Pad8)*%
X105920000Y-60960000D03*
%TO.P,U1,9,DB2*%
%TO.N,unconnected-(U1-DB2-Pad9)*%
X109220000Y-63500000D03*
%TO.P,U1,10,DB3*%
%TO.N,unconnected-(U1-DB3-Pad10)*%
X105920000Y-66040000D03*
%TO.P,U1,11,DB4*%
%TO.N,DB4*%
X109220000Y-68580000D03*
%TO.P,U1,12,DB5*%
%TO.N,DB5*%
X105920000Y-71120000D03*
%TO.P,U1,13,DB6*%
%TO.N,DB6*%
X109220000Y-73660000D03*
%TO.P,U1,14,DB7*%
%TO.N,DB7*%
X105920000Y-76200000D03*
%TO.P,U1,15,A/VEE*%
%TO.N,Net-(U1-A{slash}VEE)*%
X109220000Y-78740000D03*
%TO.P,U1,16,K*%
%TO.N,GND*%
X105920000Y-81280000D03*
%TD*%
D16*
%TO.N,GND*%
X132080000Y-43180000D03*
X154940000Y-73660000D03*
X154940000Y-104140000D03*
X121920000Y-99060000D03*
X111760000Y-43180000D03*
X213360000Y-104140000D03*
X213360000Y-43180000D03*
X104140000Y-81280000D03*
%TD*%
D17*
%TO.N,Net-(U1-VO)*%
X120650000Y-45719985D02*
G75*
G03*
X118481975Y-46618026I0J-3066015D01*
G01*
X115043948Y-48260020D02*
G75*
G03*
X118110000Y-46990000I-48J4336120D01*
G01*
D18*
%TO.N,+5V*%
X127548011Y-43621996D02*
G75*
G03*
X127000000Y-44945000I1322989J-1323004D01*
G01*
X114704275Y-40640000D02*
X114289436Y-40640000D01*
X112007822Y-40640000D02*
X111556768Y-40640000D01*
X114289436Y-40640000D02*
X113874597Y-40640000D01*
X113667178Y-40640000D02*
X112837500Y-40640000D01*
X109589664Y-40640000D02*
X109152530Y-40640000D01*
X112458876Y-40640000D02*
X112007822Y-40640000D01*
X111556768Y-40640000D02*
X111105714Y-40640000D01*
X110682499Y-40640000D02*
X109808231Y-40640000D01*
X121011569Y-40640000D02*
X116668427Y-40640000D01*
D19*
%TO.N,GND*%
X113401964Y-44821984D02*
G75*
G03*
X115570000Y-45720000I2168036J2168084D01*
G01*
D17*
%TO.N,Net-(U1-VO)*%
X115043948Y-48260000D02*
X109220000Y-48260000D01*
X118481974Y-46618025D02*
X118110000Y-46990000D01*
X120650000Y-45720000D02*
X121920000Y-45720000D01*
D18*
%TO.N,+5V*%
X127000000Y-44945000D02*
X127000000Y-45720000D01*
X127548007Y-43621992D02*
X130530000Y-40640000D01*
D19*
%TO.N,GND*%
X111760000Y-43180000D02*
X113401974Y-44821974D01*
X115570000Y-45720000D02*
X116840000Y-45720000D01*
X157480000Y-43180000D02*
X160020000Y-43180000D01*
X151453792Y-44773792D02*
X154041974Y-47361974D01*
X210810000Y-104160000D02*
X208270000Y-104160000D01*
X104140000Y-81280000D02*
X105920000Y-81280000D01*
X213325857Y-43200000D02*
X210810000Y-43200000D01*
X132080000Y-43180000D02*
X132080000Y-40640000D01*
X213360000Y-104140000D02*
X213350000Y-104150000D01*
X154940000Y-73660000D02*
X157480000Y-71120000D01*
X154940000Y-104140000D02*
X157480000Y-104140000D01*
X157480000Y-104140000D02*
X160020000Y-104140000D01*
X210810000Y-43200000D02*
X208270000Y-43200000D01*
X121920000Y-99060000D02*
X122365000Y-98615000D01*
X213325857Y-104160000D02*
X210810000Y-104160000D01*
X147516856Y-43180000D02*
X132080000Y-43180000D01*
X157480000Y-43180000D02*
X151479913Y-43180000D01*
X147516856Y-43180000D02*
X151479913Y-43180000D01*
X111760000Y-43180000D02*
X109220000Y-43180000D01*
X122810000Y-97540674D02*
X122810000Y-96520000D01*
X156210000Y-48260000D02*
X157480000Y-48260000D01*
X213360000Y-43180000D02*
X213350000Y-43190000D01*
X151479912Y-43179998D02*
G75*
G03*
X151453792Y-44773792I420488J-804002D01*
G01*
X213325857Y-104159982D02*
G75*
G03*
X213350000Y-104150000I43J34082D01*
G01*
X122365007Y-98615007D02*
G75*
G03*
X122810000Y-97540674I-1074307J1074307D01*
G01*
X151453812Y-44773771D02*
G75*
G03*
X147516856Y-43180001I-3893012J-3957129D01*
G01*
X154041964Y-47361984D02*
G75*
G03*
X156210000Y-48260000I2168036J2168084D01*
G01*
X213325857Y-43199982D02*
G75*
G03*
X213350000Y-43190000I43J34082D01*
G01*
D17*
%TO.N,RS*%
X118636051Y-53340000D02*
X153143948Y-53340000D01*
X112503948Y-50800000D02*
X105920000Y-50800000D01*
X156210000Y-54610000D02*
X157480000Y-55880000D01*
X115569986Y-52070014D02*
G75*
G03*
X112503948Y-50800000I-3066086J-3066086D01*
G01*
X156209986Y-54610014D02*
G75*
G03*
X153143948Y-53340000I-3066086J-3066086D01*
G01*
X115570014Y-52069986D02*
G75*
G03*
X118636051Y-53340000I3066086J3066086D01*
G01*
%TO.N,RW*%
X116971802Y-53790000D02*
X150146036Y-53790000D01*
X157160000Y-57055000D02*
X157689799Y-57055000D01*
X153993792Y-55383792D02*
X154607875Y-55997875D01*
X159337500Y-57737500D02*
X160020000Y-58420000D01*
X115885405Y-53340000D02*
X109220000Y-53340000D01*
X159337500Y-57737500D02*
G75*
G03*
X157689799Y-57055000I-1647700J-1647700D01*
G01*
X154607864Y-55997886D02*
G75*
G03*
X157160000Y-57055000I2552136J2552186D01*
G01*
X116428603Y-53565001D02*
G75*
G03*
X116971802Y-53790000I543197J543201D01*
G01*
X116428601Y-53565003D02*
G75*
G03*
X115885405Y-53340000I-543201J-543197D01*
G01*
X153993784Y-55383800D02*
G75*
G03*
X150146036Y-53790000I-3847784J-3847800D01*
G01*
%TO.N,E*%
X115435406Y-53790000D02*
X115158604Y-53790000D01*
X117421801Y-54612792D02*
X131098828Y-54612792D01*
X110732146Y-55880000D02*
X105920000Y-55880000D01*
X156210000Y-58420000D02*
X157480000Y-58420000D01*
X153384279Y-56864279D02*
X154041974Y-57521974D01*
X113692875Y-54397124D02*
X113254999Y-54834999D01*
X151796462Y-56206584D02*
X134946584Y-56206584D01*
X116428602Y-54201398D02*
G75*
G03*
X115435406Y-53790000I-993202J-993202D01*
G01*
X110732146Y-55880017D02*
G75*
G03*
X113254998Y-54834998I-46J3567917D01*
G01*
X153384299Y-56864259D02*
G75*
G03*
X151796462Y-56206584I-1587799J-1587841D01*
G01*
X116428603Y-54201397D02*
G75*
G03*
X117421801Y-54612792I993197J993197D01*
G01*
X115158604Y-53790016D02*
G75*
G03*
X113692875Y-54397124I-4J-2072884D01*
G01*
X134946561Y-56206607D02*
G75*
G03*
X131098828Y-54612792I-3847761J-3847693D01*
G01*
X154041964Y-57521984D02*
G75*
G03*
X156210000Y-58420000I2168036J2168084D01*
G01*
%TO.N,DB4*%
X151569149Y-58420000D02*
X116299998Y-58420000D01*
X112706207Y-65093792D02*
X109220000Y-68580000D01*
X114300000Y-60419998D02*
X114300000Y-61246036D01*
X157689799Y-59595000D02*
X154405850Y-59595000D01*
X159337500Y-60277500D02*
X160020000Y-60960000D01*
X159337500Y-60277500D02*
G75*
G03*
X157689799Y-59595000I-1647700J-1647700D01*
G01*
X152987515Y-59007485D02*
G75*
G03*
X154405850Y-59595000I1418385J1418385D01*
G01*
X112706200Y-65093785D02*
G75*
G03*
X114300000Y-61246036I-3847800J3847785D01*
G01*
X152987515Y-59007485D02*
G75*
G03*
X151569149Y-58420000I-1418315J-1418315D01*
G01*
X116299998Y-58420000D02*
G75*
G03*
X114300000Y-60419998I2J-2000000D01*
G01*
D18*
%TO.N,+5V*%
X109152530Y-40640000D02*
X108933963Y-40640000D01*
X104408699Y-42911299D02*
X103871298Y-43448700D01*
X151656829Y-39896829D02*
X134123000Y-39896829D01*
X104408699Y-44208699D02*
X105920000Y-45720000D01*
X130530000Y-40640000D02*
X131621309Y-39548690D01*
X204763792Y-42233792D02*
X208270000Y-45740000D01*
X114704275Y-40640000D02*
X116668427Y-40640000D01*
X112837500Y-40640000D02*
X112458876Y-40640000D01*
X111105714Y-40640000D02*
X110682499Y-40640000D01*
X104408699Y-42911299D02*
X105086206Y-42233792D01*
X131376207Y-101500170D02*
X131376207Y-103086208D01*
X103871298Y-43448700D02*
X103193792Y-44126207D01*
X172720000Y-83543963D02*
X172720000Y-102343948D01*
X130530000Y-40640000D02*
X121011569Y-40640000D01*
X103599998Y-83820000D02*
X112300001Y-83820000D01*
X174313792Y-79696207D02*
X208270000Y-45740000D01*
X133528690Y-39548690D02*
X133702759Y-39722759D01*
X129782414Y-97652414D02*
X126447643Y-94317643D01*
X114300000Y-81820001D02*
X114300000Y-78740000D01*
X101600000Y-81820001D02*
X101600000Y-47973963D01*
X109589664Y-40640000D02*
X109808231Y-40640000D01*
X149156207Y-105086207D02*
X133376205Y-105086207D01*
D20*
X208270000Y-45740000D02*
X210810000Y-45740000D01*
D18*
X113874597Y-40640000D02*
X113667178Y-40640000D01*
X153451001Y-40640000D02*
X200916036Y-40640000D01*
X153003963Y-106680000D02*
X168383948Y-106680000D01*
X174313821Y-79696236D02*
G75*
G03*
X172720000Y-83543963I3847679J-3847764D01*
G01*
X204763784Y-42233800D02*
G75*
G03*
X200916036Y-40640000I-3847784J-3847800D01*
G01*
X171449986Y-105409986D02*
G75*
G03*
X172720000Y-102343948I-3066086J3066086D01*
G01*
X101600000Y-81820001D02*
G75*
G03*
X103599998Y-83820000I2000000J1D01*
G01*
X133702755Y-39722763D02*
G75*
G03*
X134123000Y-39896829I420245J420263D01*
G01*
X103193821Y-44126236D02*
G75*
G03*
X101600000Y-47973963I3847679J-3847764D01*
G01*
X108933963Y-40639988D02*
G75*
G03*
X105086206Y-42233792I37J-5441612D01*
G01*
X168383948Y-106680020D02*
G75*
G03*
X171450000Y-105410000I-48J4336120D01*
G01*
X133528694Y-39548686D02*
G75*
G03*
X132575000Y-39153659I-953694J-953714D01*
G01*
X132575000Y-39153664D02*
G75*
G03*
X131621309Y-39548690I0J-1348736D01*
G01*
X112300001Y-83820000D02*
G75*
G03*
X114300000Y-81820001I-1J2000000D01*
G01*
X131376193Y-103086208D02*
G75*
G03*
X133376205Y-105086207I2000007J8D01*
G01*
X104140000Y-43559999D02*
G75*
G03*
X104408699Y-44208699I917400J-1D01*
G01*
X104408700Y-42911300D02*
G75*
G03*
X104139999Y-43559999I648700J-648700D01*
G01*
X151656837Y-39896821D02*
G75*
G03*
X153451001Y-40640000I1794163J1794121D01*
G01*
X149156215Y-105086199D02*
G75*
G03*
X153003963Y-106680000I3847785J3847799D01*
G01*
X104140003Y-43559999D02*
G75*
G03*
X103871298Y-43448700I-157403J-1D01*
G01*
X131376240Y-101500170D02*
G75*
G03*
X129782414Y-97652414I-5441540J-30D01*
G01*
D20*
%TO.N,+3V0*%
X210810000Y-48280000D02*
X208270000Y-48280000D01*
D17*
%TO.N,DB5*%
X109791162Y-70108837D02*
X117346207Y-62553792D01*
X107350000Y-71120000D02*
X105920000Y-71120000D01*
X121193963Y-60960000D02*
X157480000Y-60960000D01*
X107350000Y-71120006D02*
G75*
G03*
X109791161Y-70108836I0J3452306D01*
G01*
X121193963Y-60959960D02*
G75*
G03*
X117346208Y-62553793I37J-5441540D01*
G01*
%TO.N,DB6*%
X159337500Y-64182500D02*
X160020000Y-63500000D01*
X110490000Y-73660000D02*
X109220000Y-73660000D01*
X118961207Y-66458792D02*
X112658025Y-72761974D01*
X157689799Y-64865000D02*
X122808963Y-64865000D01*
X157689799Y-64864999D02*
G75*
G03*
X159337500Y-64182500I1J2330199D01*
G01*
X110490000Y-73659985D02*
G75*
G03*
X112658025Y-72761974I0J3066085D01*
G01*
X122808963Y-64864960D02*
G75*
G03*
X118961208Y-66458793I37J-5441540D01*
G01*
%TO.N,DB7*%
X105920000Y-75129788D02*
X105920000Y-76200000D01*
X106887565Y-73092010D02*
X106676753Y-73302821D01*
X111795109Y-71095307D02*
X117796624Y-65093792D01*
X109310551Y-72124445D02*
X109223475Y-72124445D01*
X121644380Y-63500000D02*
X157480000Y-63500000D01*
X109223475Y-72124421D02*
G75*
G03*
X106887565Y-73092010I25J-3303479D01*
G01*
X106676764Y-73302832D02*
G75*
G03*
X105920000Y-75129788I1826936J-1826968D01*
G01*
X109310551Y-72124466D02*
G75*
G03*
X111795109Y-71095307I-51J3513766D01*
G01*
X121644380Y-63499972D02*
G75*
G03*
X117796625Y-65093793I20J-5441528D01*
G01*
%TO.N,DHT*%
X159337500Y-66722500D02*
X160020000Y-66040000D01*
X122810000Y-90069149D02*
X122810000Y-91440000D01*
X154205723Y-72828612D02*
X154205723Y-67894497D01*
X157689799Y-67405000D02*
X154695220Y-67405000D01*
X137085893Y-76676368D02*
X152611930Y-76676368D01*
X133238137Y-78270160D02*
X123779338Y-87728959D01*
X137085893Y-76676358D02*
G75*
G03*
X133238137Y-78270160I7J-5441542D01*
G01*
X123779320Y-87728941D02*
G75*
G03*
X122810000Y-90069149I2340180J-2340159D01*
G01*
X154695220Y-67405015D02*
G75*
G03*
X154349093Y-67548370I-20J-489485D01*
G01*
X154349099Y-67548376D02*
G75*
G03*
X154205723Y-67894497I346101J-346124D01*
G01*
X157689799Y-67404999D02*
G75*
G03*
X159337500Y-66722500I1J2330199D01*
G01*
X152611919Y-76676357D02*
G75*
G03*
X154205723Y-72828612I-3847719J3847757D01*
G01*
%TO.N,Net-(U1-A{slash}VEE)*%
X109220000Y-78740000D02*
X112650000Y-78740000D01*
%TD*%
M02*
