%TF.GenerationSoftware,KiCad,Pcbnew,7.0.1*%
%TF.CreationDate,2023-05-30T20:42:55-06:00*%
%TF.ProjectId,Phase_D_STM_Shield,50686173-655f-4445-9f53-544d5f536869,rev?*%
%TF.SameCoordinates,Original*%
%TF.FileFunction,Soldermask,Bot*%
%TF.FilePolarity,Negative*%
%FSLAX46Y46*%
G04 Gerber Fmt 4.6, Leading zero omitted, Abs format (unit mm)*
G04 Created by KiCad (PCBNEW 7.0.1) date 2023-05-30 20:42:55*
%MOMM*%
%LPD*%
G01*
G04 APERTURE LIST*
%ADD10R,1.700000X1.700000*%
%ADD11O,1.700000X1.700000*%
G04 APERTURE END LIST*
D10*
%TO.C,J2*%
X210810000Y-43200000D03*
D11*
X208270000Y-43200000D03*
X210810000Y-45740000D03*
X208270000Y-45740000D03*
X210810000Y-48280000D03*
X208270000Y-48280000D03*
X210810000Y-50820000D03*
X208270000Y-50820000D03*
X210810000Y-53360000D03*
X208270000Y-53360000D03*
X210810000Y-55900000D03*
X208270000Y-55900000D03*
X210810000Y-58440000D03*
X208270000Y-58440000D03*
X210810000Y-60980000D03*
X208270000Y-60980000D03*
X210810000Y-63520000D03*
X208270000Y-63520000D03*
X210810000Y-66060000D03*
X208270000Y-66060000D03*
X210810000Y-68600000D03*
X208270000Y-68600000D03*
X210810000Y-71140000D03*
X208270000Y-71140000D03*
X210810000Y-73680000D03*
X208270000Y-73680000D03*
X210810000Y-76220000D03*
X208270000Y-76220000D03*
X210810000Y-78760000D03*
X208270000Y-78760000D03*
X210810000Y-81300000D03*
X208270000Y-81300000D03*
X210810000Y-83840000D03*
X208270000Y-83840000D03*
X210810000Y-86380000D03*
X208270000Y-86380000D03*
X210810000Y-88920000D03*
X208270000Y-88920000D03*
X210810000Y-91460000D03*
X208270000Y-91460000D03*
X210810000Y-94000000D03*
X208270000Y-94000000D03*
X210810000Y-96540000D03*
X208270000Y-96540000D03*
X210810000Y-99080000D03*
X208270000Y-99080000D03*
X210810000Y-101620000D03*
X208270000Y-101620000D03*
X210810000Y-104160000D03*
X208270000Y-104160000D03*
%TD*%
D10*
%TO.C,J1*%
X160020000Y-43180000D03*
D11*
X157480000Y-43180000D03*
X160020000Y-45720000D03*
X157480000Y-45720000D03*
X160020000Y-48260000D03*
X157480000Y-48260000D03*
X160020000Y-50800000D03*
X157480000Y-50800000D03*
X160020000Y-53340000D03*
X157480000Y-53340000D03*
X160020000Y-55880000D03*
X157480000Y-55880000D03*
X160020000Y-58420000D03*
X157480000Y-58420000D03*
X160020000Y-60960000D03*
X157480000Y-60960000D03*
X160020000Y-63500000D03*
X157480000Y-63500000D03*
X160020000Y-66040000D03*
X157480000Y-66040000D03*
X160020000Y-68580000D03*
X157480000Y-68580000D03*
X160020000Y-71120000D03*
X157480000Y-71120000D03*
X160020000Y-73660000D03*
X157480000Y-73660000D03*
X160020000Y-76200000D03*
X157480000Y-76200000D03*
X160020000Y-78740000D03*
X157480000Y-78740000D03*
X160020000Y-81280000D03*
X157480000Y-81280000D03*
X160020000Y-83820000D03*
X157480000Y-83820000D03*
X160020000Y-86360000D03*
X157480000Y-86360000D03*
X160020000Y-88900000D03*
X157480000Y-88900000D03*
X160020000Y-91440000D03*
X157480000Y-91440000D03*
X160020000Y-93980000D03*
X157480000Y-93980000D03*
X160020000Y-96520000D03*
X157480000Y-96520000D03*
X160020000Y-99060000D03*
X157480000Y-99060000D03*
X160020000Y-101600000D03*
X157480000Y-101600000D03*
X160020000Y-104140000D03*
X157480000Y-104140000D03*
%TD*%
M02*
