%TF.GenerationSoftware,KiCad,Pcbnew,7.0.1*%
%TF.CreationDate,2023-05-30T20:42:55-06:00*%
%TF.ProjectId,Phase_D_STM_Shield,50686173-655f-4445-9f53-544d5f536869,rev?*%
%TF.SameCoordinates,Original*%
%TF.FileFunction,Soldermask,Top*%
%TF.FilePolarity,Negative*%
%FSLAX46Y46*%
G04 Gerber Fmt 4.6, Leading zero omitted, Abs format (unit mm)*
G04 Created by KiCad (PCBNEW 7.0.1) date 2023-05-30 20:42:55*
%MOMM*%
%LPD*%
G01*
G04 APERTURE LIST*
G04 Aperture macros list*
%AMRoundRect*
0 Rectangle with rounded corners*
0 $1 Rounding radius*
0 $2 $3 $4 $5 $6 $7 $8 $9 X,Y pos of 4 corners*
0 Add a 4 corners polygon primitive as box body*
4,1,4,$2,$3,$4,$5,$6,$7,$8,$9,$2,$3,0*
0 Add four circle primitives for the rounded corners*
1,1,$1+$1,$2,$3*
1,1,$1+$1,$4,$5*
1,1,$1+$1,$6,$7*
1,1,$1+$1,$8,$9*
0 Add four rect primitives between the rounded corners*
20,1,$1+$1,$2,$3,$4,$5,0*
20,1,$1+$1,$4,$5,$6,$7,0*
20,1,$1+$1,$6,$7,$8,$9,0*
20,1,$1+$1,$8,$9,$2,$3,0*%
G04 Aperture macros list end*
%ADD10R,1.000000X1.900000*%
%ADD11R,1.700000X1.700000*%
%ADD12O,1.700000X1.700000*%
%ADD13R,1.900000X1.000000*%
%ADD14RoundRect,0.225000X-0.225000X-0.250000X0.225000X-0.250000X0.225000X0.250000X-0.225000X0.250000X0*%
%ADD15RoundRect,0.200000X-0.200000X-0.275000X0.200000X-0.275000X0.200000X0.275000X-0.200000X0.275000X0*%
G04 APERTURE END LIST*
D10*
%TO.C,RV1*%
X127000000Y-45720000D03*
X124460000Y-49020000D03*
X121920000Y-45720000D03*
X119380000Y-49020000D03*
X116840000Y-45720000D03*
%TD*%
D11*
%TO.C,J2*%
X210810000Y-43200000D03*
D12*
X208270000Y-43200000D03*
X210810000Y-45740000D03*
X208270000Y-45740000D03*
X210810000Y-48280000D03*
X208270000Y-48280000D03*
X210810000Y-50820000D03*
X208270000Y-50820000D03*
X210810000Y-53360000D03*
X208270000Y-53360000D03*
X210810000Y-55900000D03*
X208270000Y-55900000D03*
X210810000Y-58440000D03*
X208270000Y-58440000D03*
X210810000Y-60980000D03*
X208270000Y-60980000D03*
X210810000Y-63520000D03*
X208270000Y-63520000D03*
X210810000Y-66060000D03*
X208270000Y-66060000D03*
X210810000Y-68600000D03*
X208270000Y-68600000D03*
X210810000Y-71140000D03*
X208270000Y-71140000D03*
X210810000Y-73680000D03*
X208270000Y-73680000D03*
X210810000Y-76220000D03*
X208270000Y-76220000D03*
X210810000Y-78760000D03*
X208270000Y-78760000D03*
X210810000Y-81300000D03*
X208270000Y-81300000D03*
X210810000Y-83840000D03*
X208270000Y-83840000D03*
X210810000Y-86380000D03*
X208270000Y-86380000D03*
X210810000Y-88920000D03*
X208270000Y-88920000D03*
X210810000Y-91460000D03*
X208270000Y-91460000D03*
X210810000Y-94000000D03*
X208270000Y-94000000D03*
X210810000Y-96540000D03*
X208270000Y-96540000D03*
X210810000Y-99080000D03*
X208270000Y-99080000D03*
X210810000Y-101620000D03*
X208270000Y-101620000D03*
X210810000Y-104160000D03*
X208270000Y-104160000D03*
%TD*%
D11*
%TO.C,J1*%
X160020000Y-43180000D03*
D12*
X157480000Y-43180000D03*
X160020000Y-45720000D03*
X157480000Y-45720000D03*
X160020000Y-48260000D03*
X157480000Y-48260000D03*
X160020000Y-50800000D03*
X157480000Y-50800000D03*
X160020000Y-53340000D03*
X157480000Y-53340000D03*
X160020000Y-55880000D03*
X157480000Y-55880000D03*
X160020000Y-58420000D03*
X157480000Y-58420000D03*
X160020000Y-60960000D03*
X157480000Y-60960000D03*
X160020000Y-63500000D03*
X157480000Y-63500000D03*
X160020000Y-66040000D03*
X157480000Y-66040000D03*
X160020000Y-68580000D03*
X157480000Y-68580000D03*
X160020000Y-71120000D03*
X157480000Y-71120000D03*
X160020000Y-73660000D03*
X157480000Y-73660000D03*
X160020000Y-76200000D03*
X157480000Y-76200000D03*
X160020000Y-78740000D03*
X157480000Y-78740000D03*
X160020000Y-81280000D03*
X157480000Y-81280000D03*
X160020000Y-83820000D03*
X157480000Y-83820000D03*
X160020000Y-86360000D03*
X157480000Y-86360000D03*
X160020000Y-88900000D03*
X157480000Y-88900000D03*
X160020000Y-91440000D03*
X157480000Y-91440000D03*
X160020000Y-93980000D03*
X157480000Y-93980000D03*
X160020000Y-96520000D03*
X157480000Y-96520000D03*
X160020000Y-99060000D03*
X157480000Y-99060000D03*
X160020000Y-101600000D03*
X157480000Y-101600000D03*
X160020000Y-104140000D03*
X157480000Y-104140000D03*
%TD*%
D13*
%TO.C,U2*%
X126110000Y-93980000D03*
X122810000Y-91440000D03*
X122810000Y-96520000D03*
%TD*%
D14*
%TO.C,C1*%
X130530000Y-40640000D03*
X132080000Y-40640000D03*
%TD*%
D15*
%TO.C,R1*%
X112650000Y-78740000D03*
X114300000Y-78740000D03*
%TD*%
D13*
%TO.C,U1*%
X109220000Y-43180000D03*
X105920000Y-45720000D03*
X109220000Y-48260000D03*
X105920000Y-50800000D03*
X109220000Y-53340000D03*
X105920000Y-55880000D03*
X109220000Y-58420000D03*
X105920000Y-60960000D03*
X109220000Y-63500000D03*
X105920000Y-66040000D03*
X109220000Y-68580000D03*
X105920000Y-71120000D03*
X109220000Y-73660000D03*
X105920000Y-76200000D03*
X109220000Y-78740000D03*
X105920000Y-81280000D03*
%TD*%
M02*
