%TF.GenerationSoftware,KiCad,Pcbnew,7.0.1*%
%TF.CreationDate,2023-05-30T20:42:55-06:00*%
%TF.ProjectId,Phase_D_STM_Shield,50686173-655f-4445-9f53-544d5f536869,rev?*%
%TF.SameCoordinates,Original*%
%TF.FileFunction,Legend,Top*%
%TF.FilePolarity,Positive*%
%FSLAX46Y46*%
G04 Gerber Fmt 4.6, Leading zero omitted, Abs format (unit mm)*
G04 Created by KiCad (PCBNEW 7.0.1) date 2023-05-30 20:42:55*
%MOMM*%
%LPD*%
G01*
G04 APERTURE LIST*
%ADD10C,0.120000*%
%ADD11C,0.150000*%
G04 APERTURE END LIST*
D10*
X169492200Y-43134400D02*
X168742200Y-43134400D01*
X170742200Y-43134400D02*
X169742200Y-41884400D01*
X170742200Y-43134400D02*
X169992200Y-43134400D01*
X169492200Y-45384400D02*
X169992200Y-45384400D01*
X169992200Y-45384400D02*
X169992200Y-43134400D01*
X169492200Y-43134400D02*
X169492200Y-45384400D01*
X169742200Y-41884400D02*
X168742200Y-43134400D01*
D11*
X118916283Y-96118882D02*
X118821045Y-96071263D01*
X118821045Y-96071263D02*
X118678188Y-96071263D01*
X118678188Y-96071263D02*
X118535331Y-96118882D01*
X118535331Y-96118882D02*
X118440093Y-96214120D01*
X118440093Y-96214120D02*
X118392474Y-96309358D01*
X118392474Y-96309358D02*
X118344855Y-96499834D01*
X118344855Y-96499834D02*
X118344855Y-96642691D01*
X118344855Y-96642691D02*
X118392474Y-96833167D01*
X118392474Y-96833167D02*
X118440093Y-96928405D01*
X118440093Y-96928405D02*
X118535331Y-97023644D01*
X118535331Y-97023644D02*
X118678188Y-97071263D01*
X118678188Y-97071263D02*
X118773426Y-97071263D01*
X118773426Y-97071263D02*
X118916283Y-97023644D01*
X118916283Y-97023644D02*
X118963902Y-96976024D01*
X118963902Y-96976024D02*
X118963902Y-96642691D01*
X118963902Y-96642691D02*
X118773426Y-96642691D01*
X119392474Y-97071263D02*
X119392474Y-96071263D01*
X119392474Y-96071263D02*
X119963902Y-97071263D01*
X119963902Y-97071263D02*
X119963902Y-96071263D01*
X120440093Y-97071263D02*
X120440093Y-96071263D01*
X120440093Y-96071263D02*
X120678188Y-96071263D01*
X120678188Y-96071263D02*
X120821045Y-96118882D01*
X120821045Y-96118882D02*
X120916283Y-96214120D01*
X120916283Y-96214120D02*
X120963902Y-96309358D01*
X120963902Y-96309358D02*
X121011521Y-96499834D01*
X121011521Y-96499834D02*
X121011521Y-96642691D01*
X121011521Y-96642691D02*
X120963902Y-96833167D01*
X120963902Y-96833167D02*
X120916283Y-96928405D01*
X120916283Y-96928405D02*
X120821045Y-97023644D01*
X120821045Y-97023644D02*
X120678188Y-97071263D01*
X120678188Y-97071263D02*
X120440093Y-97071263D01*
X97984155Y-76744949D02*
X97984155Y-75744949D01*
X97984155Y-75744949D02*
X98222250Y-75744949D01*
X98222250Y-75744949D02*
X98365107Y-75792568D01*
X98365107Y-75792568D02*
X98460345Y-75887806D01*
X98460345Y-75887806D02*
X98507964Y-75983044D01*
X98507964Y-75983044D02*
X98555583Y-76173520D01*
X98555583Y-76173520D02*
X98555583Y-76316377D01*
X98555583Y-76316377D02*
X98507964Y-76506853D01*
X98507964Y-76506853D02*
X98460345Y-76602091D01*
X98460345Y-76602091D02*
X98365107Y-76697330D01*
X98365107Y-76697330D02*
X98222250Y-76744949D01*
X98222250Y-76744949D02*
X97984155Y-76744949D01*
X99317488Y-76221139D02*
X99460345Y-76268758D01*
X99460345Y-76268758D02*
X99507964Y-76316377D01*
X99507964Y-76316377D02*
X99555583Y-76411615D01*
X99555583Y-76411615D02*
X99555583Y-76554472D01*
X99555583Y-76554472D02*
X99507964Y-76649710D01*
X99507964Y-76649710D02*
X99460345Y-76697330D01*
X99460345Y-76697330D02*
X99365107Y-76744949D01*
X99365107Y-76744949D02*
X98984155Y-76744949D01*
X98984155Y-76744949D02*
X98984155Y-75744949D01*
X98984155Y-75744949D02*
X99317488Y-75744949D01*
X99317488Y-75744949D02*
X99412726Y-75792568D01*
X99412726Y-75792568D02*
X99460345Y-75840187D01*
X99460345Y-75840187D02*
X99507964Y-75935425D01*
X99507964Y-75935425D02*
X99507964Y-76030663D01*
X99507964Y-76030663D02*
X99460345Y-76125901D01*
X99460345Y-76125901D02*
X99412726Y-76173520D01*
X99412726Y-76173520D02*
X99317488Y-76221139D01*
X99317488Y-76221139D02*
X98984155Y-76221139D01*
X99888917Y-75744949D02*
X100555583Y-75744949D01*
X100555583Y-75744949D02*
X100127012Y-76744949D01*
X169182676Y-47739400D02*
X169325533Y-47787019D01*
X169325533Y-47787019D02*
X169563628Y-47787019D01*
X169563628Y-47787019D02*
X169658866Y-47739400D01*
X169658866Y-47739400D02*
X169706485Y-47691780D01*
X169706485Y-47691780D02*
X169754104Y-47596542D01*
X169754104Y-47596542D02*
X169754104Y-47501304D01*
X169754104Y-47501304D02*
X169706485Y-47406066D01*
X169706485Y-47406066D02*
X169658866Y-47358447D01*
X169658866Y-47358447D02*
X169563628Y-47310828D01*
X169563628Y-47310828D02*
X169373152Y-47263209D01*
X169373152Y-47263209D02*
X169277914Y-47215590D01*
X169277914Y-47215590D02*
X169230295Y-47167971D01*
X169230295Y-47167971D02*
X169182676Y-47072733D01*
X169182676Y-47072733D02*
X169182676Y-46977495D01*
X169182676Y-46977495D02*
X169230295Y-46882257D01*
X169230295Y-46882257D02*
X169277914Y-46834638D01*
X169277914Y-46834638D02*
X169373152Y-46787019D01*
X169373152Y-46787019D02*
X169611247Y-46787019D01*
X169611247Y-46787019D02*
X169754104Y-46834638D01*
X170039819Y-46787019D02*
X170611247Y-46787019D01*
X170325533Y-47787019D02*
X170325533Y-46787019D01*
X170944581Y-47787019D02*
X170944581Y-46787019D01*
X170944581Y-46787019D02*
X171277914Y-47501304D01*
X171277914Y-47501304D02*
X171611247Y-46787019D01*
X171611247Y-46787019D02*
X171611247Y-47787019D01*
X171992200Y-46787019D02*
X172611247Y-46787019D01*
X172611247Y-46787019D02*
X172277914Y-47167971D01*
X172277914Y-47167971D02*
X172420771Y-47167971D01*
X172420771Y-47167971D02*
X172516009Y-47215590D01*
X172516009Y-47215590D02*
X172563628Y-47263209D01*
X172563628Y-47263209D02*
X172611247Y-47358447D01*
X172611247Y-47358447D02*
X172611247Y-47596542D01*
X172611247Y-47596542D02*
X172563628Y-47691780D01*
X172563628Y-47691780D02*
X172516009Y-47739400D01*
X172516009Y-47739400D02*
X172420771Y-47787019D01*
X172420771Y-47787019D02*
X172135057Y-47787019D01*
X172135057Y-47787019D02*
X172039819Y-47739400D01*
X172039819Y-47739400D02*
X171992200Y-47691780D01*
X172992200Y-46882257D02*
X173039819Y-46834638D01*
X173039819Y-46834638D02*
X173135057Y-46787019D01*
X173135057Y-46787019D02*
X173373152Y-46787019D01*
X173373152Y-46787019D02*
X173468390Y-46834638D01*
X173468390Y-46834638D02*
X173516009Y-46882257D01*
X173516009Y-46882257D02*
X173563628Y-46977495D01*
X173563628Y-46977495D02*
X173563628Y-47072733D01*
X173563628Y-47072733D02*
X173516009Y-47215590D01*
X173516009Y-47215590D02*
X172944581Y-47787019D01*
X172944581Y-47787019D02*
X173563628Y-47787019D01*
X174325533Y-47263209D02*
X173992200Y-47263209D01*
X173992200Y-47787019D02*
X173992200Y-46787019D01*
X173992200Y-46787019D02*
X174468390Y-46787019D01*
X175277914Y-47120352D02*
X175277914Y-47787019D01*
X175039819Y-46739400D02*
X174801724Y-47453685D01*
X174801724Y-47453685D02*
X175420771Y-47453685D01*
X176896962Y-47263209D02*
X177039819Y-47310828D01*
X177039819Y-47310828D02*
X177087438Y-47358447D01*
X177087438Y-47358447D02*
X177135057Y-47453685D01*
X177135057Y-47453685D02*
X177135057Y-47596542D01*
X177135057Y-47596542D02*
X177087438Y-47691780D01*
X177087438Y-47691780D02*
X177039819Y-47739400D01*
X177039819Y-47739400D02*
X176944581Y-47787019D01*
X176944581Y-47787019D02*
X176563629Y-47787019D01*
X176563629Y-47787019D02*
X176563629Y-46787019D01*
X176563629Y-46787019D02*
X176896962Y-46787019D01*
X176896962Y-46787019D02*
X176992200Y-46834638D01*
X176992200Y-46834638D02*
X177039819Y-46882257D01*
X177039819Y-46882257D02*
X177087438Y-46977495D01*
X177087438Y-46977495D02*
X177087438Y-47072733D01*
X177087438Y-47072733D02*
X177039819Y-47167971D01*
X177039819Y-47167971D02*
X176992200Y-47215590D01*
X176992200Y-47215590D02*
X176896962Y-47263209D01*
X176896962Y-47263209D02*
X176563629Y-47263209D01*
X177706486Y-47787019D02*
X177611248Y-47739400D01*
X177611248Y-47739400D02*
X177563629Y-47691780D01*
X177563629Y-47691780D02*
X177516010Y-47596542D01*
X177516010Y-47596542D02*
X177516010Y-47310828D01*
X177516010Y-47310828D02*
X177563629Y-47215590D01*
X177563629Y-47215590D02*
X177611248Y-47167971D01*
X177611248Y-47167971D02*
X177706486Y-47120352D01*
X177706486Y-47120352D02*
X177849343Y-47120352D01*
X177849343Y-47120352D02*
X177944581Y-47167971D01*
X177944581Y-47167971D02*
X177992200Y-47215590D01*
X177992200Y-47215590D02*
X178039819Y-47310828D01*
X178039819Y-47310828D02*
X178039819Y-47596542D01*
X178039819Y-47596542D02*
X177992200Y-47691780D01*
X177992200Y-47691780D02*
X177944581Y-47739400D01*
X177944581Y-47739400D02*
X177849343Y-47787019D01*
X177849343Y-47787019D02*
X177706486Y-47787019D01*
X178896962Y-47787019D02*
X178896962Y-47263209D01*
X178896962Y-47263209D02*
X178849343Y-47167971D01*
X178849343Y-47167971D02*
X178754105Y-47120352D01*
X178754105Y-47120352D02*
X178563629Y-47120352D01*
X178563629Y-47120352D02*
X178468391Y-47167971D01*
X178896962Y-47739400D02*
X178801724Y-47787019D01*
X178801724Y-47787019D02*
X178563629Y-47787019D01*
X178563629Y-47787019D02*
X178468391Y-47739400D01*
X178468391Y-47739400D02*
X178420772Y-47644161D01*
X178420772Y-47644161D02*
X178420772Y-47548923D01*
X178420772Y-47548923D02*
X178468391Y-47453685D01*
X178468391Y-47453685D02*
X178563629Y-47406066D01*
X178563629Y-47406066D02*
X178801724Y-47406066D01*
X178801724Y-47406066D02*
X178896962Y-47358447D01*
X179373153Y-47787019D02*
X179373153Y-47120352D01*
X179373153Y-47310828D02*
X179420772Y-47215590D01*
X179420772Y-47215590D02*
X179468391Y-47167971D01*
X179468391Y-47167971D02*
X179563629Y-47120352D01*
X179563629Y-47120352D02*
X179658867Y-47120352D01*
X180420772Y-47787019D02*
X180420772Y-46787019D01*
X180420772Y-47739400D02*
X180325534Y-47787019D01*
X180325534Y-47787019D02*
X180135058Y-47787019D01*
X180135058Y-47787019D02*
X180039820Y-47739400D01*
X180039820Y-47739400D02*
X179992201Y-47691780D01*
X179992201Y-47691780D02*
X179944582Y-47596542D01*
X179944582Y-47596542D02*
X179944582Y-47310828D01*
X179944582Y-47310828D02*
X179992201Y-47215590D01*
X179992201Y-47215590D02*
X180039820Y-47167971D01*
X180039820Y-47167971D02*
X180135058Y-47120352D01*
X180135058Y-47120352D02*
X180325534Y-47120352D01*
X180325534Y-47120352D02*
X180420772Y-47167971D01*
X181658868Y-47787019D02*
X181658868Y-46787019D01*
X181658868Y-46787019D02*
X181896963Y-46787019D01*
X181896963Y-46787019D02*
X182039820Y-46834638D01*
X182039820Y-46834638D02*
X182135058Y-46929876D01*
X182135058Y-46929876D02*
X182182677Y-47025114D01*
X182182677Y-47025114D02*
X182230296Y-47215590D01*
X182230296Y-47215590D02*
X182230296Y-47358447D01*
X182230296Y-47358447D02*
X182182677Y-47548923D01*
X182182677Y-47548923D02*
X182135058Y-47644161D01*
X182135058Y-47644161D02*
X182039820Y-47739400D01*
X182039820Y-47739400D02*
X181896963Y-47787019D01*
X181896963Y-47787019D02*
X181658868Y-47787019D01*
X182658868Y-47787019D02*
X182658868Y-47120352D01*
X182658868Y-46787019D02*
X182611249Y-46834638D01*
X182611249Y-46834638D02*
X182658868Y-46882257D01*
X182658868Y-46882257D02*
X182706487Y-46834638D01*
X182706487Y-46834638D02*
X182658868Y-46787019D01*
X182658868Y-46787019D02*
X182658868Y-46882257D01*
X183135058Y-47787019D02*
X183135058Y-47120352D01*
X183135058Y-47310828D02*
X183182677Y-47215590D01*
X183182677Y-47215590D02*
X183230296Y-47167971D01*
X183230296Y-47167971D02*
X183325534Y-47120352D01*
X183325534Y-47120352D02*
X183420772Y-47120352D01*
X184135058Y-47739400D02*
X184039820Y-47787019D01*
X184039820Y-47787019D02*
X183849344Y-47787019D01*
X183849344Y-47787019D02*
X183754106Y-47739400D01*
X183754106Y-47739400D02*
X183706487Y-47644161D01*
X183706487Y-47644161D02*
X183706487Y-47263209D01*
X183706487Y-47263209D02*
X183754106Y-47167971D01*
X183754106Y-47167971D02*
X183849344Y-47120352D01*
X183849344Y-47120352D02*
X184039820Y-47120352D01*
X184039820Y-47120352D02*
X184135058Y-47167971D01*
X184135058Y-47167971D02*
X184182677Y-47263209D01*
X184182677Y-47263209D02*
X184182677Y-47358447D01*
X184182677Y-47358447D02*
X183706487Y-47453685D01*
X185039820Y-47739400D02*
X184944582Y-47787019D01*
X184944582Y-47787019D02*
X184754106Y-47787019D01*
X184754106Y-47787019D02*
X184658868Y-47739400D01*
X184658868Y-47739400D02*
X184611249Y-47691780D01*
X184611249Y-47691780D02*
X184563630Y-47596542D01*
X184563630Y-47596542D02*
X184563630Y-47310828D01*
X184563630Y-47310828D02*
X184611249Y-47215590D01*
X184611249Y-47215590D02*
X184658868Y-47167971D01*
X184658868Y-47167971D02*
X184754106Y-47120352D01*
X184754106Y-47120352D02*
X184944582Y-47120352D01*
X184944582Y-47120352D02*
X185039820Y-47167971D01*
X185325535Y-47120352D02*
X185706487Y-47120352D01*
X185468392Y-46787019D02*
X185468392Y-47644161D01*
X185468392Y-47644161D02*
X185516011Y-47739400D01*
X185516011Y-47739400D02*
X185611249Y-47787019D01*
X185611249Y-47787019D02*
X185706487Y-47787019D01*
X186039821Y-47787019D02*
X186039821Y-47120352D01*
X186039821Y-46787019D02*
X185992202Y-46834638D01*
X185992202Y-46834638D02*
X186039821Y-46882257D01*
X186039821Y-46882257D02*
X186087440Y-46834638D01*
X186087440Y-46834638D02*
X186039821Y-46787019D01*
X186039821Y-46787019D02*
X186039821Y-46882257D01*
X186658868Y-47787019D02*
X186563630Y-47739400D01*
X186563630Y-47739400D02*
X186516011Y-47691780D01*
X186516011Y-47691780D02*
X186468392Y-47596542D01*
X186468392Y-47596542D02*
X186468392Y-47310828D01*
X186468392Y-47310828D02*
X186516011Y-47215590D01*
X186516011Y-47215590D02*
X186563630Y-47167971D01*
X186563630Y-47167971D02*
X186658868Y-47120352D01*
X186658868Y-47120352D02*
X186801725Y-47120352D01*
X186801725Y-47120352D02*
X186896963Y-47167971D01*
X186896963Y-47167971D02*
X186944582Y-47215590D01*
X186944582Y-47215590D02*
X186992201Y-47310828D01*
X186992201Y-47310828D02*
X186992201Y-47596542D01*
X186992201Y-47596542D02*
X186944582Y-47691780D01*
X186944582Y-47691780D02*
X186896963Y-47739400D01*
X186896963Y-47739400D02*
X186801725Y-47787019D01*
X186801725Y-47787019D02*
X186658868Y-47787019D01*
X187420773Y-47120352D02*
X187420773Y-47787019D01*
X187420773Y-47215590D02*
X187468392Y-47167971D01*
X187468392Y-47167971D02*
X187563630Y-47120352D01*
X187563630Y-47120352D02*
X187706487Y-47120352D01*
X187706487Y-47120352D02*
X187801725Y-47167971D01*
X187801725Y-47167971D02*
X187849344Y-47263209D01*
X187849344Y-47263209D02*
X187849344Y-47787019D01*
X169230295Y-48407019D02*
X169230295Y-49216542D01*
X169230295Y-49216542D02*
X169277914Y-49311780D01*
X169277914Y-49311780D02*
X169325533Y-49359400D01*
X169325533Y-49359400D02*
X169420771Y-49407019D01*
X169420771Y-49407019D02*
X169611247Y-49407019D01*
X169611247Y-49407019D02*
X169706485Y-49359400D01*
X169706485Y-49359400D02*
X169754104Y-49311780D01*
X169754104Y-49311780D02*
X169801723Y-49216542D01*
X169801723Y-49216542D02*
X169801723Y-48407019D01*
X170230295Y-49359400D02*
X170373152Y-49407019D01*
X170373152Y-49407019D02*
X170611247Y-49407019D01*
X170611247Y-49407019D02*
X170706485Y-49359400D01*
X170706485Y-49359400D02*
X170754104Y-49311780D01*
X170754104Y-49311780D02*
X170801723Y-49216542D01*
X170801723Y-49216542D02*
X170801723Y-49121304D01*
X170801723Y-49121304D02*
X170754104Y-49026066D01*
X170754104Y-49026066D02*
X170706485Y-48978447D01*
X170706485Y-48978447D02*
X170611247Y-48930828D01*
X170611247Y-48930828D02*
X170420771Y-48883209D01*
X170420771Y-48883209D02*
X170325533Y-48835590D01*
X170325533Y-48835590D02*
X170277914Y-48787971D01*
X170277914Y-48787971D02*
X170230295Y-48692733D01*
X170230295Y-48692733D02*
X170230295Y-48597495D01*
X170230295Y-48597495D02*
X170277914Y-48502257D01*
X170277914Y-48502257D02*
X170325533Y-48454638D01*
X170325533Y-48454638D02*
X170420771Y-48407019D01*
X170420771Y-48407019D02*
X170658866Y-48407019D01*
X170658866Y-48407019D02*
X170801723Y-48454638D01*
X171563628Y-48883209D02*
X171706485Y-48930828D01*
X171706485Y-48930828D02*
X171754104Y-48978447D01*
X171754104Y-48978447D02*
X171801723Y-49073685D01*
X171801723Y-49073685D02*
X171801723Y-49216542D01*
X171801723Y-49216542D02*
X171754104Y-49311780D01*
X171754104Y-49311780D02*
X171706485Y-49359400D01*
X171706485Y-49359400D02*
X171611247Y-49407019D01*
X171611247Y-49407019D02*
X171230295Y-49407019D01*
X171230295Y-49407019D02*
X171230295Y-48407019D01*
X171230295Y-48407019D02*
X171563628Y-48407019D01*
X171563628Y-48407019D02*
X171658866Y-48454638D01*
X171658866Y-48454638D02*
X171706485Y-48502257D01*
X171706485Y-48502257D02*
X171754104Y-48597495D01*
X171754104Y-48597495D02*
X171754104Y-48692733D01*
X171754104Y-48692733D02*
X171706485Y-48787971D01*
X171706485Y-48787971D02*
X171658866Y-48835590D01*
X171658866Y-48835590D02*
X171563628Y-48883209D01*
X171563628Y-48883209D02*
X171230295Y-48883209D01*
X172992200Y-49407019D02*
X172992200Y-48407019D01*
X172992200Y-48407019D02*
X173373152Y-48407019D01*
X173373152Y-48407019D02*
X173468390Y-48454638D01*
X173468390Y-48454638D02*
X173516009Y-48502257D01*
X173516009Y-48502257D02*
X173563628Y-48597495D01*
X173563628Y-48597495D02*
X173563628Y-48740352D01*
X173563628Y-48740352D02*
X173516009Y-48835590D01*
X173516009Y-48835590D02*
X173468390Y-48883209D01*
X173468390Y-48883209D02*
X173373152Y-48930828D01*
X173373152Y-48930828D02*
X172992200Y-48930828D01*
X173992200Y-49407019D02*
X173992200Y-48740352D01*
X173992200Y-48930828D02*
X174039819Y-48835590D01*
X174039819Y-48835590D02*
X174087438Y-48787971D01*
X174087438Y-48787971D02*
X174182676Y-48740352D01*
X174182676Y-48740352D02*
X174277914Y-48740352D01*
X174754105Y-49407019D02*
X174658867Y-49359400D01*
X174658867Y-49359400D02*
X174611248Y-49311780D01*
X174611248Y-49311780D02*
X174563629Y-49216542D01*
X174563629Y-49216542D02*
X174563629Y-48930828D01*
X174563629Y-48930828D02*
X174611248Y-48835590D01*
X174611248Y-48835590D02*
X174658867Y-48787971D01*
X174658867Y-48787971D02*
X174754105Y-48740352D01*
X174754105Y-48740352D02*
X174896962Y-48740352D01*
X174896962Y-48740352D02*
X174992200Y-48787971D01*
X174992200Y-48787971D02*
X175039819Y-48835590D01*
X175039819Y-48835590D02*
X175087438Y-48930828D01*
X175087438Y-48930828D02*
X175087438Y-49216542D01*
X175087438Y-49216542D02*
X175039819Y-49311780D01*
X175039819Y-49311780D02*
X174992200Y-49359400D01*
X174992200Y-49359400D02*
X174896962Y-49407019D01*
X174896962Y-49407019D02*
X174754105Y-49407019D01*
X175944581Y-48740352D02*
X175944581Y-49549876D01*
X175944581Y-49549876D02*
X175896962Y-49645114D01*
X175896962Y-49645114D02*
X175849343Y-49692733D01*
X175849343Y-49692733D02*
X175754105Y-49740352D01*
X175754105Y-49740352D02*
X175611248Y-49740352D01*
X175611248Y-49740352D02*
X175516010Y-49692733D01*
X175944581Y-49359400D02*
X175849343Y-49407019D01*
X175849343Y-49407019D02*
X175658867Y-49407019D01*
X175658867Y-49407019D02*
X175563629Y-49359400D01*
X175563629Y-49359400D02*
X175516010Y-49311780D01*
X175516010Y-49311780D02*
X175468391Y-49216542D01*
X175468391Y-49216542D02*
X175468391Y-48930828D01*
X175468391Y-48930828D02*
X175516010Y-48835590D01*
X175516010Y-48835590D02*
X175563629Y-48787971D01*
X175563629Y-48787971D02*
X175658867Y-48740352D01*
X175658867Y-48740352D02*
X175849343Y-48740352D01*
X175849343Y-48740352D02*
X175944581Y-48787971D01*
X176420772Y-49407019D02*
X176420772Y-48740352D01*
X176420772Y-48930828D02*
X176468391Y-48835590D01*
X176468391Y-48835590D02*
X176516010Y-48787971D01*
X176516010Y-48787971D02*
X176611248Y-48740352D01*
X176611248Y-48740352D02*
X176706486Y-48740352D01*
X177468391Y-49407019D02*
X177468391Y-48883209D01*
X177468391Y-48883209D02*
X177420772Y-48787971D01*
X177420772Y-48787971D02*
X177325534Y-48740352D01*
X177325534Y-48740352D02*
X177135058Y-48740352D01*
X177135058Y-48740352D02*
X177039820Y-48787971D01*
X177468391Y-49359400D02*
X177373153Y-49407019D01*
X177373153Y-49407019D02*
X177135058Y-49407019D01*
X177135058Y-49407019D02*
X177039820Y-49359400D01*
X177039820Y-49359400D02*
X176992201Y-49264161D01*
X176992201Y-49264161D02*
X176992201Y-49168923D01*
X176992201Y-49168923D02*
X177039820Y-49073685D01*
X177039820Y-49073685D02*
X177135058Y-49026066D01*
X177135058Y-49026066D02*
X177373153Y-49026066D01*
X177373153Y-49026066D02*
X177468391Y-48978447D01*
X177944582Y-49407019D02*
X177944582Y-48740352D01*
X177944582Y-48835590D02*
X177992201Y-48787971D01*
X177992201Y-48787971D02*
X178087439Y-48740352D01*
X178087439Y-48740352D02*
X178230296Y-48740352D01*
X178230296Y-48740352D02*
X178325534Y-48787971D01*
X178325534Y-48787971D02*
X178373153Y-48883209D01*
X178373153Y-48883209D02*
X178373153Y-49407019D01*
X178373153Y-48883209D02*
X178420772Y-48787971D01*
X178420772Y-48787971D02*
X178516010Y-48740352D01*
X178516010Y-48740352D02*
X178658867Y-48740352D01*
X178658867Y-48740352D02*
X178754106Y-48787971D01*
X178754106Y-48787971D02*
X178801725Y-48883209D01*
X178801725Y-48883209D02*
X178801725Y-49407019D01*
X179277915Y-49407019D02*
X179277915Y-48740352D01*
X179277915Y-48835590D02*
X179325534Y-48787971D01*
X179325534Y-48787971D02*
X179420772Y-48740352D01*
X179420772Y-48740352D02*
X179563629Y-48740352D01*
X179563629Y-48740352D02*
X179658867Y-48787971D01*
X179658867Y-48787971D02*
X179706486Y-48883209D01*
X179706486Y-48883209D02*
X179706486Y-49407019D01*
X179706486Y-48883209D02*
X179754105Y-48787971D01*
X179754105Y-48787971D02*
X179849343Y-48740352D01*
X179849343Y-48740352D02*
X179992200Y-48740352D01*
X179992200Y-48740352D02*
X180087439Y-48787971D01*
X180087439Y-48787971D02*
X180135058Y-48883209D01*
X180135058Y-48883209D02*
X180135058Y-49407019D01*
X180992200Y-49359400D02*
X180896962Y-49407019D01*
X180896962Y-49407019D02*
X180706486Y-49407019D01*
X180706486Y-49407019D02*
X180611248Y-49359400D01*
X180611248Y-49359400D02*
X180563629Y-49264161D01*
X180563629Y-49264161D02*
X180563629Y-48883209D01*
X180563629Y-48883209D02*
X180611248Y-48787971D01*
X180611248Y-48787971D02*
X180706486Y-48740352D01*
X180706486Y-48740352D02*
X180896962Y-48740352D01*
X180896962Y-48740352D02*
X180992200Y-48787971D01*
X180992200Y-48787971D02*
X181039819Y-48883209D01*
X181039819Y-48883209D02*
X181039819Y-48978447D01*
X181039819Y-48978447D02*
X180563629Y-49073685D01*
X181468391Y-49407019D02*
X181468391Y-48740352D01*
X181468391Y-48930828D02*
X181516010Y-48835590D01*
X181516010Y-48835590D02*
X181563629Y-48787971D01*
X181563629Y-48787971D02*
X181658867Y-48740352D01*
X181658867Y-48740352D02*
X181754105Y-48740352D01*
X182849344Y-49407019D02*
X182849344Y-48407019D01*
X182849344Y-48407019D02*
X183230296Y-48407019D01*
X183230296Y-48407019D02*
X183325534Y-48454638D01*
X183325534Y-48454638D02*
X183373153Y-48502257D01*
X183373153Y-48502257D02*
X183420772Y-48597495D01*
X183420772Y-48597495D02*
X183420772Y-48740352D01*
X183420772Y-48740352D02*
X183373153Y-48835590D01*
X183373153Y-48835590D02*
X183325534Y-48883209D01*
X183325534Y-48883209D02*
X183230296Y-48930828D01*
X183230296Y-48930828D02*
X182849344Y-48930828D01*
X183992201Y-49407019D02*
X183896963Y-49359400D01*
X183896963Y-49359400D02*
X183849344Y-49311780D01*
X183849344Y-49311780D02*
X183801725Y-49216542D01*
X183801725Y-49216542D02*
X183801725Y-48930828D01*
X183801725Y-48930828D02*
X183849344Y-48835590D01*
X183849344Y-48835590D02*
X183896963Y-48787971D01*
X183896963Y-48787971D02*
X183992201Y-48740352D01*
X183992201Y-48740352D02*
X184135058Y-48740352D01*
X184135058Y-48740352D02*
X184230296Y-48787971D01*
X184230296Y-48787971D02*
X184277915Y-48835590D01*
X184277915Y-48835590D02*
X184325534Y-48930828D01*
X184325534Y-48930828D02*
X184325534Y-49216542D01*
X184325534Y-49216542D02*
X184277915Y-49311780D01*
X184277915Y-49311780D02*
X184230296Y-49359400D01*
X184230296Y-49359400D02*
X184135058Y-49407019D01*
X184135058Y-49407019D02*
X183992201Y-49407019D01*
X184754106Y-49407019D02*
X184754106Y-48740352D01*
X184754106Y-48930828D02*
X184801725Y-48835590D01*
X184801725Y-48835590D02*
X184849344Y-48787971D01*
X184849344Y-48787971D02*
X184944582Y-48740352D01*
X184944582Y-48740352D02*
X185039820Y-48740352D01*
X185230297Y-48740352D02*
X185611249Y-48740352D01*
X185373154Y-48407019D02*
X185373154Y-49264161D01*
X185373154Y-49264161D02*
X185420773Y-49359400D01*
X185420773Y-49359400D02*
X185516011Y-49407019D01*
X185516011Y-49407019D02*
X185611249Y-49407019D01*
X97984155Y-71592023D02*
X97984155Y-70592023D01*
X97984155Y-70592023D02*
X98222250Y-70592023D01*
X98222250Y-70592023D02*
X98365107Y-70639642D01*
X98365107Y-70639642D02*
X98460345Y-70734880D01*
X98460345Y-70734880D02*
X98507964Y-70830118D01*
X98507964Y-70830118D02*
X98555583Y-71020594D01*
X98555583Y-71020594D02*
X98555583Y-71163451D01*
X98555583Y-71163451D02*
X98507964Y-71353927D01*
X98507964Y-71353927D02*
X98460345Y-71449165D01*
X98460345Y-71449165D02*
X98365107Y-71544404D01*
X98365107Y-71544404D02*
X98222250Y-71592023D01*
X98222250Y-71592023D02*
X97984155Y-71592023D01*
X99317488Y-71068213D02*
X99460345Y-71115832D01*
X99460345Y-71115832D02*
X99507964Y-71163451D01*
X99507964Y-71163451D02*
X99555583Y-71258689D01*
X99555583Y-71258689D02*
X99555583Y-71401546D01*
X99555583Y-71401546D02*
X99507964Y-71496784D01*
X99507964Y-71496784D02*
X99460345Y-71544404D01*
X99460345Y-71544404D02*
X99365107Y-71592023D01*
X99365107Y-71592023D02*
X98984155Y-71592023D01*
X98984155Y-71592023D02*
X98984155Y-70592023D01*
X98984155Y-70592023D02*
X99317488Y-70592023D01*
X99317488Y-70592023D02*
X99412726Y-70639642D01*
X99412726Y-70639642D02*
X99460345Y-70687261D01*
X99460345Y-70687261D02*
X99507964Y-70782499D01*
X99507964Y-70782499D02*
X99507964Y-70877737D01*
X99507964Y-70877737D02*
X99460345Y-70972975D01*
X99460345Y-70972975D02*
X99412726Y-71020594D01*
X99412726Y-71020594D02*
X99317488Y-71068213D01*
X99317488Y-71068213D02*
X98984155Y-71068213D01*
X100460345Y-70592023D02*
X99984155Y-70592023D01*
X99984155Y-70592023D02*
X99936536Y-71068213D01*
X99936536Y-71068213D02*
X99984155Y-71020594D01*
X99984155Y-71020594D02*
X100079393Y-70972975D01*
X100079393Y-70972975D02*
X100317488Y-70972975D01*
X100317488Y-70972975D02*
X100412726Y-71020594D01*
X100412726Y-71020594D02*
X100460345Y-71068213D01*
X100460345Y-71068213D02*
X100507964Y-71163451D01*
X100507964Y-71163451D02*
X100507964Y-71401546D01*
X100507964Y-71401546D02*
X100460345Y-71496784D01*
X100460345Y-71496784D02*
X100412726Y-71544404D01*
X100412726Y-71544404D02*
X100317488Y-71592023D01*
X100317488Y-71592023D02*
X100079393Y-71592023D01*
X100079393Y-71592023D02*
X99984155Y-71544404D01*
X99984155Y-71544404D02*
X99936536Y-71496784D01*
X118337459Y-93523848D02*
X118670792Y-94523848D01*
X118670792Y-94523848D02*
X119004125Y-93523848D01*
X119908887Y-94428609D02*
X119861268Y-94476229D01*
X119861268Y-94476229D02*
X119718411Y-94523848D01*
X119718411Y-94523848D02*
X119623173Y-94523848D01*
X119623173Y-94523848D02*
X119480316Y-94476229D01*
X119480316Y-94476229D02*
X119385078Y-94380990D01*
X119385078Y-94380990D02*
X119337459Y-94285752D01*
X119337459Y-94285752D02*
X119289840Y-94095276D01*
X119289840Y-94095276D02*
X119289840Y-93952419D01*
X119289840Y-93952419D02*
X119337459Y-93761943D01*
X119337459Y-93761943D02*
X119385078Y-93666705D01*
X119385078Y-93666705D02*
X119480316Y-93571467D01*
X119480316Y-93571467D02*
X119623173Y-93523848D01*
X119623173Y-93523848D02*
X119718411Y-93523848D01*
X119718411Y-93523848D02*
X119861268Y-93571467D01*
X119861268Y-93571467D02*
X119908887Y-93619086D01*
X120908887Y-94428609D02*
X120861268Y-94476229D01*
X120861268Y-94476229D02*
X120718411Y-94523848D01*
X120718411Y-94523848D02*
X120623173Y-94523848D01*
X120623173Y-94523848D02*
X120480316Y-94476229D01*
X120480316Y-94476229D02*
X120385078Y-94380990D01*
X120385078Y-94380990D02*
X120337459Y-94285752D01*
X120337459Y-94285752D02*
X120289840Y-94095276D01*
X120289840Y-94095276D02*
X120289840Y-93952419D01*
X120289840Y-93952419D02*
X120337459Y-93761943D01*
X120337459Y-93761943D02*
X120385078Y-93666705D01*
X120385078Y-93666705D02*
X120480316Y-93571467D01*
X120480316Y-93571467D02*
X120623173Y-93523848D01*
X120623173Y-93523848D02*
X120718411Y-93523848D01*
X120718411Y-93523848D02*
X120861268Y-93571467D01*
X120861268Y-93571467D02*
X120908887Y-93619086D01*
X98023409Y-74114882D02*
X98023409Y-73114882D01*
X98023409Y-73114882D02*
X98261504Y-73114882D01*
X98261504Y-73114882D02*
X98404361Y-73162501D01*
X98404361Y-73162501D02*
X98499599Y-73257739D01*
X98499599Y-73257739D02*
X98547218Y-73352977D01*
X98547218Y-73352977D02*
X98594837Y-73543453D01*
X98594837Y-73543453D02*
X98594837Y-73686310D01*
X98594837Y-73686310D02*
X98547218Y-73876786D01*
X98547218Y-73876786D02*
X98499599Y-73972024D01*
X98499599Y-73972024D02*
X98404361Y-74067263D01*
X98404361Y-74067263D02*
X98261504Y-74114882D01*
X98261504Y-74114882D02*
X98023409Y-74114882D01*
X99356742Y-73591072D02*
X99499599Y-73638691D01*
X99499599Y-73638691D02*
X99547218Y-73686310D01*
X99547218Y-73686310D02*
X99594837Y-73781548D01*
X99594837Y-73781548D02*
X99594837Y-73924405D01*
X99594837Y-73924405D02*
X99547218Y-74019643D01*
X99547218Y-74019643D02*
X99499599Y-74067263D01*
X99499599Y-74067263D02*
X99404361Y-74114882D01*
X99404361Y-74114882D02*
X99023409Y-74114882D01*
X99023409Y-74114882D02*
X99023409Y-73114882D01*
X99023409Y-73114882D02*
X99356742Y-73114882D01*
X99356742Y-73114882D02*
X99451980Y-73162501D01*
X99451980Y-73162501D02*
X99499599Y-73210120D01*
X99499599Y-73210120D02*
X99547218Y-73305358D01*
X99547218Y-73305358D02*
X99547218Y-73400596D01*
X99547218Y-73400596D02*
X99499599Y-73495834D01*
X99499599Y-73495834D02*
X99451980Y-73543453D01*
X99451980Y-73543453D02*
X99356742Y-73591072D01*
X99356742Y-73591072D02*
X99023409Y-73591072D01*
X100451980Y-73114882D02*
X100261504Y-73114882D01*
X100261504Y-73114882D02*
X100166266Y-73162501D01*
X100166266Y-73162501D02*
X100118647Y-73210120D01*
X100118647Y-73210120D02*
X100023409Y-73352977D01*
X100023409Y-73352977D02*
X99975790Y-73543453D01*
X99975790Y-73543453D02*
X99975790Y-73924405D01*
X99975790Y-73924405D02*
X100023409Y-74019643D01*
X100023409Y-74019643D02*
X100071028Y-74067263D01*
X100071028Y-74067263D02*
X100166266Y-74114882D01*
X100166266Y-74114882D02*
X100356742Y-74114882D01*
X100356742Y-74114882D02*
X100451980Y-74067263D01*
X100451980Y-74067263D02*
X100499599Y-74019643D01*
X100499599Y-74019643D02*
X100547218Y-73924405D01*
X100547218Y-73924405D02*
X100547218Y-73686310D01*
X100547218Y-73686310D02*
X100499599Y-73591072D01*
X100499599Y-73591072D02*
X100451980Y-73543453D01*
X100451980Y-73543453D02*
X100356742Y-73495834D01*
X100356742Y-73495834D02*
X100166266Y-73495834D01*
X100166266Y-73495834D02*
X100071028Y-73543453D01*
X100071028Y-73543453D02*
X100023409Y-73591072D01*
X100023409Y-73591072D02*
X99975790Y-73686310D01*
X99958493Y-81542615D02*
X99958493Y-80542615D01*
X100529921Y-81542615D02*
X100101350Y-80971186D01*
X100529921Y-80542615D02*
X99958493Y-81114043D01*
X99910874Y-78713289D02*
X100387064Y-78713289D01*
X99815636Y-78999004D02*
X100148969Y-77999004D01*
X100148969Y-77999004D02*
X100482302Y-78999004D01*
X97944900Y-69079720D02*
X97944900Y-68079720D01*
X97944900Y-68079720D02*
X98182995Y-68079720D01*
X98182995Y-68079720D02*
X98325852Y-68127339D01*
X98325852Y-68127339D02*
X98421090Y-68222577D01*
X98421090Y-68222577D02*
X98468709Y-68317815D01*
X98468709Y-68317815D02*
X98516328Y-68508291D01*
X98516328Y-68508291D02*
X98516328Y-68651148D01*
X98516328Y-68651148D02*
X98468709Y-68841624D01*
X98468709Y-68841624D02*
X98421090Y-68936862D01*
X98421090Y-68936862D02*
X98325852Y-69032101D01*
X98325852Y-69032101D02*
X98182995Y-69079720D01*
X98182995Y-69079720D02*
X97944900Y-69079720D01*
X99278233Y-68555910D02*
X99421090Y-68603529D01*
X99421090Y-68603529D02*
X99468709Y-68651148D01*
X99468709Y-68651148D02*
X99516328Y-68746386D01*
X99516328Y-68746386D02*
X99516328Y-68889243D01*
X99516328Y-68889243D02*
X99468709Y-68984481D01*
X99468709Y-68984481D02*
X99421090Y-69032101D01*
X99421090Y-69032101D02*
X99325852Y-69079720D01*
X99325852Y-69079720D02*
X98944900Y-69079720D01*
X98944900Y-69079720D02*
X98944900Y-68079720D01*
X98944900Y-68079720D02*
X99278233Y-68079720D01*
X99278233Y-68079720D02*
X99373471Y-68127339D01*
X99373471Y-68127339D02*
X99421090Y-68174958D01*
X99421090Y-68174958D02*
X99468709Y-68270196D01*
X99468709Y-68270196D02*
X99468709Y-68365434D01*
X99468709Y-68365434D02*
X99421090Y-68460672D01*
X99421090Y-68460672D02*
X99373471Y-68508291D01*
X99373471Y-68508291D02*
X99278233Y-68555910D01*
X99278233Y-68555910D02*
X98944900Y-68555910D01*
X100373471Y-68413053D02*
X100373471Y-69079720D01*
X100135376Y-68032101D02*
X99897281Y-68746386D01*
X99897281Y-68746386D02*
X100516328Y-68746386D01*
%TO.C,RV1*%
X121324761Y-43642619D02*
X120991428Y-43166428D01*
X120753333Y-43642619D02*
X120753333Y-42642619D01*
X120753333Y-42642619D02*
X121134285Y-42642619D01*
X121134285Y-42642619D02*
X121229523Y-42690238D01*
X121229523Y-42690238D02*
X121277142Y-42737857D01*
X121277142Y-42737857D02*
X121324761Y-42833095D01*
X121324761Y-42833095D02*
X121324761Y-42975952D01*
X121324761Y-42975952D02*
X121277142Y-43071190D01*
X121277142Y-43071190D02*
X121229523Y-43118809D01*
X121229523Y-43118809D02*
X121134285Y-43166428D01*
X121134285Y-43166428D02*
X120753333Y-43166428D01*
X121610476Y-42642619D02*
X121943809Y-43642619D01*
X121943809Y-43642619D02*
X122277142Y-42642619D01*
X123134285Y-43642619D02*
X122562857Y-43642619D01*
X122848571Y-43642619D02*
X122848571Y-42642619D01*
X122848571Y-42642619D02*
X122753333Y-42785476D01*
X122753333Y-42785476D02*
X122658095Y-42880714D01*
X122658095Y-42880714D02*
X122562857Y-42928333D01*
%TO.C,U2*%
X123698095Y-98852619D02*
X123698095Y-99662142D01*
X123698095Y-99662142D02*
X123745714Y-99757380D01*
X123745714Y-99757380D02*
X123793333Y-99805000D01*
X123793333Y-99805000D02*
X123888571Y-99852619D01*
X123888571Y-99852619D02*
X124079047Y-99852619D01*
X124079047Y-99852619D02*
X124174285Y-99805000D01*
X124174285Y-99805000D02*
X124221904Y-99757380D01*
X124221904Y-99757380D02*
X124269523Y-99662142D01*
X124269523Y-99662142D02*
X124269523Y-98852619D01*
X124698095Y-98947857D02*
X124745714Y-98900238D01*
X124745714Y-98900238D02*
X124840952Y-98852619D01*
X124840952Y-98852619D02*
X125079047Y-98852619D01*
X125079047Y-98852619D02*
X125174285Y-98900238D01*
X125174285Y-98900238D02*
X125221904Y-98947857D01*
X125221904Y-98947857D02*
X125269523Y-99043095D01*
X125269523Y-99043095D02*
X125269523Y-99138333D01*
X125269523Y-99138333D02*
X125221904Y-99281190D01*
X125221904Y-99281190D02*
X124650476Y-99852619D01*
X124650476Y-99852619D02*
X125269523Y-99852619D01*
%TO.C,C1*%
X130573628Y-42551890D02*
X130526009Y-42599510D01*
X130526009Y-42599510D02*
X130383152Y-42647129D01*
X130383152Y-42647129D02*
X130287914Y-42647129D01*
X130287914Y-42647129D02*
X130145057Y-42599510D01*
X130145057Y-42599510D02*
X130049819Y-42504271D01*
X130049819Y-42504271D02*
X130002200Y-42409033D01*
X130002200Y-42409033D02*
X129954581Y-42218557D01*
X129954581Y-42218557D02*
X129954581Y-42075700D01*
X129954581Y-42075700D02*
X130002200Y-41885224D01*
X130002200Y-41885224D02*
X130049819Y-41789986D01*
X130049819Y-41789986D02*
X130145057Y-41694748D01*
X130145057Y-41694748D02*
X130287914Y-41647129D01*
X130287914Y-41647129D02*
X130383152Y-41647129D01*
X130383152Y-41647129D02*
X130526009Y-41694748D01*
X130526009Y-41694748D02*
X130573628Y-41742367D01*
X131526009Y-42647129D02*
X130954581Y-42647129D01*
X131240295Y-42647129D02*
X131240295Y-41647129D01*
X131240295Y-41647129D02*
X131145057Y-41789986D01*
X131145057Y-41789986D02*
X131049819Y-41885224D01*
X131049819Y-41885224D02*
X130954581Y-41932843D01*
%TO.C,R1*%
X115930846Y-79223670D02*
X115597513Y-78747479D01*
X115359418Y-79223670D02*
X115359418Y-78223670D01*
X115359418Y-78223670D02*
X115740370Y-78223670D01*
X115740370Y-78223670D02*
X115835608Y-78271289D01*
X115835608Y-78271289D02*
X115883227Y-78318908D01*
X115883227Y-78318908D02*
X115930846Y-78414146D01*
X115930846Y-78414146D02*
X115930846Y-78557003D01*
X115930846Y-78557003D02*
X115883227Y-78652241D01*
X115883227Y-78652241D02*
X115835608Y-78699860D01*
X115835608Y-78699860D02*
X115740370Y-78747479D01*
X115740370Y-78747479D02*
X115359418Y-78747479D01*
X116883227Y-79223670D02*
X116311799Y-79223670D01*
X116597513Y-79223670D02*
X116597513Y-78223670D01*
X116597513Y-78223670D02*
X116502275Y-78366527D01*
X116502275Y-78366527D02*
X116407037Y-78461765D01*
X116407037Y-78461765D02*
X116311799Y-78509384D01*
%TO.C,U1*%
X102337427Y-41655911D02*
X102337427Y-42465434D01*
X102337427Y-42465434D02*
X102385046Y-42560672D01*
X102385046Y-42560672D02*
X102432665Y-42608292D01*
X102432665Y-42608292D02*
X102527903Y-42655911D01*
X102527903Y-42655911D02*
X102718379Y-42655911D01*
X102718379Y-42655911D02*
X102813617Y-42608292D01*
X102813617Y-42608292D02*
X102861236Y-42560672D01*
X102861236Y-42560672D02*
X102908855Y-42465434D01*
X102908855Y-42465434D02*
X102908855Y-41655911D01*
X103908855Y-42655911D02*
X103337427Y-42655911D01*
X103623141Y-42655911D02*
X103623141Y-41655911D01*
X103623141Y-41655911D02*
X103527903Y-41798768D01*
X103527903Y-41798768D02*
X103432665Y-41894006D01*
X103432665Y-41894006D02*
X103337427Y-41941625D01*
D10*
%TO.C,RV1*%
X115410000Y-48700000D02*
X118620000Y-48700000D01*
X115410000Y-46040000D02*
X116080000Y-46040000D01*
X115410000Y-48700000D02*
X115410000Y-46040000D01*
X127760000Y-46040000D02*
X128430000Y-46040000D01*
X128430000Y-48700000D02*
X128430000Y-46040000D01*
X125220000Y-48700000D02*
X128430000Y-48700000D01*
X117600000Y-46040000D02*
X121160000Y-46040000D01*
X120140000Y-48700000D02*
X123700000Y-48700000D01*
X122680000Y-46040000D02*
X126240000Y-46040000D01*
X116080000Y-46040000D02*
X116080000Y-44830000D01*
%TO.C,J2*%
X206940000Y-41870000D02*
X206940000Y-105490000D01*
X206940000Y-41870000D02*
X209540000Y-41870000D01*
X206940000Y-105490000D02*
X212140000Y-105490000D01*
X209540000Y-41870000D02*
X209540000Y-44470000D01*
X209540000Y-44470000D02*
X212140000Y-44470000D01*
X210810000Y-41870000D02*
X212140000Y-41870000D01*
X212140000Y-41870000D02*
X212140000Y-43200000D01*
X212140000Y-44470000D02*
X212140000Y-105490000D01*
%TO.C,J1*%
X156150000Y-41850000D02*
X156150000Y-105470000D01*
X156150000Y-41850000D02*
X158750000Y-41850000D01*
X156150000Y-105470000D02*
X161350000Y-105470000D01*
X158750000Y-41850000D02*
X158750000Y-44450000D01*
X158750000Y-44450000D02*
X161350000Y-44450000D01*
X160020000Y-41850000D02*
X161350000Y-41850000D01*
X161350000Y-41850000D02*
X161350000Y-43180000D01*
X161350000Y-44450000D02*
X161350000Y-105470000D01*
%TO.C,U2*%
X125790000Y-97950000D02*
X125790000Y-94740000D01*
X125790000Y-97950000D02*
X123130000Y-97950000D01*
X125790000Y-93220000D02*
X125790000Y-90010000D01*
X125790000Y-90010000D02*
X123130000Y-90010000D01*
X123130000Y-97950000D02*
X123130000Y-97280000D01*
X123130000Y-97280000D02*
X121920000Y-97280000D01*
X123130000Y-95760000D02*
X123130000Y-92200000D01*
X123130000Y-90680000D02*
X123130000Y-90010000D01*
%TO.C,C1*%
X131164420Y-40130000D02*
X131445580Y-40130000D01*
X131164420Y-41150000D02*
X131445580Y-41150000D01*
%TO.C,R1*%
X113237742Y-78217500D02*
X113712258Y-78217500D01*
X113237742Y-79262500D02*
X113712258Y-79262500D01*
%TO.C,U1*%
X106240000Y-41750000D02*
X106240000Y-44960000D01*
X106240000Y-41750000D02*
X108900000Y-41750000D01*
X106240000Y-46480000D02*
X106240000Y-50040000D01*
X106240000Y-51560000D02*
X106240000Y-55120000D01*
X106240000Y-56640000D02*
X106240000Y-60200000D01*
X106240000Y-61720000D02*
X106240000Y-65280000D01*
X106240000Y-66800000D02*
X106240000Y-70360000D01*
X106240000Y-71880000D02*
X106240000Y-75440000D01*
X106240000Y-76960000D02*
X106240000Y-80520000D01*
X106240000Y-82040000D02*
X106240000Y-82710000D01*
X106240000Y-82710000D02*
X108900000Y-82710000D01*
X108900000Y-41750000D02*
X108900000Y-42420000D01*
X108900000Y-42420000D02*
X110110000Y-42420000D01*
X108900000Y-43940000D02*
X108900000Y-47500000D01*
X108900000Y-49020000D02*
X108900000Y-52580000D01*
X108900000Y-54100000D02*
X108900000Y-57660000D01*
X108900000Y-59180000D02*
X108900000Y-62740000D01*
X108900000Y-64260000D02*
X108900000Y-67820000D01*
X108900000Y-69340000D02*
X108900000Y-72900000D01*
X108900000Y-74420000D02*
X108900000Y-77980000D01*
X108900000Y-79500000D02*
X108900000Y-82710000D01*
%TD*%
M02*
