%TF.GenerationSoftware,KiCad,Pcbnew,7.0.1*%
%TF.CreationDate,2023-04-20T13:06:00-06:00*%
%TF.ProjectId,Phase_B_ATMEGA,50686173-655f-4425-9f41-544d4547412e,rev?*%
%TF.SameCoordinates,Original*%
%TF.FileFunction,Paste,Top*%
%TF.FilePolarity,Positive*%
%FSLAX46Y46*%
G04 Gerber Fmt 4.6, Leading zero omitted, Abs format (unit mm)*
G04 Created by KiCad (PCBNEW 7.0.1) date 2023-04-20 13:06:00*
%MOMM*%
%LPD*%
G01*
G04 APERTURE LIST*
G04 Aperture macros list*
%AMRoundRect*
0 Rectangle with rounded corners*
0 $1 Rounding radius*
0 $2 $3 $4 $5 $6 $7 $8 $9 X,Y pos of 4 corners*
0 Add a 4 corners polygon primitive as box body*
4,1,4,$2,$3,$4,$5,$6,$7,$8,$9,$2,$3,0*
0 Add four circle primitives for the rounded corners*
1,1,$1+$1,$2,$3*
1,1,$1+$1,$4,$5*
1,1,$1+$1,$6,$7*
1,1,$1+$1,$8,$9*
0 Add four rect primitives between the rounded corners*
20,1,$1+$1,$2,$3,$4,$5,0*
20,1,$1+$1,$4,$5,$6,$7,0*
20,1,$1+$1,$6,$7,$8,$9,0*
20,1,$1+$1,$8,$9,$2,$3,0*%
G04 Aperture macros list end*
%ADD10RoundRect,0.200000X-0.200000X-0.275000X0.200000X-0.275000X0.200000X0.275000X-0.200000X0.275000X0*%
%ADD11RoundRect,0.250000X-0.262500X-0.450000X0.262500X-0.450000X0.262500X0.450000X-0.262500X0.450000X0*%
%ADD12RoundRect,0.250000X0.262500X0.450000X-0.262500X0.450000X-0.262500X-0.450000X0.262500X-0.450000X0*%
%ADD13RoundRect,0.243750X-0.456250X0.243750X-0.456250X-0.243750X0.456250X-0.243750X0.456250X0.243750X0*%
%ADD14RoundRect,0.200000X0.200000X0.275000X-0.200000X0.275000X-0.200000X-0.275000X0.200000X-0.275000X0*%
%ADD15RoundRect,0.200000X-0.275000X0.200000X-0.275000X-0.200000X0.275000X-0.200000X0.275000X0.200000X0*%
%ADD16R,1.400000X1.200000*%
%ADD17RoundRect,0.225000X0.225000X0.250000X-0.225000X0.250000X-0.225000X-0.250000X0.225000X-0.250000X0*%
%ADD18RoundRect,0.100000X-0.637500X-0.100000X0.637500X-0.100000X0.637500X0.100000X-0.637500X0.100000X0*%
%ADD19R,2.000000X0.500000*%
%ADD20R,1.700000X2.000000*%
%ADD21RoundRect,0.250000X0.450000X-0.262500X0.450000X0.262500X-0.450000X0.262500X-0.450000X-0.262500X0*%
%ADD22RoundRect,0.250000X-0.450000X0.262500X-0.450000X-0.262500X0.450000X-0.262500X0.450000X0.262500X0*%
%ADD23R,1.500000X0.550000*%
%ADD24R,0.550000X1.500000*%
%ADD25RoundRect,0.243750X0.243750X0.456250X-0.243750X0.456250X-0.243750X-0.456250X0.243750X-0.456250X0*%
%ADD26RoundRect,0.150000X-0.512500X-0.150000X0.512500X-0.150000X0.512500X0.150000X-0.512500X0.150000X0*%
%ADD27R,1.000000X0.700000*%
%ADD28R,1.500000X2.000000*%
%ADD29RoundRect,0.225000X-0.250000X0.225000X-0.250000X-0.225000X0.250000X-0.225000X0.250000X0.225000X0*%
%ADD30RoundRect,0.225000X-0.225000X-0.250000X0.225000X-0.250000X0.225000X0.250000X-0.225000X0.250000X0*%
%ADD31RoundRect,0.250000X1.450000X-0.312500X1.450000X0.312500X-1.450000X0.312500X-1.450000X-0.312500X0*%
%ADD32RoundRect,0.225000X0.250000X-0.225000X0.250000X0.225000X-0.250000X0.225000X-0.250000X-0.225000X0*%
%ADD33RoundRect,0.250000X0.250000X0.475000X-0.250000X0.475000X-0.250000X-0.475000X0.250000X-0.475000X0*%
%ADD34RoundRect,0.150000X-0.150000X0.512500X-0.150000X-0.512500X0.150000X-0.512500X0.150000X0.512500X0*%
G04 APERTURE END LIST*
D10*
%TO.C,R14*%
X106054342Y-114993130D03*
X107704342Y-114993130D03*
%TD*%
D11*
%TO.C,R3*%
X155689631Y-84396966D03*
X157514631Y-84396966D03*
%TD*%
D12*
%TO.C,R4*%
X166242632Y-84375411D03*
X164417632Y-84375411D03*
%TD*%
D13*
%TO.C,D2*%
X164606743Y-80310503D03*
X164606743Y-82185503D03*
%TD*%
%TO.C,D1*%
X157331776Y-80312294D03*
X157331776Y-82187294D03*
%TD*%
D14*
%TO.C,R17*%
X108700802Y-127250000D03*
X107050802Y-127250000D03*
%TD*%
D15*
%TO.C,R13*%
X134950802Y-129576170D03*
X134950802Y-131226170D03*
%TD*%
D16*
%TO.C,Y1*%
X139759998Y-132943900D03*
X141959998Y-132943900D03*
X141959998Y-131243900D03*
X139759998Y-131243900D03*
%TD*%
D17*
%TO.C,C13*%
X110009903Y-120147281D03*
X108459903Y-120147281D03*
%TD*%
D18*
%TO.C,U2*%
X122850216Y-99850000D03*
X122850216Y-100500000D03*
X122850216Y-101150000D03*
X122850216Y-101800000D03*
X122850216Y-102450000D03*
X122850216Y-103100000D03*
X122850216Y-103750000D03*
X122850216Y-104400000D03*
X128575216Y-104400000D03*
X128575216Y-103750000D03*
X128575216Y-103100000D03*
X128575216Y-102450000D03*
X128575216Y-101800000D03*
X128575216Y-101150000D03*
X128575216Y-100500000D03*
X128575216Y-99850000D03*
%TD*%
D19*
%TO.C,J2*%
X102743708Y-112996239D03*
X102743708Y-113796239D03*
X102743708Y-114596239D03*
X102743708Y-115396239D03*
X102743708Y-116196239D03*
D20*
X102643708Y-110146239D03*
X97193708Y-110146239D03*
X102643708Y-119046239D03*
X97193708Y-119046239D03*
%TD*%
D17*
%TO.C,C1*%
X124112622Y-106000000D03*
X122562622Y-106000000D03*
%TD*%
D21*
%TO.C,R11*%
X128524442Y-94438953D03*
X128524442Y-92613953D03*
%TD*%
D22*
%TO.C,R5*%
X122026593Y-68037009D03*
X122026593Y-69862009D03*
%TD*%
D21*
%TO.C,R8*%
X121318532Y-94429663D03*
X121318532Y-92604663D03*
%TD*%
D22*
%TO.C,R1*%
X164462559Y-114325742D03*
X164462559Y-116150742D03*
%TD*%
D23*
%TO.C,U3*%
X135474169Y-112205911D03*
X135474169Y-113005911D03*
X135474169Y-113805911D03*
X135474169Y-114605911D03*
X135474169Y-115405911D03*
X135474169Y-116205911D03*
X135474169Y-117005911D03*
X135474169Y-117805911D03*
X135474169Y-118605911D03*
X135474169Y-119405911D03*
X135474169Y-120205911D03*
D24*
X137174169Y-121905911D03*
X137974169Y-121905911D03*
X138774169Y-121905911D03*
X139574169Y-121905911D03*
X140374169Y-121905911D03*
X141174169Y-121905911D03*
X141974169Y-121905911D03*
X142774169Y-121905911D03*
X143574169Y-121905911D03*
X144374169Y-121905911D03*
X145174169Y-121905911D03*
D23*
X146874169Y-120205911D03*
X146874169Y-119405911D03*
X146874169Y-118605911D03*
X146874169Y-117805911D03*
X146874169Y-117005911D03*
X146874169Y-116205911D03*
X146874169Y-115405911D03*
X146874169Y-114605911D03*
X146874169Y-113805911D03*
X146874169Y-113005911D03*
X146874169Y-112205911D03*
D24*
X145174169Y-110505911D03*
X144374169Y-110505911D03*
X143574169Y-110505911D03*
X142774169Y-110505911D03*
X141974169Y-110505911D03*
X141174169Y-110505911D03*
X140374169Y-110505911D03*
X139574169Y-110505911D03*
X138774169Y-110505911D03*
X137974169Y-110505911D03*
X137174169Y-110505911D03*
%TD*%
D25*
%TO.C,D3*%
X108018646Y-101663149D03*
X106143646Y-101663149D03*
%TD*%
D26*
%TO.C,U4*%
X112619758Y-113256869D03*
X112619758Y-114206869D03*
X112619758Y-115156869D03*
X114894758Y-115156869D03*
X114894758Y-114206869D03*
X114894758Y-113256869D03*
%TD*%
D27*
%TO.C,S3*%
X134940042Y-136513920D03*
X128940042Y-136513920D03*
X134940042Y-132813920D03*
X128940042Y-132813920D03*
%TD*%
D28*
%TO.C,S1*%
X164472220Y-96842033D03*
X164472220Y-111142033D03*
X159472220Y-96842033D03*
X159472220Y-111142033D03*
%TD*%
D29*
%TO.C,C15*%
X112450802Y-125225000D03*
X112450802Y-126775000D03*
%TD*%
D17*
%TO.C,C4*%
X136725293Y-108693995D03*
X135175293Y-108693995D03*
%TD*%
D21*
%TO.C,R12*%
X123719383Y-94438953D03*
X123719383Y-92613953D03*
%TD*%
D17*
%TO.C,C5*%
X131257121Y-119175537D03*
X129707121Y-119175537D03*
%TD*%
D22*
%TO.C,R10*%
X124416263Y-68040000D03*
X124416263Y-69865000D03*
%TD*%
D21*
%TO.C,R9*%
X118919572Y-94447718D03*
X118919572Y-92622718D03*
%TD*%
D30*
%TO.C,C14*%
X116819986Y-122790992D03*
X118369986Y-122790992D03*
%TD*%
%TO.C,C6*%
X145617996Y-108500000D03*
X147167996Y-108500000D03*
%TD*%
D22*
%TO.C,R2*%
X181462559Y-114234466D03*
X181462559Y-116059466D03*
%TD*%
D29*
%TO.C,C10*%
X138730510Y-124178286D03*
X138730510Y-125728286D03*
%TD*%
D31*
%TO.C,F1*%
X107354126Y-110157577D03*
X107354126Y-105882577D03*
%TD*%
D28*
%TO.C,S2*%
X181476995Y-96745035D03*
X181476995Y-111045035D03*
X176476995Y-96745035D03*
X176476995Y-111045035D03*
%TD*%
D32*
%TO.C,C12*%
X139153772Y-107605815D03*
X139153772Y-106055815D03*
%TD*%
D17*
%TO.C,C9*%
X131257121Y-117423701D03*
X129707121Y-117423701D03*
%TD*%
D29*
%TO.C,C2*%
X137843533Y-131310397D03*
X137843533Y-132860397D03*
%TD*%
D33*
%TO.C,C8*%
X131842015Y-110782174D03*
X129942015Y-110782174D03*
%TD*%
D34*
%TO.C,U5*%
X114361106Y-120321219D03*
X113411106Y-120321219D03*
X112461106Y-120321219D03*
X112461106Y-122596219D03*
X114361106Y-122596219D03*
%TD*%
D17*
%TO.C,C11*%
X132396282Y-112691213D03*
X130846282Y-112691213D03*
%TD*%
D22*
%TO.C,R6*%
X132059714Y-68039633D03*
X132059714Y-69864633D03*
%TD*%
D21*
%TO.C,R7*%
X126125010Y-94442050D03*
X126125010Y-92617050D03*
%TD*%
D14*
%TO.C,R16*%
X107704391Y-103845702D03*
X106054391Y-103845702D03*
%TD*%
D10*
%TO.C,R15*%
X106056955Y-113425875D03*
X107706955Y-113425875D03*
%TD*%
D29*
%TO.C,C3*%
X143891193Y-131303540D03*
X143891193Y-132853540D03*
%TD*%
%TO.C,C7*%
X149094986Y-119503223D03*
X149094986Y-121053223D03*
%TD*%
M02*
