M48
; DRILL file {KiCad 7.0.1} date Thu Apr 20 13:05:56 2023
; FORMAT={-:-/ absolute / inch / decimal}
; #@! TF.CreationDate,2023-04-20T13:05:56-06:00
; #@! TF.GenerationSoftware,Kicad,Pcbnew,7.0.1
; #@! TF.FileFunction,Plated,1,2,PTH
FMAT,2
INCH
; #@! TA.AperFunction,Plated,PTH,ViaDrill
T1C0.0157
; #@! TA.AperFunction,Plated,PTH,ComponentDrill
T2C0.0394
%
G90
G05
T1
X3.876Y-3.7795
X3.9548Y-3.8878
X4.1614Y-4.6949
X4.3189Y-3.9961
X4.3683Y-5.2954
X4.3842Y-4.5374
X4.3845Y-4.4314
X4.4Y-4.8819
X4.4073Y-5.3345
X4.4567Y-4.8819
X4.4764Y-4.5866
X4.4961Y-3.9035
X4.4961Y-3.9764
X4.6044Y-4.9705
X4.6077Y-3.9746
X4.6293Y-3.8989
X4.647Y-3.9767
X4.6543Y-3.8484
X4.7028Y-3.9035
X4.7028Y-3.9587
X4.7095Y-3.8255
X4.7101Y-3.8648
X4.7323Y-2.7362
X4.7422Y-3.9035
X4.7422Y-3.9587
X4.7453Y-3.8614
X4.7487Y-3.8222
X4.752Y-2.5727
X4.752Y-2.6556
X4.7618Y-4.1339
X4.7815Y-3.9035
X4.7815Y-3.9587
X4.8039Y-3.87
X4.8039Y-3.8307
X4.8701Y-4.4599
X4.9095Y-4.5327
X4.9311Y-3.87
X4.939Y-2.6004
X4.939Y-2.6556
X4.9882Y-3.878
X5.0041Y-4.866
X5.0223Y-2.7362
X5.0374Y-4.6555
X5.0473Y-4.4094
X5.0571Y-2.5807
X5.0853Y-4.8635
X5.0866Y-2.7953
X5.126Y-4.0079
X5.1359Y-2.6772
X5.138Y-4.7933
X5.138Y-4.8622
X5.1457Y-2.7362
X5.1555Y-3.6122
X5.1555Y-3.8681
X5.1654Y-3.9567
X5.1654Y-3.9961
X5.1654Y-4.0354
X5.1654Y-4.1142
X5.1849Y-3.6613
X5.1972Y-4.7933
X5.1972Y-4.8622
X5.2246Y-3.9961
X5.2246Y-4.0354
X5.2246Y-4.1437
X5.239Y-4.8346
X5.2404Y-4.947
X5.2488Y-4.7821
X5.2816Y-2.6772
X5.2816Y-2.7362
X5.3612Y-4.8002
X5.3622Y-5.3445
X5.4095Y-4.9095
X5.4219Y-4.9809
X5.4311Y-4.2618
X5.5Y-5.1083
X5.5197Y-4.9508
X5.5466Y-4.9795
X5.5757Y-4.9303
X5.5886Y-5.2854
X5.6835Y-4.907
X5.689Y-4.946
X5.7617Y-4.9114
X5.7617Y-4.9508
X5.8544Y-4.3406
X5.8571Y-3.9685
X5.8642Y-4.063
X5.8662Y-4.0965
X5.8756Y-2.7347
X5.8922Y-4.0078
X5.9268Y-4.1207
X5.9302Y-4.0326
X5.9331Y-4.1732
X5.9331Y-4.7638
X5.9541Y-4.0924
X5.9819Y-4.0646
X5.9823Y-2.8445
X6.002Y-4.5082
X6.002Y-4.4529
X6.0314Y-4.075
X6.0414Y-4.5082
X6.0414Y-4.4529
X6.0631Y-3.8997
X6.0656Y-3.9809
X6.0807Y-4.4529
X6.0807Y-4.5082
X6.3381Y-3.0893
X6.4055Y-4.4783
X6.4055Y-4.5885
X6.4055Y-4.6971
X6.4792Y-4.6673
X6.5433Y-4.4783
X6.5433Y-4.5177
X6.5433Y-4.6437
X6.5433Y-4.6831
X6.6713Y-3.7298
X6.6713Y-3.789
X6.7106Y-3.7298
X6.7106Y-3.789
X6.8091Y-4.5716
X7.0847Y-4.5357
X7.0847Y-4.6831
T2
X4.3166Y-5.1297
X4.3166Y-5.2297
X4.4166Y-5.1297
X4.4166Y-5.2297
X4.5166Y-5.1297
X4.5166Y-5.2297
X4.6166Y-5.1297
X4.6166Y-5.2297
X4.6947Y-2.8978
X4.6947Y-3.4978
X4.7947Y-2.8978
X4.7947Y-3.4978
X4.8947Y-2.8978
X4.8947Y-3.4978
X4.9141Y-4.9342
X4.9141Y-5.0342
X4.9947Y-2.8978
X4.9947Y-3.4978
X5.0141Y-4.9342
X5.0141Y-5.0342
X5.0947Y-2.8978
X5.0947Y-3.4978
X5.1141Y-4.9342
X5.1141Y-5.0342
X5.1947Y-2.8978
X5.1947Y-3.4978
X6.8159Y-3.1988
X7.1151Y-3.1988
T0
M30
