0
SECTION
2
HEADER
9
$INSUNITS
70
4
9
$ACADVER
1
AC1014
9
$HANDSEED
5
FFFF
0
ENDSEC
0
SECTION
2
TABLES
0
TABLE
2
VPORT
5
8
100
AcDbSymbolTable
0
ENDTAB
0
TABLE
2
LTYPE
5
5
100
AcDbSymbolTable
0
LTYPE
5
14
100
AcDbSymbolTableRecord
100
AcDbLinetypeTableRecord
2
BYBLOCK
70
0
0
LTYPE
5
15
100
AcDbSymbolTableRecord
100
AcDbLinetypeTableRecord
2
BYLAYER
70
0
0
ENDTAB
0
TABLE
2
LAYER
5
2
100
AcDbSymbolTable
70
2
0
LAYER
5
50
100
AcDbSymbolTableRecord
100
AcDbLayerTableRecord
2
0
70
0
6
CONTINUOUS
0
ENDTAB
0
TABLE
2
STYLE
5
3
100
AcDbSymbolTable
70
1
0
STYLE
5
11
100
AcDbSymbolTableRecord
100
AcDbTextStyleTableRecord
2
STANDARD
70
0
0
ENDTAB
0
TABLE
2
VIEW
5
6
100
AcDbSymbolTable
70
0
0
ENDTAB
0
TABLE
2
UCS
5
7
100
AcDbSymbolTable
70
0
0
ENDTAB
0
TABLE
2
APPID
5
9
100
AcDbSymbolTable
70
2
0
APPID
5
12
100
AcDbSymbolTableRecord
100
AcDbRegAppTableRecord
2
ACAD
70
0
0
ENDTAB
0
TABLE
2
DIMSTYLE
5
A
100
AcDbSymbolTable
70
1
0
ENDTAB
0
TABLE
2
BLOCK_RECORD
5
1
100
AcDbSymbolTable
70
1
0
BLOCK_RECORD
5
1F
100
AcDbSymbolTableRecord
100
AcDbBlockTableRecord
2
*MODEL_SPACE
0
BLOCK_RECORD
5
1B
100
AcDbSymbolTableRecord
100
AcDbBlockTableRecord
2
*PAPER_SPACE
0
ENDTAB
0
ENDSEC
0
SECTION
2
BLOCKS
0
BLOCK
5
20
100
AcDbEntity
100
AcDbBlockBegin
2
*MODEL_SPACE
0
ENDBLK
5
21
100
AcDbEntity
100
AcDbBlockEnd
0
BLOCK
5
1C
100
AcDbEntity
100
AcDbBlockBegin
2
*PAPER_SPACE
0
ENDBLK
5
1D
100
AcDbEntity
100
AcDbBlockEnd
0
ENDSEC
0
SECTION
2
ENTITIES
0
LWPOLYLINE
5
100
100
AcDbEntity
8
0
100
AcDbPolyline
90
4
70
1
43
0.0
10
-46.522110807087458
20
36.580106918864914
10
48.477889192912542
20
36.580106918864914
10
48.477889192912535
20
-40.419893081135086
10
-46.522110807087465
20
-40.419893081135086
0
LWPOLYLINE
5
101
100
AcDbEntity
8
0
100
AcDbPolyline
90
4
70
1
43
0.0
10
-41.222110807087461
20
28.580106918864914
10
9.5778891929125312
20
28.580106918864914
10
9.5778891929125329
20
9.0801069188649137
10
-41.222110807087454
20
9.0801069188649137
0
CIRCLE
5
102
100
AcDbEntity
8
0
100
AcDbCircle
10
-41.522110807087458
20
31.580106918864914
30
0
40
1.6000000000000014
210
0
220
0
230
1
0
CIRCLE
5
103
100
AcDbEntity
8
0
100
AcDbCircle
10
43.477889192912542
20
31.580106918864914
30
0
40
1.6000000000000014
210
0
220
0
230
1
0
CIRCLE
5
104
100
AcDbEntity
8
0
100
AcDbCircle
10
43.477889192912542
20
-35.419893081135086
30
0
40
1.6000000000000003
210
0
220
0
230
1
0
CIRCLE
5
105
100
AcDbEntity
8
0
100
AcDbCircle
10
-41.522110807087465
20
-35.419893081135086
30
0
40
1.6000000000000039
210
0
220
0
230
1
0
LWPOLYLINE
5
106
100
AcDbEntity
8
0
100
AcDbPolyline
90
4
70
1
43
0.0
10
-20.383050807087454
20
32.805106918864915
10
-18.483050807087455
20
32.805106918864915
10
-18.483050807087448
20
29.445106918864916
10
-20.383050807087454
20
29.445106918864916
0
LWPOLYLINE
5
107
100
AcDbEntity
8
0
100
AcDbPolyline
90
4
70
1
43
0.0
10
-16.083050807087453
20
29.445106918864916
10
-17.983050807087455
20
29.445106918864916
10
-17.983050807087452
20
32.805106918864915
10
-16.083050807087453
20
32.805106918864915
0
LWPOLYLINE
5
108
100
AcDbEntity
8
0
100
AcDbPolyline
90
4
70
1
43
0.0
10
-8.4330508070874526
20
32.805106918864915
10
-8.4330508070874526
20
29.445106918864916
10
-10.333050807087451
20
29.445106918864916
10
-10.333050807087451
20
32.805106918864915
0
LWPOLYLINE
5
109
100
AcDbEntity
8
0
100
AcDbPolyline
90
4
70
1
43
0.0
10
-21.572110807087455
20
4.8551069188649123
10
-23.472110807087454
20
4.8551069188649123
10
-23.472110807087454
20
8.2151069188649135
10
-21.572110807087455
20
8.2151069188649206
0
LWPOLYLINE
5
110
100
AcDbEntity
8
0
100
AcDbPolyline
90
4
70
1
43
0.0
10
-19.172110807087424
20
8.2151069188649206
10
-19.172110807087428
20
4.8551069188649194
10
-21.072110807087455
20
4.8551069188649194
10
-21.072110807087423
20
8.2151069188649206
0
LWPOLYLINE
5
111
100
AcDbEntity
8
0
100
AcDbPolyline
90
4
70
1
43
0.0
10
-16.772110807087422
20
8.2151069188649206
10
-16.772110807087422
20
4.8551069188649203
10
-18.672110807087424
20
4.8551069188649203
10
-18.672110807087424
20
8.2151069188649206
0
LWPOLYLINE
5
112
100
AcDbEntity
8
0
100
AcDbPolyline
90
4
70
1
43
0.0
10
-14.372110807087424
20
8.2151069188649206
10
-14.372110807087424
20
4.8551069188649203
10
-16.272110807087422
20
4.8551069188649203
10
-16.272110807087422
20
8.2151069188649206
0
LWPOLYLINE
5
113
100
AcDbEntity
8
0
100
AcDbPolyline
90
4
70
1
43
0.0
10
-11.972110807087423
20
8.2151069188649206
10
-11.972110807087423
20
4.8551069188649203
10
-13.872110807087424
20
4.8551069188649203
10
-13.872110807087424
20
8.2151069188649206
0
LINE
5
114
100
AcDbEntity
8
0
100
AcDbLine
10
-19.587110807087395
20
0.70710691886492039
30
0
11
-11.887110807087396
21
0.70710691886492039
31
0
0
LINE
5
115
100
AcDbEntity
8
0
100
AcDbLine
10
-11.887110807087396
20
0.70710691886492039
30
0
11
-11.887110807087396
21
-4.7928930811350803
31
0
0
LINE
5
116
100
AcDbEntity
8
0
100
AcDbLine
10
-11.887110807087396
20
-4.7928930811350803
30
0
11
-22.188649613682159
21
-4.7928930811350865
31
0
0
LINE
5
117
100
AcDbEntity
8
0
100
AcDbLine
10
-19.587110807087466
20
-4.9128930811350813
30
0
11
-19.587110807087395
21
0.70710691886492039
31
0
0
LWPOLYLINE
5
118
100
AcDbEntity
8
0
100
AcDbPolyline
90
4
70
1
43
0.0
10
-19.587110807087452
20
-4.8928930811350799
10
-16.627110807087451
20
-4.8928930811350799
10
-16.627110807087451
20
-6.3528930811350808
10
-19.587110807087452
20
-6.3528930811350808
0
LINE
5
119
100
AcDbEntity
8
0
100
AcDbLine
10
-47.74211080708745
20
-10.174893081135075
30
0
11
-47.742110807087428
21
-18.874893081135081
31
0
0
LINE
5
120
100
AcDbEntity
8
0
100
AcDbLine
10
-47.74211080708745
20
-10.174893081135075
30
0
11
-45.592110807087479
21
-10.174893081135073
31
0
0
LINE
5
121
100
AcDbEntity
8
0
100
AcDbLine
10
-45.592110807087479
20
-10.174893081135073
30
0
11
-45.592110807087487
21
-8.5748930811350732
31
0
0
LINE
5
122
100
AcDbEntity
8
0
100
AcDbLine
10
-45.592110807087487
20
-8.5748930811350732
30
0
11
-42.892110807087505
21
-8.5748930811350732
31
0
0
LINE
5
123
100
AcDbEntity
8
0
100
AcDbLine
10
-42.892110807087505
20
-8.5748930811350732
30
0
11
-42.892110807087285
21
-9.9948930811351122
31
0
0
LINE
5
124
100
AcDbEntity
8
0
100
AcDbLine
10
-42.892110807087285
20
-9.9948930811351122
30
0
11
-40.142110807087278
21
-9.9948930811350873
31
0
0
LINE
5
125
100
AcDbEntity
8
0
100
AcDbLine
10
-40.142110807087278
20
-9.9948930811350873
30
0
11
-40.142110807087278
21
-8.3948930811350877
31
0
0
LINE
5
126
100
AcDbEntity
8
0
100
AcDbLine
10
-40.142110807087278
20
-8.3948930811350877
30
0
11
-37.442110807087303
21
-8.3948930811350984
31
0
0
LINE
5
127
100
AcDbEntity
8
0
100
AcDbLine
10
-37.442110807087303
20
-8.3948930811350984
30
0
11
-37.442110807087481
21
-10.174893081135078
31
0
0
LINE
5
128
100
AcDbEntity
8
0
100
AcDbLine
10
-37.442110807087481
20
-10.174893081135078
30
0
11
-37.442110807087481
21
-18.874893081135081
31
0
0
LINE
5
129
100
AcDbEntity
8
0
100
AcDbLine
10
-37.442110807087481
20
-18.874893081135081
30
0
11
-37.442110807087481
21
-20.474893081135093
31
0
0
LWPOLYLINE
5
130
100
AcDbEntity
8
0
100
AcDbPolyline
90
4
70
1
43
0.0
10
-36.042110807087482
20
-5.000000074505806
10
-32.142110807087491
20
-5.000000074505806
10
-32.142110807087491
20
-10.900000074505806
10
-36.042110807087482
20
-10.900000074505806
0
LWPOLYLINE
5
131
100
AcDbEntity
8
0
100
AcDbPolyline
90
4
70
1
43
0.0
10
-36.042110807087489
20
-12.624893081135101
10
-33.082110807087489
20
-12.624893081135101
10
-33.082110807087489
20
-14.0848930811351
10
-36.042110807087489
20
-14.0848930811351
0
LWPOLYLINE
5
132
100
AcDbEntity
8
0
100
AcDbPolyline
90
4
70
1
43
0.0
10
-33.082110807087503
20
-15.644893081135098
10
-36.042110807087504
20
-15.644893081135098
10
-36.042110807087504
20
-14.184893081135099
10
-33.082110807087503
20
-14.184893081135099
0
LWPOLYLINE
5
133
100
AcDbEntity
8
0
100
AcDbPolyline
90
4
70
1
43
0.0
10
-33.082110807087489
20
-4.500000074505806
10
-36.042110807087489
20
-4.500000074505806
10
-36.042110807087482
20
-3.0400000745058064
10
-33.082110807087489
20
-3.0400000745058064
0
LWPOLYLINE
5
134
100
AcDbEntity
8
0
100
AcDbPolyline
90
4
70
1
43
0.0
10
-36.042110807087482
20
-0.64000007450580765
10
-32.682110807087483
20
-0.64000007450580754
10
-32.682110807087483
20
-2.5400000745058069
10
-36.042110807087482
20
-2.5400000745058069
0
LWPOLYLINE
5
135
100
AcDbEntity
8
0
100
AcDbPolyline
90
4
70
1
43
0.0
10
-29.732110807087508
20
-12.434893081135101
10
-25.632110807087507
20
-12.434893081135101
10
-25.632110807087507
20
-15.834893081135114
10
-29.732110807087505
20
-15.834893081135114
0
LWPOLYLINE
5
136
100
AcDbEntity
8
0
100
AcDbPolyline
90
4
70
1
43
0.0
10
-29.732110807087508
20
-19.3348930811351
10
-26.33211080708751
20
-19.334893081135082
10
-26.33211080708751
20
-23.434893081135083
10
-29.732110807087501
20
-23.434893081135087
0
LWPOLYLINE
5
137
100
AcDbEntity
8
0
100
AcDbPolyline
90
4
70
1
43
0.0
10
-33.692110807087509
20
-19.334893081135082
10
-30.732110807087505
20
-19.334893081135093
10
-30.732110807087505
20
-20.794893081135072
10
-33.692110807087509
20
-20.794893081135072
0
LWPOLYLINE
5
138
100
AcDbEntity
8
0
100
AcDbPolyline
90
4
70
1
43
0.0
10
-28.272110807087493
20
-24.434893081135051
10
-28.272110807087493
20
-27.394893081135049
10
-29.732110807087491
20
-27.394893081135049
10
-29.732110807087491
20
-24.434893081135051
0
LWPOLYLINE
5
139
100
AcDbEntity
8
0
100
AcDbPolyline
90
4
70
1
43
0.0
10
-22.372110807087509
20
-21.974893081135065
10
-22.37211080708752
20
-23.434893081135098
10
-25.33211080708751
20
-23.43489308113508
10
-25.33211080708751
20
-21.974893081135065
0
LWPOLYLINE
5
140
100
AcDbEntity
8
0
100
AcDbPolyline
90
4
70
1
43
0.0
10
-33.572110807087512
20
-28.394893081135049
10
-22.37211080708752
20
-28.394893081135049
10
-22.37211080708752
20
-34.494893081135046
10
-33.572110807087512
20
-34.494893081135046
0
LWPOLYLINE
5
141
100
AcDbEntity
8
0
100
AcDbPolyline
90
4
70
1
43
0.0
10
-18.37211080708752
20
-23.434893081135098
10
-9.7221108070875157
20
-23.434893081135098
10
-9.7221108070875157
20
-29.534893081135095
10
-18.37211080708752
20
-29.534893081135095
0
LWPOLYLINE
5
142
100
AcDbEntity
8
0
100
AcDbPolyline
90
4
70
1
43
0.0
10
-6.9721108070875113
20
-9.4348930811351046
10
6.4278891929124899
20
-9.4348930811351046
10
6.4278891929124899
20
-22.834893081135093
10
-6.9721108070875113
20
-22.834893081135093
0
LWPOLYLINE
5
143
100
AcDbEntity
8
0
100
AcDbPolyline
90
4
70
1
43
0.0
10
6.4278891929124802
20
-7.8248930811350812
10
6.4278891929124899
20
-9.2848930811351043
10
3.4678891929124762
20
-9.2848930811351043
10
3.4678891929124762
20
-7.8248930811350812
0
LWPOLYLINE
5
144
100
AcDbEntity
8
0
100
AcDbPolyline
90
4
70
1
43
0.0
10
-4.012110807087522
20
-7.8248930811350812
10
-4.012110807087522
20
-9.2848930811351043
10
-6.9721108070875113
20
-9.2848930811351043
10
-6.9721108070875113
20
-7.8248930811350812
0
LWPOLYLINE
5
145
100
AcDbEntity
8
0
100
AcDbPolyline
90
4
70
1
43
0.0
10
-1.5521108070875187
20
-5.17489308113508
10
-1.5521108070875187
20
-8.1348930811351021
10
-3.012110807087522
20
-8.1348930811351021
10
-3.012110807087522
20
-5.17489308113508
0
LWPOLYLINE
5
146
100
AcDbEntity
8
0
100
AcDbPolyline
90
4
70
1
43
0.0
10
-11.372110807087516
20
-10.031893081135081
10
-7.9721108070875211
20
-10.031893081135081
10
-7.9721108070875211
20
-11.991893081135093
10
-11.372110807087516
20
-11.991893081135093
0
LWPOLYLINE
5
147
100
AcDbEntity
8
0
100
AcDbPolyline
90
4
70
1
43
0.0
10
-7.4721108070875122
20
-12.191893081135099
10
-7.4721108070875335
20
-13.65189308113508
10
-10.432110807087518
20
-13.65189308113508
10
-10.432110807087518
20
-12.191893081135099
0
LWPOLYLINE
5
148
100
AcDbEntity
8
0
100
AcDbPolyline
90
4
70
1
43
0.0
10
-9.4721108070875122
20
-16.523054966281805
10
-9.4721108070875122
20
-17.983054966281806
10
-12.432110807087501
20
-17.983054966281806
10
-12.432110807087501
20
-16.523054966281805
0
LWPOLYLINE
5
149
100
AcDbEntity
8
0
100
AcDbPolyline
90
4
70
1
43
0.0
10
-9.4721108070875211
20
-18.283054966281803
10
-9.4721108070875211
20
-19.743054966281804
10
-12.432110807087511
20
-19.743054966281804
10
-12.432110807087511
20
-18.283054966281803
0
LWPOLYLINE
5
150
100
AcDbEntity
8
0
100
AcDbPolyline
90
4
70
1
43
0.0
10
-13.262110807087497
20
-31.944893081135056
10
-5.7621108070875113
20
-31.944893081135056
10
-5.7621108070875051
20
-37.244893081135061
10
-13.262110807087497
20
-37.244893081135061
0
LWPOLYLINE
5
151
100
AcDbEntity
8
0
100
AcDbPolyline
90
4
70
1
43
0.0
10
-5.7621108070875158
20
-28.834893081135085
10
-5.7621108070875149
20
-31.794893081135061
10
-7.2221108070875157
20
-31.794893081135061
10
-7.2221108070875157
20
-28.834893081135085
0
LWPOLYLINE
5
152
100
AcDbEntity
8
0
100
AcDbPolyline
90
4
70
1
43
0.0
10
-1.9771108070875103
20
-23.304893081135024
10
-1.9771108070875094
20
-26.264893081135085
10
-3.4371108070875196
20
-26.264893081135085
10
-3.4371108070875196
20
-23.304893081135091
0
LWPOLYLINE
5
153
100
AcDbEntity
8
0
100
AcDbPolyline
90
4
70
1
43
0.0
10
-2.8791108070875016
20
-33.486616015472769
10
-4.339110807087506
20
-33.486616015472769
10
-4.339110807087506
20
-30.526616015472776
10
-2.8791108070875024
20
-30.526616015472776
0
LWPOLYLINE
5
154
100
AcDbEntity
8
0
100
AcDbPolyline
90
4
70
1
43
0.0
10
3.1808891929125007
20
-33.486616015472769
10
1.7208891929124983
20
-33.486616015472769
10
1.7208891929124983
20
-30.526616015472776
10
3.1808891929124981
20
-30.526616015472776
0
LWPOLYLINE
5
155
100
AcDbEntity
8
0
100
AcDbPolyline
90
4
70
1
43
0.0
10
-2.6791108070875014
20
-30.30661601547277
10
1.5208891929124981
20
-30.30661601547277
10
1.5208891929124981
20
-33.706616015472768
10
-2.6791108070875018
20
-33.706616015472768
0
LWPOLYLINE
5
156
100
AcDbEntity
8
0
100
AcDbPolyline
90
4
70
1
43
0.0
10
8.3878891929124908
20
-21.584893081135085
10
6.927889192912482
20
-21.584893081135114
10
6.927889192912482
20
-18.624893081135102
10
8.387889192912489
20
-18.624893081135102
0
LWPOLYLINE
5
157
100
AcDbEntity
8
0
100
AcDbPolyline
90
4
70
1
43
0.0
10
30.527889192912497
20
5.3306628608578421
10
44.527889192912504
20
5.3306628608578421
10
44.527889192912504
20
-12.969337139142159
10
30.527889192912497
20
-12.969337139142159
0
LWPOLYLINE
5
158
100
AcDbEntity
8
0
100
AcDbPolyline
90
4
70
1
43
0.0
10
27.527889192912486
20
-13.061245119501779
10
13.527889192912481
20
-13.061245119501779
10
13.527889192912481
20
5.238754880498222
10
27.527889192912486
20
5.238754880498222
0
LWPOLYLINE
5
159
100
AcDbEntity
8
0
100
AcDbPolyline
90
4
70
1
43
0.0
10
23.974889192912485
20
-16.841245119501778
10
22.07488919291248
20
-16.841245119501778
10
22.07488919291248
20
-13.481245119501779
10
23.974889192912485
20
-13.481245119501779
0
LWPOLYLINE
5
160
100
AcDbEntity
8
0
100
AcDbPolyline
90
4
70
1
43
0.0
10
40.974889192912507
20
-16.749337139142156
10
39.074889192912501
20
-16.749337139142156
10
39.074889192912501
20
-13.389337139142159
10
40.974889192912507
20
-13.389337139142159
0
CIRCLE
5
161
100
AcDbEntity
8
0
100
AcDbCircle
10
35.477889192912542
20
18.83010691886491
30
0
40
6.0000000000000009
210
0
220
0
230
1
0
LWPOLYLINE
5
162
100
AcDbEntity
8
0
100
AcDbPolyline
90
4
70
1
43
0.0
10
13.484589230214192
20
14.711858973142755
10
13.484589199289319
20
16.647606918864916
10
16.84458919928932
20
16.647606918864916
10
16.844589223521115
20
14.747606918864914
0
LWPOLYLINE
5
163
100
AcDbEntity
8
0
100
AcDbPolyline
90
4
70
1
43
0.0
10
22.211289192912528
20
14.747825185476923
10
22.211289192912531
20
16.647606918864913
10
25.571289192912531
20
16.647606918864913
10
25.57128919291252
20
14.747606918864912
0
LWPOLYLINE
5
164
100
AcDbEntity
8
0
100
AcDbPolyline
90
4
70
1
43
0.0
10
14.944589192912531
20
20.512606918864911
10
16.84458919291253
20
20.512606918864911
10
16.84458919291253
20
17.147606918864916
10
14.944589192912531
20
17.147606918864916
0
LWPOLYLINE
5
165
100
AcDbEntity
8
0
100
AcDbPolyline
90
4
70
1
43
0.0
10
24.111289192912526
20
17.147606918864913
10
22.211289192912531
20
17.147606918864913
10
22.211289192912531
20
20.512606918864911
10
24.111289192912526
20
20.512606918864911
0
LWPOLYLINE
5
166
100
AcDbEntity
8
0
100
AcDbPolyline
90
4
70
1
43
0.0
10
-35.052110804227489
20
-27.914056666748159
10
-35.052110809947543
20
-26.435048848545648
10
-32.092110814042172
20
-26.434893155925174
10
-32.091643494946894
20
-27.894893081135052
0
LINE
5
167
100
AcDbEntity
8
0
100
AcDbLine
10
-47.742110807087428
20
-18.874893081135081
30
0
11
-45.592110807087479
21
-18.87489308113507
31
0
0
LINE
5
168
100
AcDbEntity
8
0
100
AcDbLine
10
-45.592110807087479
20
-18.87489308113507
30
0
11
-45.592110807087465
21
-20.474893081135068
31
0
0
LINE
5
169
100
AcDbEntity
8
0
100
AcDbLine
10
-45.592110807087465
20
-20.474893081135068
30
0
11
-42.892110807087462
21
-20.474893081135054
31
0
0
LINE
5
170
100
AcDbEntity
8
0
100
AcDbLine
10
-42.892110807087462
20
-20.474893081135054
30
0
11
-42.892110807087469
21
-18.874893081135053
31
0
0
LINE
5
171
100
AcDbEntity
8
0
100
AcDbLine
10
-42.892110807087469
20
-18.874893081135053
30
0
11
-40.142110807087469
21
-18.874893081135038
31
0
0
LINE
5
172
100
AcDbEntity
8
0
100
AcDbLine
10
-40.142110807087469
20
-18.874893081135038
30
0
11
-40.142110807087462
21
-20.474893081135036
31
0
0
LINE
5
173
100
AcDbEntity
8
0
100
AcDbLine
10
-40.142110807087462
20
-20.474893081135036
30
0
11
-37.442110807087481
21
-20.474893081135093
31
0
0
ENDSEC
0
SECTION
2
OBJECTS
0
DICTIONARY
5
C
100
AcDbDictionary
3
ACAD_GROUP
350
D
3
ACAD_MLINESTYLE
350
17
0
DICTIONARY
5
D
100
AcDbDictionary
0
DICTIONARY
5
1A
330
C
100
AcDbDictionary
0
DICTIONARY
5
17
100
AcDbDictionary
0
ENDSEC
0
EOF
