# WaveFront *.obj file (generated by Autodesk ATF)

mtllib 88461456-eebd-4392-91ad-054cce2b4e56.mtl

g Body1

v 35.817724 -18.008446 5.090534
v 35.817724 -11.908446 5.090534
v 35.817724 -11.908446 3.090534
v 35.817724 -18.008446 3.090534
v 27.167724 -18.008446 5.090534
v 27.167724 -18.008446 3.090534
v 27.167724 -11.908446 5.090534
v 27.167724 -11.908446 3.090534
v -20.549792 -6.965763 3.090534
v -32.549792 -6.965763 3.090534
v -32.549792 -6.965763 5.090534
v -20.549792 -6.965763 5.090534
v -20.549792 5.034237 3.090534
v -20.549792 5.034237 5.090534
v -32.549792 5.034237 3.090534
v -32.549792 5.034237 5.090534
v -15.549792 -6.965763 3.090534
v -15.549792 5.034237 3.090534
v -15.549792 5.034237 5.090534
v -15.549792 -6.965763 5.090534
v -3.549792 -6.965763 3.090534
v -3.549792 -6.965763 5.090534
v -3.549792 5.034237 3.090534
v -3.549792 5.034237 5.090534
v 19.950208 19.194668 3.090534
v 13.750208 19.194668 3.090534
v 13.750208 19.194668 5.090534
v 19.950208 19.194668 5.090534
v 19.950208 25.394668 3.090534
v 19.950208 25.394668 5.090534
v 13.750208 25.394668 3.090534
v 13.750208 25.394668 5.090534
v 13.750208 30.394668 3.090534
v 13.750208 33.394668 3.090534
v 13.750208 33.394668 5.090534
v 13.750208 30.394668 5.090534
v 16.000208 30.394668 3.090534
v 16.000208 30.394668 5.090534
v 16.000208 33.394668 3.090534
v 16.000208 33.394668 5.090534
v 19.650208 30.394668 3.090534
v 17.400208 30.394668 3.090534
v 17.400208 30.394668 5.090534
v 19.650208 30.394668 5.090534
v 19.650208 33.394668 3.090534
v 19.650208 33.394668 5.090534
v 17.400208 33.394668 3.090534
v 17.400208 33.394668 5.090534
v 37.150208 33.184237 3.090534
v 37.150208 30.184237 3.090534
v 37.150208 30.184237 5.090534
v 37.150208 33.184237 5.090534
v 34.900208 33.184237 3.090534
v 34.900208 33.184237 5.090534
v 34.900208 30.184237 3.090534
v 34.900208 30.184237 5.090534
v 43.702304 7.794668 3.090534
v 43.702304 -3.405332 3.090534
v 43.702304 -3.405332 5.090534
v 43.702304 7.794668 5.090534
v 37.602304 7.794668 3.090534
v 37.602304 7.794668 5.090534
v 37.602304 -3.405332 3.090534
v 37.602304 -3.405332 5.090534
v 8.750208 35.034237 3.090534
v 8.750208 15.034237 3.090534
v 8.750208 15.034237 5.090534
v 8.750208 35.034237 5.090534
v -42.549792 35.034237 3.090534
v -42.549792 35.034237 5.090534
v -42.549792 15.034237 3.090534
v -42.549792 15.034237 5.090534
v -50.049792 47.534237 3.090534
v -50.049792 -27.465763 3.090534
v -50.049792 -27.465763 5.090534
v -50.049792 47.534237 5.090534
v 49.950208 47.534237 3.090534
v 49.950208 47.534237 5.090534
v 49.950208 -27.465763 3.090534
v 49.950208 -27.465763 5.090534
vt -0.000000 2.009053 0.000000
vt -0.610000 2.009053 0.000000
vt -0.000000 1.809053 0.000000
vt -0.610000 1.809053 0.000000
vt -0.000000 2.009053 0.000000
vt -0.865000 2.009053 0.000000
vt -0.000000 1.809053 0.000000
vt -0.865000 1.809053 0.000000
vt 0.000000 2.009053 0.000000
vt -0.610000 2.009053 0.000000
vt 0.000000 1.809053 0.000000
vt -0.610000 1.809053 0.000000
vt 0.000000 2.009053 0.000000
vt -0.865000 2.009053 0.000000
vt 0.000000 1.809053 0.000000
vt -0.865000 1.809053 0.000000
vt 0.000000 0.000000 0.000000
vt 1.200000 0.000000 0.000000
vt 0.000000 0.200000 0.000000
vt 1.200000 0.200000 0.000000
vt 0.000000 0.000000 0.000000
vt 1.200000 0.000000 0.000000
vt 0.000000 0.200000 0.000000
vt 1.200000 0.200000 0.000000
vt 0.000000 0.000000 0.000000
vt 1.200000 0.000000 0.000000
vt 0.000000 0.200000 0.000000
vt 1.200000 0.200000 0.000000
vt 0.000000 0.000000 0.000000
vt 1.200000 0.000000 0.000000
vt 0.000000 0.200000 0.000000
vt 1.200000 0.200000 0.000000
vt 0.000000 0.000000 0.000000
vt 1.200000 0.000000 0.000000
vt 0.000000 0.200000 0.000000
vt 1.200000 0.200000 0.000000
vt 0.000000 0.000000 0.000000
vt 1.200000 0.000000 0.000000
vt 0.000000 0.200000 0.000000
vt 1.200000 0.200000 0.000000
vt 0.000000 0.000000 0.000000
vt 1.200000 0.000000 0.000000
vt 0.000000 0.200000 0.000000
vt 1.200000 0.200000 0.000000
vt 0.000000 0.000000 0.000000
vt 1.200000 0.000000 0.000000
vt 0.000000 0.200000 0.000000
vt 1.200000 0.200000 0.000000
vt 0.000000 0.000000 0.000000
vt 0.620000 0.000000 0.000000
vt 0.000000 0.200000 0.000000
vt 0.620000 0.200000 0.000000
vt 0.000000 0.000000 0.000000
vt 0.620000 0.000000 0.000000
vt 0.000000 0.200000 0.000000
vt 0.620000 0.200000 0.000000
vt 0.000000 0.000000 0.000000
vt 0.620000 0.000000 0.000000
vt 0.000000 0.200000 0.000000
vt 0.620000 0.200000 0.000000
vt 0.000000 0.000000 0.000000
vt 0.620000 0.000000 0.000000
vt 0.000000 0.200000 0.000000
vt 0.620000 0.200000 0.000000
vt 0.000000 0.000000 0.000000
vt 0.300000 0.000000 0.000000
vt 0.000000 0.200000 0.000000
vt 0.300000 0.200000 0.000000
vt 0.000000 0.000000 0.000000
vt 0.225000 0.000000 0.000000
vt 0.000000 0.200000 0.000000
vt 0.225000 0.200000 0.000000
vt 0.000000 0.000000 0.000000
vt 0.300000 0.000000 0.000000
vt 0.000000 0.200000 0.000000
vt 0.300000 0.200000 0.000000
vt 0.000000 0.000000 0.000000
vt 0.225000 0.000000 0.000000
vt 0.000000 0.200000 0.000000
vt 0.225000 0.200000 0.000000
vt 0.000000 0.000000 0.000000
vt 0.225000 0.000000 0.000000
vt 0.000000 0.200000 0.000000
vt 0.225000 0.200000 0.000000
vt 0.000000 0.000000 0.000000
vt 0.300000 0.000000 0.000000
vt 0.000000 0.200000 0.000000
vt 0.300000 0.200000 0.000000
vt 0.000000 0.000000 0.000000
vt 0.225000 0.000000 0.000000
vt 0.000000 0.200000 0.000000
vt 0.225000 0.200000 0.000000
vt 0.000000 0.000000 0.000000
vt 0.300000 0.000000 0.000000
vt 0.000000 0.200000 0.000000
vt 0.300000 0.200000 0.000000
vt 0.000000 0.000000 0.000000
vt 0.300000 0.000000 0.000000
vt 0.000000 0.200000 0.000000
vt 0.300000 0.200000 0.000000
vt 0.000000 0.000000 0.000000
vt 0.225000 0.000000 0.000000
vt 0.000000 0.200000 0.000000
vt 0.225000 0.200000 0.000000
vt 0.000000 0.000000 0.000000
vt 0.300000 0.000000 0.000000
vt 0.000000 0.200000 0.000000
vt 0.300000 0.200000 0.000000
vt 0.000000 0.000000 0.000000
vt 0.225000 0.000000 0.000000
vt 0.000000 0.200000 0.000000
vt 0.225000 0.200000 0.000000
vt 0.000000 0.000000 0.000000
vt 1.120000 0.000000 0.000000
vt 0.000000 0.200000 0.000000
vt 1.120000 0.200000 0.000000
vt 0.000000 0.000000 0.000000
vt 0.610000 0.000000 0.000000
vt 0.000000 0.200000 0.000000
vt 0.610000 0.200000 0.000000
vt 0.000000 0.000000 0.000000
vt 1.120000 0.000000 0.000000
vt 0.000000 0.200000 0.000000
vt 1.120000 0.200000 0.000000
vt 0.000000 0.000000 0.000000
vt 0.610000 0.000000 0.000000
vt 0.000000 0.200000 0.000000
vt 0.610000 0.200000 0.000000
vt 0.000000 0.000000 0.000000
vt 2.000000 0.000000 0.000000
vt 0.000000 0.200000 0.000000
vt 2.000000 0.200000 0.000000
vt 0.000000 0.000000 0.000000
vt 5.130000 0.000000 0.000000
vt 0.000000 0.200000 0.000000
vt 5.130000 0.200000 0.000000
vt 0.000000 0.000000 0.000000
vt 2.000000 0.000000 0.000000
vt 0.000000 0.200000 0.000000
vt 2.000000 0.200000 0.000000
vt 0.000000 0.000000 0.000000
vt 5.130000 0.000000 0.000000
vt 0.000000 0.200000 0.000000
vt 5.130000 0.200000 0.000000
vt -0.000000 0.000000 0.000000
vt 7.500000 0.000000 0.000000
vt -0.000000 0.200000 0.000000
vt 7.500000 0.200000 0.000000
vt -0.000000 0.000000 0.000000
vt 10.000000 0.000000 0.000000
vt -0.000000 0.200000 0.000000
vt 10.000000 0.200000 0.000000
vt 0.000000 0.000000 0.000000
vt 7.500000 0.000000 0.000000
vt 0.000000 0.200000 0.000000
vt 7.500000 0.200000 0.000000
vt 0.000000 0.000000 0.000000
vt 10.000000 0.000000 0.000000
vt 0.000000 0.200000 0.000000
vt 10.000000 0.200000 0.000000
vt 2.721752 -2.194268 0.000000
vt -0.350000 -1.700000 0.000000
vt 2.721752 -2.804268 0.000000
vt -5.000000 -3.750000 0.000000
vt 5.000000 -3.750000 0.000000
vt 3.586752 -2.194268 0.000000
vt 3.765210 -1.343957 0.000000
vt 0.880000 0.500000 0.000000
vt -0.350000 -0.500000 0.000000
vt -1.550000 -0.500000 0.000000
vt -4.250000 0.500000 0.000000
vt -2.050000 -0.500000 0.000000
vt -3.250000 -0.500000 0.000000
vt -3.250000 -1.700000 0.000000
vt -2.050000 -1.700000 0.000000
vt -1.550000 -1.700000 0.000000
vt 3.586752 -2.804268 0.000000
vt 4.375210 -1.343957 0.000000
vt -5.000000 3.750000 0.000000
vt -4.250000 2.500000 0.000000
vt 0.880000 2.500000 0.000000
vt 1.380000 1.536043 0.000000
vt 1.380000 2.036043 0.000000
vt 1.380000 2.336043 0.000000
vt 3.765210 -0.223957 0.000000
vt 2.000000 0.916043 0.000000
vt 1.380000 0.916043 0.000000
vt 4.375210 -0.223957 0.000000
vt 3.720000 2.015000 0.000000
vt 3.495000 2.015000 0.000000
vt 2.000000 1.536043 0.000000
vt 1.970000 2.036043 0.000000
vt 1.745000 2.036043 0.000000
vt 5.000000 3.750000 0.000000
vt 3.720000 2.315000 0.000000
vt 3.495000 2.315000 0.000000
vt 1.970000 2.336043 0.000000
vt 1.745000 2.336043 0.000000
vt 1.605000 2.336043 0.000000
vt 1.605000 2.036043 0.000000
vt -2.721752 -2.804268 0.000000
vt 0.350000 -1.700000 0.000000
vt -2.721752 -2.194268 0.000000
vt 0.350000 -0.500000 0.000000
vt -0.880000 0.500000 0.000000
vt 1.550000 -0.500000 0.000000
vt 4.250000 0.500000 0.000000
vt 2.050000 -0.500000 0.000000
vt 3.250000 -0.500000 0.000000
vt -3.586752 -2.804268 0.000000
vt -5.000000 -3.750000 0.000000
vt 5.000000 -3.750000 0.000000
vt 1.550000 -1.700000 0.000000
vt 2.050000 -1.700000 0.000000
vt -3.586752 -2.194268 0.000000
vt -4.375210 -1.343957 0.000000
vt -4.375210 -0.223957 0.000000
vt -3.765210 -1.343957 0.000000
vt -0.880000 2.500000 0.000000
vt -1.380000 1.536043 0.000000
vt -1.380000 0.916043 0.000000
vt -2.000000 0.916043 0.000000
vt 4.250000 2.500000 0.000000
vt 5.000000 3.750000 0.000000
vt -5.000000 3.750000 0.000000
vt -1.970000 2.336043 0.000000
vt -3.495000 2.315000 0.000000
vt -1.970000 2.036043 0.000000
vt -3.495000 2.015000 0.000000
vt -2.000000 1.536043 0.000000
vt -3.765210 -0.223957 0.000000
vt 3.250000 -1.700000 0.000000
vt -3.720000 2.015000 0.000000
vt -3.720000 2.315000 0.000000
vt -1.745000 2.036043 0.000000
vt -1.605000 2.036043 0.000000
vt -1.745000 2.336043 0.000000
vt -1.605000 2.336043 0.000000
vt -1.380000 2.336043 0.000000
vt -1.380000 2.036043 0.000000
vn -0.100000 0.000000 0.000000
vn -0.100000 0.000000 0.000000
vn -0.100000 0.000000 0.000000
vn -0.100000 0.000000 0.000000
vn -0.000000 0.100000 -0.000000
vn -0.000000 0.100000 -0.000000
vn -0.000000 0.100000 -0.000000
vn -0.000000 0.100000 -0.000000
vn 0.100000 0.000000 0.000000
vn 0.100000 0.000000 0.000000
vn 0.100000 0.000000 0.000000
vn 0.100000 0.000000 0.000000
vn 0.000000 -0.100000 0.000000
vn 0.000000 -0.100000 0.000000
vn 0.000000 -0.100000 0.000000
vn 0.000000 -0.100000 0.000000
vn 0.000000 0.100000 0.000000
vn 0.000000 0.100000 0.000000
vn 0.000000 0.100000 0.000000
vn 0.000000 0.100000 0.000000
vn -0.100000 0.000000 0.000000
vn -0.100000 0.000000 0.000000
vn -0.100000 0.000000 0.000000
vn -0.100000 0.000000 0.000000
vn 0.000000 -0.100000 0.000000
vn 0.000000 -0.100000 0.000000
vn 0.000000 -0.100000 0.000000
vn 0.000000 -0.100000 0.000000
vn 0.100000 0.000000 0.000000
vn 0.100000 0.000000 0.000000
vn 0.100000 0.000000 0.000000
vn 0.100000 0.000000 0.000000
vn 0.100000 0.000000 0.000000
vn 0.100000 0.000000 0.000000
vn 0.100000 0.000000 0.000000
vn 0.100000 0.000000 0.000000
vn 0.000000 0.100000 0.000000
vn 0.000000 0.100000 0.000000
vn 0.000000 0.100000 0.000000
vn 0.000000 0.100000 0.000000
vn -0.100000 0.000000 0.000000
vn -0.100000 0.000000 0.000000
vn -0.100000 0.000000 0.000000
vn -0.100000 0.000000 0.000000
vn 0.000000 -0.100000 0.000000
vn 0.000000 -0.100000 0.000000
vn 0.000000 -0.100000 0.000000
vn 0.000000 -0.100000 0.000000
vn 0.000000 0.100000 0.000000
vn 0.000000 0.100000 0.000000
vn 0.000000 0.100000 0.000000
vn 0.000000 0.100000 0.000000
vn -0.100000 0.000000 0.000000
vn -0.100000 0.000000 0.000000
vn -0.100000 0.000000 0.000000
vn -0.100000 0.000000 0.000000
vn 0.000000 -0.100000 0.000000
vn 0.000000 -0.100000 0.000000
vn 0.000000 -0.100000 0.000000
vn 0.000000 -0.100000 0.000000
vn 0.100000 0.000000 0.000000
vn 0.100000 0.000000 0.000000
vn 0.100000 0.000000 0.000000
vn 0.100000 0.000000 0.000000
vn 0.100000 0.000000 0.000000
vn 0.100000 0.000000 0.000000
vn 0.100000 0.000000 0.000000
vn 0.100000 0.000000 0.000000
vn 0.000000 0.100000 0.000000
vn 0.000000 0.100000 0.000000
vn 0.000000 0.100000 0.000000
vn 0.000000 0.100000 0.000000
vn -0.100000 0.000000 0.000000
vn -0.100000 0.000000 0.000000
vn -0.100000 0.000000 0.000000
vn -0.100000 0.000000 0.000000
vn 0.000000 -0.100000 0.000000
vn 0.000000 -0.100000 0.000000
vn 0.000000 -0.100000 0.000000
vn 0.000000 -0.100000 0.000000
vn 0.000000 0.100000 0.000000
vn 0.000000 0.100000 0.000000
vn 0.000000 0.100000 0.000000
vn 0.000000 0.100000 0.000000
vn -0.100000 0.000000 0.000000
vn -0.100000 0.000000 0.000000
vn -0.100000 0.000000 0.000000
vn -0.100000 0.000000 0.000000
vn 0.000000 -0.100000 0.000000
vn 0.000000 -0.100000 0.000000
vn 0.000000 -0.100000 0.000000
vn 0.000000 -0.100000 0.000000
vn 0.100000 0.000000 0.000000
vn 0.100000 0.000000 0.000000
vn 0.100000 0.000000 0.000000
vn 0.100000 0.000000 0.000000
vn -0.100000 0.000000 0.000000
vn -0.100000 0.000000 0.000000
vn -0.100000 0.000000 0.000000
vn -0.100000 0.000000 0.000000
vn 0.000000 -0.100000 0.000000
vn 0.000000 -0.100000 0.000000
vn 0.000000 -0.100000 0.000000
vn 0.000000 -0.100000 0.000000
vn 0.100000 0.000000 0.000000
vn 0.100000 0.000000 0.000000
vn 0.100000 0.000000 0.000000
vn 0.100000 0.000000 0.000000
vn 0.000000 0.100000 0.000000
vn 0.000000 0.100000 0.000000
vn 0.000000 0.100000 0.000000
vn 0.000000 0.100000 0.000000
vn -0.100000 0.000000 0.000000
vn -0.100000 0.000000 0.000000
vn -0.100000 0.000000 0.000000
vn -0.100000 0.000000 0.000000
vn 0.000000 -0.100000 0.000000
vn 0.000000 -0.100000 0.000000
vn 0.000000 -0.100000 0.000000
vn 0.000000 -0.100000 0.000000
vn 0.100000 0.000000 0.000000
vn 0.100000 0.000000 0.000000
vn 0.100000 0.000000 0.000000
vn 0.100000 0.000000 0.000000
vn 0.000000 0.100000 0.000000
vn 0.000000 0.100000 0.000000
vn 0.000000 0.100000 0.000000
vn 0.000000 0.100000 0.000000
vn -0.100000 0.000000 0.000000
vn -0.100000 0.000000 0.000000
vn -0.100000 0.000000 0.000000
vn -0.100000 0.000000 0.000000
vn 0.000000 -0.100000 0.000000
vn 0.000000 -0.100000 0.000000
vn 0.000000 -0.100000 0.000000
vn 0.000000 -0.100000 0.000000
vn 0.100000 0.000000 0.000000
vn 0.100000 0.000000 0.000000
vn 0.100000 0.000000 0.000000
vn 0.100000 0.000000 0.000000
vn 0.000000 0.100000 0.000000
vn 0.000000 0.100000 0.000000
vn 0.000000 0.100000 0.000000
vn 0.000000 0.100000 0.000000
vn -0.100000 0.000000 0.000000
vn -0.100000 0.000000 0.000000
vn -0.100000 0.000000 0.000000
vn -0.100000 0.000000 0.000000
vn 0.000000 0.100000 0.000000
vn 0.000000 0.100000 0.000000
vn 0.000000 0.100000 0.000000
vn 0.000000 0.100000 0.000000
vn 0.100000 0.000000 0.000000
vn 0.100000 0.000000 0.000000
vn 0.100000 0.000000 0.000000
vn 0.100000 0.000000 0.000000
vn 0.000000 -0.100000 0.000000
vn 0.000000 -0.100000 0.000000
vn 0.000000 -0.100000 0.000000
vn 0.000000 -0.100000 0.000000
vn 0.000000 0.000000 0.100000
vn 0.000000 0.000000 0.100000
vn 0.000000 0.000000 0.100000
vn 0.000000 0.000000 0.100000
vn 0.000000 0.000000 0.100000
vn 0.000000 0.000000 0.100000
vn 0.000000 0.000000 0.100000
vn 0.000000 0.000000 0.100000
vn 0.000000 0.000000 0.100000
vn 0.000000 0.000000 0.100000
vn 0.000000 0.000000 0.100000
vn 0.000000 0.000000 0.100000
vn 0.000000 0.000000 0.100000
vn 0.000000 0.000000 0.100000
vn 0.000000 0.000000 0.100000
vn 0.000000 0.000000 0.100000
vn 0.000000 0.000000 0.100000
vn 0.000000 0.000000 0.100000
vn 0.000000 0.000000 0.100000
vn 0.000000 0.000000 0.100000
vn 0.000000 0.000000 0.100000
vn 0.000000 0.000000 0.100000
vn 0.000000 0.000000 0.100000
vn 0.000000 0.000000 0.100000
vn 0.000000 0.000000 0.100000
vn 0.000000 0.000000 0.100000
vn 0.000000 0.000000 0.100000
vn 0.000000 0.000000 0.100000
vn 0.000000 0.000000 0.100000
vn 0.000000 0.000000 0.100000
vn 0.000000 0.000000 0.100000
vn 0.000000 0.000000 0.100000
vn 0.000000 0.000000 0.100000
vn 0.000000 0.000000 0.100000
vn 0.000000 0.000000 0.100000
vn 0.000000 0.000000 0.100000
vn 0.000000 0.000000 0.100000
vn 0.000000 0.000000 0.100000
vn 0.000000 0.000000 0.100000
vn 0.000000 0.000000 0.100000
vn 0.000000 0.000000 -0.100000
vn 0.000000 0.000000 -0.100000
vn 0.000000 0.000000 -0.100000
vn 0.000000 0.000000 -0.100000
vn 0.000000 0.000000 -0.100000
vn 0.000000 0.000000 -0.100000
vn 0.000000 0.000000 -0.100000
vn 0.000000 0.000000 -0.100000
vn 0.000000 0.000000 -0.100000
vn 0.000000 0.000000 -0.100000
vn 0.000000 0.000000 -0.100000
vn 0.000000 0.000000 -0.100000
vn 0.000000 0.000000 -0.100000
vn 0.000000 0.000000 -0.100000
vn 0.000000 0.000000 -0.100000
vn 0.000000 0.000000 -0.100000
vn 0.000000 0.000000 -0.100000
vn 0.000000 0.000000 -0.100000
vn 0.000000 0.000000 -0.100000
vn 0.000000 0.000000 -0.100000
vn 0.000000 0.000000 -0.100000
vn 0.000000 0.000000 -0.100000
vn 0.000000 0.000000 -0.100000
vn 0.000000 0.000000 -0.100000
vn 0.000000 0.000000 -0.100000
vn 0.000000 0.000000 -0.100000
vn 0.000000 0.000000 -0.100000
vn 0.000000 0.000000 -0.100000
vn 0.000000 0.000000 -0.100000
vn 0.000000 0.000000 -0.100000
vn 0.000000 0.000000 -0.100000
vn 0.000000 0.000000 -0.100000
vn 0.000000 0.000000 -0.100000
vn 0.000000 0.000000 -0.100000
vn 0.000000 0.000000 -0.100000
vn 0.000000 0.000000 -0.100000
vn 0.000000 0.000000 -0.100000
vn 0.000000 0.000000 -0.100000
vn 0.000000 0.000000 -0.100000
vn 0.000000 0.000000 -0.100000
usemtl Steel_-_Satin
f 1/1/1 2/2/2 4/3/3
f 4/3/3 2/2/2 3/4/4
f 5/5/5 1/6/6 6/7/7
f 6/7/7 1/6/6 4/8/8
f 7/9/9 5/10/10 8/11/11
f 8/11/11 5/10/10 6/12/12
f 2/13/13 7/14/14 3/15/15
f 3/15/15 7/14/14 8/16/16
f 9/17/17 10/18/18 12/19/19
f 12/19/19 10/18/18 11/20/20
f 13/21/21 9/22/22 14/23/23
f 14/23/23 9/22/22 12/24/24
f 15/25/25 13/26/26 16/27/27
f 16/27/27 13/26/26 14/28/28
f 10/29/29 15/30/30 11/31/31
f 11/31/31 15/30/30 16/32/32
f 17/33/33 18/34/34 20/35/35
f 20/35/35 18/34/34 19/36/36
f 21/37/37 17/38/38 22/39/39
f 22/39/39 17/38/38 20/40/40
f 23/41/41 21/42/42 24/43/43
f 24/43/43 21/42/42 22/44/44
f 18/45/45 23/46/46 19/47/47
f 19/47/47 23/46/46 24/48/48
f 25/49/49 26/50/50 28/51/51
f 28/51/51 26/50/50 27/52/52
f 29/53/53 25/54/54 30/55/55
f 30/55/55 25/54/54 28/56/56
f 31/57/57 29/58/58 32/59/59
f 32/59/59 29/58/58 30/60/60
f 26/61/61 31/62/62 27/63/63
f 27/63/63 31/62/62 32/64/64
f 33/65/65 34/66/66 36/67/67
f 36/67/67 34/66/66 35/68/68
f 37/69/69 33/70/70 38/71/71
f 38/71/71 33/70/70 36/72/72
f 39/73/73 37/74/74 40/75/75
f 40/75/75 37/74/74 38/76/76
f 34/77/77 39/78/78 35/79/79
f 35/79/79 39/78/78 40/80/80
f 41/81/81 42/82/82 44/83/83
f 44/83/83 42/82/82 43/84/84
f 45/85/85 41/86/86 46/87/87
f 46/87/87 41/86/86 44/88/88
f 47/89/89 45/90/90 48/91/91
f 48/91/91 45/90/90 46/92/92
f 42/93/93 47/94/94 43/95/95
f 43/95/95 47/94/94 48/96/96
f 49/97/97 50/98/98 52/99/99
f 52/99/99 50/98/98 51/100/100
f 53/101/101 49/102/102 54/103/103
f 54/103/103 49/102/102 52/104/104
f 55/105/105 53/106/106 56/107/107
f 56/107/107 53/106/106 54/108/108
f 50/109/109 55/110/110 51/111/111
f 51/111/111 55/110/110 56/112/112
f 57/113/113 58/114/114 60/115/115
f 60/115/115 58/114/114 59/116/116
f 61/117/117 57/118/118 62/119/119
f 62/119/119 57/118/118 60/120/120
f 63/121/121 61/122/122 64/123/123
f 64/123/123 61/122/122 62/124/124
f 58/125/125 63/126/126 59/127/127
f 59/127/127 63/126/126 64/128/128
f 65/129/129 66/130/130 68/131/131
f 68/131/131 66/130/130 67/132/132
f 69/133/133 65/134/134 70/135/135
f 70/135/135 65/134/134 68/136/136
f 71/137/137 69/138/138 72/139/139
f 72/139/139 69/138/138 70/140/140
f 66/141/141 71/142/142 67/143/143
f 67/143/143 71/142/142 72/144/144
f 73/145/145 74/146/146 76/147/147
f 76/147/147 74/146/146 75/148/148
f 77/149/149 73/150/150 78/151/151
f 78/151/151 73/150/150 76/152/152
f 79/153/153 77/154/154 80/155/155
f 80/155/155 77/154/154 78/156/156
f 74/157/157 79/158/158 75/159/159
f 75/159/159 79/158/158 80/160/160
f 7/161/161 22/162/162 5/163/163
f 5/163/163 22/162/162 75/164/164
f 5/163/163 75/164/164 80/165/165
f 2/166/166 64/167/167 7/161/161
f 7/161/161 64/167/167 67/168/168
f 7/161/161 67/168/168 24/169/169
f 24/169/169 67/168/168 19/170/170
f 19/170/170 67/168/168 72/171/171
f 19/170/170 72/171/171 14/172/172
f 14/172/172 72/171/171 16/173/173
f 16/173/173 72/171/171 11/174/174
f 11/174/174 72/171/171 75/164/164
f 11/174/174 75/164/164 12/175/175
f 12/175/175 75/164/164 20/176/176
f 12/175/175 20/176/176 19/170/170
f 1/177/177 80/165/165 2/166/166
f 2/166/166 80/165/165 59/178/178
f 2/166/166 59/178/178 64/167/167
f 1/177/177 5/163/163 80/165/165
f 75/164/164 72/171/171 76/179/179
f 76/179/179 72/171/171 70/180/180
f 76/179/179 70/180/180 68/181/181
f 67/168/168 32/182/182 68/181/181
f 68/181/181 32/182/182 36/183/183
f 68/181/181 36/183/183 35/184/184
f 64/167/167 62/185/185 67/168/168
f 67/168/168 62/185/185 28/186/186
f 67/168/168 28/186/186 27/187/187
f 60/188/188 51/189/189 62/185/185
f 62/185/185 51/189/189 56/190/190
f 62/185/185 56/190/190 28/186/186
f 28/186/186 56/190/190 30/191/191
f 30/191/191 56/190/190 44/192/192
f 30/191/191 44/192/192 43/193/193
f 59/178/178 80/165/165 60/188/188
f 60/188/188 80/165/165 78/194/194
f 60/188/188 78/194/194 51/189/189
f 51/189/189 78/194/194 52/195/195
f 52/195/195 78/194/194 54/196/196
f 54/196/196 78/194/194 46/197/197
f 54/196/196 46/197/197 44/192/192
f 56/190/190 54/196/196 44/192/192
f 48/198/198 40/199/199 43/193/193
f 43/193/193 40/199/199 38/200/200
f 43/193/193 38/200/200 32/182/182
f 32/182/182 38/200/200 36/183/183
f 40/199/199 48/198/198 68/181/181
f 68/181/181 48/198/198 46/197/197
f 68/181/181 46/197/197 78/194/194
f 35/184/184 40/199/199 68/181/181
f 27/187/187 32/182/182 67/168/168
f 32/182/182 30/191/191 43/193/193
f 24/169/169 22/162/162 7/161/161
f 22/162/162 20/176/176 75/164/164
f 14/172/172 12/175/175 19/170/170
f 78/194/194 76/179/179 68/181/181
f 6/201/201 21/202/202 8/203/203
f 8/203/203 21/202/202 23/204/204
f 8/203/203 23/204/204 66/205/205
f 66/205/205 23/204/204 18/206/206
f 66/205/205 18/206/206 71/207/207
f 71/207/207 18/206/206 13/208/208
f 71/207/207 13/208/208 15/209/209
f 4/210/210 79/211/211 6/201/201
f 6/201/201 79/211/211 74/212/212
f 6/201/201 74/212/212 21/202/202
f 21/202/202 74/212/212 17/213/213
f 17/213/213 74/212/212 9/214/214
f 17/213/213 9/214/214 18/206/206
f 18/206/206 9/214/214 13/208/208
f 4/210/210 3/215/215 79/211/211
f 79/211/211 3/215/215 58/216/216
f 79/211/211 58/216/216 57/217/217
f 58/216/216 3/215/215 63/218/218
f 63/218/218 3/215/215 8/203/203
f 63/218/218 8/203/203 66/205/205
f 65/219/219 31/220/220 66/205/205
f 66/205/205 31/220/220 26/221/221
f 66/205/205 26/221/221 25/222/222
f 69/223/223 73/224/224 65/219/219
f 65/219/219 73/224/224 77/225/225
f 65/219/219 77/225/225 45/226/226
f 45/226/226 77/225/225 53/227/227
f 45/226/226 53/227/227 41/228/228
f 41/228/228 53/227/227 55/229/229
f 41/228/228 55/229/229 29/230/230
f 29/230/230 55/229/229 25/222/222
f 25/222/222 55/229/229 61/231/231
f 25/222/222 61/231/231 66/205/205
f 66/205/205 61/231/231 63/218/218
f 69/223/223 71/207/207 73/224/224
f 73/224/224 71/207/207 74/212/212
f 74/212/212 71/207/207 10/232/232
f 74/212/212 10/232/232 9/214/214
f 61/231/231 50/233/233 57/217/217
f 57/217/217 50/233/233 77/225/225
f 57/217/217 77/225/225 79/211/211
f 55/229/229 50/233/233 61/231/231
f 50/233/233 49/234/234 77/225/225
f 77/225/225 49/234/234 53/227/227
f 42/235/235 37/236/236 47/237/237
f 47/237/237 37/236/236 39/238/238
f 47/237/237 39/238/238 65/219/219
f 65/219/219 39/238/238 34/239/239
f 65/219/219 34/239/239 33/240/240
f 41/228/228 29/230/230 42/235/235
f 42/235/235 29/230/230 31/220/220
f 42/235/235 31/220/220 37/236/236
f 37/236/236 31/220/220 33/240/240
f 33/240/240 31/220/220 65/219/219
f 45/226/226 47/237/237 65/219/219
f 15/209/209 10/232/232 71/207/207
# 80 vertices
# 240 texture params
# 240 normals
# 192 facets

# 1 groups
